<?xml version="1.0" encoding="UTF-8" standalone="no"?>
<!DOCTYPE svg PUBLIC "-//W3C//DTD SVG 1.1//EN"
 "http://www.w3.org/Graphics/SVG/1.1/DTD/svg11.dtd">
<!-- Generated by graphviz version 12.2.1 (0)
 -->
<!-- Title: imputation::impute_chunk Pages: 1 -->
<svg width="672pt" height="1147pt"
 viewBox="0.00 0.00 672.00 1147.12" xmlns="http://www.w3.org/2000/svg" xmlns:xlink="http://www.w3.org/1999/xlink">
<g id="graph0" class="graph" transform="scale(1 1) rotate(0) translate(4 1143.12)">
<title>imputation::impute_chunk</title>
<!-- Node1 -->
<g id="Node000001" class="node">
<title>Node1</title>
<g id="a_Node000001"><a xlink:title="Perform genotype imputation for a given genomic region.">
<polygon fill="#999999" stroke="#666666" points="109.75,-525.12 0,-525.12 0,-491.62 109.75,-491.62 109.75,-525.12"/>
<text text-anchor="start" x="8" y="-511.62" font-family="Helvetica,sans-Serif" font-size="10.00">imputation::impute</text>
<text text-anchor="middle" x="54.88" y="-498.88" font-family="Helvetica,sans-Serif" font-size="10.00">_chunk</text>
</a>
</g>
</g>
<!-- Node2 -->
<g id="Node000002" class="node">
<title>Node2</title>
<g id="a_Node000002"><a xlink:href="classprog__args.html#af337ad646a3d7862fb4c78bcaf1fa33b" target="_top" xlink:title=" ">
<polygon fill="white" stroke="#666666" points="279.88,-1039.12 164.88,-1039.12 164.88,-1005.62 279.88,-1005.62 279.88,-1039.12"/>
<text text-anchor="start" x="172.88" y="-1025.62" font-family="Helvetica,sans-Serif" font-size="10.00">prog_args::all_typed</text>
<text text-anchor="middle" x="222.38" y="-1012.88" font-family="Helvetica,sans-Serif" font-size="10.00">_sites</text>
</a>
</g>
</g>
<!-- Node1&#45;&gt;Node2 -->
<g id="edge1_Node000001_Node000002" class="edge">
<title>Node1&#45;&gt;Node2</title>
<g id="a_edge1_Node000001_Node000002"><a xlink:title=" ">
<path fill="none" stroke="#63b8ff" d="M56.76,-525.39C61.1,-603.05 82.65,-923.1 145.75,-996.38 148.49,-999.56 151.65,-1002.36 155.07,-1004.81"/>
<polygon fill="#63b8ff" stroke="#63b8ff" points="153.01,-1007.65 163.39,-1009.76 156.59,-1001.64 153.01,-1007.65"/>
</a>
</g>
</g>
<!-- Node3 -->
<g id="Node000003" class="node">
<title>Node3</title>
<g id="a_Node000003"><a xlink:href="classreduced__haplotypes.html#af5b7d98d7d55483c034f7de8762b6c07" target="_top" xlink:title="Accesses the stored haplotype blocks.">
<polygon fill="white" stroke="#666666" points="471.38,-1139.12 357.12,-1139.12 357.12,-1105.62 471.38,-1105.62 471.38,-1139.12"/>
<text text-anchor="start" x="365.12" y="-1125.62" font-family="Helvetica,sans-Serif" font-size="10.00">reduced_haplotypes</text>
<text text-anchor="middle" x="414.25" y="-1112.88" font-family="Helvetica,sans-Serif" font-size="10.00">::blocks</text>
</a>
</g>
</g>
<!-- Node1&#45;&gt;Node3 -->
<g id="edge2_Node000001_Node000003" class="edge">
<title>Node1&#45;&gt;Node3</title>
<g id="a_edge2_Node000001_Node000003"><a xlink:title=" ">
<path fill="none" stroke="#63b8ff" d="M57.21,-525.16C63.12,-595.07 89.11,-862.11 145.75,-920.38 194.66,-970.69 249.08,-909.06 299,-958.38 344.09,-1002.92 291.67,-1050.11 335,-1096.38 338.51,-1100.12 342.57,-1103.33 346.95,-1106.07"/>
<polygon fill="#63b8ff" stroke="#63b8ff" points="345.18,-1109.09 355.66,-1110.67 348.45,-1102.9 345.18,-1109.09"/>
</a>
</g>
</g>
<!-- Node4 -->
<g id="Node000004" class="node">
<title>Node4</title>
<g id="a_Node000004"><a xlink:href="classprog__args.html#a2c0018b6246f89475a459250b1c9cff0" target="_top" xlink:title=" ">
<polygon fill="white" stroke="#666666" points="292.25,-911.75 152.5,-911.75 152.5,-891 292.25,-891 292.25,-911.75"/>
<text text-anchor="middle" x="222.38" y="-898.25" font-family="Helvetica,sans-Serif" font-size="10.00">prog_args::emp_out_path</text>
</a>
</g>
</g>
<!-- Node1&#45;&gt;Node4 -->
<g id="edge3_Node000001_Node000004" class="edge">
<title>Node1&#45;&gt;Node4</title>
<g id="a_edge3_Node000001_Node000004"><a xlink:title=" ">
<path fill="none" stroke="#63b8ff" d="M57.67,-525.32C64.97,-591.17 94.52,-829 145.75,-881.38 146.76,-882.41 147.83,-883.4 148.93,-884.33"/>
<polygon fill="#63b8ff" stroke="#63b8ff" points="146.62,-887 156.85,-889.74 150.56,-881.21 146.62,-887"/>
</a>
</g>
</g>
<!-- Node5 -->
<g id="Node000005" class="node">
<title>Node5</title>
<g id="a_Node000005"><a xlink:href="classprog__args.html#ad3dd706e8bd2cea5a1b413ef35df5f18" target="_top" xlink:title=" ">
<polygon fill="white" stroke="#666666" points="287.38,-872.75 157.38,-872.75 157.38,-852 287.38,-852 287.38,-872.75"/>
<text text-anchor="middle" x="222.38" y="-859.25" font-family="Helvetica,sans-Serif" font-size="10.00">prog_args::error_param</text>
</a>
</g>
</g>
<!-- Node1&#45;&gt;Node5 -->
<g id="edge4_Node000001_Node000005" class="edge">
<title>Node1&#45;&gt;Node5</title>
<g id="a_edge4_Node000001_Node000005"><a xlink:title=" ">
<path fill="none" stroke="#63b8ff" d="M58.14,-525.28C66.69,-586.78 98.97,-797.34 145.75,-843.38 146.49,-844.1 147.25,-844.8 148.03,-845.48"/>
<polygon fill="#63b8ff" stroke="#63b8ff" points="145.69,-848.11 155.91,-850.91 149.67,-842.35 145.69,-848.11"/>
</a>
</g>
</g>
<!-- Node6 -->
<g id="Node000006" class="node">
<title>Node6</title>
<g id="a_Node000006"><a xlink:href="classprog__args.html#ae4e9c066867a650bc4a39d81bc5e93b2" target="_top" xlink:title=" ">
<polygon fill="white" stroke="#666666" points="277.25,-834.12 167.5,-834.12 167.5,-800.62 277.25,-800.62 277.25,-834.12"/>
<text text-anchor="start" x="175.5" y="-820.62" font-family="Helvetica,sans-Serif" font-size="10.00">prog_args::fail_min</text>
<text text-anchor="middle" x="222.38" y="-807.88" font-family="Helvetica,sans-Serif" font-size="10.00">_ratio</text>
</a>
</g>
</g>
<!-- Node1&#45;&gt;Node6 -->
<g id="edge5_Node000001_Node000006" class="edge">
<title>Node1&#45;&gt;Node6</title>
<g id="a_edge5_Node000001_Node000006"><a xlink:title=" ">
<path fill="none" stroke="#63b8ff" d="M56.22,-525.35C58.15,-573.78 70.29,-714.11 145.75,-791.38 149.13,-794.84 153,-797.84 157.15,-800.44"/>
<polygon fill="#63b8ff" stroke="#63b8ff" points="155.46,-803.51 165.93,-805.11 158.74,-797.33 155.46,-803.51"/>
</a>
</g>
</g>
<!-- Node7 -->
<g id="Node000007" class="node">
<title>Node7</title>
<g id="a_Node000007"><a xlink:href="classfull__dosages__results.html#a1a0630a02a40f5a515d3fcfd72940668" target="_top" xlink:title="Fills all dosage matrices with the end&#45;of&#45;vector sentinel value.">
<polygon fill="white" stroke="#666666" points="280.25,-782.12 164.5,-782.12 164.5,-748.62 280.25,-748.62 280.25,-782.12"/>
<text text-anchor="start" x="172.5" y="-768.62" font-family="Helvetica,sans-Serif" font-size="10.00">full_dosages_results</text>
<text text-anchor="middle" x="222.38" y="-755.88" font-family="Helvetica,sans-Serif" font-size="10.00">::fill_eov</text>
</a>
</g>
</g>
<!-- Node1&#45;&gt;Node7 -->
<g id="edge6_Node000001_Node000007" class="edge">
<title>Node1&#45;&gt;Node7</title>
<g id="a_edge6_Node000001_Node000007"><a xlink:title=" ">
<path fill="none" stroke="#63b8ff" d="M57.66,-525.57C62.96,-567.98 82.45,-678.55 145.75,-739.38 148.4,-741.92 151.32,-744.22 154.41,-746.3"/>
<polygon fill="#63b8ff" stroke="#63b8ff" points="152.41,-749.19 162.83,-751.12 155.89,-743.11 152.41,-749.19"/>
</a>
</g>
</g>
<!-- Node8 -->
<g id="Node000008" class="node">
<title>Node8</title>
<g id="a_Node000008"><a xlink:href="input__prep_8cpp.html#a3fba53d7d33e4a0f719c8683dc761bff" target="_top" xlink:title="Generates reverse mapping tables for reduced haplotype blocks.">
<polygon fill="white" stroke="#666666" points="289.25,-987.75 155.5,-987.75 155.5,-967 289.25,-967 289.25,-987.75"/>
<text text-anchor="middle" x="222.38" y="-974.25" font-family="Helvetica,sans-Serif" font-size="10.00">generate_reverse_maps</text>
</a>
</g>
</g>
<!-- Node1&#45;&gt;Node8 -->
<g id="edge7_Node000001_Node000008" class="edge">
<title>Node1&#45;&gt;Node8</title>
<g id="a_edge7_Node000001_Node000008"><a xlink:title=" ">
<path fill="none" stroke="#63b8ff" d="M57.04,-525.39C62.42,-598.84 87.05,-887.97 145.75,-953.38 148.28,-956.19 151.14,-958.68 154.23,-960.88"/>
<polygon fill="#63b8ff" stroke="#63b8ff" points="152.38,-963.86 162.77,-965.89 155.91,-957.81 152.38,-963.86"/>
</a>
</g>
</g>
<!-- Node9 -->
<g id="Node000009" class="node">
<title>Node9</title>
<g id="a_Node000009"><a xlink:href="input__prep_8cpp.html#a31b6160b69f849225374f36e12dab454" target="_top" xlink:title="Load and process reference haplotypes from an MVCF file.">
<polygon fill="white" stroke="#666666" points="296.38,-730.75 148.38,-730.75 148.38,-710 296.38,-710 296.38,-730.75"/>
<text text-anchor="middle" x="222.38" y="-717.25" font-family="Helvetica,sans-Serif" font-size="10.00">load_reference_haplotypes</text>
</a>
</g>
</g>
<!-- Node1&#45;&gt;Node9 -->
<g id="edge9_Node000001_Node000009" class="edge">
<title>Node1&#45;&gt;Node9</title>
<g id="a_edge9_Node000001_Node000009"><a xlink:title=" ">
<path fill="none" stroke="#63b8ff" d="M59.24,-525.43C67.38,-562.17 91.58,-649.24 145.75,-696.38 149.37,-699.53 153.41,-702.27 157.69,-704.65"/>
<polygon fill="#63b8ff" stroke="#63b8ff" points="156.11,-707.77 166.64,-708.92 159.13,-701.46 156.11,-707.77"/>
</a>
</g>
</g>
<!-- Node22 -->
<g id="Node000022" class="node">
<title>Node22</title>
<g id="a_Node000022"><a xlink:href="input__prep_8cpp.html#a9de162b6e2c02f48cc2818b71cbf6f4c" target="_top" xlink:title="Load haplotypes from a target file for a given genomic region.">
<polygon fill="white" stroke="#666666" points="287.75,-602.75 157,-602.75 157,-582 287.75,-582 287.75,-602.75"/>
<text text-anchor="middle" x="222.38" y="-589.25" font-family="Helvetica,sans-Serif" font-size="10.00">load_target_haplotypes</text>
</a>
</g>
</g>
<!-- Node1&#45;&gt;Node22 -->
<g id="edge24_Node000001_Node000022" class="edge">
<title>Node1&#45;&gt;Node22</title>
<g id="a_edge24_Node000001_Node000022"><a xlink:title=" ">
<path fill="none" stroke="#63b8ff" d="M75.27,-525.36C92.65,-539.76 119.39,-560.01 145.75,-572.38 150.23,-574.48 154.96,-576.38 159.79,-578.11"/>
<polygon fill="#63b8ff" stroke="#63b8ff" points="158.41,-581.34 169.01,-581.14 160.6,-574.69 158.41,-581.34"/>
</a>
</g>
</g>
<!-- Node25 -->
<g id="Node000025" class="node">
<title>Node25</title>
<g id="a_Node000025"><a xlink:href="classprog__args.html#a76cec9fefd7f9c262e6885fb2a324578" target="_top" xlink:title=" ">
<polygon fill="white" stroke="#666666" points="281.75,-563.75 163,-563.75 163,-543 281.75,-543 281.75,-563.75"/>
<text text-anchor="middle" x="222.38" y="-550.25" font-family="Helvetica,sans-Serif" font-size="10.00">prog_args::map_path</text>
</a>
</g>
</g>
<!-- Node1&#45;&gt;Node25 -->
<g id="edge27_Node000001_Node000025" class="edge">
<title>Node1&#45;&gt;Node25</title>
<g id="a_edge27_Node000001_Node000025"><a xlink:title=" ">
<path fill="none" stroke="#63b8ff" d="M109.97,-524.36C121.74,-527.74 134.15,-531.24 145.75,-534.38 152.44,-536.18 159.48,-538.03 166.46,-539.82"/>
<polygon fill="#63b8ff" stroke="#63b8ff" points="165.3,-543.14 175.85,-542.21 167.02,-536.35 165.3,-543.14"/>
</a>
</g>
</g>
<!-- Node26 -->
<g id="Node000026" class="node">
<title>Node26</title>
<g id="a_Node000026"><a xlink:href="classdosage__writer.html#ad377d2146427b208430b2fff795b1643" target="_top" xlink:title="Merge temporary HDS and empirical dosage files into the final output.">
<polygon fill="white" stroke="#666666" points="283.62,-525.12 161.12,-525.12 161.12,-491.62 283.62,-491.62 283.62,-525.12"/>
<text text-anchor="start" x="169.12" y="-511.62" font-family="Helvetica,sans-Serif" font-size="10.00">dosage_writer::merge</text>
<text text-anchor="middle" x="222.38" y="-498.88" font-family="Helvetica,sans-Serif" font-size="10.00">_temp_files</text>
</a>
</g>
</g>
<!-- Node1&#45;&gt;Node26 -->
<g id="edge28_Node000001_Node000026" class="edge">
<title>Node1&#45;&gt;Node26</title>
<g id="a_edge28_Node000001_Node000026"><a xlink:title=" ">
<path fill="none" stroke="#63b8ff" d="M110.07,-508.38C122.61,-508.38 136.15,-508.38 149.32,-508.38"/>
<polygon fill="#63b8ff" stroke="#63b8ff" points="149.25,-511.88 159.25,-508.38 149.25,-504.88 149.25,-511.88"/>
</a>
</g>
</g>
<!-- Node27 -->
<g id="Node000027" class="node">
<title>Node27</title>
<g id="a_Node000027"><a xlink:href="classprog__args.html#aef22532f4a0cf1cd216793494054ba58" target="_top" xlink:title=" ">
<polygon fill="white" stroke="#666666" points="280.62,-473.75 164.12,-473.75 164.12,-453 280.62,-453 280.62,-473.75"/>
<text text-anchor="middle" x="222.38" y="-460.25" font-family="Helvetica,sans-Serif" font-size="10.00">prog_args::min_ratio</text>
</a>
</g>
</g>
<!-- Node1&#45;&gt;Node27 -->
<g id="edge29_Node000001_Node000027" class="edge">
<title>Node1&#45;&gt;Node27</title>
<g id="a_edge29_Node000001_Node000027"><a xlink:title=" ">
<path fill="none" stroke="#63b8ff" d="M109.97,-492.39C121.74,-489.01 134.15,-485.51 145.75,-482.38 152.44,-480.57 159.48,-478.72 166.46,-476.93"/>
<polygon fill="#63b8ff" stroke="#63b8ff" points="167.02,-480.4 175.85,-474.54 165.3,-473.61 167.02,-480.4"/>
</a>
</g>
</g>
<!-- Node28 -->
<g id="Node000028" class="node">
<title>Node28</title>
<g id="a_Node000028"><a xlink:href="classprog__args.html#ac7d0ff3282dfcc502a499cce4deb599f" target="_top" xlink:title=" ">
<polygon fill="white" stroke="#666666" points="284.75,-434.75 160,-434.75 160,-414 284.75,-414 284.75,-434.75"/>
<text text-anchor="middle" x="222.38" y="-421.25" font-family="Helvetica,sans-Serif" font-size="10.00">prog_args::min_recom</text>
</a>
</g>
</g>
<!-- Node1&#45;&gt;Node28 -->
<g id="edge30_Node000001_Node000028" class="edge">
<title>Node1&#45;&gt;Node28</title>
<g id="a_edge30_Node000001_Node000028"><a xlink:title=" ">
<path fill="none" stroke="#63b8ff" d="M75.27,-491.39C92.65,-476.99 119.39,-456.74 145.75,-444.38 150.23,-442.27 154.96,-440.37 159.79,-438.64"/>
<polygon fill="#63b8ff" stroke="#63b8ff" points="160.6,-442.06 169.01,-435.61 158.41,-435.41 160.6,-442.06"/>
</a>
</g>
</g>
<!-- Node29 -->
<g id="Node000029" class="node">
<title>Node29</title>
<g id="a_Node000029"><a xlink:href="classprog__args.html#a119e276346027c055afaa0eb62a635ed" target="_top" xlink:title=" ">
<polygon fill="white" stroke="#666666" points="299,-395.75 145.75,-395.75 145.75,-375 299,-375 299,-395.75"/>
<text text-anchor="middle" x="222.38" y="-382.25" font-family="Helvetica,sans-Serif" font-size="10.00">prog_args::out_compression</text>
</a>
</g>
</g>
<!-- Node1&#45;&gt;Node29 -->
<g id="edge31_Node000001_Node000029" class="edge">
<title>Node1&#45;&gt;Node29</title>
<g id="a_edge31_Node000001_Node000029"><a xlink:title=" ">
<path fill="none" stroke="#63b8ff" d="M66.08,-491.34C80.76,-468.3 110.07,-427.54 145.75,-405.38 148.66,-403.57 151.72,-401.93 154.89,-400.43"/>
<polygon fill="#63b8ff" stroke="#63b8ff" points="155.97,-403.77 163.87,-396.71 153.29,-397.3 155.97,-403.77"/>
</a>
</g>
</g>
<!-- Node30 -->
<g id="Node000030" class="node">
<title>Node30</title>
<g id="a_Node000030"><a xlink:href="classprog__args.html#ae4494f3f719693d6ff94039793330930" target="_top" xlink:title=" ">
<polygon fill="white" stroke="#666666" points="275.75,-356.75 169,-356.75 169,-336 275.75,-336 275.75,-356.75"/>
<text text-anchor="middle" x="222.38" y="-343.25" font-family="Helvetica,sans-Serif" font-size="10.00">prog_args::overlap</text>
</a>
</g>
</g>
<!-- Node1&#45;&gt;Node30 -->
<g id="edge32_Node000001_Node000030" class="edge">
<title>Node1&#45;&gt;Node30</title>
<g id="a_edge32_Node000001_Node000030"><a xlink:title=" ">
<path fill="none" stroke="#63b8ff" d="M61.8,-491.46C73.19,-461.49 101.04,-399.15 145.75,-366.38 149.57,-363.57 153.75,-361.17 158.13,-359.1"/>
<polygon fill="#63b8ff" stroke="#63b8ff" points="159.25,-362.42 167.21,-355.42 156.62,-355.93 159.25,-362.42"/>
</a>
</g>
</g>
<!-- Node31 -->
<g id="Node000031" class="node">
<title>Node31</title>
<g id="a_Node000031"><a xlink:href="classprog__args.html#a3914077859e76fa0bcea4b6ce66cd110" target="_top" xlink:title=" ">
<polygon fill="white" stroke="#666666" points="277.62,-317.75 167.12,-317.75 167.12,-297 277.62,-297 277.62,-317.75"/>
<text text-anchor="middle" x="222.38" y="-304.25" font-family="Helvetica,sans-Serif" font-size="10.00">prog_args::ref_path</text>
</a>
</g>
</g>
<!-- Node1&#45;&gt;Node31 -->
<g id="edge33_Node000001_Node000031" class="edge">
<title>Node1&#45;&gt;Node31</title>
<g id="a_edge33_Node000001_Node000031"><a xlink:title=" ">
<path fill="none" stroke="#63b8ff" d="M59.4,-491.2C67.72,-455.12 92.06,-371.17 145.75,-327.38 149.05,-324.68 152.67,-322.35 156.49,-320.33"/>
<polygon fill="#63b8ff" stroke="#63b8ff" points="157.88,-323.55 165.6,-316.29 155.04,-317.15 157.88,-323.55"/>
</a>
</g>
</g>
<!-- Node32 -->
<g id="Node000032" class="node">
<title>Node32</title>
<g id="a_Node000032"><a xlink:href="classfull__dosages__results.html#af032e20785753ebc3d769f95af93c811" target="_top" xlink:title="Resizes the dosage matrices to the specified dimensions.">
<polygon fill="white" stroke="#666666" points="280.25,-279.12 164.5,-279.12 164.5,-245.62 280.25,-245.62 280.25,-279.12"/>
<text text-anchor="start" x="172.5" y="-265.62" font-family="Helvetica,sans-Serif" font-size="10.00">full_dosages_results</text>
<text text-anchor="middle" x="222.38" y="-252.88" font-family="Helvetica,sans-Serif" font-size="10.00">::resize</text>
</a>
</g>
</g>
<!-- Node1&#45;&gt;Node32 -->
<g id="edge34_Node000001_Node000032" class="edge">
<title>Node1&#45;&gt;Node32</title>
<g id="a_edge34_Node000001_Node000032"><a xlink:title=" ">
<path fill="none" stroke="#63b8ff" d="M58.01,-491.39C64.03,-450.53 84.87,-345.9 145.75,-288.38 148.42,-285.85 151.36,-283.57 154.46,-281.5"/>
<polygon fill="#63b8ff" stroke="#63b8ff" points="155.94,-284.69 162.91,-276.71 152.48,-278.6 155.94,-284.69"/>
</a>
</g>
</g>
<!-- Node33 -->
<g id="Node000033" class="node">
<title>Node33</title>
<g id="a_Node000033"><a xlink:href="classprog__args.html#a8b2d7753ed9ac736a0f7f8189c29cff3" target="_top" xlink:title=" ">
<polygon fill="white" stroke="#666666" points="285.12,-227.75 159.62,-227.75 159.62,-207 285.12,-207 285.12,-227.75"/>
<text text-anchor="middle" x="222.38" y="-214.25" font-family="Helvetica,sans-Serif" font-size="10.00">prog_args::sample_ids</text>
</a>
</g>
</g>
<!-- Node1&#45;&gt;Node33 -->
<g id="edge35_Node000001_Node000033" class="edge">
<title>Node1&#45;&gt;Node33</title>
<g id="a_edge35_Node000001_Node000033"><a xlink:title=" ">
<path fill="none" stroke="#63b8ff" d="M56.15,-491.39C57.89,-443.65 69.62,-307.14 145.75,-236.38 146.99,-235.22 148.29,-234.14 149.64,-233.12"/>
<polygon fill="#63b8ff" stroke="#63b8ff" points="151.2,-236.26 157.89,-228.05 147.54,-230.3 151.2,-236.26"/>
</a>
</g>
</g>
<!-- Node34 -->
<g id="Node000034" class="node">
<title>Node34</title>
<g id="a_Node000034"><a xlink:href="input__prep_8cpp.html#a361a1a76ebbe3b263e3163760007fa66" target="_top" xlink:title="Separates target&#45;only variants from those found in the reference panel.">
<polygon fill="white" stroke="#666666" points="282.12,-189.12 162.62,-189.12 162.62,-155.62 282.12,-155.62 282.12,-189.12"/>
<text text-anchor="start" x="170.62" y="-175.62" font-family="Helvetica,sans-Serif" font-size="10.00">separate_target_only</text>
<text text-anchor="middle" x="222.38" y="-162.88" font-family="Helvetica,sans-Serif" font-size="10.00">_variants</text>
</a>
</g>
</g>
<!-- Node1&#45;&gt;Node34 -->
<g id="edge36_Node000001_Node000034" class="edge">
<title>Node1&#45;&gt;Node34</title>
<g id="a_edge36_Node000001_Node000034"><a xlink:title=" ">
<path fill="none" stroke="#63b8ff" d="M55.67,-491.31C55.99,-439.81 64.02,-284.2 145.75,-198.38 147.88,-196.14 150.2,-194.1 152.68,-192.24"/>
<polygon fill="#63b8ff" stroke="#63b8ff" points="154.34,-195.33 160.92,-187.03 150.6,-189.41 154.34,-195.33"/>
</a>
</g>
</g>
<!-- Node35 -->
<g id="Node000035" class="node">
<title>Node35</title>
<g id="a_Node000035"><a xlink:href="classprog__args.html#aea2b5986d0836d4d2b4a192f7e8456f8" target="_top" xlink:title=" ">
<polygon fill="white" stroke="#666666" points="277.62,-137.75 167.12,-137.75 167.12,-117 277.62,-117 277.62,-137.75"/>
<text text-anchor="middle" x="222.38" y="-124.25" font-family="Helvetica,sans-Serif" font-size="10.00">prog_args::tar_path</text>
</a>
</g>
</g>
<!-- Node1&#45;&gt;Node35 -->
<g id="edge37_Node000001_Node000035" class="edge">
<title>Node1&#45;&gt;Node35</title>
<g id="a_edge37_Node000001_Node000035"><a xlink:title=" ">
<path fill="none" stroke="#63b8ff" d="M57.77,-491.47C65.37,-426.86 95.57,-196.7 145.75,-146.38 148.94,-143.18 152.58,-140.49 156.5,-138.24"/>
<polygon fill="#63b8ff" stroke="#63b8ff" points="157.77,-141.51 165.36,-134.11 154.82,-135.16 157.77,-141.51"/>
</a>
</g>
</g>
<!-- Node36 -->
<g id="Node000036" class="node">
<title>Node36</title>
<g id="a_Node000036"><a xlink:href="classprog__args.html#aec35cf3098c66c510ba48b452d63d1dd" target="_top" xlink:title=" ">
<polygon fill="white" stroke="#666666" points="287,-98.75 157.75,-98.75 157.75,-78 287,-78 287,-98.75"/>
<text text-anchor="middle" x="222.38" y="-85.25" font-family="Helvetica,sans-Serif" font-size="10.00">prog_args::temp_buffer</text>
</a>
</g>
</g>
<!-- Node1&#45;&gt;Node36 -->
<g id="edge38_Node000001_Node000036" class="edge">
<title>Node1&#45;&gt;Node36</title>
<g id="a_edge38_Node000001_Node000036"><a xlink:title=" ">
<path fill="none" stroke="#63b8ff" d="M57.4,-491.17C63.85,-421.97 91.19,-165.02 145.75,-108.38 146.76,-107.33 147.81,-106.34 148.91,-105.39"/>
<polygon fill="#63b8ff" stroke="#63b8ff" points="150.55,-108.51 156.8,-99.96 146.58,-102.75 150.55,-108.51"/>
</a>
</g>
</g>
<!-- Node37 -->
<g id="Node000037" class="node">
<title>Node37</title>
<g id="a_Node000037"><a xlink:href="classprog__args.html#a228b51d042d8d04875d7fd9ddcdcbb7b" target="_top" xlink:title=" ">
<polygon fill="white" stroke="#666666" points="286.62,-59.75 158.12,-59.75 158.12,-39 286.62,-39 286.62,-59.75"/>
<text text-anchor="middle" x="222.38" y="-46.25" font-family="Helvetica,sans-Serif" font-size="10.00">prog_args::temp_prefix</text>
</a>
</g>
</g>
<!-- Node1&#45;&gt;Node37 -->
<g id="edge39_Node000001_Node000037" class="edge">
<title>Node1&#45;&gt;Node37</title>
<g id="a_edge39_Node000001_Node000037"><a xlink:title=" ">
<path fill="none" stroke="#63b8ff" d="M57,-491.51C62.19,-418.74 86.17,-132.42 145.75,-69.38 146.75,-68.32 147.79,-67.32 148.88,-66.37"/>
<polygon fill="#63b8ff" stroke="#63b8ff" points="150.53,-69.49 156.72,-60.89 146.52,-63.75 150.53,-69.49"/>
</a>
</g>
</g>
<!-- Node38 -->
<g id="Node000038" class="node">
<title>Node38</title>
<g id="a_Node000038"><a xlink:href="classprog__args.html#a2a13d6fc48e7f2a922d5ecc92ec522f0" target="_top" xlink:title=" ">
<polygon fill="white" stroke="#666666" points="275.75,-20.75 169,-20.75 169,0 275.75,0 275.75,-20.75"/>
<text text-anchor="middle" x="222.38" y="-7.25" font-family="Helvetica,sans-Serif" font-size="10.00">prog_args::threads</text>
</a>
</g>
</g>
<!-- Node1&#45;&gt;Node38 -->
<g id="edge40_Node000001_Node000038" class="edge">
<title>Node1&#45;&gt;Node38</title>
<g id="a_edge40_Node000001_Node000038"><a xlink:title=" ">
<path fill="none" stroke="#63b8ff" d="M56.7,-491.34C60.79,-414.36 81.28,-99.71 145.75,-30.38 149.43,-26.42 153.79,-23.21 158.53,-20.61"/>
<polygon fill="#63b8ff" stroke="#63b8ff" points="159.61,-23.96 167.33,-16.7 156.77,-17.56 159.61,-23.96"/>
</a>
</g>
</g>
<!-- Node39 -->
<g id="Node000039" class="node">
<title>Node39</title>
<g id="a_Node000039"><a xlink:href="classreduced__haplotypes.html#a5b11aec30fdec4903d307720f3c378dd" target="_top" xlink:title="Returns the total number of variants across all blocks.">
<polygon fill="white" stroke="#666666" points="471.38,-595.12 357.12,-595.12 357.12,-561.62 471.38,-561.62 471.38,-595.12"/>
<text text-anchor="start" x="365.12" y="-581.62" font-family="Helvetica,sans-Serif" font-size="10.00">reduced_haplotypes</text>
<text text-anchor="middle" x="414.25" y="-568.88" font-family="Helvetica,sans-Serif" font-size="10.00">::variant_size</text>
</a>
</g>
</g>
<!-- Node1&#45;&gt;Node39 -->
<g id="edge41_Node000001_Node000039" class="edge">
<title>Node1&#45;&gt;Node39</title>
<g id="a_edge41_Node000001_Node000039"><a xlink:title=" ">
<path fill="none" stroke="#63b8ff" d="M59.8,-525.43C68.56,-559.01 93.19,-633.1 145.75,-663.38 204.77,-697.38 239.61,-696.71 299,-663.38 325.79,-648.34 310.96,-623.5 335,-604.38 338.66,-601.47 342.65,-598.88 346.84,-596.58"/>
<polygon fill="#63b8ff" stroke="#63b8ff" points="348.06,-599.87 355.53,-592.36 345,-593.57 348.06,-599.87"/>
</a>
</g>
</g>
<!-- Node40 -->
<g id="Node000040" class="node">
<title>Node40</title>
<g id="a_Node000040"><a xlink:href="classdosage__writer.html#af4eafee4fde6dbc3fdd84f2142a04521" target="_top" xlink:title="Write imputed dosages and observed genotypes to output files.">
<polygon fill="white" stroke="#666666" points="280.25,-654.12 164.5,-654.12 164.5,-620.62 280.25,-620.62 280.25,-654.12"/>
<text text-anchor="start" x="172.5" y="-640.62" font-family="Helvetica,sans-Serif" font-size="10.00">dosage_writer::write</text>
<text text-anchor="middle" x="222.38" y="-627.88" font-family="Helvetica,sans-Serif" font-size="10.00">_dosages</text>
</a>
</g>
</g>
<!-- Node1&#45;&gt;Node40 -->
<g id="edge42_Node000001_Node000040" class="edge">
<title>Node1&#45;&gt;Node40</title>
<g id="a_edge42_Node000001_Node000040"><a xlink:title=" ">
<path fill="none" stroke="#63b8ff" d="M66.57,-525.43C81.61,-548.12 111.09,-588.06 145.75,-611.38 148.31,-613.1 150.99,-614.71 153.76,-616.23"/>
<polygon fill="#63b8ff" stroke="#63b8ff" points="152.2,-619.37 162.71,-620.65 155.29,-613.09 152.2,-619.37"/>
</a>
</g>
</g>
<!-- Node8&#45;&gt;Node3 -->
<g id="edge8_Node000008_Node000003" class="edge">
<title>Node8&#45;&gt;Node3</title>
<g id="a_edge8_Node000008_Node000003"><a xlink:title=" ">
<path fill="none" stroke="#63b8ff" d="M286.93,-988.11C291.29,-990.38 295.39,-993.1 299,-996.38 334.02,-1028.08 301.19,-1063.39 335,-1096.38 338.46,-1099.75 342.36,-1102.68 346.54,-1105.24"/>
<polygon fill="#63b8ff" stroke="#63b8ff" points="344.87,-1108.31 355.35,-1109.84 348.1,-1102.11 344.87,-1108.31"/>
</a>
</g>
</g>
<!-- Node10 -->
<g id="Node000010" class="node">
<title>Node10</title>
<g id="a_Node000010"><a xlink:href="classreduced__haplotypes.html#abe0143dde9fc1721c441e0c23e739be5" target="_top" xlink:title="Appends a new haplotype block to the collection of reduced haplotype blocks.">
<polygon fill="white" stroke="#666666" points="471.38,-893.12 357.12,-893.12 357.12,-859.62 471.38,-859.62 471.38,-893.12"/>
<text text-anchor="start" x="365.12" y="-879.62" font-family="Helvetica,sans-Serif" font-size="10.00">reduced_haplotypes</text>
<text text-anchor="middle" x="414.25" y="-866.88" font-family="Helvetica,sans-Serif" font-size="10.00">::append_block</text>
</a>
</g>
</g>
<!-- Node9&#45;&gt;Node10 -->
<g id="edge10_Node000009_Node000010" class="edge">
<title>Node9&#45;&gt;Node10</title>
<g id="a_edge10_Node000009_Node000010"><a xlink:title=" ">
<path fill="none" stroke="#63b8ff" d="M287.41,-731.17C291.61,-733.43 295.54,-736.14 299,-739.38 336.89,-774.79 298.46,-813.57 335,-850.38 338.56,-853.96 342.62,-857.05 346.98,-859.71"/>
<polygon fill="#63b8ff" stroke="#63b8ff" points="345.09,-862.67 355.58,-864.19 348.33,-856.46 345.09,-862.67"/>
</a>
</g>
</g>
<!-- Node11 -->
<g id="Node000011" class="node">
<title>Node11</title>
<g id="a_Node000011"><a xlink:href="classunique__haplotype__block.html#ad08c799f3eb6ffe2c7c5cad53f6381a9" target="_top" xlink:title="Get the list of compressed reference variants in this block.">
<polygon fill="white" stroke="#666666" points="664,-915.12 529.5,-915.12 529.5,-881.62 664,-881.62 664,-915.12"/>
<text text-anchor="start" x="537.5" y="-901.62" font-family="Helvetica,sans-Serif" font-size="10.00">unique_haplotype_block</text>
<text text-anchor="middle" x="596.75" y="-888.88" font-family="Helvetica,sans-Serif" font-size="10.00">::variants</text>
</a>
</g>
</g>
<!-- Node9&#45;&gt;Node11 -->
<g id="edge23_Node000009_Node000011" class="edge">
<title>Node9&#45;&gt;Node11</title>
<g id="a_edge23_Node000009_Node000011"><a xlink:title=" ">
<path fill="none" stroke="#63b8ff" d="M288.47,-731.22C292.32,-733.48 295.89,-736.17 299,-739.38 350.7,-792.58 277.16,-855.91 335,-902.38 391.54,-947.79 479.41,-934.81 537.26,-918.73"/>
<polygon fill="#63b8ff" stroke="#63b8ff" points="537.98,-922.16 546.61,-916.01 536.03,-915.44 537.98,-922.16"/>
</a>
</g>
</g>
<!-- Node12 -->
<g id="Node000012" class="node">
<title>Node12</title>
<g id="a_Node000012"><a xlink:href="classrecombination.html#a7c20c24aa59851417602f61648e686de" target="_top" xlink:title="Convert genetic distance to switch probability (default decay rate).">
<polygon fill="white" stroke="#666666" points="475.5,-841.12 353,-841.12 353,-807.62 475.5,-807.62 475.5,-841.12"/>
<text text-anchor="start" x="361" y="-827.62" font-family="Helvetica,sans-Serif" font-size="10.00">recombination::cm_to</text>
<text text-anchor="middle" x="414.25" y="-814.88" font-family="Helvetica,sans-Serif" font-size="10.00">_switch_prob</text>
</a>
</g>
</g>
<!-- Node9&#45;&gt;Node12 -->
<g id="edge12_Node000009_Node000012" class="edge">
<title>Node9&#45;&gt;Node12</title>
<g id="a_edge12_Node000009_Node000012"><a xlink:title=" ">
<path fill="none" stroke="#63b8ff" d="M284.34,-731.11C289.55,-733.36 294.53,-736.08 299,-739.38 323.74,-757.58 310.96,-779.25 335,-798.38 337.52,-800.38 340.2,-802.23 343,-803.95"/>
<polygon fill="#63b8ff" stroke="#63b8ff" points="341.07,-806.88 351.54,-808.53 344.38,-800.72 341.07,-806.88"/>
</a>
</g>
</g>
<!-- Node13 -->
<g id="Node000013" class="node">
<title>Node13</title>
<g id="a_Node000013"><a xlink:href="classreduced__haplotypes.html#a438770877030eb2d23369ef1ed130e16" target="_top" xlink:title="Compresses a variant into the current reduced haplotype block.">
<polygon fill="white" stroke="#666666" points="471.38,-789.12 357.12,-789.12 357.12,-755.62 471.38,-755.62 471.38,-789.12"/>
<text text-anchor="start" x="365.12" y="-775.62" font-family="Helvetica,sans-Serif" font-size="10.00">reduced_haplotypes</text>
<text text-anchor="middle" x="414.25" y="-762.88" font-family="Helvetica,sans-Serif" font-size="10.00">::compress_variant</text>
</a>
</g>
</g>
<!-- Node9&#45;&gt;Node13 -->
<g id="edge13_Node000009_Node000013" class="edge">
<title>Node9&#45;&gt;Node13</title>
<g id="a_edge13_Node000009_Node000013"><a xlink:title=" ">
<path fill="none" stroke="#63b8ff" d="M267.43,-731.17C277.8,-733.78 288.81,-736.62 299,-739.38 314.16,-743.47 330.39,-748.04 345.72,-752.45"/>
<polygon fill="#63b8ff" stroke="#63b8ff" points="344.67,-755.78 355.25,-755.2 346.61,-749.06 344.67,-755.78"/>
</a>
</g>
</g>
<!-- Node14 -->
<g id="Node000014" class="node">
<title>Node14</title>
<g id="a_Node000014"><a xlink:href="classunique__haplotype__block.html#ada3ab17532ea5baefd80fe72307846f2" target="_top" xlink:title="Deserialize a unique haplotype block from an input stream (m3vcf format).">
<polygon fill="white" stroke="#666666" points="481.5,-737.12 347,-737.12 347,-703.62 481.5,-703.62 481.5,-737.12"/>
<text text-anchor="start" x="355" y="-723.62" font-family="Helvetica,sans-Serif" font-size="10.00">unique_haplotype_block</text>
<text text-anchor="middle" x="414.25" y="-710.88" font-family="Helvetica,sans-Serif" font-size="10.00">::deserialize</text>
</a>
</g>
</g>
<!-- Node9&#45;&gt;Node14 -->
<g id="edge14_Node000009_Node000014" class="edge">
<title>Node9&#45;&gt;Node14</title>
<g id="a_edge14_Node000009_Node000014"><a xlink:title=" ">
<path fill="none" stroke="#63b8ff" d="M296.79,-720.38C309.33,-720.38 322.4,-720.38 335.07,-720.38"/>
<polygon fill="#63b8ff" stroke="#63b8ff" points="335.04,-723.88 345.04,-720.38 335.04,-716.88 335.04,-723.88"/>
</a>
</g>
</g>
<!-- Node16 -->
<g id="Node000016" class="node">
<title>Node16</title>
<g id="a_Node000016"><a xlink:href="classreduced__haplotypes.html#a84d77aa694b17ecfe412d8f4a4e1614b" target="_top" xlink:title=" ">
<polygon fill="white" stroke="#666666" points="483.38,-633.75 345.12,-633.75 345.12,-613 483.38,-613 483.38,-633.75"/>
<text text-anchor="middle" x="414.25" y="-620.25" font-family="Helvetica,sans-Serif" font-size="10.00">reduced_haplotypes::end</text>
</a>
</g>
</g>
<!-- Node9&#45;&gt;Node16 -->
<g id="edge16_Node000009_Node000016" class="edge">
<title>Node9&#45;&gt;Node16</title>
<g id="a_edge16_Node000009_Node000016"><a xlink:title=" ">
<path fill="none" stroke="#63b8ff" d="M274.11,-709.52C282.93,-706.21 291.63,-701.92 299,-696.38 322.05,-679.03 311.37,-658.91 335,-642.38 336.61,-641.25 338.29,-640.18 340.01,-639.18"/>
<polygon fill="#63b8ff" stroke="#63b8ff" points="341.53,-642.34 348.96,-634.78 338.44,-636.05 341.53,-642.34"/>
</a>
</g>
</g>
<!-- Node17 -->
<g id="Node000017" class="node">
<title>Node17</title>
<g id="a_Node000017"><a xlink:href="classgenetic__map__file.html#af9d9dec9d1657b85a7fb7d89e7be0d5b" target="_top" xlink:title="Interpolate the genetic map position (in centimorgans) for a variant.">
<polygon fill="white" stroke="#666666" points="493.5,-1087.12 335,-1087.12 335,-1053.62 493.5,-1053.62 493.5,-1087.12"/>
<text text-anchor="start" x="343" y="-1073.62" font-family="Helvetica,sans-Serif" font-size="10.00">genetic_map_file::interpolate</text>
<text text-anchor="middle" x="414.25" y="-1060.88" font-family="Helvetica,sans-Serif" font-size="10.00">_centimorgan</text>
</a>
</g>
</g>
<!-- Node9&#45;&gt;Node17 -->
<g id="edge17_Node000009_Node000017" class="edge">
<title>Node9&#45;&gt;Node17</title>
<g id="a_edge17_Node000009_Node000017"><a xlink:title=" ">
<path fill="none" stroke="#63b8ff" d="M289.18,-731.09C292.81,-733.38 296.14,-736.12 299,-739.38 389.11,-841.9 248.77,-938.56 335,-1044.38 335.34,-1044.79 335.69,-1045.2 336.04,-1045.6"/>
<polygon fill="#63b8ff" stroke="#63b8ff" points="333.45,-1047.98 343.2,-1052.13 338.16,-1042.8 333.45,-1047.98"/>
</a>
</g>
</g>
<!-- Node18 -->
<g id="Node000018" class="node">
<title>Node18</title>
<g id="a_Node000018"><a xlink:href="classunique__haplotype__block.html#ad29df3bdc6f4c36d1549f519006c9ae7" target="_top" xlink:title="Removes &quot;end&#45;of&#45;vector&quot; markers from the unique haplotype map.">
<polygon fill="white" stroke="#666666" points="481.5,-1035.12 347,-1035.12 347,-1001.62 481.5,-1001.62 481.5,-1035.12"/>
<text text-anchor="start" x="355" y="-1021.62" font-family="Helvetica,sans-Serif" font-size="10.00">unique_haplotype_block</text>
<text text-anchor="middle" x="414.25" y="-1008.88" font-family="Helvetica,sans-Serif" font-size="10.00">::remove_eov</text>
</a>
</g>
</g>
<!-- Node9&#45;&gt;Node18 -->
<g id="edge18_Node000009_Node000018" class="edge">
<title>Node9&#45;&gt;Node18</title>
<g id="a_edge18_Node000009_Node000018"><a xlink:title=" ">
<path fill="none" stroke="#63b8ff" d="M289.09,-731.16C292.75,-733.44 296.1,-736.16 299,-739.38 374.99,-823.78 262.21,-905.19 335,-992.38 335.93,-993.49 336.91,-994.55 337.93,-995.57"/>
<polygon fill="#63b8ff" stroke="#63b8ff" points="335.38,-998.01 345.35,-1001.58 339.78,-992.57 335.38,-998.01"/>
</a>
</g>
</g>
<!-- Node19 -->
<g id="Node000019" class="node">
<title>Node19</title>
<g id="a_Node000019"><a xlink:href="classunique__haplotype__block.html#aad2e7d5ff6d7e6e0860edb6521fc033c" target="_top" xlink:title="Trims variants outside a specified genomic range.">
<polygon fill="white" stroke="#666666" points="481.5,-685.12 347,-685.12 347,-651.62 481.5,-651.62 481.5,-685.12"/>
<text text-anchor="start" x="355" y="-671.62" font-family="Helvetica,sans-Serif" font-size="10.00">unique_haplotype_block</text>
<text text-anchor="middle" x="414.25" y="-658.88" font-family="Helvetica,sans-Serif" font-size="10.00">::trim</text>
</a>
</g>
</g>
<!-- Node9&#45;&gt;Node19 -->
<g id="edge19_Node000009_Node000019" class="edge">
<title>Node9&#45;&gt;Node19</title>
<g id="a_edge19_Node000009_Node000019"><a xlink:title=" ">
<path fill="none" stroke="#63b8ff" d="M262.72,-709.6C284.86,-703.54 313.24,-695.76 339.38,-688.61"/>
<polygon fill="#63b8ff" stroke="#63b8ff" points="340.23,-692 348.95,-685.98 338.38,-685.25 340.23,-692"/>
</a>
</g>
</g>
<!-- Node21 -->
<g id="Node000021" class="node">
<title>Node21</title>
<g id="a_Node000021"><a xlink:href="classunique__haplotype__block.html#a3100e7e155907f588b0cd74eac77778b" target="_top" xlink:title="Get the mapping from haplotypes to unique columns.">
<polygon fill="white" stroke="#666666" points="481.5,-983.12 347,-983.12 347,-949.62 481.5,-949.62 481.5,-983.12"/>
<text text-anchor="start" x="355" y="-969.62" font-family="Helvetica,sans-Serif" font-size="10.00">unique_haplotype_block</text>
<text text-anchor="middle" x="414.25" y="-956.88" font-family="Helvetica,sans-Serif" font-size="10.00">::unique_map</text>
</a>
</g>
</g>
<!-- Node9&#45;&gt;Node21 -->
<g id="edge22_Node000009_Node000021" class="edge">
<title>Node9&#45;&gt;Node21</title>
<g id="a_edge22_Node000009_Node000021"><a xlink:title=" ">
<path fill="none" stroke="#63b8ff" d="M288.6,-731.09C292.42,-733.38 295.94,-736.12 299,-739.38 359.58,-803.99 278.79,-866.93 335,-935.38 337.13,-937.97 339.51,-940.35 342.07,-942.53"/>
<polygon fill="#63b8ff" stroke="#63b8ff" points="340.01,-945.36 350.19,-948.32 344.08,-939.66 340.01,-945.36"/>
</a>
</g>
</g>
<!-- Node10&#45;&gt;Node11 -->
<g id="edge11_Node000010_Node000011" class="edge">
<title>Node10&#45;&gt;Node11</title>
<g id="a_edge11_Node000010_Node000011"><a xlink:title=" ">
<path fill="none" stroke="#63b8ff" d="M471.87,-883.28C486.51,-885.06 502.53,-887.01 518.05,-888.9"/>
<polygon fill="#63b8ff" stroke="#63b8ff" points="517.37,-892.35 527.72,-890.08 518.22,-885.4 517.37,-892.35"/>
</a>
</g>
</g>
<!-- Node15 -->
<g id="Node000015" class="node">
<title>Node15</title>
<g id="a_Node000015"><a xlink:href="classunique__haplotype__block.html#ad3b893b578cd0a31bad9b21fa6fee652" target="_top" xlink:title="Clears all data stored in the haplotype block.">
<polygon fill="white" stroke="#666666" points="664,-737.12 529.5,-737.12 529.5,-703.62 664,-703.62 664,-737.12"/>
<text text-anchor="start" x="537.5" y="-723.62" font-family="Helvetica,sans-Serif" font-size="10.00">unique_haplotype_block</text>
<text text-anchor="middle" x="596.75" y="-710.88" font-family="Helvetica,sans-Serif" font-size="10.00">::clear</text>
</a>
</g>
</g>
<!-- Node14&#45;&gt;Node15 -->
<g id="edge15_Node000014_Node000015" class="edge">
<title>Node14&#45;&gt;Node15</title>
<g id="a_edge15_Node000014_Node000015"><a xlink:title=" ">
<path fill="none" stroke="#63b8ff" d="M481.95,-720.38C493.59,-720.38 505.8,-720.38 517.72,-720.38"/>
<polygon fill="#63b8ff" stroke="#63b8ff" points="517.51,-723.88 527.51,-720.38 517.51,-716.88 517.51,-723.88"/>
</a>
</g>
</g>
<!-- Node19&#45;&gt;Node15 -->
<g id="edge20_Node000019_Node000015" class="edge">
<title>Node19&#45;&gt;Node15</title>
<g id="a_edge20_Node000019_Node000015"><a xlink:title=" ">
<path fill="none" stroke="#63b8ff" d="M475.1,-685.62C491.18,-690.25 508.72,-695.3 525.31,-700.08"/>
<polygon fill="#63b8ff" stroke="#63b8ff" points="524.03,-703.35 534.6,-702.76 525.96,-696.63 524.03,-703.35"/>
</a>
</g>
</g>
<!-- Node20 -->
<g id="Node000020" class="node">
<title>Node20</title>
<g id="a_Node000020"><a xlink:href="classunique__haplotype__block.html#ac6accb25615e067cd96ce3abdf82e70f" target="_top" xlink:title="Get the number of variants compressed in this block.">
<polygon fill="white" stroke="#666666" points="664,-685.12 529.5,-685.12 529.5,-651.62 664,-651.62 664,-685.12"/>
<text text-anchor="start" x="537.5" y="-671.62" font-family="Helvetica,sans-Serif" font-size="10.00">unique_haplotype_block</text>
<text text-anchor="middle" x="596.75" y="-658.88" font-family="Helvetica,sans-Serif" font-size="10.00">::variant_size</text>
</a>
</g>
</g>
<!-- Node19&#45;&gt;Node20 -->
<g id="edge21_Node000019_Node000020" class="edge">
<title>Node19&#45;&gt;Node20</title>
<g id="a_edge21_Node000019_Node000020"><a xlink:title=" ">
<path fill="none" stroke="#63b8ff" d="M481.95,-668.38C493.59,-668.38 505.8,-668.38 517.72,-668.38"/>
<polygon fill="#63b8ff" stroke="#63b8ff" points="517.51,-671.88 527.51,-668.38 517.51,-664.88 517.51,-671.88"/>
</a>
</g>
</g>
<!-- Node23 -->
<g id="Node000023" class="node">
<title>Node23</title>
<g id="a_Node000023"><a xlink:href="input__prep_8cpp.html#a491123a3631453e6921a547d9349e2c9" target="_top" xlink:title=" ">
<polygon fill="white" stroke="#666666" points="458.25,-439.75 370.25,-439.75 370.25,-419 458.25,-419 458.25,-439.75"/>
<text text-anchor="middle" x="414.25" y="-426.25" font-family="Helvetica,sans-Serif" font-size="10.00">check_ploidies</text>
</a>
</g>
</g>
<!-- Node22&#45;&gt;Node23 -->
<g id="edge25_Node000022_Node000023" class="edge">
<title>Node22&#45;&gt;Node23</title>
<g id="a_edge25_Node000022_Node000023"><a xlink:title=" ">
<path fill="none" stroke="#63b8ff" d="M286.1,-581.6C290.82,-579.11 295.21,-576.07 299,-572.38 340.06,-532.29 293.53,-488.04 335,-448.38 341.68,-441.99 350.13,-437.63 358.99,-434.68"/>
<polygon fill="#63b8ff" stroke="#63b8ff" points="359.7,-438.12 368.44,-432.14 357.88,-431.36 359.7,-438.12"/>
</a>
</g>
</g>
<!-- Node24 -->
<g id="Node000024" class="node">
<title>Node24</title>
<g id="a_Node000024"><a xlink:href="input__prep_8cpp.html#a22f42f78fb85430df99c61826bc5c2af" target="_top" xlink:title=" ">
<polygon fill="white" stroke="#666666" points="451.88,-400.75 376.62,-400.75 376.62,-380 451.88,-380 451.88,-400.75"/>
<text text-anchor="middle" x="414.25" y="-387.25" font-family="Helvetica,sans-Serif" font-size="10.00">init_ploidies</text>
</a>
</g>
</g>
<!-- Node22&#45;&gt;Node24 -->
<g id="edge26_Node000022_Node000024" class="edge">
<title>Node22&#45;&gt;Node24</title>
<g id="a_edge26_Node000022_Node000024"><a xlink:title=" ">
<path fill="none" stroke="#63b8ff" d="M286.72,-581.66C291.24,-579.15 295.42,-576.1 299,-572.38 350.1,-519.19 283.68,-463.35 335,-410.38 343.05,-402.07 354.04,-397.04 365.23,-394.03"/>
<polygon fill="#63b8ff" stroke="#63b8ff" points="365.86,-397.48 374.92,-391.98 364.41,-390.63 365.86,-397.48"/>
</a>
</g>
</g>
<!-- Node40&#45;&gt;Node16 -->
<g id="edge45_Node000040_Node000016" class="edge">
<title>Node40&#45;&gt;Node16</title>
<g id="a_edge45_Node000040_Node000016"><a xlink:title=" ">
<path fill="none" stroke="#63b8ff" d="M280.6,-633.16C297.25,-631.93 315.75,-630.56 333.52,-629.25"/>
<polygon fill="#63b8ff" stroke="#63b8ff" points="333.54,-632.76 343.25,-628.54 333.02,-625.78 333.54,-632.76"/>
</a>
</g>
</g>
<!-- Node40&#45;&gt;Node39 -->
<g id="edge46_Node000040_Node000039" class="edge">
<title>Node40&#45;&gt;Node39</title>
<g id="a_edge46_Node000040_Node000039"><a xlink:title=" ">
<path fill="none" stroke="#63b8ff" d="M278.81,-620.15C300.16,-613.52 324.76,-605.87 347.03,-598.95"/>
<polygon fill="#63b8ff" stroke="#63b8ff" points="347.79,-602.38 356.31,-596.07 345.72,-595.69 347.79,-602.38"/>
</a>
</g>
</g>
<!-- Node41 -->
<g id="Node000041" class="node">
<title>Node41</title>
<g id="a_Node000041"><a xlink:href="classreduced__haplotypes.html#a60e35764066ee20b0bc825482d956dc1" target="_top" xlink:title=" ">
<polygon fill="white" stroke="#666666" points="471.38,-543.12 357.12,-543.12 357.12,-509.62 471.38,-509.62 471.38,-543.12"/>
<text text-anchor="start" x="365.12" y="-529.62" font-family="Helvetica,sans-Serif" font-size="10.00">reduced_haplotypes</text>
<text text-anchor="middle" x="414.25" y="-516.88" font-family="Helvetica,sans-Serif" font-size="10.00">::begin</text>
</a>
</g>
</g>
<!-- Node40&#45;&gt;Node41 -->
<g id="edge43_Node000040_Node000041" class="edge">
<title>Node40&#45;&gt;Node41</title>
<g id="a_edge43_Node000040_Node000041"><a xlink:title=" ">
<path fill="none" stroke="#63b8ff" d="M280.57,-622.59C287.16,-619.51 293.48,-615.81 299,-611.38 322.94,-592.13 310.96,-571.5 335,-552.38 338.66,-549.47 342.65,-546.88 346.84,-544.58"/>
<polygon fill="#63b8ff" stroke="#63b8ff" points="348.06,-547.87 355.53,-540.36 345,-541.57 348.06,-547.87"/>
</a>
</g>
</g>
<!-- Node42 -->
<g id="Node000042" class="node">
<title>Node42</title>
<g id="a_Node000042"><a xlink:href="classfull__dosages__results.html#a4f2abb43322a58e7a797aee65674d0d6" target="_top" xlink:title="Returns the dimensions of the main dosages matrix.">
<polygon fill="white" stroke="#666666" points="472.12,-491.12 356.38,-491.12 356.38,-457.62 472.12,-457.62 472.12,-491.12"/>
<text text-anchor="start" x="364.38" y="-477.62" font-family="Helvetica,sans-Serif" font-size="10.00">full_dosages_results</text>
<text text-anchor="middle" x="414.25" y="-464.88" font-family="Helvetica,sans-Serif" font-size="10.00">::dimensions</text>
</a>
</g>
</g>
<!-- Node40&#45;&gt;Node42 -->
<g id="edge44_Node000040_Node000042" class="edge">
<title>Node40&#45;&gt;Node42</title>
<g id="a_edge44_Node000040_Node000042"><a xlink:title=" ">
<path fill="none" stroke="#63b8ff" d="M280.51,-624.35C287.34,-620.97 293.75,-616.72 299,-611.38 335.35,-574.38 298.46,-537.18 335,-500.38 338.35,-497 342.14,-494.07 346.21,-491.52"/>
<polygon fill="#63b8ff" stroke="#63b8ff" points="347.62,-494.73 354.79,-486.93 344.32,-488.56 347.62,-494.73"/>
</a>
</g>
</g>
</g>
</svg>
