<?xml version="1.0" encoding="UTF-8" standalone="no"?>
<!DOCTYPE svg PUBLIC "-//W3C//DTD SVG 1.1//EN"
 "http://www.w3.org/Graphics/SVG/1.1/DTD/svg11.dtd">
<!-- Generated by graphviz version 12.2.1 (0)
 -->
<!-- Title: reduced_haplotypes::begin Pages: 1 -->
<svg width="530pt" height="132pt"
 viewBox="0.00 0.00 530.25 132.12" xmlns="http://www.w3.org/2000/svg" xmlns:xlink="http://www.w3.org/1999/xlink">
<g id="graph0" class="graph" transform="scale(1 1) rotate(0) translate(4 128.12)">
<title>reduced_haplotypes::begin</title>
<!-- Node1 -->
<g id="Node000001" class="node">
<title>Node1</title>
<g id="a_Node000001"><a xlink:title=" ">
<polygon fill="#999999" stroke="#666666" points="522.25,-85.5 408,-85.5 408,-52 522.25,-52 522.25,-85.5"/>
<text text-anchor="start" x="416" y="-72" font-family="Helvetica,sans-Serif" font-size="10.00">reduced_haplotypes</text>
<text text-anchor="middle" x="465.12" y="-59.25" font-family="Helvetica,sans-Serif" font-size="10.00">::begin</text>
</a>
</g>
</g>
<!-- Node2 -->
<g id="Node000002" class="node">
<title>Node2</title>
<g id="a_Node000002"><a xlink:href="input__prep_8cpp.html#ad0c14a19ad01f940f506c712b7c5b8ba" target="_top" xlink:title="Loads Hidden Markov Model (HMM) parameters for target variants.">
<polygon fill="white" stroke="#666666" points="372,-124.12 222.5,-124.12 222.5,-103.38 372,-103.38 372,-124.12"/>
<text text-anchor="middle" x="297.25" y="-110.62" font-family="Helvetica,sans-Serif" font-size="10.00">load_variant_hmm_params</text>
</a>
</g>
</g>
<!-- Node1&#45;&gt;Node2 -->
<g id="edge1_Node000001_Node000002" class="edge">
<title>Node1&#45;&gt;Node2</title>
<g id="a_edge1_Node000001_Node000002"><a xlink:title=" ">
<path fill="none" stroke="#63b8ff" d="M396.79,-87.95C388.45,-90.27 380.03,-92.58 372,-94.75 361.92,-97.47 351.03,-100.32 340.8,-102.96"/>
<polygon fill="#63b8ff" stroke="#63b8ff" points="397.52,-91.38 406.21,-85.31 395.64,-84.63 397.52,-91.38"/>
</a>
</g>
</g>
<!-- Node3 -->
<g id="Node000003" class="node">
<title>Node3</title>
<g id="a_Node000003"><a xlink:href="classhidden__markov__model.html#aa0e5498c4f7f7ed9f11d1f81e3335fc6" target="_top" xlink:title="Performs a backward traversal over reference haplotypes to compute posterior probabilities.">
<polygon fill="white" stroke="#666666" points="360.75,-85.5 233.75,-85.5 233.75,-52 360.75,-52 360.75,-85.5"/>
<text text-anchor="start" x="241.75" y="-72" font-family="Helvetica,sans-Serif" font-size="10.00">hidden_markov_model</text>
<text text-anchor="middle" x="297.25" y="-59.25" font-family="Helvetica,sans-Serif" font-size="10.00">::traverse_backward</text>
</a>
</g>
</g>
<!-- Node1&#45;&gt;Node3 -->
<g id="edge2_Node000001_Node000003" class="edge">
<title>Node1&#45;&gt;Node3</title>
<g id="a_edge2_Node000001_Node000003"><a xlink:title=" ">
<path fill="none" stroke="#63b8ff" d="M396.11,-68.75C384.55,-68.75 372.58,-68.75 361.16,-68.75"/>
<polygon fill="#63b8ff" stroke="#63b8ff" points="395.99,-72.25 405.99,-68.75 395.99,-65.25 395.99,-72.25"/>
</a>
</g>
</g>
<!-- Node4 -->
<g id="Node000004" class="node">
<title>Node4</title>
<g id="a_Node000004"><a xlink:href="classdosage__writer.html#af4eafee4fde6dbc3fdd84f2142a04521" target="_top" xlink:title="Write imputed dosages and observed genotypes to output files.">
<polygon fill="white" stroke="#666666" points="355.12,-33.5 239.38,-33.5 239.38,0 355.12,0 355.12,-33.5"/>
<text text-anchor="start" x="247.38" y="-20" font-family="Helvetica,sans-Serif" font-size="10.00">dosage_writer::write</text>
<text text-anchor="middle" x="297.25" y="-7.25" font-family="Helvetica,sans-Serif" font-size="10.00">_dosages</text>
</a>
</g>
</g>
<!-- Node1&#45;&gt;Node4 -->
<g id="edge3_Node000001_Node000004" class="edge">
<title>Node1&#45;&gt;Node4</title>
<g id="a_edge3_Node000001_Node000004"><a xlink:title=" ">
<path fill="none" stroke="#63b8ff" d="M398.59,-48.21C383.58,-43.5 367.77,-38.54 353.25,-33.99"/>
<polygon fill="#63b8ff" stroke="#63b8ff" points="397.32,-51.47 407.91,-51.13 399.41,-44.8 397.32,-51.47"/>
</a>
</g>
</g>
<!-- Node5 -->
<g id="Node000005" class="node">
<title>Node5</title>
<g id="a_Node000005"><a xlink:href="classimputation.html#a7b5222272b8a616e387a991194235d62" target="_top" xlink:title="Perform genotype imputation for a given genomic region.">
<polygon fill="white" stroke="#666666" points="186.5,-33.5 76.75,-33.5 76.75,0 186.5,0 186.5,-33.5"/>
<text text-anchor="start" x="84.75" y="-20" font-family="Helvetica,sans-Serif" font-size="10.00">imputation::impute</text>
<text text-anchor="middle" x="131.62" y="-7.25" font-family="Helvetica,sans-Serif" font-size="10.00">_chunk</text>
</a>
</g>
</g>
<!-- Node4&#45;&gt;Node5 -->
<g id="edge4_Node000004_Node000005" class="edge">
<title>Node4&#45;&gt;Node5</title>
<g id="a_edge4_Node000004_Node000005"><a xlink:title=" ">
<path fill="none" stroke="#63b8ff" d="M227.71,-16.75C214.05,-16.75 199.89,-16.75 186.8,-16.75"/>
<polygon fill="#63b8ff" stroke="#63b8ff" points="227.51,-20.25 237.51,-16.75 227.51,-13.25 227.51,-20.25"/>
</a>
</g>
</g>
<!-- Node6 -->
<g id="Node000006" class="node">
<title>Node6</title>
<g id="a_Node000006"><a xlink:href="main_8cpp.html#a3c04138a5bfe5d72780bb7e82a18e627" target="_top" xlink:title=" ">
<polygon fill="white" stroke="#666666" points="40.75,-27.12 0,-27.12 0,-6.38 40.75,-6.38 40.75,-27.12"/>
<text text-anchor="middle" x="20.38" y="-13.62" font-family="Helvetica,sans-Serif" font-size="10.00">main</text>
</a>
</g>
</g>
<!-- Node5&#45;&gt;Node6 -->
<g id="edge5_Node000005_Node000006" class="edge">
<title>Node5&#45;&gt;Node6</title>
<g id="a_edge5_Node000005_Node000006"><a xlink:title=" ">
<path fill="none" stroke="#63b8ff" d="M64.84,-16.75C56.22,-16.75 47.98,-16.75 41.04,-16.75"/>
<polygon fill="#63b8ff" stroke="#63b8ff" points="64.81,-20.25 74.81,-16.75 64.81,-13.25 64.81,-20.25"/>
</a>
</g>
</g>
</g>
</svg>
