<?xml version="1.0" encoding="UTF-8" standalone="no"?>
<!DOCTYPE svg PUBLIC "-//W3C//DTD SVG 1.1//EN"
 "http://www.w3.org/Graphics/SVG/1.1/DTD/svg11.dtd">
<!-- Generated by graphviz version 12.2.1 (0)
 -->
<!-- Title: reduced_haplotypes::iterator::operator++ Pages: 1 -->
<svg width="436pt" height="94pt"
 viewBox="0.00 0.00 436.25 93.50" xmlns="http://www.w3.org/2000/svg" xmlns:xlink="http://www.w3.org/1999/xlink">
<g id="graph0" class="graph" transform="scale(1 1) rotate(0) translate(4 89.5)">
<title>reduced_haplotypes::iterator::operator++</title>
<!-- Node1 -->
<g id="Node000001" class="node">
<title>Node1</title>
<g id="a_Node000001"><a xlink:title=" ">
<polygon fill="#999999" stroke="#666666" points="121.75,-59.5 0,-59.5 0,-26 121.75,-26 121.75,-59.5"/>
<text text-anchor="start" x="8" y="-46" font-family="Helvetica,sans-Serif" font-size="10.00">reduced_haplotypes</text>
<text text-anchor="middle" x="60.88" y="-33.25" font-family="Helvetica,sans-Serif" font-size="10.00">::iterator::operator++</text>
</a>
</g>
</g>
<!-- Node2 -->
<g id="Node000002" class="node">
<title>Node2</title>
<g id="a_Node000002"><a xlink:href="classreduced__haplotypes_1_1iterator.html#a725f25f70b4c0205b9ebe781748f8d15" target="_top" xlink:title=" ">
<polygon fill="white" stroke="#666666" points="272,-59.5 157.75,-59.5 157.75,-26 272,-26 272,-59.5"/>
<text text-anchor="start" x="165.75" y="-46" font-family="Helvetica,sans-Serif" font-size="10.00">reduced_haplotypes</text>
<text text-anchor="middle" x="214.88" y="-33.25" font-family="Helvetica,sans-Serif" font-size="10.00">::iterator::iterator</text>
</a>
</g>
</g>
<!-- Node1&#45;&gt;Node2 -->
<g id="edge1_Node000001_Node000002" class="edge">
<title>Node1&#45;&gt;Node2</title>
<g id="a_edge1_Node000001_Node000002"><a xlink:title=" ">
<path fill="none" stroke="#63b8ff" d="M121.95,-42.75C129.96,-42.75 138.21,-42.75 146.34,-42.75"/>
<polygon fill="#63b8ff" stroke="#63b8ff" points="146.19,-46.25 156.19,-42.75 146.19,-39.25 146.19,-46.25"/>
</a>
</g>
</g>
<!-- Node3 -->
<g id="Node000003" class="node">
<title>Node3</title>
<g id="a_Node000003"><a xlink:href="classreduced__haplotypes_1_1iterator.html#af144cea0b0399dc827f5e8b34e4731dc" target="_top" xlink:title=" ">
<polygon fill="white" stroke="#666666" points="425.25,-85.5 311,-85.5 311,-52 425.25,-52 425.25,-85.5"/>
<text text-anchor="start" x="319" y="-72" font-family="Helvetica,sans-Serif" font-size="10.00">reduced_haplotypes</text>
<text text-anchor="middle" x="368.12" y="-59.25" font-family="Helvetica,sans-Serif" font-size="10.00">::iterator::block_idx</text>
</a>
</g>
</g>
<!-- Node2&#45;&gt;Node3 -->
<g id="edge2_Node000002_Node000003" class="edge">
<title>Node2&#45;&gt;Node3</title>
<g id="a_edge2_Node000002_Node000003"><a xlink:title=" ">
<path fill="none" stroke="#63b8ff" d="M272.19,-52.43C280.99,-53.94 290.17,-55.52 299.19,-57.07"/>
<polygon fill="#63b8ff" stroke="#63b8ff" points="298.57,-60.52 309.01,-58.76 299.75,-53.62 298.57,-60.52"/>
</a>
</g>
</g>
<!-- Node4 -->
<g id="Node000004" class="node">
<title>Node4</title>
<g id="a_Node000004"><a xlink:href="classreduced__haplotypes.html#a21d0bb7ea142f39274ef6a8c4ffde96c" target="_top" xlink:title=" ">
<polygon fill="white" stroke="#666666" points="428.25,-33.5 308,-33.5 308,0 428.25,0 428.25,-33.5"/>
<text text-anchor="start" x="316" y="-20" font-family="Helvetica,sans-Serif" font-size="10.00">reduced_haplotypes</text>
<text text-anchor="middle" x="368.12" y="-7.25" font-family="Helvetica,sans-Serif" font-size="10.00">::reduced_haplotypes</text>
</a>
</g>
</g>
<!-- Node2&#45;&gt;Node4 -->
<g id="edge3_Node000002_Node000004" class="edge">
<title>Node2&#45;&gt;Node4</title>
<g id="a_edge3_Node000002_Node000004"><a xlink:title=" ">
<path fill="none" stroke="#63b8ff" d="M272.19,-33.07C280.16,-31.7 288.44,-30.28 296.63,-28.87"/>
<polygon fill="#63b8ff" stroke="#63b8ff" points="296.97,-32.36 306.23,-27.22 295.78,-25.46 296.97,-32.36"/>
</a>
</g>
</g>
</g>
</svg>
