<?xml version="1.0" encoding="UTF-8" standalone="no"?>
<!DOCTYPE svg PUBLIC "-//W3C//DTD SVG 1.1//EN"
 "http://www.w3.org/Graphics/SVG/1.1/DTD/svg11.dtd">
<!-- Generated by graphviz version 12.2.1 (0)
 -->
<!-- Title: reduced_haplotypes::blocks Pages: 1 -->
<svg width="515pt" height="54pt"
 viewBox="0.00 0.00 514.50 54.12" xmlns="http://www.w3.org/2000/svg" xmlns:xlink="http://www.w3.org/1999/xlink">
<g id="graph0" class="graph" transform="scale(1 1) rotate(0) translate(4 50.12)">
<title>reduced_haplotypes::blocks</title>
<!-- Node1 -->
<g id="Node000001" class="node">
<title>Node1</title>
<g id="a_Node000001"><a xlink:title="Accesses the stored haplotype blocks.">
<polygon fill="#999999" stroke="#666666" points="506.5,-33.5 392.25,-33.5 392.25,0 506.5,0 506.5,-33.5"/>
<text text-anchor="start" x="400.25" y="-20" font-family="Helvetica,sans-Serif" font-size="10.00">reduced_haplotypes</text>
<text text-anchor="middle" x="449.38" y="-7.25" font-family="Helvetica,sans-Serif" font-size="10.00">::blocks</text>
</a>
</g>
</g>
<!-- Node2 -->
<g id="Node000002" class="node">
<title>Node2</title>
<g id="a_Node000002"><a xlink:href="input__prep_8cpp.html#a3fba53d7d33e4a0f719c8683dc761bff" target="_top" xlink:title="Generates reverse mapping tables for reduced haplotype blocks.">
<polygon fill="white" stroke="#666666" points="356.25,-46.12 222.5,-46.12 222.5,-25.38 356.25,-25.38 356.25,-46.12"/>
<text text-anchor="middle" x="289.38" y="-32.62" font-family="Helvetica,sans-Serif" font-size="10.00">generate_reverse_maps</text>
</a>
</g>
</g>
<!-- Node1&#45;&gt;Node2 -->
<g id="edge1_Node000001_Node000002" class="edge">
<title>Node1&#45;&gt;Node2</title>
<g id="a_edge1_Node000001_Node000002"><a xlink:title=" ">
<path fill="none" stroke="#63b8ff" d="M380.35,-24.93C372.46,-25.88 364.41,-26.85 356.54,-27.79"/>
<polygon fill="#63b8ff" stroke="#63b8ff" points="380.77,-28.41 390.28,-23.74 379.93,-21.46 380.77,-28.41"/>
</a>
</g>
</g>
<!-- Node3 -->
<g id="Node000003" class="node">
<title>Node3</title>
<g id="a_Node000003"><a xlink:href="classimputation.html#a7b5222272b8a616e387a991194235d62" target="_top" xlink:title="Perform genotype imputation for a given genomic region.">
<polygon fill="white" stroke="#666666" points="186.5,-33.5 76.75,-33.5 76.75,0 186.5,0 186.5,-33.5"/>
<text text-anchor="start" x="84.75" y="-20" font-family="Helvetica,sans-Serif" font-size="10.00">imputation::impute</text>
<text text-anchor="middle" x="131.62" y="-7.25" font-family="Helvetica,sans-Serif" font-size="10.00">_chunk</text>
</a>
</g>
</g>
<!-- Node1&#45;&gt;Node3 -->
<g id="edge4_Node000001_Node000003" class="edge">
<title>Node1&#45;&gt;Node3</title>
<g id="a_edge4_Node000001_Node000003"><a xlink:title=" ">
<path fill="none" stroke="#63b8ff" d="M380.68,-16.75C322.73,-16.75 240.39,-16.75 186.74,-16.75"/>
<polygon fill="#63b8ff" stroke="#63b8ff" points="380.41,-20.25 390.41,-16.75 380.41,-13.25 380.41,-20.25"/>
</a>
</g>
</g>
<!-- Node2&#45;&gt;Node3 -->
<g id="edge2_Node000002_Node000003" class="edge">
<title>Node2&#45;&gt;Node3</title>
<g id="a_edge2_Node000002_Node000003"><a xlink:title=" ">
<path fill="none" stroke="#63b8ff" d="M211.05,-26.32C202.76,-25.31 194.46,-24.29 186.53,-23.33"/>
<polygon fill="#63b8ff" stroke="#63b8ff" points="210.47,-29.77 220.82,-27.51 211.32,-22.82 210.47,-29.77"/>
</a>
</g>
</g>
<!-- Node4 -->
<g id="Node000004" class="node">
<title>Node4</title>
<g id="a_Node000004"><a xlink:href="main_8cpp.html#a3c04138a5bfe5d72780bb7e82a18e627" target="_top" xlink:title=" ">
<polygon fill="white" stroke="#666666" points="40.75,-27.12 0,-27.12 0,-6.38 40.75,-6.38 40.75,-27.12"/>
<text text-anchor="middle" x="20.38" y="-13.62" font-family="Helvetica,sans-Serif" font-size="10.00">main</text>
</a>
</g>
</g>
<!-- Node3&#45;&gt;Node4 -->
<g id="edge3_Node000003_Node000004" class="edge">
<title>Node3&#45;&gt;Node4</title>
<g id="a_edge3_Node000003_Node000004"><a xlink:title=" ">
<path fill="none" stroke="#63b8ff" d="M64.84,-16.75C56.22,-16.75 47.98,-16.75 41.04,-16.75"/>
<polygon fill="#63b8ff" stroke="#63b8ff" points="64.81,-20.25 74.81,-16.75 64.81,-13.25 64.81,-20.25"/>
</a>
</g>
</g>
</g>
</svg>
