<?xml version="1.0" encoding="UTF-8" standalone="no"?>
<!DOCTYPE svg PUBLIC "-//W3C//DTD SVG 1.1//EN"
 "http://www.w3.org/Graphics/SVG/1.1/DTD/svg11.dtd">
<!-- Generated by graphviz version 12.2.1 (0)
 -->
<!-- Title: unique_haplotype_block::fill_cm Pages: 1 -->
<svg width="364pt" height="42pt"
 viewBox="0.00 0.00 364.25 41.50" xmlns="http://www.w3.org/2000/svg" xmlns:xlink="http://www.w3.org/1999/xlink">
<g id="graph0" class="graph" transform="scale(1 1) rotate(0) translate(4 37.5)">
<title>unique_haplotype_block::fill_cm</title>
<!-- Node1 -->
<g id="Node000001" class="node">
<title>Node1</title>
<g id="a_Node000001"><a xlink:title="Fills the centimorgan (cM) values for all variants in the haplotype block.">
<polygon fill="#999999" stroke="#666666" points="356.25,-33.5 221.75,-33.5 221.75,0 356.25,0 356.25,-33.5"/>
<text text-anchor="start" x="229.75" y="-20" font-family="Helvetica,sans-Serif" font-size="10.00">unique_haplotype_block</text>
<text text-anchor="middle" x="289" y="-7.25" font-family="Helvetica,sans-Serif" font-size="10.00">::fill_cm</text>
</a>
</g>
</g>
<!-- Node2 -->
<g id="Node000002" class="node">
<title>Node2</title>
<g id="a_Node000002"><a xlink:href="input__prep_8cpp.html#a6b95ba39faa3a2487a7010a060dbad2a" target="_top" xlink:title="Converts an old M3VCF file (v1/v2) to a newer VCF&#45;like format (MVCFv3.0).">
<polygon fill="white" stroke="#666666" points="185.75,-27.12 76.75,-27.12 76.75,-6.38 185.75,-6.38 185.75,-27.12"/>
<text text-anchor="middle" x="131.25" y="-13.62" font-family="Helvetica,sans-Serif" font-size="10.00">convert_old_m3vcf</text>
</a>
</g>
</g>
<!-- Node1&#45;&gt;Node2 -->
<g id="edge1_Node000001_Node000002" class="edge">
<title>Node1&#45;&gt;Node2</title>
<g id="a_edge1_Node000001_Node000002"><a xlink:title=" ">
<path fill="none" stroke="#63b8ff" d="M210.26,-16.75C202,-16.75 193.73,-16.75 185.84,-16.75"/>
<polygon fill="#63b8ff" stroke="#63b8ff" points="209.98,-20.25 219.98,-16.75 209.98,-13.25 209.98,-20.25"/>
</a>
</g>
</g>
<!-- Node3 -->
<g id="Node000003" class="node">
<title>Node3</title>
<g id="a_Node000003"><a xlink:href="main_8cpp.html#a3c04138a5bfe5d72780bb7e82a18e627" target="_top" xlink:title=" ">
<polygon fill="white" stroke="#666666" points="40.75,-27.12 0,-27.12 0,-6.38 40.75,-6.38 40.75,-27.12"/>
<text text-anchor="middle" x="20.38" y="-13.62" font-family="Helvetica,sans-Serif" font-size="10.00">main</text>
</a>
</g>
</g>
<!-- Node2&#45;&gt;Node3 -->
<g id="edge2_Node000002_Node000003" class="edge">
<title>Node2&#45;&gt;Node3</title>
<g id="a_edge2_Node000002_Node000003"><a xlink:title=" ">
<path fill="none" stroke="#63b8ff" d="M64.96,-16.75C56.32,-16.75 48.07,-16.75 41.11,-16.75"/>
<polygon fill="#63b8ff" stroke="#63b8ff" points="64.94,-20.25 74.94,-16.75 64.94,-13.25 64.94,-20.25"/>
</a>
</g>
</g>
</g>
</svg>
