<?xml version="1.0" encoding="UTF-8" standalone="no"?>
<!DOCTYPE svg PUBLIC "-//W3C//DTD SVG 1.1//EN"
 "http://www.w3.org/Graphics/SVG/1.1/DTD/svg11.dtd">
<!-- Generated by graphviz version 12.2.1 (0)
 -->
<!-- Title: unique_haplotype_block::deserialize Pages: 1 -->
<svg width="549pt" height="123pt"
 viewBox="0.00 0.00 549.00 123.12" xmlns="http://www.w3.org/2000/svg" xmlns:xlink="http://www.w3.org/1999/xlink">
<g id="graph0" class="graph" transform="scale(1 1) rotate(0) translate(4 119.12)">
<title>unique_haplotype_block::deserialize</title>
<!-- Node1 -->
<g id="Node000001" class="node">
<title>Node1</title>
<g id="a_Node000001"><a xlink:title="Deserialize a unique haplotype block from an input stream (m3vcf format).">
<polygon fill="#999999" stroke="#666666" points="541,-78.5 406.5,-78.5 406.5,-45 541,-45 541,-78.5"/>
<text text-anchor="start" x="414.5" y="-65" font-family="Helvetica,sans-Serif" font-size="10.00">unique_haplotype_block</text>
<text text-anchor="middle" x="473.75" y="-52.25" font-family="Helvetica,sans-Serif" font-size="10.00">::deserialize</text>
</a>
</g>
</g>
<!-- Node2 -->
<g id="Node000002" class="node">
<title>Node2</title>
<g id="a_Node000002"><a xlink:href="input__prep_8cpp.html#a6b95ba39faa3a2487a7010a060dbad2a" target="_top" xlink:title="Converts an old M3VCF file (v1/v2) to a newer VCF&#45;like format (MVCFv3.0).">
<polygon fill="white" stroke="#666666" points="186.12,-115.12 77.12,-115.12 77.12,-94.38 186.12,-94.38 186.12,-115.12"/>
<text text-anchor="middle" x="131.62" y="-101.62" font-family="Helvetica,sans-Serif" font-size="10.00">convert_old_m3vcf</text>
</a>
</g>
</g>
<!-- Node1&#45;&gt;Node2 -->
<g id="edge1_Node000001_Node000002" class="edge">
<title>Node1&#45;&gt;Node2</title>
<g id="a_edge1_Node000001_Node000002"><a xlink:title=" ">
<path fill="none" stroke="#63b8ff" d="M394.89,-76.91C386.67,-78.3 378.43,-79.62 370.5,-80.75 307.43,-89.78 234.47,-96.61 186.16,-100.63"/>
<polygon fill="#63b8ff" stroke="#63b8ff" points="395.31,-80.39 404.56,-75.23 394.11,-73.49 395.31,-80.39"/>
</a>
</g>
</g>
<!-- Node4 -->
<g id="Node000004" class="node">
<title>Node4</title>
<g id="a_Node000004"><a xlink:href="input__prep_8cpp.html#a31b6160b69f849225374f36e12dab454" target="_top" xlink:title="Load and process reference haplotypes from an MVCF file.">
<polygon fill="white" stroke="#666666" points="370.5,-72.12 222.5,-72.12 222.5,-51.38 370.5,-51.38 370.5,-72.12"/>
<text text-anchor="middle" x="296.5" y="-58.62" font-family="Helvetica,sans-Serif" font-size="10.00">load_reference_haplotypes</text>
</a>
</g>
</g>
<!-- Node1&#45;&gt;Node4 -->
<g id="edge3_Node000001_Node000004" class="edge">
<title>Node1&#45;&gt;Node4</title>
<g id="a_edge3_Node000001_Node000004"><a xlink:title=" ">
<path fill="none" stroke="#63b8ff" d="M395.18,-61.75C387.11,-61.75 378.91,-61.75 370.89,-61.75"/>
<polygon fill="#63b8ff" stroke="#63b8ff" points="394.98,-65.25 404.98,-61.75 394.98,-58.25 394.98,-65.25"/>
</a>
</g>
</g>
<!-- Node6 -->
<g id="Node000006" class="node">
<title>Node6</title>
<g id="a_Node000006"><a xlink:href="input__prep_8cpp.html#ae6103761cf74447b4a53fd6a17de447c" target="_top" xlink:title="Loads reference haplotypes using an older recombination&#45;based approach.">
<polygon fill="white" stroke="#666666" points="370.5,-33.5 222.5,-33.5 222.5,0 370.5,0 370.5,-33.5"/>
<text text-anchor="start" x="230.5" y="-20" font-family="Helvetica,sans-Serif" font-size="10.00">load_reference_haplotypes</text>
<text text-anchor="middle" x="296.5" y="-7.25" font-family="Helvetica,sans-Serif" font-size="10.00">_old_recom_approach</text>
</a>
</g>
</g>
<!-- Node1&#45;&gt;Node6 -->
<g id="edge6_Node000001_Node000006" class="edge">
<title>Node1&#45;&gt;Node6</title>
<g id="a_edge6_Node000001_Node000006"><a xlink:title=" ">
<path fill="none" stroke="#63b8ff" d="M395.4,-41.89C385.07,-39.24 374.56,-36.54 364.43,-33.94"/>
<polygon fill="#63b8ff" stroke="#63b8ff" points="394.47,-45.26 405.03,-44.36 396.21,-38.48 394.47,-45.26"/>
</a>
</g>
</g>
<!-- Node3 -->
<g id="Node000003" class="node">
<title>Node3</title>
<g id="a_Node000003"><a xlink:href="main_8cpp.html#a3c04138a5bfe5d72780bb7e82a18e627" target="_top" xlink:title=" ">
<polygon fill="white" stroke="#666666" points="40.75,-92.12 0,-92.12 0,-71.38 40.75,-71.38 40.75,-92.12"/>
<text text-anchor="middle" x="20.38" y="-78.62" font-family="Helvetica,sans-Serif" font-size="10.00">main</text>
</a>
</g>
</g>
<!-- Node2&#45;&gt;Node3 -->
<g id="edge2_Node000002_Node000003" class="edge">
<title>Node2&#45;&gt;Node3</title>
<g id="a_edge2_Node000002_Node000003"><a xlink:title=" ">
<path fill="none" stroke="#63b8ff" d="M68.13,-91.59C58.4,-89.54 49,-87.57 41.22,-85.93"/>
<polygon fill="#63b8ff" stroke="#63b8ff" points="67.21,-94.98 77.72,-93.61 68.65,-88.13 67.21,-94.98"/>
</a>
</g>
</g>
<!-- Node5 -->
<g id="Node000005" class="node">
<title>Node5</title>
<g id="a_Node000005"><a xlink:href="classimputation.html#a7b5222272b8a616e387a991194235d62" target="_top" xlink:title="Perform genotype imputation for a given genomic region.">
<polygon fill="white" stroke="#666666" points="186.5,-76.5 76.75,-76.5 76.75,-43 186.5,-43 186.5,-76.5"/>
<text text-anchor="start" x="84.75" y="-63" font-family="Helvetica,sans-Serif" font-size="10.00">imputation::impute</text>
<text text-anchor="middle" x="131.62" y="-50.25" font-family="Helvetica,sans-Serif" font-size="10.00">_chunk</text>
</a>
</g>
</g>
<!-- Node4&#45;&gt;Node5 -->
<g id="edge4_Node000004_Node000005" class="edge">
<title>Node4&#45;&gt;Node5</title>
<g id="a_edge4_Node000004_Node000005"><a xlink:title=" ">
<path fill="none" stroke="#63b8ff" d="M210.88,-60.71C202.61,-60.61 194.38,-60.51 186.54,-60.41"/>
<polygon fill="#63b8ff" stroke="#63b8ff" points="210.61,-64.21 220.65,-60.83 210.69,-57.21 210.61,-64.21"/>
</a>
</g>
</g>
<!-- Node5&#45;&gt;Node3 -->
<g id="edge5_Node000005_Node000003" class="edge">
<title>Node5&#45;&gt;Node3</title>
<g id="a_edge5_Node000005_Node000003"><a xlink:title=" ">
<path fill="none" stroke="#63b8ff" d="M65.13,-72.94C56.4,-74.7 48.06,-76.38 41.04,-77.79"/>
<polygon fill="#63b8ff" stroke="#63b8ff" points="65.72,-76.39 74.84,-70.98 64.34,-69.53 65.72,-76.39"/>
</a>
</g>
</g>
</g>
</svg>
