<?xml version="1.0" encoding="UTF-8" standalone="no"?>
<!DOCTYPE svg PUBLIC "-//W3C//DTD SVG 1.1//EN"
 "http://www.w3.org/Graphics/SVG/1.1/DTD/svg11.dtd">
<!-- Generated by graphviz version 12.2.1 (0)
 -->
<!-- Title: reduced_haplotypes::end Pages: 1 -->
<svg width="554pt" height="222pt"
 viewBox="0.00 0.00 554.25 222.12" xmlns="http://www.w3.org/2000/svg" xmlns:xlink="http://www.w3.org/1999/xlink">
<g id="graph0" class="graph" transform="scale(1 1) rotate(0) translate(4 218.12)">
<title>reduced_haplotypes::end</title>
<!-- Node1 -->
<g id="Node000001" class="node">
<title>Node1</title>
<g id="a_Node000001"><a xlink:title=" ">
<polygon fill="#999999" stroke="#666666" points="546.25,-124.12 408,-124.12 408,-103.38 546.25,-103.38 546.25,-124.12"/>
<text text-anchor="middle" x="477.12" y="-110.62" font-family="Helvetica,sans-Serif" font-size="10.00">reduced_haplotypes::end</text>
</a>
</g>
</g>
<!-- Node2 -->
<g id="Node000002" class="node">
<title>Node2</title>
<g id="a_Node000002"><a xlink:href="input__prep_8cpp.html#a31b6160b69f849225374f36e12dab454" target="_top" xlink:title="Load and process reference haplotypes from an MVCF file.">
<polygon fill="white" stroke="#666666" points="371.25,-214.12 223.25,-214.12 223.25,-193.38 371.25,-193.38 371.25,-214.12"/>
<text text-anchor="middle" x="297.25" y="-200.62" font-family="Helvetica,sans-Serif" font-size="10.00">load_reference_haplotypes</text>
</a>
</g>
</g>
<!-- Node1&#45;&gt;Node2 -->
<g id="edge1_Node000001_Node000002" class="edge">
<title>Node1&#45;&gt;Node2</title>
<g id="a_edge1_Node000001_Node000002"><a xlink:title=" ">
<path fill="none" stroke="#63b8ff" d="M454.59,-131.75C434.42,-147.77 402.83,-170.79 372,-184.75 365.01,-187.91 357.41,-190.62 349.82,-192.91"/>
<polygon fill="#63b8ff" stroke="#63b8ff" points="456.78,-134.48 462.35,-125.46 452.38,-129.04 456.78,-134.48"/>
</a>
</g>
</g>
<!-- Node5 -->
<g id="Node000005" class="node">
<title>Node5</title>
<g id="a_Node000005"><a xlink:href="input__prep_8cpp.html#ae6103761cf74447b4a53fd6a17de447c" target="_top" xlink:title="Loads reference haplotypes using an older recombination&#45;based approach.">
<polygon fill="white" stroke="#666666" points="371.25,-175.5 223.25,-175.5 223.25,-142 371.25,-142 371.25,-175.5"/>
<text text-anchor="start" x="231.25" y="-162" font-family="Helvetica,sans-Serif" font-size="10.00">load_reference_haplotypes</text>
<text text-anchor="middle" x="297.25" y="-149.25" font-family="Helvetica,sans-Serif" font-size="10.00">_old_recom_approach</text>
</a>
</g>
</g>
<!-- Node1&#45;&gt;Node5 -->
<g id="edge4_Node000001_Node000005" class="edge">
<title>Node1&#45;&gt;Node5</title>
<g id="a_edge4_Node000001_Node000005"><a xlink:title=" ">
<path fill="none" stroke="#63b8ff" d="M422.52,-127.31C404.81,-131.79 384.85,-136.84 366.21,-141.56"/>
<polygon fill="#63b8ff" stroke="#63b8ff" points="423.22,-130.75 432.05,-124.9 421.5,-123.96 423.22,-130.75"/>
</a>
</g>
</g>
<!-- Node6 -->
<g id="Node000006" class="node">
<title>Node6</title>
<g id="a_Node000006"><a xlink:href="input__prep_8cpp.html#ad0c14a19ad01f940f506c712b7c5b8ba" target="_top" xlink:title="Loads Hidden Markov Model (HMM) parameters for target variants.">
<polygon fill="white" stroke="#666666" points="372,-124.12 222.5,-124.12 222.5,-103.38 372,-103.38 372,-124.12"/>
<text text-anchor="middle" x="297.25" y="-110.62" font-family="Helvetica,sans-Serif" font-size="10.00">load_variant_hmm_params</text>
</a>
</g>
</g>
<!-- Node1&#45;&gt;Node6 -->
<g id="edge5_Node000001_Node000006" class="edge">
<title>Node1&#45;&gt;Node6</title>
<g id="a_edge5_Node000001_Node000006"><a xlink:title=" ">
<path fill="none" stroke="#63b8ff" d="M396.11,-113.75C388.2,-113.75 380.19,-113.75 372.34,-113.75"/>
<polygon fill="#63b8ff" stroke="#63b8ff" points="396.09,-117.25 406.09,-113.75 396.09,-110.25 396.09,-117.25"/>
</a>
</g>
</g>
<!-- Node7 -->
<g id="Node000007" class="node">
<title>Node7</title>
<g id="a_Node000007"><a xlink:href="classhidden__markov__model.html#aa0e5498c4f7f7ed9f11d1f81e3335fc6" target="_top" xlink:title="Performs a backward traversal over reference haplotypes to compute posterior probabilities.">
<polygon fill="white" stroke="#666666" points="360.75,-85.5 233.75,-85.5 233.75,-52 360.75,-52 360.75,-85.5"/>
<text text-anchor="start" x="241.75" y="-72" font-family="Helvetica,sans-Serif" font-size="10.00">hidden_markov_model</text>
<text text-anchor="middle" x="297.25" y="-59.25" font-family="Helvetica,sans-Serif" font-size="10.00">::traverse_backward</text>
</a>
</g>
</g>
<!-- Node1&#45;&gt;Node7 -->
<g id="edge6_Node000001_Node000007" class="edge">
<title>Node1&#45;&gt;Node7</title>
<g id="a_edge6_Node000001_Node000007"><a xlink:title=" ">
<path fill="none" stroke="#63b8ff" d="M422.47,-100.18C403.12,-95.28 381.11,-89.71 361.05,-84.64"/>
<polygon fill="#63b8ff" stroke="#63b8ff" points="421.5,-103.54 432.05,-102.6 423.22,-96.75 421.5,-103.54"/>
</a>
</g>
</g>
<!-- Node8 -->
<g id="Node000008" class="node">
<title>Node8</title>
<g id="a_Node000008"><a xlink:href="classdosage__writer.html#af4eafee4fde6dbc3fdd84f2142a04521" target="_top" xlink:title="Write imputed dosages and observed genotypes to output files.">
<polygon fill="white" stroke="#666666" points="355.12,-33.5 239.38,-33.5 239.38,0 355.12,0 355.12,-33.5"/>
<text text-anchor="start" x="247.38" y="-20" font-family="Helvetica,sans-Serif" font-size="10.00">dosage_writer::write</text>
<text text-anchor="middle" x="297.25" y="-7.25" font-family="Helvetica,sans-Serif" font-size="10.00">_dosages</text>
</a>
</g>
</g>
<!-- Node1&#45;&gt;Node8 -->
<g id="edge7_Node000001_Node000008" class="edge">
<title>Node1&#45;&gt;Node8</title>
<g id="a_edge7_Node000001_Node000008"><a xlink:title=" ">
<path fill="none" stroke="#63b8ff" d="M453.61,-95.85C433.21,-80.27 401.86,-57.87 372,-42.75 365.7,-39.56 358.92,-36.59 352.11,-33.89"/>
<polygon fill="#63b8ff" stroke="#63b8ff" points="451.45,-98.6 461.5,-101.97 455.74,-93.07 451.45,-98.6"/>
</a>
</g>
</g>
<!-- Node3 -->
<g id="Node000003" class="node">
<title>Node3</title>
<g id="a_Node000003"><a xlink:href="classimputation.html#a7b5222272b8a616e387a991194235d62" target="_top" xlink:title="Perform genotype imputation for a given genomic region.">
<polygon fill="white" stroke="#666666" points="186.5,-126.5 76.75,-126.5 76.75,-93 186.5,-93 186.5,-126.5"/>
<text text-anchor="start" x="84.75" y="-113" font-family="Helvetica,sans-Serif" font-size="10.00">imputation::impute</text>
<text text-anchor="middle" x="131.62" y="-100.25" font-family="Helvetica,sans-Serif" font-size="10.00">_chunk</text>
</a>
</g>
</g>
<!-- Node2&#45;&gt;Node3 -->
<g id="edge2_Node000002_Node000003" class="edge">
<title>Node2&#45;&gt;Node3</title>
<g id="a_edge2_Node000002_Node000003"><a xlink:title=" ">
<path fill="none" stroke="#63b8ff" d="M231.91,-189.05C228.68,-187.73 225.52,-186.3 222.5,-184.75 193.38,-169.82 165.34,-144.01 148.54,-126.9"/>
<polygon fill="#63b8ff" stroke="#63b8ff" points="230.42,-192.23 241.02,-192.37 232.82,-185.65 230.42,-192.23"/>
</a>
</g>
</g>
<!-- Node4 -->
<g id="Node000004" class="node">
<title>Node4</title>
<g id="a_Node000004"><a xlink:href="main_8cpp.html#a3c04138a5bfe5d72780bb7e82a18e627" target="_top" xlink:title=" ">
<polygon fill="white" stroke="#666666" points="40.75,-120.12 0,-120.12 0,-99.38 40.75,-99.38 40.75,-120.12"/>
<text text-anchor="middle" x="20.38" y="-106.62" font-family="Helvetica,sans-Serif" font-size="10.00">main</text>
</a>
</g>
</g>
<!-- Node3&#45;&gt;Node4 -->
<g id="edge3_Node000003_Node000004" class="edge">
<title>Node3&#45;&gt;Node4</title>
<g id="a_edge3_Node000003_Node000004"><a xlink:title=" ">
<path fill="none" stroke="#63b8ff" d="M64.84,-109.75C56.22,-109.75 47.98,-109.75 41.04,-109.75"/>
<polygon fill="#63b8ff" stroke="#63b8ff" points="64.81,-113.25 74.81,-109.75 64.81,-106.25 64.81,-113.25"/>
</a>
</g>
</g>
<!-- Node8&#45;&gt;Node3 -->
<g id="edge8_Node000008_Node000003" class="edge">
<title>Node8&#45;&gt;Node3</title>
<g id="a_edge8_Node000008_Node000003"><a xlink:title=" ">
<path fill="none" stroke="#63b8ff" d="M231.19,-38.43C228.22,-39.81 225.31,-41.25 222.5,-42.75 196.22,-56.76 169.25,-77.95 151.8,-92.74"/>
<polygon fill="#63b8ff" stroke="#63b8ff" points="232.31,-41.76 240.09,-34.56 229.52,-35.34 232.31,-41.76"/>
</a>
</g>
</g>
</g>
</svg>
