<?xml version="1.0" encoding="UTF-8" standalone="no"?>
<!DOCTYPE svg PUBLIC "-//W3C//DTD SVG 1.1//EN"
 "http://www.w3.org/Graphics/SVG/1.1/DTD/svg11.dtd">
<!-- Generated by graphviz version 12.2.1 (0)
 -->
<!-- Title: unique_haplotype_block::unique_haplotype_size Pages: 1 -->
<svg width="306pt" height="94pt"
 viewBox="0.00 0.00 305.50 93.50" xmlns="http://www.w3.org/2000/svg" xmlns:xlink="http://www.w3.org/1999/xlink">
<g id="graph0" class="graph" transform="scale(1 1) rotate(0) translate(4 89.5)">
<title>unique_haplotype_block::unique_haplotype_size</title>
<!-- Node1 -->
<g id="Node000001" class="node">
<title>Node1</title>
<g id="a_Node000001"><a xlink:title="Get the number of unique haplotypes represented in the block.">
<polygon fill="#999999" stroke="#666666" points="297.5,-59.5 163,-59.5 163,-26 297.5,-26 297.5,-59.5"/>
<text text-anchor="start" x="171" y="-46" font-family="Helvetica,sans-Serif" font-size="10.00">unique_haplotype_block</text>
<text text-anchor="middle" x="230.25" y="-33.25" font-family="Helvetica,sans-Serif" font-size="10.00">::unique_haplotype_size</text>
</a>
</g>
</g>
<!-- Node2 -->
<g id="Node000002" class="node">
<title>Node2</title>
<g id="a_Node000002"><a xlink:href="classhidden__markov__model.html#aa0e5498c4f7f7ed9f11d1f81e3335fc6" target="_top" xlink:title="Performs a backward traversal over reference haplotypes to compute posterior probabilities.">
<polygon fill="white" stroke="#666666" points="127,-85.5 0,-85.5 0,-52 127,-52 127,-85.5"/>
<text text-anchor="start" x="8" y="-72" font-family="Helvetica,sans-Serif" font-size="10.00">hidden_markov_model</text>
<text text-anchor="middle" x="63.5" y="-59.25" font-family="Helvetica,sans-Serif" font-size="10.00">::traverse_backward</text>
</a>
</g>
</g>
<!-- Node1&#45;&gt;Node2 -->
<g id="edge1_Node000001_Node000002" class="edge">
<title>Node1&#45;&gt;Node2</title>
<g id="a_edge1_Node000001_Node000002"><a xlink:title=" ">
<path fill="none" stroke="#63b8ff" d="M151.37,-55.04C143.29,-56.32 135.16,-57.6 127.28,-58.84"/>
<polygon fill="#63b8ff" stroke="#63b8ff" points="151.89,-58.5 161.22,-53.49 150.8,-51.59 151.89,-58.5"/>
</a>
</g>
</g>
<!-- Node3 -->
<g id="Node000003" class="node">
<title>Node3</title>
<g id="a_Node000003"><a xlink:href="classhidden__markov__model.html#aa1459d3b24365049cb34ea8f40ff828d" target="_top" xlink:title="Performs a forward traversal over reference haplotypes for a given target haplotype.">
<polygon fill="white" stroke="#666666" points="127,-33.5 0,-33.5 0,0 127,0 127,-33.5"/>
<text text-anchor="start" x="8" y="-20" font-family="Helvetica,sans-Serif" font-size="10.00">hidden_markov_model</text>
<text text-anchor="middle" x="63.5" y="-7.25" font-family="Helvetica,sans-Serif" font-size="10.00">::traverse_forward</text>
</a>
</g>
</g>
<!-- Node1&#45;&gt;Node3 -->
<g id="edge2_Node000001_Node000003" class="edge">
<title>Node1&#45;&gt;Node3</title>
<g id="a_edge2_Node000001_Node000003"><a xlink:title=" ">
<path fill="none" stroke="#63b8ff" d="M151.37,-30.46C143.29,-29.18 135.16,-27.9 127.28,-26.66"/>
<polygon fill="#63b8ff" stroke="#63b8ff" points="150.8,-33.91 161.22,-32.01 151.89,-27 150.8,-33.91"/>
</a>
</g>
</g>
</g>
</svg>
