<?xml version="1.0" encoding="UTF-8" standalone="no"?>
<!DOCTYPE svg PUBLIC "-//W3C//DTD SVG 1.1//EN"
 "http://www.w3.org/Graphics/SVG/1.1/DTD/svg11.dtd">
<!-- Generated by graphviz version 12.2.1 (0)
 -->
<!-- Title: hidden_markov_model::traverse_backward Pages: 1 -->
<svg width="320pt" height="392pt"
 viewBox="0.00 0.00 319.75 391.50" xmlns="http://www.w3.org/2000/svg" xmlns:xlink="http://www.w3.org/1999/xlink">
<g id="graph0" class="graph" transform="scale(1 1) rotate(0) translate(4 387.5)">
<title>hidden_markov_model::traverse_backward</title>
<!-- Node1 -->
<g id="Node000001" class="node">
<title>Node1</title>
<g id="a_Node000001"><a xlink:title="Performs a backward traversal over reference haplotypes to compute posterior probabilities.">
<polygon fill="#999999" stroke="#666666" points="127,-211.5 0,-211.5 0,-178 127,-178 127,-211.5"/>
<text text-anchor="start" x="8" y="-198" font-family="Helvetica,sans-Serif" font-size="10.00">hidden_markov_model</text>
<text text-anchor="middle" x="63.5" y="-185.25" font-family="Helvetica,sans-Serif" font-size="10.00">::traverse_backward</text>
</a>
</g>
</g>
<!-- Node2 -->
<g id="Node000002" class="node">
<title>Node2</title>
<g id="a_Node000002"><a xlink:href="classreduced__haplotypes.html#a60e35764066ee20b0bc825482d956dc1" target="_top" xlink:title=" ">
<polygon fill="white" stroke="#666666" points="294.5,-383.5 180.25,-383.5 180.25,-350 294.5,-350 294.5,-383.5"/>
<text text-anchor="start" x="188.25" y="-370" font-family="Helvetica,sans-Serif" font-size="10.00">reduced_haplotypes</text>
<text text-anchor="middle" x="237.38" y="-357.25" font-family="Helvetica,sans-Serif" font-size="10.00">::begin</text>
</a>
</g>
</g>
<!-- Node1&#45;&gt;Node2 -->
<g id="edge1_Node000001_Node000002" class="edge">
<title>Node1&#45;&gt;Node2</title>
<g id="a_edge1_Node000001_Node000002"><a xlink:title=" ">
<path fill="none" stroke="#63b8ff" d="M71.61,-211.77C85.06,-241.99 117.07,-305.18 163,-340.75 165.24,-342.49 167.61,-344.12 170.07,-345.64"/>
<polygon fill="#63b8ff" stroke="#63b8ff" points="168.15,-348.57 178.6,-350.29 171.5,-342.43 168.15,-348.57"/>
</a>
</g>
</g>
<!-- Node3 -->
<g id="Node000003" class="node">
<title>Node3</title>
<g id="a_Node000003"><a xlink:href="classunique__haplotype__block.html#a9f93e57c8c7eb23db0e2c2f2f84534fe" target="_top" xlink:title="Get the haplotype cardinalities across unique columns.">
<polygon fill="white" stroke="#666666" points="304.62,-331.5 170.12,-331.5 170.12,-298 304.62,-298 304.62,-331.5"/>
<text text-anchor="start" x="178.12" y="-318" font-family="Helvetica,sans-Serif" font-size="10.00">unique_haplotype_block</text>
<text text-anchor="middle" x="237.38" y="-305.25" font-family="Helvetica,sans-Serif" font-size="10.00">::cardinalities</text>
</a>
</g>
</g>
<!-- Node1&#45;&gt;Node3 -->
<g id="edge2_Node000001_Node000003" class="edge">
<title>Node1&#45;&gt;Node3</title>
<g id="a_edge2_Node000001_Node000003"><a xlink:title=" ">
<path fill="none" stroke="#63b8ff" d="M78.48,-211.96C96.19,-232.75 128.57,-267.58 163,-288.75 165.15,-290.07 167.38,-291.34 169.66,-292.56"/>
<polygon fill="#63b8ff" stroke="#63b8ff" points="168.06,-295.67 178.58,-296.88 171.11,-289.37 168.06,-295.67"/>
</a>
</g>
</g>
<!-- Node4 -->
<g id="Node000004" class="node">
<title>Node4</title>
<g id="a_Node000004"><a xlink:href="classunique__haplotype__block.html#ad3b893b578cd0a31bad9b21fa6fee652" target="_top" xlink:title="Clears all data stored in the haplotype block.">
<polygon fill="white" stroke="#666666" points="304.62,-279.5 170.12,-279.5 170.12,-246 304.62,-246 304.62,-279.5"/>
<text text-anchor="start" x="178.12" y="-266" font-family="Helvetica,sans-Serif" font-size="10.00">unique_haplotype_block</text>
<text text-anchor="middle" x="237.38" y="-253.25" font-family="Helvetica,sans-Serif" font-size="10.00">::clear</text>
</a>
</g>
</g>
<!-- Node1&#45;&gt;Node4 -->
<g id="edge3_Node000001_Node000004" class="edge">
<title>Node1&#45;&gt;Node4</title>
<g id="a_edge3_Node000001_Node000004"><a xlink:title=" ">
<path fill="none" stroke="#63b8ff" d="M103.1,-211.87C121.18,-219.72 143.08,-228.98 163,-236.75 167.13,-238.36 171.41,-239.99 175.73,-241.6"/>
<polygon fill="#63b8ff" stroke="#63b8ff" points="174.47,-244.86 185.07,-245.02 176.89,-238.29 174.47,-244.86"/>
</a>
</g>
</g>
<!-- Node5 -->
<g id="Node000005" class="node">
<title>Node5</title>
<g id="a_Node000005"><a xlink:href="classreduced__haplotypes.html#a84d77aa694b17ecfe412d8f4a4e1614b" target="_top" xlink:title=" ">
<polygon fill="white" stroke="#666666" points="306.5,-228.12 168.25,-228.12 168.25,-207.38 306.5,-207.38 306.5,-228.12"/>
<text text-anchor="middle" x="237.38" y="-214.62" font-family="Helvetica,sans-Serif" font-size="10.00">reduced_haplotypes::end</text>
</a>
</g>
</g>
<!-- Node1&#45;&gt;Node5 -->
<g id="edge4_Node000001_Node000005" class="edge">
<title>Node1&#45;&gt;Node5</title>
<g id="a_edge4_Node000001_Node000005"><a xlink:title=" ">
<path fill="none" stroke="#63b8ff" d="M127.04,-203.12C136.66,-204.41 146.71,-205.75 156.64,-207.08"/>
<polygon fill="#63b8ff" stroke="#63b8ff" points="155.91,-210.51 166.29,-208.37 156.84,-203.58 155.91,-210.51"/>
</a>
</g>
</g>
<!-- Node6 -->
<g id="Node000006" class="node">
<title>Node6</title>
<g id="a_Node000006"><a xlink:href="classunique__haplotype__block.html#a551b270f09ebd18af3a6cc9b1a71dc8d" target="_top" xlink:title="Get the number of original haplotypes after expansion.">
<polygon fill="white" stroke="#666666" points="311.75,-189.5 163,-189.5 163,-156 311.75,-156 311.75,-189.5"/>
<text text-anchor="start" x="171" y="-176" font-family="Helvetica,sans-Serif" font-size="10.00">unique_haplotype_block</text>
<text text-anchor="middle" x="237.38" y="-163.25" font-family="Helvetica,sans-Serif" font-size="10.00">::expanded_haplotype_size</text>
</a>
</g>
</g>
<!-- Node1&#45;&gt;Node6 -->
<g id="edge5_Node000001_Node000006" class="edge">
<title>Node1&#45;&gt;Node6</title>
<g id="a_edge5_Node000001_Node000006"><a xlink:title=" ">
<path fill="none" stroke="#63b8ff" d="M127.04,-186.75C135.02,-185.72 143.3,-184.66 151.56,-183.61"/>
<polygon fill="#63b8ff" stroke="#63b8ff" points="151.81,-187.1 161.29,-182.36 150.93,-180.16 151.81,-187.1"/>
</a>
</g>
</g>
<!-- Node7 -->
<g id="Node000007" class="node">
<title>Node7</title>
<g id="a_Node000007"><a xlink:href="classunique__haplotype__block.html#ac65c8fbf9494f04978421e0064b1e2ec" target="_top" xlink:title="Get the number of unique haplotypes represented in the block.">
<polygon fill="white" stroke="#666666" points="304.62,-137.5 170.12,-137.5 170.12,-104 304.62,-104 304.62,-137.5"/>
<text text-anchor="start" x="178.12" y="-124" font-family="Helvetica,sans-Serif" font-size="10.00">unique_haplotype_block</text>
<text text-anchor="middle" x="237.38" y="-111.25" font-family="Helvetica,sans-Serif" font-size="10.00">::unique_haplotype_size</text>
</a>
</g>
</g>
<!-- Node1&#45;&gt;Node7 -->
<g id="edge6_Node000001_Node000007" class="edge">
<title>Node1&#45;&gt;Node7</title>
<g id="a_edge6_Node000001_Node000007"><a xlink:title=" ">
<path fill="none" stroke="#63b8ff" d="M97.35,-177.58C116.3,-167.98 140.72,-156.09 163,-146.75 166.84,-145.14 170.82,-143.54 174.85,-141.97"/>
<polygon fill="#63b8ff" stroke="#63b8ff" points="176.04,-145.26 184.15,-138.45 173.56,-138.72 176.04,-145.26"/>
</a>
</g>
</g>
<!-- Node8 -->
<g id="Node000008" class="node">
<title>Node8</title>
<g id="a_Node000008"><a xlink:href="classunique__haplotype__block.html#a3100e7e155907f588b0cd74eac77778b" target="_top" xlink:title="Get the mapping from haplotypes to unique columns.">
<polygon fill="white" stroke="#666666" points="304.62,-85.5 170.12,-85.5 170.12,-52 304.62,-52 304.62,-85.5"/>
<text text-anchor="start" x="178.12" y="-72" font-family="Helvetica,sans-Serif" font-size="10.00">unique_haplotype_block</text>
<text text-anchor="middle" x="237.38" y="-59.25" font-family="Helvetica,sans-Serif" font-size="10.00">::unique_map</text>
</a>
</g>
</g>
<!-- Node1&#45;&gt;Node8 -->
<g id="edge7_Node000001_Node000008" class="edge">
<title>Node1&#45;&gt;Node8</title>
<g id="a_edge7_Node000001_Node000008"><a xlink:title=" ">
<path fill="none" stroke="#63b8ff" d="M77.33,-177.55C94.58,-155.53 127.23,-117.52 163,-94.75 165,-93.47 167.08,-92.25 169.21,-91.08"/>
<polygon fill="#63b8ff" stroke="#63b8ff" points="170.72,-94.24 178.11,-86.64 167.6,-87.97 170.72,-94.24"/>
</a>
</g>
</g>
<!-- Node9 -->
<g id="Node000009" class="node">
<title>Node9</title>
<g id="a_Node000009"><a xlink:href="classunique__haplotype__block.html#ad08c799f3eb6ffe2c7c5cad53f6381a9" target="_top" xlink:title="Get the list of compressed reference variants in this block.">
<polygon fill="white" stroke="#666666" points="304.62,-33.5 170.12,-33.5 170.12,0 304.62,0 304.62,-33.5"/>
<text text-anchor="start" x="178.12" y="-20" font-family="Helvetica,sans-Serif" font-size="10.00">unique_haplotype_block</text>
<text text-anchor="middle" x="237.38" y="-7.25" font-family="Helvetica,sans-Serif" font-size="10.00">::variants</text>
</a>
</g>
</g>
<!-- Node1&#45;&gt;Node9 -->
<g id="edge8_Node000001_Node000009" class="edge">
<title>Node1&#45;&gt;Node9</title>
<g id="a_edge8_Node000001_Node000009"><a xlink:title=" ">
<path fill="none" stroke="#63b8ff" d="M71.21,-177.53C84.23,-146.26 115.86,-79.96 163,-42.75 164.33,-41.7 165.7,-40.7 167.11,-39.73"/>
<polygon fill="#63b8ff" stroke="#63b8ff" points="168.79,-42.8 175.58,-34.67 165.2,-36.79 168.79,-42.8"/>
</a>
</g>
</g>
</g>
</svg>
