<?xml version="1.0" encoding="UTF-8" standalone="no"?>
<!DOCTYPE svg PUBLIC "-//W3C//DTD SVG 1.1//EN"
 "http://www.w3.org/Graphics/SVG/1.1/DTD/svg11.dtd">
<!-- Generated by graphviz version 12.2.1 (0)
 -->
<!-- Title: hidden_markov_model::traverse_forward Pages: 1 -->
<svg width="320pt" height="354pt"
 viewBox="0.00 0.00 319.75 353.50" xmlns="http://www.w3.org/2000/svg" xmlns:xlink="http://www.w3.org/1999/xlink">
<g id="graph0" class="graph" transform="scale(1 1) rotate(0) translate(4 349.5)">
<title>hidden_markov_model::traverse_forward</title>
<!-- Node1 -->
<g id="Node000001" class="node">
<title>Node1</title>
<g id="a_Node000001"><a xlink:title="Performs a forward traversal over reference haplotypes for a given target haplotype.">
<polygon fill="#999999" stroke="#666666" points="127,-189.5 0,-189.5 0,-156 127,-156 127,-189.5"/>
<text text-anchor="start" x="8" y="-176" font-family="Helvetica,sans-Serif" font-size="10.00">hidden_markov_model</text>
<text text-anchor="middle" x="63.5" y="-163.25" font-family="Helvetica,sans-Serif" font-size="10.00">::traverse_forward</text>
</a>
</g>
</g>
<!-- Node2 -->
<g id="Node000002" class="node">
<title>Node2</title>
<g id="a_Node000002"><a xlink:href="classunique__haplotype__block.html#a9f93e57c8c7eb23db0e2c2f2f84534fe" target="_top" xlink:title="Get the haplotype cardinalities across unique columns.">
<polygon fill="white" stroke="#666666" points="304.62,-345.5 170.12,-345.5 170.12,-312 304.62,-312 304.62,-345.5"/>
<text text-anchor="start" x="178.12" y="-332" font-family="Helvetica,sans-Serif" font-size="10.00">unique_haplotype_block</text>
<text text-anchor="middle" x="237.38" y="-319.25" font-family="Helvetica,sans-Serif" font-size="10.00">::cardinalities</text>
</a>
</g>
</g>
<!-- Node1&#45;&gt;Node2 -->
<g id="edge1_Node000001_Node000002" class="edge">
<title>Node1&#45;&gt;Node2</title>
<g id="a_edge1_Node000001_Node000002"><a xlink:title=" ">
<path fill="none" stroke="#63b8ff" d="M73.03,-189.62C87.75,-217.12 120.49,-271.66 163,-302.75 164.57,-303.9 166.21,-305.01 167.88,-306.07"/>
<polygon fill="#63b8ff" stroke="#63b8ff" points="166.12,-309.09 176.56,-310.91 169.53,-302.98 166.12,-309.09"/>
</a>
</g>
</g>
<!-- Node3 -->
<g id="Node000003" class="node">
<title>Node3</title>
<g id="a_Node000003"><a xlink:href="classunique__haplotype__block.html#ad3b893b578cd0a31bad9b21fa6fee652" target="_top" xlink:title="Clears all data stored in the haplotype block.">
<polygon fill="white" stroke="#666666" points="304.62,-293.5 170.12,-293.5 170.12,-260 304.62,-260 304.62,-293.5"/>
<text text-anchor="start" x="178.12" y="-280" font-family="Helvetica,sans-Serif" font-size="10.00">unique_haplotype_block</text>
<text text-anchor="middle" x="237.38" y="-267.25" font-family="Helvetica,sans-Serif" font-size="10.00">::clear</text>
</a>
</g>
</g>
<!-- Node1&#45;&gt;Node3 -->
<g id="edge2_Node000001_Node000003" class="edge">
<title>Node1&#45;&gt;Node3</title>
<g id="a_edge2_Node000001_Node000003"><a xlink:title=" ">
<path fill="none" stroke="#63b8ff" d="M82.43,-189.98C101.23,-207.29 132.27,-233.75 163,-250.75 165.63,-252.2 168.35,-253.6 171.13,-254.94"/>
<polygon fill="#63b8ff" stroke="#63b8ff" points="169.46,-258.02 180.02,-258.91 172.32,-251.63 169.46,-258.02"/>
</a>
</g>
</g>
<!-- Node4 -->
<g id="Node000004" class="node">
<title>Node4</title>
<g id="a_Node000004"><a xlink:href="classunique__haplotype__block.html#a551b270f09ebd18af3a6cc9b1a71dc8d" target="_top" xlink:title="Get the number of original haplotypes after expansion.">
<polygon fill="white" stroke="#666666" points="311.75,-241.5 163,-241.5 163,-208 311.75,-208 311.75,-241.5"/>
<text text-anchor="start" x="171" y="-228" font-family="Helvetica,sans-Serif" font-size="10.00">unique_haplotype_block</text>
<text text-anchor="middle" x="237.38" y="-215.25" font-family="Helvetica,sans-Serif" font-size="10.00">::expanded_haplotype_size</text>
</a>
</g>
</g>
<!-- Node1&#45;&gt;Node4 -->
<g id="edge3_Node000001_Node000004" class="edge">
<title>Node1&#45;&gt;Node4</title>
<g id="a_edge3_Node000001_Node000004"><a xlink:title=" ">
<path fill="none" stroke="#63b8ff" d="M121.25,-189.92C136.43,-194.51 152.98,-199.52 168.68,-204.27"/>
<polygon fill="#63b8ff" stroke="#63b8ff" points="167.35,-207.52 177.94,-207.07 169.38,-200.82 167.35,-207.52"/>
</a>
</g>
</g>
<!-- Node5 -->
<g id="Node000005" class="node">
<title>Node5</title>
<g id="a_Node000005"><a xlink:href="classunique__haplotype__block.html#ac65c8fbf9494f04978421e0064b1e2ec" target="_top" xlink:title="Get the number of unique haplotypes represented in the block.">
<polygon fill="white" stroke="#666666" points="304.62,-189.5 170.12,-189.5 170.12,-156 304.62,-156 304.62,-189.5"/>
<text text-anchor="start" x="178.12" y="-176" font-family="Helvetica,sans-Serif" font-size="10.00">unique_haplotype_block</text>
<text text-anchor="middle" x="237.38" y="-163.25" font-family="Helvetica,sans-Serif" font-size="10.00">::unique_haplotype_size</text>
</a>
</g>
</g>
<!-- Node1&#45;&gt;Node5 -->
<g id="edge4_Node000001_Node000005" class="edge">
<title>Node1&#45;&gt;Node5</title>
<g id="a_edge4_Node000001_Node000005"><a xlink:title=" ">
<path fill="none" stroke="#63b8ff" d="M127.04,-172.75C137.26,-172.75 147.96,-172.75 158.49,-172.75"/>
<polygon fill="#63b8ff" stroke="#63b8ff" points="158.32,-176.25 168.32,-172.75 158.32,-169.25 158.32,-176.25"/>
</a>
</g>
</g>
<!-- Node6 -->
<g id="Node000006" class="node">
<title>Node6</title>
<g id="a_Node000006"><a xlink:href="classunique__haplotype__block.html#a3100e7e155907f588b0cd74eac77778b" target="_top" xlink:title="Get the mapping from haplotypes to unique columns.">
<polygon fill="white" stroke="#666666" points="304.62,-137.5 170.12,-137.5 170.12,-104 304.62,-104 304.62,-137.5"/>
<text text-anchor="start" x="178.12" y="-124" font-family="Helvetica,sans-Serif" font-size="10.00">unique_haplotype_block</text>
<text text-anchor="middle" x="237.38" y="-111.25" font-family="Helvetica,sans-Serif" font-size="10.00">::unique_map</text>
</a>
</g>
</g>
<!-- Node1&#45;&gt;Node6 -->
<g id="edge5_Node000001_Node000006" class="edge">
<title>Node1&#45;&gt;Node6</title>
<g id="a_edge5_Node000001_Node000006"><a xlink:title=" ">
<path fill="none" stroke="#63b8ff" d="M121.25,-155.58C136.43,-150.99 152.98,-145.98 168.68,-141.23"/>
<polygon fill="#63b8ff" stroke="#63b8ff" points="169.38,-144.68 177.94,-138.43 167.35,-137.98 169.38,-144.68"/>
</a>
</g>
</g>
<!-- Node7 -->
<g id="Node000007" class="node">
<title>Node7</title>
<g id="a_Node000007"><a xlink:href="classunique__haplotype__block.html#ac6accb25615e067cd96ce3abdf82e70f" target="_top" xlink:title="Get the number of variants compressed in this block.">
<polygon fill="white" stroke="#666666" points="304.62,-85.5 170.12,-85.5 170.12,-52 304.62,-52 304.62,-85.5"/>
<text text-anchor="start" x="178.12" y="-72" font-family="Helvetica,sans-Serif" font-size="10.00">unique_haplotype_block</text>
<text text-anchor="middle" x="237.38" y="-59.25" font-family="Helvetica,sans-Serif" font-size="10.00">::variant_size</text>
</a>
</g>
</g>
<!-- Node1&#45;&gt;Node7 -->
<g id="edge6_Node000001_Node000007" class="edge">
<title>Node1&#45;&gt;Node7</title>
<g id="a_edge6_Node000001_Node000007"><a xlink:title=" ">
<path fill="none" stroke="#63b8ff" d="M82.43,-155.52C101.23,-138.21 132.27,-111.75 163,-94.75 165.63,-93.3 168.35,-91.9 171.13,-90.56"/>
<polygon fill="#63b8ff" stroke="#63b8ff" points="172.32,-93.87 180.02,-86.59 169.46,-87.48 172.32,-93.87"/>
</a>
</g>
</g>
<!-- Node8 -->
<g id="Node000008" class="node">
<title>Node8</title>
<g id="a_Node000008"><a xlink:href="classunique__haplotype__block.html#ad08c799f3eb6ffe2c7c5cad53f6381a9" target="_top" xlink:title="Get the list of compressed reference variants in this block.">
<polygon fill="white" stroke="#666666" points="304.62,-33.5 170.12,-33.5 170.12,0 304.62,0 304.62,-33.5"/>
<text text-anchor="start" x="178.12" y="-20" font-family="Helvetica,sans-Serif" font-size="10.00">unique_haplotype_block</text>
<text text-anchor="middle" x="237.38" y="-7.25" font-family="Helvetica,sans-Serif" font-size="10.00">::variants</text>
</a>
</g>
</g>
<!-- Node1&#45;&gt;Node8 -->
<g id="edge7_Node000001_Node000008" class="edge">
<title>Node1&#45;&gt;Node8</title>
<g id="a_edge7_Node000001_Node000008"><a xlink:title=" ">
<path fill="none" stroke="#63b8ff" d="M73.03,-155.88C87.75,-128.38 120.49,-73.84 163,-42.75 164.57,-41.6 166.21,-40.49 167.88,-39.43"/>
<polygon fill="#63b8ff" stroke="#63b8ff" points="169.53,-42.52 176.56,-34.59 166.12,-36.41 169.53,-42.52"/>
</a>
</g>
</g>
</g>
</svg>
