<?xml version="1.0" encoding="UTF-8" standalone="no"?>
<!DOCTYPE svg PUBLIC "-//W3C//DTD SVG 1.1//EN"
 "http://www.w3.org/Graphics/SVG/1.1/DTD/svg11.dtd">
<!-- Generated by graphviz version 12.2.1 (0)
 -->
<!-- Title: prog_args::fail_min_ratio Pages: 1 -->
<svg width="340pt" height="42pt"
 viewBox="0.00 0.00 340.25 41.50" xmlns="http://www.w3.org/2000/svg" xmlns:xlink="http://www.w3.org/1999/xlink">
<g id="graph0" class="graph" transform="scale(1 1) rotate(0) translate(4 37.5)">
<title>prog_args::fail_min_ratio</title>
<!-- Node1 -->
<g id="Node000001" class="node">
<title>Node1</title>
<g id="a_Node000001"><a xlink:title=" ">
<polygon fill="#999999" stroke="#666666" points="332.25,-33.5 222.5,-33.5 222.5,0 332.25,0 332.25,-33.5"/>
<text text-anchor="start" x="230.5" y="-20" font-family="Helvetica,sans-Serif" font-size="10.00">prog_args::fail_min</text>
<text text-anchor="middle" x="277.38" y="-7.25" font-family="Helvetica,sans-Serif" font-size="10.00">_ratio</text>
</a>
</g>
</g>
<!-- Node2 -->
<g id="Node000002" class="node">
<title>Node2</title>
<g id="a_Node000002"><a xlink:href="classimputation.html#a7b5222272b8a616e387a991194235d62" target="_top" xlink:title="Perform genotype imputation for a given genomic region.">
<polygon fill="white" stroke="#666666" points="186.5,-33.5 76.75,-33.5 76.75,0 186.5,0 186.5,-33.5"/>
<text text-anchor="start" x="84.75" y="-20" font-family="Helvetica,sans-Serif" font-size="10.00">imputation::impute</text>
<text text-anchor="middle" x="131.62" y="-7.25" font-family="Helvetica,sans-Serif" font-size="10.00">_chunk</text>
</a>
</g>
</g>
<!-- Node1&#45;&gt;Node2 -->
<g id="edge1_Node000001_Node000002" class="edge">
<title>Node1&#45;&gt;Node2</title>
<g id="a_edge1_Node000001_Node000002"><a xlink:title=" ">
<path fill="none" stroke="#63b8ff" d="M210.72,-16.75C202.64,-16.75 194.45,-16.75 186.57,-16.75"/>
<polygon fill="#63b8ff" stroke="#63b8ff" points="210.52,-20.25 220.52,-16.75 210.52,-13.25 210.52,-20.25"/>
</a>
</g>
</g>
<!-- Node3 -->
<g id="Node000003" class="node">
<title>Node3</title>
<g id="a_Node000003"><a xlink:href="main_8cpp.html#a3c04138a5bfe5d72780bb7e82a18e627" target="_top" xlink:title=" ">
<polygon fill="white" stroke="#666666" points="40.75,-27.12 0,-27.12 0,-6.38 40.75,-6.38 40.75,-27.12"/>
<text text-anchor="middle" x="20.38" y="-13.62" font-family="Helvetica,sans-Serif" font-size="10.00">main</text>
</a>
</g>
</g>
<!-- Node2&#45;&gt;Node3 -->
<g id="edge2_Node000002_Node000003" class="edge">
<title>Node2&#45;&gt;Node3</title>
<g id="a_edge2_Node000002_Node000003"><a xlink:title=" ">
<path fill="none" stroke="#63b8ff" d="M64.84,-16.75C56.22,-16.75 47.98,-16.75 41.04,-16.75"/>
<polygon fill="#63b8ff" stroke="#63b8ff" points="64.81,-20.25 74.81,-16.75 64.81,-13.25 64.81,-20.25"/>
</a>
</g>
</g>
</g>
</svg>
