<?xml version="1.0" encoding="UTF-8" standalone="no"?>
<!DOCTYPE svg PUBLIC "-//W3C//DTD SVG 1.1//EN"
 "http://www.w3.org/Graphics/SVG/1.1/DTD/svg11.dtd">
<!-- Generated by graphviz version 12.2.1 (0)
 -->
<!-- Title: unique_haplotype_block::variants Pages: 1 -->
<svg width="717pt" height="284pt"
 viewBox="0.00 0.00 717.25 283.54" xmlns="http://www.w3.org/2000/svg" xmlns:xlink="http://www.w3.org/1999/xlink">
<g id="graph0" class="graph" transform="scale(1 1) rotate(0) translate(4 279.54)">
<title>unique_haplotype_block::variants</title>
<!-- Node1 -->
<g id="Node000001" class="node">
<title>Node1</title>
<g id="a_Node000001"><a xlink:title="Get the list of compressed reference variants in this block.">
<polygon fill="#999999" stroke="#666666" points="709.25,-168.5 574.75,-168.5 574.75,-135 709.25,-135 709.25,-168.5"/>
<text text-anchor="start" x="582.75" y="-155" font-family="Helvetica,sans-Serif" font-size="10.00">unique_haplotype_block</text>
<text text-anchor="middle" x="642" y="-142.25" font-family="Helvetica,sans-Serif" font-size="10.00">::variants</text>
</a>
</g>
</g>
<!-- Node2 -->
<g id="Node000002" class="node">
<title>Node2</title>
<g id="a_Node000002"><a xlink:href="classreduced__haplotypes.html#abe0143dde9fc1721c441e0c23e739be5" target="_top" xlink:title="Appends a new haplotype block to the collection of reduced haplotype blocks.">
<polygon fill="white" stroke="#666666" points="532.38,-251.5 418.12,-251.5 418.12,-218 532.38,-218 532.38,-251.5"/>
<text text-anchor="start" x="426.12" y="-238" font-family="Helvetica,sans-Serif" font-size="10.00">reduced_haplotypes</text>
<text text-anchor="middle" x="475.25" y="-225.25" font-family="Helvetica,sans-Serif" font-size="10.00">::append_block</text>
</a>
</g>
</g>
<!-- Node1&#45;&gt;Node2 -->
<g id="edge1_Node000001_Node000002" class="edge">
<title>Node1&#45;&gt;Node2</title>
<g id="a_edge1_Node000001_Node000002"><a xlink:title=" ">
<path fill="none" stroke="#63b8ff" d="M597.18,-174.16C579.11,-183.37 557.94,-194.11 538.75,-203.75 529.77,-208.26 520.04,-213.11 510.99,-217.59"/>
<polygon fill="#63b8ff" stroke="#63b8ff" points="598.76,-177.28 606.08,-169.62 595.58,-171.04 598.76,-177.28"/>
</a>
</g>
</g>
<!-- Node3 -->
<g id="Node000003" class="node">
<title>Node3</title>
<g id="a_Node000003"><a xlink:href="input__prep_8cpp.html#a31b6160b69f849225374f36e12dab454" target="_top" xlink:title="Load and process reference haplotypes from an MVCF file.">
<polygon fill="white" stroke="#666666" points="375.75,-252.12 227.75,-252.12 227.75,-231.38 375.75,-231.38 375.75,-252.12"/>
<text text-anchor="middle" x="301.75" y="-238.62" font-family="Helvetica,sans-Serif" font-size="10.00">load_reference_haplotypes</text>
</a>
</g>
</g>
<!-- Node1&#45;&gt;Node3 -->
<g id="edge10_Node000001_Node000003" class="edge">
<title>Node1&#45;&gt;Node3</title>
<g id="a_edge10_Node000001_Node000003"><a xlink:title=" ">
<path fill="none" stroke="#63b8ff" d="M625.45,-178.16C608.12,-204.7 577.39,-244.02 538.75,-260.75 469.35,-290.81 377.79,-267.84 331.78,-252.55"/>
<polygon fill="#63b8ff" stroke="#63b8ff" points="628.25,-180.29 630.62,-169.96 622.33,-176.55 628.25,-180.29"/>
</a>
</g>
</g>
<!-- Node6 -->
<g id="Node000006" class="node">
<title>Node6</title>
<g id="a_Node000006"><a xlink:href="input__prep_8cpp.html#ae6103761cf74447b4a53fd6a17de447c" target="_top" xlink:title="Loads reference haplotypes using an older recombination&#45;based approach.">
<polygon fill="white" stroke="#666666" points="375.75,-213.5 227.75,-213.5 227.75,-180 375.75,-180 375.75,-213.5"/>
<text text-anchor="start" x="235.75" y="-200" font-family="Helvetica,sans-Serif" font-size="10.00">load_reference_haplotypes</text>
<text text-anchor="middle" x="301.75" y="-187.25" font-family="Helvetica,sans-Serif" font-size="10.00">_old_recom_approach</text>
</a>
</g>
</g>
<!-- Node1&#45;&gt;Node6 -->
<g id="edge11_Node000001_Node000006" class="edge">
<title>Node1&#45;&gt;Node6</title>
<g id="a_edge11_Node000001_Node000006"><a xlink:title=" ">
<path fill="none" stroke="#63b8ff" d="M563.23,-162.44C554.97,-163.57 546.69,-164.69 538.75,-165.75 484.28,-173.06 422.71,-181.14 376.11,-187.22"/>
<polygon fill="#63b8ff" stroke="#63b8ff" points="563.52,-165.94 572.95,-161.12 562.57,-159 563.52,-165.94"/>
</a>
</g>
</g>
<!-- Node7 -->
<g id="Node000007" class="node">
<title>Node7</title>
<g id="a_Node000007"><a xlink:href="input__prep_8cpp.html#ab5bd937ac31def9857144bb969f642b3" target="_top" xlink:title="Compress a haplotype reference panel into blocks and write to an output file.">
<polygon fill="white" stroke="#666666" points="191.75,-175.5 76.75,-175.5 76.75,-142 191.75,-142 191.75,-175.5"/>
<text text-anchor="start" x="84.75" y="-162" font-family="Helvetica,sans-Serif" font-size="10.00">compress_reference</text>
<text text-anchor="middle" x="134.25" y="-149.25" font-family="Helvetica,sans-Serif" font-size="10.00">_panel</text>
</a>
</g>
</g>
<!-- Node1&#45;&gt;Node7 -->
<g id="edge6_Node000001_Node000007" class="edge">
<title>Node1&#45;&gt;Node7</title>
<g id="a_edge6_Node000001_Node000007"><a xlink:title=" ">
<path fill="none" stroke="#63b8ff" d="M563.15,-152.83C460.58,-154.25 282.58,-156.71 191.89,-157.97"/>
<polygon fill="#63b8ff" stroke="#63b8ff" points="562.9,-156.33 572.85,-152.69 562.8,-149.33 562.9,-156.33"/>
</a>
</g>
</g>
<!-- Node8 -->
<g id="Node000008" class="node">
<title>Node8</title>
<g id="a_Node000008"><a xlink:href="input__prep_8cpp.html#a6b95ba39faa3a2487a7010a060dbad2a" target="_top" xlink:title="Converts an old M3VCF file (v1/v2) to a newer VCF&#45;like format (MVCFv3.0).">
<polygon fill="white" stroke="#666666" points="356.25,-124.12 247.25,-124.12 247.25,-103.38 356.25,-103.38 356.25,-124.12"/>
<text text-anchor="middle" x="301.75" y="-110.62" font-family="Helvetica,sans-Serif" font-size="10.00">convert_old_m3vcf</text>
</a>
</g>
</g>
<!-- Node1&#45;&gt;Node8 -->
<g id="edge8_Node000001_Node000008" class="edge">
<title>Node1&#45;&gt;Node8</title>
<g id="a_edge8_Node000001_Node000008"><a xlink:title=" ">
<path fill="none" stroke="#63b8ff" d="M563.26,-140.82C554.99,-139.74 546.7,-138.7 538.75,-137.75 476.39,-130.31 404.58,-123.22 356.7,-118.7"/>
<polygon fill="#63b8ff" stroke="#63b8ff" points="562.62,-144.26 572.99,-142.1 563.53,-137.32 562.62,-144.26"/>
</a>
</g>
</g>
<!-- Node9 -->
<g id="Node000009" class="node">
<title>Node9</title>
<g id="a_Node000009"><a xlink:href="classhidden__markov__model.html#aa0e5498c4f7f7ed9f11d1f81e3335fc6" target="_top" xlink:title="Performs a backward traversal over reference haplotypes to compute posterior probabilities.">
<polygon fill="white" stroke="#666666" points="538.75,-85.5 411.75,-85.5 411.75,-52 538.75,-52 538.75,-85.5"/>
<text text-anchor="start" x="419.75" y="-72" font-family="Helvetica,sans-Serif" font-size="10.00">hidden_markov_model</text>
<text text-anchor="middle" x="475.25" y="-59.25" font-family="Helvetica,sans-Serif" font-size="10.00">::traverse_backward</text>
</a>
</g>
</g>
<!-- Node1&#45;&gt;Node9 -->
<g id="edge12_Node000001_Node000009" class="edge">
<title>Node1&#45;&gt;Node9</title>
<g id="a_edge12_Node000001_Node000009"><a xlink:title=" ">
<path fill="none" stroke="#63b8ff" d="M597.18,-129.34C579.11,-120.13 557.94,-109.39 538.75,-99.75 529.77,-95.24 520.04,-90.39 510.99,-85.91"/>
<polygon fill="#63b8ff" stroke="#63b8ff" points="595.58,-132.46 606.08,-133.88 598.76,-126.22 595.58,-132.46"/>
</a>
</g>
</g>
<!-- Node10 -->
<g id="Node000010" class="node">
<title>Node10</title>
<g id="a_Node000010"><a xlink:href="classhidden__markov__model.html#aa1459d3b24365049cb34ea8f40ff828d" target="_top" xlink:title="Performs a forward traversal over reference haplotypes for a given target haplotype.">
<polygon fill="white" stroke="#666666" points="538.75,-33.5 411.75,-33.5 411.75,0 538.75,0 538.75,-33.5"/>
<text text-anchor="start" x="419.75" y="-20" font-family="Helvetica,sans-Serif" font-size="10.00">hidden_markov_model</text>
<text text-anchor="middle" x="475.25" y="-7.25" font-family="Helvetica,sans-Serif" font-size="10.00">::traverse_forward</text>
</a>
</g>
</g>
<!-- Node1&#45;&gt;Node10 -->
<g id="edge13_Node000001_Node000010" class="edge">
<title>Node1&#45;&gt;Node10</title>
<g id="a_edge13_Node000001_Node000010"><a xlink:title=" ">
<path fill="none" stroke="#63b8ff" d="M622.03,-125.93C603.16,-101.75 572.27,-65.97 538.75,-42.75 534.11,-39.54 529.02,-36.62 523.8,-33.99"/>
<polygon fill="#63b8ff" stroke="#63b8ff" points="619.1,-127.87 627.96,-133.68 624.66,-123.61 619.1,-127.87"/>
</a>
</g>
</g>
<!-- Node2&#45;&gt;Node3 -->
<g id="edge2_Node000002_Node000003" class="edge">
<title>Node2&#45;&gt;Node3</title>
<g id="a_edge2_Node000002_Node000003"><a xlink:title=" ">
<path fill="none" stroke="#63b8ff" d="M406.9,-237.5C396.83,-237.91 386.39,-238.34 376.2,-238.75"/>
<polygon fill="#63b8ff" stroke="#63b8ff" points="406.73,-241.01 416.58,-237.1 406.45,-234.01 406.73,-241.01"/>
</a>
</g>
</g>
<!-- Node2&#45;&gt;Node6 -->
<g id="edge5_Node000002_Node000006" class="edge">
<title>Node2&#45;&gt;Node6</title>
<g id="a_edge5_Node000002_Node000006"><a xlink:title=" ">
<path fill="none" stroke="#63b8ff" d="M406.9,-219.83C396.83,-217.59 386.39,-215.28 376.2,-213.02"/>
<polygon fill="#63b8ff" stroke="#63b8ff" points="406.1,-223.23 416.62,-221.98 407.61,-216.4 406.1,-223.23"/>
</a>
</g>
</g>
<!-- Node4 -->
<g id="Node000004" class="node">
<title>Node4</title>
<g id="a_Node000004"><a xlink:href="classimputation.html#a7b5222272b8a616e387a991194235d62" target="_top" xlink:title="Perform genotype imputation for a given genomic region.">
<polygon fill="white" stroke="#666666" points="189.12,-242.5 79.38,-242.5 79.38,-209 189.12,-209 189.12,-242.5"/>
<text text-anchor="start" x="87.38" y="-229" font-family="Helvetica,sans-Serif" font-size="10.00">imputation::impute</text>
<text text-anchor="middle" x="134.25" y="-216.25" font-family="Helvetica,sans-Serif" font-size="10.00">_chunk</text>
</a>
</g>
</g>
<!-- Node3&#45;&gt;Node4 -->
<g id="edge3_Node000003_Node000004" class="edge">
<title>Node3&#45;&gt;Node4</title>
<g id="a_edge3_Node000003_Node000004"><a xlink:title=" ">
<path fill="none" stroke="#63b8ff" d="M216.52,-233.61C207.35,-232.72 198.21,-231.84 189.54,-231"/>
<polygon fill="#63b8ff" stroke="#63b8ff" points="215.88,-237.06 226.17,-234.54 216.55,-230.09 215.88,-237.06"/>
</a>
</g>
</g>
<!-- Node5 -->
<g id="Node000005" class="node">
<title>Node5</title>
<g id="a_Node000005"><a xlink:href="main_8cpp.html#a3c04138a5bfe5d72780bb7e82a18e627" target="_top" xlink:title=" ">
<polygon fill="white" stroke="#666666" points="40.75,-169.12 0,-169.12 0,-148.38 40.75,-148.38 40.75,-169.12"/>
<text text-anchor="middle" x="20.38" y="-155.62" font-family="Helvetica,sans-Serif" font-size="10.00">main</text>
</a>
</g>
</g>
<!-- Node4&#45;&gt;Node5 -->
<g id="edge4_Node000004_Node000005" class="edge">
<title>Node4&#45;&gt;Node5</title>
<g id="a_edge4_Node000004_Node000005"><a xlink:title=" ">
<path fill="none" stroke="#63b8ff" d="M94.92,-202.79C76.09,-191.52 54.29,-178.46 39.34,-169.51"/>
<polygon fill="#63b8ff" stroke="#63b8ff" points="93.05,-205.76 103.43,-207.89 96.65,-199.75 93.05,-205.76"/>
</a>
</g>
</g>
<!-- Node7&#45;&gt;Node5 -->
<g id="edge7_Node000007_Node000005" class="edge">
<title>Node7&#45;&gt;Node5</title>
<g id="a_edge7_Node000007_Node000005"><a xlink:title=" ">
<path fill="none" stroke="#63b8ff" d="M64.88,-158.75C56.29,-158.75 48.11,-158.75 41.21,-158.75"/>
<polygon fill="#63b8ff" stroke="#63b8ff" points="64.82,-162.25 74.82,-158.75 64.82,-155.25 64.82,-162.25"/>
</a>
</g>
</g>
<!-- Node8&#45;&gt;Node5 -->
<g id="edge9_Node000008_Node000005" class="edge">
<title>Node8&#45;&gt;Node5</title>
<g id="a_edge9_Node000008_Node000005"><a xlink:title=" ">
<path fill="none" stroke="#63b8ff" d="M235.45,-113.24C190.2,-114.35 128.94,-118.77 76.75,-132.75 63.93,-136.19 50.42,-142.47 39.96,-147.99"/>
<polygon fill="#63b8ff" stroke="#63b8ff" points="235.44,-116.74 245.37,-113.05 235.31,-109.75 235.44,-116.74"/>
</a>
</g>
</g>
</g>
</svg>
