<?xml version="1.0" encoding="UTF-8" standalone="no"?>
<!DOCTYPE svg PUBLIC "-//W3C//DTD SVG 1.1//EN"
 "http://www.w3.org/Graphics/SVG/1.1/DTD/svg11.dtd">
<!-- Generated by graphviz version 12.2.1 (0)
 -->
<!-- Title: unique_haplotype_block::variant_size Pages: 1 -->
<svg width="725pt" height="139pt"
 viewBox="0.00 0.00 724.75 138.50" xmlns="http://www.w3.org/2000/svg" xmlns:xlink="http://www.w3.org/1999/xlink">
<g id="graph0" class="graph" transform="scale(1 1) rotate(0) translate(4 134.5)">
<title>unique_haplotype_block::variant_size</title>
<!-- Node1 -->
<g id="Node000001" class="node">
<title>Node1</title>
<g id="a_Node000001"><a xlink:title="Get the number of variants compressed in this block.">
<polygon fill="#999999" stroke="#666666" points="716.75,-85.5 582.25,-85.5 582.25,-52 716.75,-52 716.75,-85.5"/>
<text text-anchor="start" x="590.25" y="-72" font-family="Helvetica,sans-Serif" font-size="10.00">unique_haplotype_block</text>
<text text-anchor="middle" x="649.5" y="-59.25" font-family="Helvetica,sans-Serif" font-size="10.00">::variant_size</text>
</a>
</g>
</g>
<!-- Node2 -->
<g id="Node000002" class="node">
<title>Node2</title>
<g id="a_Node000002"><a xlink:href="input__prep_8cpp.html#ab5bd937ac31def9857144bb969f642b3" target="_top" xlink:title="Compress a haplotype reference panel into blocks and write to an output file.">
<polygon fill="white" stroke="#666666" points="191.75,-130.5 76.75,-130.5 76.75,-97 191.75,-97 191.75,-130.5"/>
<text text-anchor="start" x="84.75" y="-117" font-family="Helvetica,sans-Serif" font-size="10.00">compress_reference</text>
<text text-anchor="middle" x="134.25" y="-104.25" font-family="Helvetica,sans-Serif" font-size="10.00">_panel</text>
</a>
</g>
</g>
<!-- Node1&#45;&gt;Node2 -->
<g id="edge1_Node000001_Node000002" class="edge">
<title>Node1&#45;&gt;Node2</title>
<g id="a_edge1_Node000001_Node000002"><a xlink:title=" ">
<path fill="none" stroke="#63b8ff" d="M578.21,-88.61C567.57,-91.03 556.67,-93.2 546.25,-94.75 420.84,-113.4 271.75,-115.32 192.11,-114.75"/>
<polygon fill="#63b8ff" stroke="#63b8ff" points="578.78,-92.07 587.7,-86.35 577.16,-85.26 578.78,-92.07"/>
</a>
</g>
</g>
<!-- Node4 -->
<g id="Node000004" class="node">
<title>Node4</title>
<g id="a_Node000004"><a xlink:href="classhidden__markov__model.html#aa1459d3b24365049cb34ea8f40ff828d" target="_top" xlink:title="Performs a forward traversal over reference haplotypes for a given target haplotype.">
<polygon fill="white" stroke="#666666" points="542.5,-85.5 415.5,-85.5 415.5,-52 542.5,-52 542.5,-85.5"/>
<text text-anchor="start" x="423.5" y="-72" font-family="Helvetica,sans-Serif" font-size="10.00">hidden_markov_model</text>
<text text-anchor="middle" x="479" y="-59.25" font-family="Helvetica,sans-Serif" font-size="10.00">::traverse_forward</text>
</a>
</g>
</g>
<!-- Node1&#45;&gt;Node4 -->
<g id="edge3_Node000001_Node000004" class="edge">
<title>Node1&#45;&gt;Node4</title>
<g id="a_edge3_Node000001_Node000004"><a xlink:title=" ">
<path fill="none" stroke="#63b8ff" d="M570.62,-68.75C561.31,-68.75 551.88,-68.75 542.82,-68.75"/>
<polygon fill="#63b8ff" stroke="#63b8ff" points="570.39,-72.25 580.39,-68.75 570.39,-65.25 570.39,-72.25"/>
</a>
</g>
</g>
<!-- Node5 -->
<g id="Node000005" class="node">
<title>Node5</title>
<g id="a_Node000005"><a xlink:href="classunique__haplotype__block.html#aad2e7d5ff6d7e6e0860edb6521fc033c" target="_top" xlink:title="Trims variants outside a specified genomic range.">
<polygon fill="white" stroke="#666666" points="546.25,-33.5 411.75,-33.5 411.75,0 546.25,0 546.25,-33.5"/>
<text text-anchor="start" x="419.75" y="-20" font-family="Helvetica,sans-Serif" font-size="10.00">unique_haplotype_block</text>
<text text-anchor="middle" x="479" y="-7.25" font-family="Helvetica,sans-Serif" font-size="10.00">::trim</text>
</a>
</g>
</g>
<!-- Node1&#45;&gt;Node5 -->
<g id="edge4_Node000001_Node000005" class="edge">
<title>Node1&#45;&gt;Node5</title>
<g id="a_edge4_Node000001_Node000005"><a xlink:title=" ">
<path fill="none" stroke="#63b8ff" d="M581.93,-48.21C566.68,-43.5 550.62,-38.54 535.87,-33.99"/>
<polygon fill="#63b8ff" stroke="#63b8ff" points="580.83,-51.53 591.41,-51.13 582.89,-44.84 580.83,-51.53"/>
</a>
</g>
</g>
<!-- Node3 -->
<g id="Node000003" class="node">
<title>Node3</title>
<g id="a_Node000003"><a xlink:href="main_8cpp.html#a3c04138a5bfe5d72780bb7e82a18e627" target="_top" xlink:title=" ">
<polygon fill="white" stroke="#666666" points="40.75,-98.12 0,-98.12 0,-77.38 40.75,-77.38 40.75,-98.12"/>
<text text-anchor="middle" x="20.38" y="-84.62" font-family="Helvetica,sans-Serif" font-size="10.00">main</text>
</a>
</g>
</g>
<!-- Node2&#45;&gt;Node3 -->
<g id="edge2_Node000002_Node000003" class="edge">
<title>Node2&#45;&gt;Node3</title>
<g id="a_edge2_Node000002_Node000003"><a xlink:title=" ">
<path fill="none" stroke="#63b8ff" d="M65.16,-97.93C56.47,-95.91 48.19,-93.98 41.21,-92.36"/>
<polygon fill="#63b8ff" stroke="#63b8ff" points="64.32,-101.32 74.86,-100.18 65.91,-94.51 64.32,-101.32"/>
</a>
</g>
</g>
<!-- Node6 -->
<g id="Node000006" class="node">
<title>Node6</title>
<g id="a_Node000006"><a xlink:href="input__prep_8cpp.html#a31b6160b69f849225374f36e12dab454" target="_top" xlink:title="Load and process reference haplotypes from an MVCF file.">
<polygon fill="white" stroke="#666666" points="375.75,-72.12 227.75,-72.12 227.75,-51.38 375.75,-51.38 375.75,-72.12"/>
<text text-anchor="middle" x="301.75" y="-58.62" font-family="Helvetica,sans-Serif" font-size="10.00">load_reference_haplotypes</text>
</a>
</g>
</g>
<!-- Node5&#45;&gt;Node6 -->
<g id="edge5_Node000005_Node000006" class="edge">
<title>Node5&#45;&gt;Node6</title>
<g id="a_edge5_Node000005_Node000006"><a xlink:title=" ">
<path fill="none" stroke="#63b8ff" d="M400.86,-36.56C381.66,-41.49 361.78,-46.59 344.97,-50.91"/>
<polygon fill="#63b8ff" stroke="#63b8ff" points="401.46,-40.02 410.28,-34.14 399.72,-33.24 401.46,-40.02"/>
</a>
</g>
</g>
<!-- Node8 -->
<g id="Node000008" class="node">
<title>Node8</title>
<g id="a_Node000008"><a xlink:href="input__prep_8cpp.html#ae6103761cf74447b4a53fd6a17de447c" target="_top" xlink:title="Loads reference haplotypes using an older recombination&#45;based approach.">
<polygon fill="white" stroke="#666666" points="375.75,-33.5 227.75,-33.5 227.75,0 375.75,0 375.75,-33.5"/>
<text text-anchor="start" x="235.75" y="-20" font-family="Helvetica,sans-Serif" font-size="10.00">load_reference_haplotypes</text>
<text text-anchor="middle" x="301.75" y="-7.25" font-family="Helvetica,sans-Serif" font-size="10.00">_old_recom_approach</text>
</a>
</g>
</g>
<!-- Node5&#45;&gt;Node8 -->
<g id="edge8_Node000005_Node000008" class="edge">
<title>Node5&#45;&gt;Node8</title>
<g id="a_edge8_Node000005_Node000008"><a xlink:title=" ">
<path fill="none" stroke="#63b8ff" d="M400.43,-16.75C392.36,-16.75 384.16,-16.75 376.14,-16.75"/>
<polygon fill="#63b8ff" stroke="#63b8ff" points="400.23,-20.25 410.23,-16.75 400.23,-13.25 400.23,-20.25"/>
</a>
</g>
</g>
<!-- Node7 -->
<g id="Node000007" class="node">
<title>Node7</title>
<g id="a_Node000007"><a xlink:href="classimputation.html#a7b5222272b8a616e387a991194235d62" target="_top" xlink:title="Perform genotype imputation for a given genomic region.">
<polygon fill="white" stroke="#666666" points="189.12,-78.5 79.38,-78.5 79.38,-45 189.12,-45 189.12,-78.5"/>
<text text-anchor="start" x="87.38" y="-65" font-family="Helvetica,sans-Serif" font-size="10.00">imputation::impute</text>
<text text-anchor="middle" x="134.25" y="-52.25" font-family="Helvetica,sans-Serif" font-size="10.00">_chunk</text>
</a>
</g>
</g>
<!-- Node6&#45;&gt;Node7 -->
<g id="edge6_Node000006_Node000007" class="edge">
<title>Node6&#45;&gt;Node7</title>
<g id="a_edge6_Node000006_Node000007"><a xlink:title=" ">
<path fill="none" stroke="#63b8ff" d="M216.21,-61.75C207.15,-61.75 198.11,-61.75 189.54,-61.75"/>
<polygon fill="#63b8ff" stroke="#63b8ff" points="216.16,-65.25 226.16,-61.75 216.16,-58.25 216.16,-65.25"/>
</a>
</g>
</g>
<!-- Node7&#45;&gt;Node3 -->
<g id="edge7_Node000007_Node000003" class="edge">
<title>Node7&#45;&gt;Node3</title>
<g id="a_edge7_Node000007_Node000003"><a xlink:title=" ">
<path fill="none" stroke="#63b8ff" d="M67.84,-76.95C58.1,-79.22 48.75,-81.39 41.02,-83.18"/>
<polygon fill="#63b8ff" stroke="#63b8ff" points="68.53,-80.38 77.48,-74.71 66.94,-73.57 68.53,-80.38"/>
</a>
</g>
</g>
</g>
</svg>
