<?xml version="1.0" encoding="UTF-8" standalone="no"?>
<!DOCTYPE svg PUBLIC "-//W3C//DTD SVG 1.1//EN"
 "http://www.w3.org/Graphics/SVG/1.1/DTD/svg11.dtd">
<!-- Generated by graphviz version 12.2.1 (0)
 -->
<!-- Title: prog_args::map_path Pages: 1 -->
<svg width="349pt" height="58pt"
 viewBox="0.00 0.00 349.25 58.12" xmlns="http://www.w3.org/2000/svg" xmlns:xlink="http://www.w3.org/1999/xlink">
<g id="graph0" class="graph" transform="scale(1 1) rotate(0) translate(4 54.12)">
<title>prog_args::map_path</title>
<!-- Node1 -->
<g id="Node000001" class="node">
<title>Node1</title>
<g id="a_Node000001"><a xlink:title=" ">
<polygon fill="#999999" stroke="#666666" points="341.25,-20.75 222.5,-20.75 222.5,0 341.25,0 341.25,-20.75"/>
<text text-anchor="middle" x="281.88" y="-7.25" font-family="Helvetica,sans-Serif" font-size="10.00">prog_args::map_path</text>
</a>
</g>
</g>
<!-- Node2 -->
<g id="Node000002" class="node">
<title>Node2</title>
<g id="a_Node000002"><a xlink:href="classimputation.html#a7b5222272b8a616e387a991194235d62" target="_top" xlink:title="Perform genotype imputation for a given genomic region.">
<polygon fill="white" stroke="#666666" points="186.5,-50.12 76.75,-50.12 76.75,-16.62 186.5,-16.62 186.5,-50.12"/>
<text text-anchor="start" x="84.75" y="-36.62" font-family="Helvetica,sans-Serif" font-size="10.00">imputation::impute</text>
<text text-anchor="middle" x="131.62" y="-23.88" font-family="Helvetica,sans-Serif" font-size="10.00">_chunk</text>
</a>
</g>
</g>
<!-- Node1&#45;&gt;Node2 -->
<g id="edge1_Node000001_Node000002" class="edge">
<title>Node1&#45;&gt;Node2</title>
<g id="a_edge1_Node000001_Node000002"><a xlink:title=" ">
<path fill="none" stroke="#63b8ff" d="M210.96,-21.22C202.89,-22.47 194.75,-23.74 186.93,-24.95"/>
<polygon fill="#63b8ff" stroke="#63b8ff" points="211.44,-24.69 220.79,-19.7 210.37,-17.77 211.44,-24.69"/>
</a>
</g>
</g>
<!-- Node3 -->
<g id="Node000003" class="node">
<title>Node3</title>
<g id="a_Node000003"><a xlink:href="main_8cpp.html#a3c04138a5bfe5d72780bb7e82a18e627" target="_top" xlink:title=" ">
<polygon fill="white" stroke="#666666" points="40.75,-20.75 0,-20.75 0,0 40.75,0 40.75,-20.75"/>
<text text-anchor="middle" x="20.38" y="-7.25" font-family="Helvetica,sans-Serif" font-size="10.00">main</text>
</a>
</g>
</g>
<!-- Node1&#45;&gt;Node3 -->
<g id="edge3_Node000001_Node000003" class="edge">
<title>Node1&#45;&gt;Node3</title>
<g id="a_edge3_Node000001_Node000003"><a xlink:title=" ">
<path fill="none" stroke="#63b8ff" d="M211.01,-7.91C171.58,-6.88 121.41,-6.17 76.75,-7.38 64.91,-7.7 51.67,-8.4 41.1,-9.05"/>
<polygon fill="#63b8ff" stroke="#63b8ff" points="210.75,-11.4 220.84,-8.18 210.94,-4.4 210.75,-11.4"/>
</a>
</g>
</g>
<!-- Node2&#45;&gt;Node3 -->
<g id="edge2_Node000002_Node000003" class="edge">
<title>Node2&#45;&gt;Node3</title>
<g id="a_edge2_Node000002_Node000003"><a xlink:title=" ">
<path fill="none" stroke="#63b8ff" d="M65.13,-19.59C56.4,-17.75 48.06,-15.99 41.04,-14.52"/>
<polygon fill="#63b8ff" stroke="#63b8ff" points="64.33,-23 74.84,-21.63 65.77,-16.15 64.33,-23"/>
</a>
</g>
</g>
</g>
</svg>
