<?xml version="1.0" encoding="UTF-8" standalone="no"?>
<!DOCTYPE svg PUBLIC "-//W3C//DTD SVG 1.1//EN"
 "http://www.w3.org/Graphics/SVG/1.1/DTD/svg11.dtd">
<!-- Generated by graphviz version 12.2.1 (0)
 -->
<!-- Title: unique_haplotype_block::trim Pages: 1 -->
<svg width="549pt" height="87pt"
 viewBox="0.00 0.00 549.00 86.50" xmlns="http://www.w3.org/2000/svg" xmlns:xlink="http://www.w3.org/1999/xlink">
<g id="graph0" class="graph" transform="scale(1 1) rotate(0) translate(4 82.5)">
<title>unique_haplotype_block::trim</title>
<!-- Node1 -->
<g id="Node000001" class="node">
<title>Node1</title>
<g id="a_Node000001"><a xlink:title="Trims variants outside a specified genomic range.">
<polygon fill="#999999" stroke="#666666" points="541,-55.5 406.5,-55.5 406.5,-22 541,-22 541,-55.5"/>
<text text-anchor="start" x="414.5" y="-42" font-family="Helvetica,sans-Serif" font-size="10.00">unique_haplotype_block</text>
<text text-anchor="middle" x="473.75" y="-29.25" font-family="Helvetica,sans-Serif" font-size="10.00">::trim</text>
</a>
</g>
</g>
<!-- Node2 -->
<g id="Node000002" class="node">
<title>Node2</title>
<g id="a_Node000002"><a xlink:href="input__prep_8cpp.html#a31b6160b69f849225374f36e12dab454" target="_top" xlink:title="Load and process reference haplotypes from an MVCF file.">
<polygon fill="white" stroke="#666666" points="370.5,-72.12 222.5,-72.12 222.5,-51.38 370.5,-51.38 370.5,-72.12"/>
<text text-anchor="middle" x="296.5" y="-58.62" font-family="Helvetica,sans-Serif" font-size="10.00">load_reference_haplotypes</text>
</a>
</g>
</g>
<!-- Node1&#45;&gt;Node2 -->
<g id="edge1_Node000001_Node000002" class="edge">
<title>Node1&#45;&gt;Node2</title>
<g id="a_edge1_Node000001_Node000002"><a xlink:title=" ">
<path fill="none" stroke="#63b8ff" d="M395.18,-48.93C387.11,-49.99 378.91,-51.07 370.89,-52.12"/>
<polygon fill="#63b8ff" stroke="#63b8ff" points="395.54,-52.41 404.99,-47.64 394.62,-45.47 395.54,-52.41"/>
</a>
</g>
</g>
<!-- Node5 -->
<g id="Node000005" class="node">
<title>Node5</title>
<g id="a_Node000005"><a xlink:href="input__prep_8cpp.html#ae6103761cf74447b4a53fd6a17de447c" target="_top" xlink:title="Loads reference haplotypes using an older recombination&#45;based approach.">
<polygon fill="white" stroke="#666666" points="370.5,-33.5 222.5,-33.5 222.5,0 370.5,0 370.5,-33.5"/>
<text text-anchor="start" x="230.5" y="-20" font-family="Helvetica,sans-Serif" font-size="10.00">load_reference_haplotypes</text>
<text text-anchor="middle" x="296.5" y="-7.25" font-family="Helvetica,sans-Serif" font-size="10.00">_old_recom_approach</text>
</a>
</g>
</g>
<!-- Node1&#45;&gt;Node5 -->
<g id="edge4_Node000001_Node000005" class="edge">
<title>Node1&#45;&gt;Node5</title>
<g id="a_edge4_Node000001_Node000005"><a xlink:title=" ">
<path fill="none" stroke="#63b8ff" d="M395.18,-29.01C387.11,-28 378.91,-26.97 370.89,-25.96"/>
<polygon fill="#63b8ff" stroke="#63b8ff" points="394.64,-32.47 404.99,-30.24 395.51,-25.53 394.64,-32.47"/>
</a>
</g>
</g>
<!-- Node3 -->
<g id="Node000003" class="node">
<title>Node3</title>
<g id="a_Node000003"><a xlink:href="classimputation.html#a7b5222272b8a616e387a991194235d62" target="_top" xlink:title="Perform genotype imputation for a given genomic region.">
<polygon fill="white" stroke="#666666" points="186.5,-78.5 76.75,-78.5 76.75,-45 186.5,-45 186.5,-78.5"/>
<text text-anchor="start" x="84.75" y="-65" font-family="Helvetica,sans-Serif" font-size="10.00">imputation::impute</text>
<text text-anchor="middle" x="131.62" y="-52.25" font-family="Helvetica,sans-Serif" font-size="10.00">_chunk</text>
</a>
</g>
</g>
<!-- Node2&#45;&gt;Node3 -->
<g id="edge2_Node000002_Node000003" class="edge">
<title>Node2&#45;&gt;Node3</title>
<g id="a_edge2_Node000002_Node000003"><a xlink:title=" ">
<path fill="none" stroke="#63b8ff" d="M210.88,-61.75C202.61,-61.75 194.38,-61.75 186.54,-61.75"/>
<polygon fill="#63b8ff" stroke="#63b8ff" points="210.65,-65.25 220.65,-61.75 210.65,-58.25 210.65,-65.25"/>
</a>
</g>
</g>
<!-- Node4 -->
<g id="Node000004" class="node">
<title>Node4</title>
<g id="a_Node000004"><a xlink:href="main_8cpp.html#a3c04138a5bfe5d72780bb7e82a18e627" target="_top" xlink:title=" ">
<polygon fill="white" stroke="#666666" points="40.75,-72.12 0,-72.12 0,-51.38 40.75,-51.38 40.75,-72.12"/>
<text text-anchor="middle" x="20.38" y="-58.62" font-family="Helvetica,sans-Serif" font-size="10.00">main</text>
</a>
</g>
</g>
<!-- Node3&#45;&gt;Node4 -->
<g id="edge3_Node000003_Node000004" class="edge">
<title>Node3&#45;&gt;Node4</title>
<g id="a_edge3_Node000003_Node000004"><a xlink:title=" ">
<path fill="none" stroke="#63b8ff" d="M64.84,-61.75C56.22,-61.75 47.98,-61.75 41.04,-61.75"/>
<polygon fill="#63b8ff" stroke="#63b8ff" points="64.81,-65.25 74.81,-61.75 64.81,-58.25 64.81,-65.25"/>
</a>
</g>
</g>
</g>
</svg>
