<?xml version="1.0" encoding="UTF-8" standalone="no"?>
<!DOCTYPE svg PUBLIC "-//W3C//DTD SVG 1.1//EN"
 "http://www.w3.org/Graphics/SVG/1.1/DTD/svg11.dtd">
<!-- Generated by graphviz version 12.2.1 (0)
 -->
<!-- Title: unique_haplotype_block::clear Pages: 1 -->
<svg width="725pt" height="310pt"
 viewBox="0.00 0.00 724.75 309.50" xmlns="http://www.w3.org/2000/svg" xmlns:xlink="http://www.w3.org/1999/xlink">
<g id="graph0" class="graph" transform="scale(1 1) rotate(0) translate(4 305.5)">
<title>unique_haplotype_block::clear</title>
<!-- Node1 -->
<g id="Node000001" class="node">
<title>Node1</title>
<g id="a_Node000001"><a xlink:title="Clears all data stored in the haplotype block.">
<polygon fill="#999999" stroke="#666666" points="716.75,-163.5 582.25,-163.5 582.25,-130 716.75,-130 716.75,-163.5"/>
<text text-anchor="start" x="590.25" y="-150" font-family="Helvetica,sans-Serif" font-size="10.00">unique_haplotype_block</text>
<text text-anchor="middle" x="649.5" y="-137.25" font-family="Helvetica,sans-Serif" font-size="10.00">::clear</text>
</a>
</g>
</g>
<!-- Node2 -->
<g id="Node000002" class="node">
<title>Node2</title>
<g id="a_Node000002"><a xlink:href="input__prep_8cpp.html#ab5bd937ac31def9857144bb969f642b3" target="_top" xlink:title="Compress a haplotype reference panel into blocks and write to an output file.">
<polygon fill="white" stroke="#666666" points="191.75,-301.5 76.75,-301.5 76.75,-268 191.75,-268 191.75,-301.5"/>
<text text-anchor="start" x="84.75" y="-288" font-family="Helvetica,sans-Serif" font-size="10.00">compress_reference</text>
<text text-anchor="middle" x="134.25" y="-275.25" font-family="Helvetica,sans-Serif" font-size="10.00">_panel</text>
</a>
</g>
</g>
<!-- Node1&#45;&gt;Node2 -->
<g id="edge1_Node000001_Node000002" class="edge">
<title>Node1&#45;&gt;Node2</title>
<g id="a_edge1_Node000001_Node000002"><a xlink:title=" ">
<path fill="none" stroke="#63b8ff" d="M631.25,-172.91C613.28,-197.73 582.68,-233.68 546.25,-250.75 429.88,-305.28 274.63,-300.06 192.24,-292.07"/>
<polygon fill="#63b8ff" stroke="#63b8ff" points="633.98,-175.13 636.86,-164.93 628.25,-171.11 633.98,-175.13"/>
</a>
</g>
</g>
<!-- Node4 -->
<g id="Node000004" class="node">
<title>Node4</title>
<g id="a_Node000004"><a xlink:href="classunique__haplotype__block.html#ae1dd4716bc959e1166e35a9c73086e36" target="_top" xlink:title="Deserializes a unique haplotype block from a SAVVY input file and variant.">
<polygon fill="white" stroke="#666666" points="546.25,-137.5 411.75,-137.5 411.75,-104 546.25,-104 546.25,-137.5"/>
<text text-anchor="start" x="419.75" y="-124" font-family="Helvetica,sans-Serif" font-size="10.00">unique_haplotype_block</text>
<text text-anchor="middle" x="479" y="-111.25" font-family="Helvetica,sans-Serif" font-size="10.00">::deserialize</text>
</a>
</g>
</g>
<!-- Node1&#45;&gt;Node4 -->
<g id="edge3_Node000001_Node000004" class="edge">
<title>Node1&#45;&gt;Node4</title>
<g id="a_edge3_Node000001_Node000004"><a xlink:title=" ">
<path fill="none" stroke="#63b8ff" d="M570.65,-134.74C562.64,-133.5 554.54,-132.25 546.66,-131.04"/>
<polygon fill="#63b8ff" stroke="#63b8ff" points="569.99,-138.18 580.41,-136.24 571.06,-131.26 569.99,-138.18"/>
</a>
</g>
</g>
<!-- Node5 -->
<g id="Node000005" class="node">
<title>Node5</title>
<g id="a_Node000005"><a xlink:href="classunique__haplotype__block.html#ada3ab17532ea5baefd80fe72307846f2" target="_top" xlink:title="Deserialize a unique haplotype block from an input stream (m3vcf format).">
<polygon fill="white" stroke="#666666" points="546.25,-241.5 411.75,-241.5 411.75,-208 546.25,-208 546.25,-241.5"/>
<text text-anchor="start" x="419.75" y="-228" font-family="Helvetica,sans-Serif" font-size="10.00">unique_haplotype_block</text>
<text text-anchor="middle" x="479" y="-215.25" font-family="Helvetica,sans-Serif" font-size="10.00">::deserialize</text>
</a>
</g>
</g>
<!-- Node1&#45;&gt;Node5 -->
<g id="edge4_Node000001_Node000005" class="edge">
<title>Node1&#45;&gt;Node5</title>
<g id="a_edge4_Node000001_Node000005"><a xlink:title=" ">
<path fill="none" stroke="#63b8ff" d="M606.59,-169.22C588.26,-178.74 566.39,-189.7 546.25,-198.75 539.6,-201.74 532.5,-204.73 525.5,-207.56"/>
<polygon fill="#63b8ff" stroke="#63b8ff" points="608.07,-172.39 615.31,-164.65 604.83,-166.19 608.07,-172.39"/>
</a>
</g>
</g>
<!-- Node10 -->
<g id="Node000010" class="node">
<title>Node10</title>
<g id="a_Node000010"><a xlink:href="classhidden__markov__model.html#aa0e5498c4f7f7ed9f11d1f81e3335fc6" target="_top" xlink:title="Performs a backward traversal over reference haplotypes to compute posterior probabilities.">
<polygon fill="white" stroke="#666666" points="542.5,-85.5 415.5,-85.5 415.5,-52 542.5,-52 542.5,-85.5"/>
<text text-anchor="start" x="423.5" y="-72" font-family="Helvetica,sans-Serif" font-size="10.00">hidden_markov_model</text>
<text text-anchor="middle" x="479" y="-59.25" font-family="Helvetica,sans-Serif" font-size="10.00">::traverse_backward</text>
</a>
</g>
</g>
<!-- Node1&#45;&gt;Node10 -->
<g id="edge11_Node000001_Node000010" class="edge">
<title>Node1&#45;&gt;Node10</title>
<g id="a_edge11_Node000001_Node000010"><a xlink:title=" ">
<path fill="none" stroke="#63b8ff" d="M606.59,-124.28C588.26,-114.76 566.39,-103.8 546.25,-94.75 539.6,-91.76 532.5,-88.77 525.5,-85.94"/>
<polygon fill="#63b8ff" stroke="#63b8ff" points="604.83,-127.31 615.31,-128.85 608.07,-121.11 604.83,-127.31"/>
</a>
</g>
</g>
<!-- Node11 -->
<g id="Node000011" class="node">
<title>Node11</title>
<g id="a_Node000011"><a xlink:href="classhidden__markov__model.html#aa1459d3b24365049cb34ea8f40ff828d" target="_top" xlink:title="Performs a forward traversal over reference haplotypes for a given target haplotype.">
<polygon fill="white" stroke="#666666" points="542.5,-33.5 415.5,-33.5 415.5,0 542.5,0 542.5,-33.5"/>
<text text-anchor="start" x="423.5" y="-20" font-family="Helvetica,sans-Serif" font-size="10.00">hidden_markov_model</text>
<text text-anchor="middle" x="479" y="-7.25" font-family="Helvetica,sans-Serif" font-size="10.00">::traverse_forward</text>
</a>
</g>
</g>
<!-- Node1&#45;&gt;Node11 -->
<g id="edge12_Node000001_Node000011" class="edge">
<title>Node1&#45;&gt;Node11</title>
<g id="a_edge12_Node000001_Node000011"><a xlink:title=" ">
<path fill="none" stroke="#63b8ff" d="M628.49,-120.92C609.45,-97.81 578.93,-64.34 546.25,-42.75 541.3,-39.48 535.88,-36.52 530.34,-33.88"/>
<polygon fill="#63b8ff" stroke="#63b8ff" points="625.72,-123.07 634.73,-128.65 631.17,-118.67 625.72,-123.07"/>
</a>
</g>
</g>
<!-- Node12 -->
<g id="Node000012" class="node">
<title>Node12</title>
<g id="a_Node000012"><a xlink:href="classunique__haplotype__block.html#aad2e7d5ff6d7e6e0860edb6521fc033c" target="_top" xlink:title="Trims variants outside a specified genomic range.">
<polygon fill="white" stroke="#666666" points="546.25,-189.5 411.75,-189.5 411.75,-156 546.25,-156 546.25,-189.5"/>
<text text-anchor="start" x="419.75" y="-176" font-family="Helvetica,sans-Serif" font-size="10.00">unique_haplotype_block</text>
<text text-anchor="middle" x="479" y="-163.25" font-family="Helvetica,sans-Serif" font-size="10.00">::trim</text>
</a>
</g>
</g>
<!-- Node1&#45;&gt;Node12 -->
<g id="edge13_Node000001_Node000012" class="edge">
<title>Node1&#45;&gt;Node12</title>
<g id="a_edge13_Node000001_Node000012"><a xlink:title=" ">
<path fill="none" stroke="#63b8ff" d="M570.65,-158.76C562.64,-160 554.54,-161.25 546.66,-162.46"/>
<polygon fill="#63b8ff" stroke="#63b8ff" points="571.06,-162.24 580.41,-157.26 569.99,-155.32 571.06,-162.24"/>
</a>
</g>
</g>
<!-- Node3 -->
<g id="Node000003" class="node">
<title>Node3</title>
<g id="a_Node000003"><a xlink:href="main_8cpp.html#a3c04138a5bfe5d72780bb7e82a18e627" target="_top" xlink:title=" ">
<polygon fill="white" stroke="#666666" points="40.75,-250.12 0,-250.12 0,-229.38 40.75,-229.38 40.75,-250.12"/>
<text text-anchor="middle" x="20.38" y="-236.62" font-family="Helvetica,sans-Serif" font-size="10.00">main</text>
</a>
</g>
</g>
<!-- Node2&#45;&gt;Node3 -->
<g id="edge2_Node000002_Node000003" class="edge">
<title>Node2&#45;&gt;Node3</title>
<g id="a_edge2_Node000002_Node000003"><a xlink:title=" ">
<path fill="none" stroke="#63b8ff" d="M80.09,-263.37C66.17,-257.77 52.01,-252.07 41.09,-247.68"/>
<polygon fill="#63b8ff" stroke="#63b8ff" points="78.65,-266.56 89.23,-267.04 81.26,-260.07 78.65,-266.56"/>
</a>
</g>
</g>
<!-- Node6 -->
<g id="Node000006" class="node">
<title>Node6</title>
<g id="a_Node000006"><a xlink:href="input__prep_8cpp.html#a6b95ba39faa3a2487a7010a060dbad2a" target="_top" xlink:title="Converts an old M3VCF file (v1/v2) to a newer VCF&#45;like format (MVCFv3.0).">
<polygon fill="white" stroke="#666666" points="188.75,-250.12 79.75,-250.12 79.75,-229.38 188.75,-229.38 188.75,-250.12"/>
<text text-anchor="middle" x="134.25" y="-236.62" font-family="Helvetica,sans-Serif" font-size="10.00">convert_old_m3vcf</text>
</a>
</g>
</g>
<!-- Node5&#45;&gt;Node6 -->
<g id="edge5_Node000005_Node000006" class="edge">
<title>Node5&#45;&gt;Node6</title>
<g id="a_edge5_Node000005_Node000006"><a xlink:title=" ">
<path fill="none" stroke="#63b8ff" d="M400.19,-228.16C335.77,-230.97 245.91,-234.91 189.17,-237.39"/>
<polygon fill="#63b8ff" stroke="#63b8ff" points="400.16,-231.66 410,-227.73 399.85,-224.67 400.16,-231.66"/>
</a>
</g>
</g>
<!-- Node7 -->
<g id="Node000007" class="node">
<title>Node7</title>
<g id="a_Node000007"><a xlink:href="input__prep_8cpp.html#a31b6160b69f849225374f36e12dab454" target="_top" xlink:title="Load and process reference haplotypes from an MVCF file.">
<polygon fill="white" stroke="#666666" points="375.75,-212.12 227.75,-212.12 227.75,-191.38 375.75,-191.38 375.75,-212.12"/>
<text text-anchor="middle" x="301.75" y="-198.62" font-family="Helvetica,sans-Serif" font-size="10.00">load_reference_haplotypes</text>
</a>
</g>
</g>
<!-- Node5&#45;&gt;Node7 -->
<g id="edge7_Node000005_Node000007" class="edge">
<title>Node5&#45;&gt;Node7</title>
<g id="a_edge7_Node000005_Node000007"><a xlink:title=" ">
<path fill="none" stroke="#63b8ff" d="M400.43,-214.57C392.36,-213.51 384.16,-212.43 376.14,-211.38"/>
<polygon fill="#63b8ff" stroke="#63b8ff" points="399.87,-218.03 410.24,-215.86 400.79,-211.09 399.87,-218.03"/>
</a>
</g>
</g>
<!-- Node9 -->
<g id="Node000009" class="node">
<title>Node9</title>
<g id="a_Node000009"><a xlink:href="input__prep_8cpp.html#ae6103761cf74447b4a53fd6a17de447c" target="_top" xlink:title="Loads reference haplotypes using an older recombination&#45;based approach.">
<polygon fill="white" stroke="#666666" points="375.75,-173.5 227.75,-173.5 227.75,-140 375.75,-140 375.75,-173.5"/>
<text text-anchor="start" x="235.75" y="-160" font-family="Helvetica,sans-Serif" font-size="10.00">load_reference_haplotypes</text>
<text text-anchor="middle" x="301.75" y="-147.25" font-family="Helvetica,sans-Serif" font-size="10.00">_old_recom_approach</text>
</a>
</g>
</g>
<!-- Node5&#45;&gt;Node9 -->
<g id="edge10_Node000005_Node000009" class="edge">
<title>Node5&#45;&gt;Node9</title>
<g id="a_edge10_Node000005_Node000009"><a xlink:title=" ">
<path fill="none" stroke="#63b8ff" d="M422.78,-203.29C419.04,-201.77 415.34,-200.25 411.75,-198.75 395.6,-191.99 392.01,-189.25 375.75,-182.75 368.25,-179.75 360.26,-176.73 352.42,-173.87"/>
<polygon fill="#63b8ff" stroke="#63b8ff" points="421.36,-206.49 431.94,-206.97 423.97,-200 421.36,-206.49"/>
</a>
</g>
</g>
<!-- Node6&#45;&gt;Node3 -->
<g id="edge6_Node000006_Node000003" class="edge">
<title>Node6&#45;&gt;Node3</title>
<g id="a_edge6_Node000006_Node000003"><a xlink:title=" ">
<path fill="none" stroke="#63b8ff" d="M67.81,-239.75C58.13,-239.75 48.85,-239.75 41.15,-239.75"/>
<polygon fill="#63b8ff" stroke="#63b8ff" points="67.77,-243.25 77.77,-239.75 67.77,-236.25 67.77,-243.25"/>
</a>
</g>
</g>
<!-- Node8 -->
<g id="Node000008" class="node">
<title>Node8</title>
<g id="a_Node000008"><a xlink:href="classimputation.html#a7b5222272b8a616e387a991194235d62" target="_top" xlink:title="Perform genotype imputation for a given genomic region.">
<polygon fill="white" stroke="#666666" points="189.12,-211.5 79.38,-211.5 79.38,-178 189.12,-178 189.12,-211.5"/>
<text text-anchor="start" x="87.38" y="-198" font-family="Helvetica,sans-Serif" font-size="10.00">imputation::impute</text>
<text text-anchor="middle" x="134.25" y="-185.25" font-family="Helvetica,sans-Serif" font-size="10.00">_chunk</text>
</a>
</g>
</g>
<!-- Node7&#45;&gt;Node8 -->
<g id="edge8_Node000007_Node000008" class="edge">
<title>Node7&#45;&gt;Node8</title>
<g id="a_edge8_Node000007_Node000008"><a xlink:title=" ">
<path fill="none" stroke="#63b8ff" d="M216.21,-198.17C207.15,-197.79 198.11,-197.41 189.54,-197.05"/>
<polygon fill="#63b8ff" stroke="#63b8ff" points="216.03,-201.67 226.17,-198.6 216.32,-194.68 216.03,-201.67"/>
</a>
</g>
</g>
<!-- Node8&#45;&gt;Node3 -->
<g id="edge9_Node000008_Node000003" class="edge">
<title>Node8&#45;&gt;Node3</title>
<g id="a_edge9_Node000008_Node000003"><a xlink:title=" ">
<path fill="none" stroke="#63b8ff" d="M80.09,-216.13C66.17,-221.73 52.01,-227.43 41.09,-231.82"/>
<polygon fill="#63b8ff" stroke="#63b8ff" points="81.26,-219.43 89.23,-212.46 78.65,-212.94 81.26,-219.43"/>
</a>
</g>
</g>
<!-- Node12&#45;&gt;Node7 -->
<g id="edge14_Node000012_Node000007" class="edge">
<title>Node12&#45;&gt;Node7</title>
<g id="a_edge14_Node000012_Node000007"><a xlink:title=" ">
<path fill="none" stroke="#63b8ff" d="M400.59,-185.56C389.79,-187.35 378.78,-189.17 368.23,-190.92"/>
<polygon fill="#63b8ff" stroke="#63b8ff" points="400.96,-189.05 410.25,-183.96 399.81,-182.14 400.96,-189.05"/>
</a>
</g>
</g>
<!-- Node12&#45;&gt;Node9 -->
<g id="edge15_Node000012_Node000009" class="edge">
<title>Node12&#45;&gt;Node9</title>
<g id="a_edge15_Node000012_Node000009"><a xlink:title=" ">
<path fill="none" stroke="#63b8ff" d="M400.43,-165.67C392.36,-164.93 384.16,-164.18 376.14,-163.45"/>
<polygon fill="#63b8ff" stroke="#63b8ff" points="399.96,-169.14 410.24,-166.56 400.6,-162.17 399.96,-169.14"/>
</a>
</g>
</g>
</g>
</svg>
