<?xml version="1.0" encoding="UTF-8" standalone="no"?>
<!DOCTYPE svg PUBLIC "-//W3C//DTD SVG 1.1//EN"
 "http://www.w3.org/Graphics/SVG/1.1/DTD/svg11.dtd">
<!-- Generated by graphviz version 12.2.1 (0)
 -->
<!-- Title: reduced_haplotypes::reduced_haplotypes Pages: 1 -->
<svg width="436pt" height="198pt"
 viewBox="0.00 0.00 436.25 197.50" xmlns="http://www.w3.org/2000/svg" xmlns:xlink="http://www.w3.org/1999/xlink">
<g id="graph0" class="graph" transform="scale(1 1) rotate(0) translate(4 193.5)">
<title>reduced_haplotypes::reduced_haplotypes</title>
<!-- Node1 -->
<g id="Node000001" class="node">
<title>Node1</title>
<g id="a_Node000001"><a xlink:title=" ">
<polygon fill="#999999" stroke="#666666" points="428.25,-111.5 308,-111.5 308,-78 428.25,-78 428.25,-111.5"/>
<text text-anchor="start" x="316" y="-98" font-family="Helvetica,sans-Serif" font-size="10.00">reduced_haplotypes</text>
<text text-anchor="middle" x="368.12" y="-85.25" font-family="Helvetica,sans-Serif" font-size="10.00">::reduced_haplotypes</text>
</a>
</g>
</g>
<!-- Node2 -->
<g id="Node000002" class="node">
<title>Node2</title>
<g id="a_Node000002"><a xlink:href="classreduced__haplotypes_1_1iterator.html#a725f25f70b4c0205b9ebe781748f8d15" target="_top" xlink:title=" ">
<polygon fill="white" stroke="#666666" points="272,-111.5 157.75,-111.5 157.75,-78 272,-78 272,-111.5"/>
<text text-anchor="start" x="165.75" y="-98" font-family="Helvetica,sans-Serif" font-size="10.00">reduced_haplotypes</text>
<text text-anchor="middle" x="214.88" y="-85.25" font-family="Helvetica,sans-Serif" font-size="10.00">::iterator::iterator</text>
</a>
</g>
</g>
<!-- Node1&#45;&gt;Node2 -->
<g id="edge1_Node000001_Node000002" class="edge">
<title>Node1&#45;&gt;Node2</title>
<g id="a_edge1_Node000001_Node000002"><a xlink:title=" ">
<path fill="none" stroke="#63b8ff" d="M296.36,-94.75C288.22,-94.75 280,-94.75 272.08,-94.75"/>
<polygon fill="#63b8ff" stroke="#63b8ff" points="296.27,-98.25 306.27,-94.75 296.27,-91.25 296.27,-98.25"/>
</a>
</g>
</g>
<!-- Node3 -->
<g id="Node000003" class="node">
<title>Node3</title>
<g id="a_Node000003"><a xlink:href="classreduced__haplotypes_1_1iterator.html#a23c6d8779d0832061652255a254a868b" target="_top" xlink:title=" ">
<polygon fill="white" stroke="#666666" points="121.75,-189.5 0,-189.5 0,-156 121.75,-156 121.75,-189.5"/>
<text text-anchor="start" x="8" y="-176" font-family="Helvetica,sans-Serif" font-size="10.00">reduced_haplotypes</text>
<text text-anchor="middle" x="60.88" y="-163.25" font-family="Helvetica,sans-Serif" font-size="10.00">::iterator::operator++</text>
</a>
</g>
</g>
<!-- Node2&#45;&gt;Node3 -->
<g id="edge2_Node000002_Node000003" class="edge">
<title>Node2&#45;&gt;Node3</title>
<g id="a_edge2_Node000002_Node000003"><a xlink:title=" ">
<path fill="none" stroke="#63b8ff" d="M175.5,-117.59C159.14,-127.02 139.72,-137.81 121.75,-146.75 115.76,-149.73 109.36,-152.72 103.04,-155.55"/>
<polygon fill="#63b8ff" stroke="#63b8ff" points="177.05,-120.74 183.94,-112.69 173.53,-114.69 177.05,-120.74"/>
</a>
</g>
</g>
<!-- Node4 -->
<g id="Node000004" class="node">
<title>Node4</title>
<g id="a_Node000004"><a xlink:href="classreduced__haplotypes_1_1iterator.html#a15a9e53c0213deb821f4326aeb93dbd1" target="_top" xlink:title=" ">
<polygon fill="white" stroke="#666666" points="121.75,-137.5 0,-137.5 0,-104 121.75,-104 121.75,-137.5"/>
<text text-anchor="start" x="8" y="-124" font-family="Helvetica,sans-Serif" font-size="10.00">reduced_haplotypes</text>
<text text-anchor="middle" x="60.88" y="-111.25" font-family="Helvetica,sans-Serif" font-size="10.00">::iterator::operator++</text>
</a>
</g>
</g>
<!-- Node2&#45;&gt;Node4 -->
<g id="edge3_Node000002_Node000004" class="edge">
<title>Node2&#45;&gt;Node4</title>
<g id="a_edge3_Node000002_Node000004"><a xlink:title=" ">
<path fill="none" stroke="#63b8ff" d="M146.09,-106.35C138.09,-107.71 129.97,-109.1 122.09,-110.45"/>
<polygon fill="#63b8ff" stroke="#63b8ff" points="146.52,-109.82 155.78,-104.69 145.34,-102.92 146.52,-109.82"/>
</a>
</g>
</g>
<!-- Node5 -->
<g id="Node000005" class="node">
<title>Node5</title>
<g id="a_Node000005"><a xlink:href="classreduced__haplotypes_1_1iterator.html#a19b2252297adb27f6b7ecdc00c824279" target="_top" xlink:title=" ">
<polygon fill="white" stroke="#666666" points="118,-85.5 3.75,-85.5 3.75,-52 118,-52 118,-85.5"/>
<text text-anchor="start" x="11.75" y="-72" font-family="Helvetica,sans-Serif" font-size="10.00">reduced_haplotypes</text>
<text text-anchor="middle" x="60.88" y="-59.25" font-family="Helvetica,sans-Serif" font-size="10.00">::iterator::operator&#45;&#45;</text>
</a>
</g>
</g>
<!-- Node2&#45;&gt;Node5 -->
<g id="edge4_Node000002_Node000005" class="edge">
<title>Node2&#45;&gt;Node5</title>
<g id="a_edge4_Node000002_Node000005"><a xlink:title=" ">
<path fill="none" stroke="#63b8ff" d="M146.07,-83.15C136.78,-81.56 127.32,-79.95 118.27,-78.4"/>
<polygon fill="#63b8ff" stroke="#63b8ff" points="145.34,-86.58 155.78,-84.81 146.52,-79.68 145.34,-86.58"/>
</a>
</g>
</g>
<!-- Node6 -->
<g id="Node000006" class="node">
<title>Node6</title>
<g id="a_Node000006"><a xlink:href="classreduced__haplotypes_1_1iterator.html#a33ef19469278510c2bbe616b9525c803" target="_top" xlink:title=" ">
<polygon fill="white" stroke="#666666" points="118,-33.5 3.75,-33.5 3.75,0 118,0 118,-33.5"/>
<text text-anchor="start" x="11.75" y="-20" font-family="Helvetica,sans-Serif" font-size="10.00">reduced_haplotypes</text>
<text text-anchor="middle" x="60.88" y="-7.25" font-family="Helvetica,sans-Serif" font-size="10.00">::iterator::operator&#45;&#45;</text>
</a>
</g>
</g>
<!-- Node2&#45;&gt;Node6 -->
<g id="edge5_Node000002_Node000006" class="edge">
<title>Node2&#45;&gt;Node6</title>
<g id="a_edge5_Node000002_Node000006"><a xlink:title=" ">
<path fill="none" stroke="#63b8ff" d="M175.5,-71.91C159.14,-62.48 139.72,-51.69 121.75,-42.75 115.76,-39.77 109.36,-36.78 103.04,-33.95"/>
<polygon fill="#63b8ff" stroke="#63b8ff" points="173.53,-74.81 183.94,-76.81 177.05,-68.76 173.53,-74.81"/>
</a>
</g>
</g>
</g>
</svg>
