<?xml version="1.0" encoding="UTF-8" standalone="no"?>
<!DOCTYPE svg PUBLIC "-//W3C//DTD SVG 1.1//EN"
 "http://www.w3.org/Graphics/SVG/1.1/DTD/svg11.dtd">
<!-- Generated by graphviz version 12.2.1 (0)
 -->
<!-- Title: recombination::cm_to_switch_prob Pages: 1 -->
<svg width="539pt" height="125pt"
 viewBox="0.00 0.00 538.50 125.12" xmlns="http://www.w3.org/2000/svg" xmlns:xlink="http://www.w3.org/1999/xlink">
<g id="graph0" class="graph" transform="scale(1 1) rotate(0) translate(4 121.12)">
<title>recombination::cm_to_switch_prob</title>
<!-- Node1 -->
<g id="Node000001" class="node">
<title>Node1</title>
<g id="a_Node000001"><a xlink:title="Convert genetic distance to switch probability (default decay rate).">
<polygon fill="#999999" stroke="#666666" points="530.5,-72.12 408,-72.12 408,-38.62 530.5,-38.62 530.5,-72.12"/>
<text text-anchor="start" x="416" y="-58.62" font-family="Helvetica,sans-Serif" font-size="10.00">recombination::cm_to</text>
<text text-anchor="middle" x="469.25" y="-45.88" font-family="Helvetica,sans-Serif" font-size="10.00">_switch_prob</text>
</a>
</g>
</g>
<!-- Node2 -->
<g id="Node000002" class="node">
<title>Node2</title>
<g id="a_Node000002"><a xlink:href="input__prep_8cpp.html#a31b6160b69f849225374f36e12dab454" target="_top" xlink:title="Load and process reference haplotypes from an MVCF file.">
<polygon fill="white" stroke="#666666" points="371.25,-110.75 223.25,-110.75 223.25,-90 371.25,-90 371.25,-110.75"/>
<text text-anchor="middle" x="297.25" y="-97.25" font-family="Helvetica,sans-Serif" font-size="10.00">load_reference_haplotypes</text>
</a>
</g>
</g>
<!-- Node1&#45;&gt;Node2 -->
<g id="edge1_Node000001_Node000002" class="edge">
<title>Node1&#45;&gt;Node2</title>
<g id="a_edge1_Node000001_Node000002"><a xlink:title=" ">
<path fill="none" stroke="#63b8ff" d="M396.78,-74.78C388.43,-77.02 380.03,-79.26 372,-81.38 361.9,-84.04 351.01,-86.87 340.78,-89.51"/>
<polygon fill="#63b8ff" stroke="#63b8ff" points="397.48,-78.22 406.23,-72.24 395.67,-71.46 397.48,-78.22"/>
</a>
</g>
</g>
<!-- Node5 -->
<g id="Node000005" class="node">
<title>Node5</title>
<g id="a_Node000005"><a xlink:href="input__prep_8cpp.html#ae6103761cf74447b4a53fd6a17de447c" target="_top" xlink:title="Loads reference haplotypes using an older recombination&#45;based approach.">
<polygon fill="white" stroke="#666666" points="371.25,-72.12 223.25,-72.12 223.25,-38.62 371.25,-38.62 371.25,-72.12"/>
<text text-anchor="start" x="231.25" y="-58.62" font-family="Helvetica,sans-Serif" font-size="10.00">load_reference_haplotypes</text>
<text text-anchor="middle" x="297.25" y="-45.88" font-family="Helvetica,sans-Serif" font-size="10.00">_old_recom_approach</text>
</a>
</g>
</g>
<!-- Node1&#45;&gt;Node5 -->
<g id="edge4_Node000001_Node000005" class="edge">
<title>Node1&#45;&gt;Node5</title>
<g id="a_edge4_Node000001_Node000005"><a xlink:title=" ">
<path fill="none" stroke="#63b8ff" d="M396.38,-55.38C388.17,-55.38 379.8,-55.38 371.57,-55.38"/>
<polygon fill="#63b8ff" stroke="#63b8ff" points="396.32,-58.88 406.32,-55.38 396.32,-51.88 396.32,-58.88"/>
</a>
</g>
</g>
<!-- Node6 -->
<g id="Node000006" class="node">
<title>Node6</title>
<g id="a_Node000006"><a xlink:href="input__prep_8cpp.html#ad0c14a19ad01f940f506c712b7c5b8ba" target="_top" xlink:title="Loads Hidden Markov Model (HMM) parameters for target variants.">
<polygon fill="white" stroke="#666666" points="372,-20.75 222.5,-20.75 222.5,0 372,0 372,-20.75"/>
<text text-anchor="middle" x="297.25" y="-7.25" font-family="Helvetica,sans-Serif" font-size="10.00">load_variant_hmm_params</text>
</a>
</g>
</g>
<!-- Node1&#45;&gt;Node6 -->
<g id="edge5_Node000001_Node000006" class="edge">
<title>Node1&#45;&gt;Node6</title>
<g id="a_edge5_Node000001_Node000006"><a xlink:title=" ">
<path fill="none" stroke="#63b8ff" d="M396.78,-35.97C388.43,-33.73 380.03,-31.49 372,-29.38 361.9,-26.71 351.01,-23.88 340.78,-21.24"/>
<polygon fill="#63b8ff" stroke="#63b8ff" points="395.67,-39.29 406.23,-38.51 397.48,-32.53 395.67,-39.29"/>
</a>
</g>
</g>
<!-- Node3 -->
<g id="Node000003" class="node">
<title>Node3</title>
<g id="a_Node000003"><a xlink:href="classimputation.html#a7b5222272b8a616e387a991194235d62" target="_top" xlink:title="Perform genotype imputation for a given genomic region.">
<polygon fill="white" stroke="#666666" points="186.5,-117.12 76.75,-117.12 76.75,-83.62 186.5,-83.62 186.5,-117.12"/>
<text text-anchor="start" x="84.75" y="-103.62" font-family="Helvetica,sans-Serif" font-size="10.00">imputation::impute</text>
<text text-anchor="middle" x="131.62" y="-90.88" font-family="Helvetica,sans-Serif" font-size="10.00">_chunk</text>
</a>
</g>
</g>
<!-- Node2&#45;&gt;Node3 -->
<g id="edge2_Node000002_Node000003" class="edge">
<title>Node2&#45;&gt;Node3</title>
<g id="a_edge2_Node000002_Node000003"><a xlink:title=" ">
<path fill="none" stroke="#63b8ff" d="M211.81,-100.38C203.25,-100.38 194.73,-100.38 186.63,-100.38"/>
<polygon fill="#63b8ff" stroke="#63b8ff" points="211.54,-103.88 221.54,-100.38 211.54,-96.88 211.54,-103.88"/>
</a>
</g>
</g>
<!-- Node4 -->
<g id="Node000004" class="node">
<title>Node4</title>
<g id="a_Node000004"><a xlink:href="main_8cpp.html#a3c04138a5bfe5d72780bb7e82a18e627" target="_top" xlink:title=" ">
<polygon fill="white" stroke="#666666" points="40.75,-110.75 0,-110.75 0,-90 40.75,-90 40.75,-110.75"/>
<text text-anchor="middle" x="20.38" y="-97.25" font-family="Helvetica,sans-Serif" font-size="10.00">main</text>
</a>
</g>
</g>
<!-- Node3&#45;&gt;Node4 -->
<g id="edge3_Node000003_Node000004" class="edge">
<title>Node3&#45;&gt;Node4</title>
<g id="a_edge3_Node000003_Node000004"><a xlink:title=" ">
<path fill="none" stroke="#63b8ff" d="M64.84,-100.38C56.22,-100.38 47.98,-100.38 41.04,-100.38"/>
<polygon fill="#63b8ff" stroke="#63b8ff" points="64.81,-103.88 74.81,-100.38 64.81,-96.88 64.81,-103.88"/>
</a>
</g>
</g>
</g>
</svg>
