<?xml version="1.0" encoding="UTF-8" standalone="no"?>
<!DOCTYPE svg PUBLIC "-//W3C//DTD SVG 1.1//EN"
 "http://www.w3.org/Graphics/SVG/1.1/DTD/svg11.dtd">
<!-- Generated by graphviz version 12.2.1 (0)
 -->
<!-- Title: genetic_map_file::interpolate_centimorgan Pages: 1 -->
<svg width="573pt" height="132pt"
 viewBox="0.00 0.00 573.00 131.50" xmlns="http://www.w3.org/2000/svg" xmlns:xlink="http://www.w3.org/1999/xlink">
<g id="graph0" class="graph" transform="scale(1 1) rotate(0) translate(4 127.5)">
<title>genetic_map_file::interpolate_centimorgan</title>
<!-- Node1 -->
<g id="Node000001" class="node">
<title>Node1</title>
<g id="a_Node000001"><a xlink:title="Interpolate the genetic map position (in centimorgans) for a variant.">
<polygon fill="#999999" stroke="#666666" points="565,-78.5 406.5,-78.5 406.5,-45 565,-45 565,-78.5"/>
<text text-anchor="start" x="414.5" y="-65" font-family="Helvetica,sans-Serif" font-size="10.00">genetic_map_file::interpolate</text>
<text text-anchor="middle" x="485.75" y="-52.25" font-family="Helvetica,sans-Serif" font-size="10.00">_centimorgan</text>
</a>
</g>
</g>
<!-- Node2 -->
<g id="Node000002" class="node">
<title>Node2</title>
<g id="a_Node000002"><a xlink:href="classunique__haplotype__block.html#a6cece685c1b9ed1e8605d6da1605fca8" target="_top" xlink:title="Fills the centimorgan (cM) values for all variants in the haplotype block.">
<polygon fill="white" stroke="#666666" points="363.75,-123.5 229.25,-123.5 229.25,-90 363.75,-90 363.75,-123.5"/>
<text text-anchor="start" x="237.25" y="-110" font-family="Helvetica,sans-Serif" font-size="10.00">unique_haplotype_block</text>
<text text-anchor="middle" x="296.5" y="-97.25" font-family="Helvetica,sans-Serif" font-size="10.00">::fill_cm</text>
</a>
</g>
</g>
<!-- Node1&#45;&gt;Node2 -->
<g id="edge1_Node000001_Node000002" class="edge">
<title>Node1&#45;&gt;Node2</title>
<g id="a_edge1_Node000001_Node000002"><a xlink:title=" ">
<path fill="none" stroke="#63b8ff" d="M402.09,-81.61C389.39,-84.67 376.42,-87.78 364.13,-90.74"/>
<polygon fill="#63b8ff" stroke="#63b8ff" points="402.78,-85.05 411.69,-79.31 401.14,-78.24 402.78,-85.05"/>
</a>
</g>
</g>
<!-- Node5 -->
<g id="Node000005" class="node">
<title>Node5</title>
<g id="a_Node000005"><a xlink:href="input__prep_8cpp.html#a31b6160b69f849225374f36e12dab454" target="_top" xlink:title="Load and process reference haplotypes from an MVCF file.">
<polygon fill="white" stroke="#666666" points="370.5,-72.12 222.5,-72.12 222.5,-51.38 370.5,-51.38 370.5,-72.12"/>
<text text-anchor="middle" x="296.5" y="-58.62" font-family="Helvetica,sans-Serif" font-size="10.00">load_reference_haplotypes</text>
</a>
</g>
</g>
<!-- Node1&#45;&gt;Node5 -->
<g id="edge4_Node000001_Node000005" class="edge">
<title>Node1&#45;&gt;Node5</title>
<g id="a_edge4_Node000001_Node000005"><a xlink:title=" ">
<path fill="none" stroke="#63b8ff" d="M394.83,-61.75C386.78,-61.75 378.7,-61.75 370.82,-61.75"/>
<polygon fill="#63b8ff" stroke="#63b8ff" points="394.64,-65.25 404.64,-61.75 394.64,-58.25 394.64,-65.25"/>
</a>
</g>
</g>
<!-- Node7 -->
<g id="Node000007" class="node">
<title>Node7</title>
<g id="a_Node000007"><a xlink:href="input__prep_8cpp.html#ae6103761cf74447b4a53fd6a17de447c" target="_top" xlink:title="Loads reference haplotypes using an older recombination&#45;based approach.">
<polygon fill="white" stroke="#666666" points="370.5,-33.5 222.5,-33.5 222.5,0 370.5,0 370.5,-33.5"/>
<text text-anchor="start" x="230.5" y="-20" font-family="Helvetica,sans-Serif" font-size="10.00">load_reference_haplotypes</text>
<text text-anchor="middle" x="296.5" y="-7.25" font-family="Helvetica,sans-Serif" font-size="10.00">_old_recom_approach</text>
</a>
</g>
</g>
<!-- Node1&#45;&gt;Node7 -->
<g id="edge7_Node000001_Node000007" class="edge">
<title>Node1&#45;&gt;Node7</title>
<g id="a_edge7_Node000001_Node000007"><a xlink:title=" ">
<path fill="none" stroke="#63b8ff" d="M402.2,-41.91C391.15,-39.26 379.89,-36.55 369.05,-33.95"/>
<polygon fill="#63b8ff" stroke="#63b8ff" points="401.14,-45.26 411.69,-44.19 402.78,-38.45 401.14,-45.26"/>
</a>
</g>
</g>
<!-- Node3 -->
<g id="Node000003" class="node">
<title>Node3</title>
<g id="a_Node000003"><a xlink:href="input__prep_8cpp.html#a6b95ba39faa3a2487a7010a060dbad2a" target="_top" xlink:title="Converts an old M3VCF file (v1/v2) to a newer VCF&#45;like format (MVCFv3.0).">
<polygon fill="white" stroke="#666666" points="186.12,-117.12 77.12,-117.12 77.12,-96.38 186.12,-96.38 186.12,-117.12"/>
<text text-anchor="middle" x="131.62" y="-103.62" font-family="Helvetica,sans-Serif" font-size="10.00">convert_old_m3vcf</text>
</a>
</g>
</g>
<!-- Node2&#45;&gt;Node3 -->
<g id="edge2_Node000002_Node000003" class="edge">
<title>Node2&#45;&gt;Node3</title>
<g id="a_edge2_Node000002_Node000003"><a xlink:title=" ">
<path fill="none" stroke="#63b8ff" d="M217.49,-106.75C207.02,-106.75 196.47,-106.75 186.55,-106.75"/>
<polygon fill="#63b8ff" stroke="#63b8ff" points="217.27,-110.25 227.27,-106.75 217.27,-103.25 217.27,-110.25"/>
</a>
</g>
</g>
<!-- Node4 -->
<g id="Node000004" class="node">
<title>Node4</title>
<g id="a_Node000004"><a xlink:href="main_8cpp.html#a3c04138a5bfe5d72780bb7e82a18e627" target="_top" xlink:title=" ">
<polygon fill="white" stroke="#666666" points="40.75,-94.12 0,-94.12 0,-73.38 40.75,-73.38 40.75,-94.12"/>
<text text-anchor="middle" x="20.38" y="-80.62" font-family="Helvetica,sans-Serif" font-size="10.00">main</text>
</a>
</g>
</g>
<!-- Node3&#45;&gt;Node4 -->
<g id="edge3_Node000003_Node000004" class="edge">
<title>Node3&#45;&gt;Node4</title>
<g id="a_edge3_Node000003_Node000004"><a xlink:title=" ">
<path fill="none" stroke="#63b8ff" d="M68.13,-93.59C58.4,-91.54 49,-89.57 41.22,-87.93"/>
<polygon fill="#63b8ff" stroke="#63b8ff" points="67.21,-96.98 77.72,-95.61 68.65,-90.13 67.21,-96.98"/>
</a>
</g>
</g>
<!-- Node6 -->
<g id="Node000006" class="node">
<title>Node6</title>
<g id="a_Node000006"><a xlink:href="classimputation.html#a7b5222272b8a616e387a991194235d62" target="_top" xlink:title="Perform genotype imputation for a given genomic region.">
<polygon fill="white" stroke="#666666" points="186.5,-78.5 76.75,-78.5 76.75,-45 186.5,-45 186.5,-78.5"/>
<text text-anchor="start" x="84.75" y="-65" font-family="Helvetica,sans-Serif" font-size="10.00">imputation::impute</text>
<text text-anchor="middle" x="131.62" y="-52.25" font-family="Helvetica,sans-Serif" font-size="10.00">_chunk</text>
</a>
</g>
</g>
<!-- Node5&#45;&gt;Node6 -->
<g id="edge5_Node000005_Node000006" class="edge">
<title>Node5&#45;&gt;Node6</title>
<g id="a_edge5_Node000005_Node000006"><a xlink:title=" ">
<path fill="none" stroke="#63b8ff" d="M210.88,-61.75C202.61,-61.75 194.38,-61.75 186.54,-61.75"/>
<polygon fill="#63b8ff" stroke="#63b8ff" points="210.65,-65.25 220.65,-61.75 210.65,-58.25 210.65,-65.25"/>
</a>
</g>
</g>
<!-- Node6&#45;&gt;Node4 -->
<g id="edge6_Node000006_Node000004" class="edge">
<title>Node6&#45;&gt;Node4</title>
<g id="a_edge6_Node000006_Node000004"><a xlink:title=" ">
<path fill="none" stroke="#63b8ff" d="M65.13,-74.94C56.4,-76.7 48.06,-78.38 41.04,-79.79"/>
<polygon fill="#63b8ff" stroke="#63b8ff" points="65.72,-78.39 74.84,-72.98 64.34,-71.53 65.72,-78.39"/>
</a>
</g>
</g>
</g>
</svg>
