<?xml version="1.0" encoding="UTF-8" standalone="no"?>
<!DOCTYPE svg PUBLIC "-//W3C//DTD SVG 1.1//EN"
 "http://www.w3.org/Graphics/SVG/1.1/DTD/svg11.dtd">
<!-- Generated by graphviz version 12.2.1 (0)
 -->
<!-- Title: unique_haplotype_block::unique_map Pages: 1 -->
<svg width="549pt" height="191pt"
 viewBox="0.00 0.00 549.00 190.50" xmlns="http://www.w3.org/2000/svg" xmlns:xlink="http://www.w3.org/1999/xlink">
<g id="graph0" class="graph" transform="scale(1 1) rotate(0) translate(4 186.5)">
<title>unique_haplotype_block::unique_map</title>
<!-- Node1 -->
<g id="Node000001" class="node">
<title>Node1</title>
<g id="a_Node000001"><a xlink:title="Get the mapping from haplotypes to unique columns.">
<polygon fill="#999999" stroke="#666666" points="541,-111.5 406.5,-111.5 406.5,-78 541,-78 541,-111.5"/>
<text text-anchor="start" x="414.5" y="-98" font-family="Helvetica,sans-Serif" font-size="10.00">unique_haplotype_block</text>
<text text-anchor="middle" x="473.75" y="-85.25" font-family="Helvetica,sans-Serif" font-size="10.00">::unique_map</text>
</a>
</g>
</g>
<!-- Node2 -->
<g id="Node000002" class="node">
<title>Node2</title>
<g id="a_Node000002"><a xlink:href="input__prep_8cpp.html#a31b6160b69f849225374f36e12dab454" target="_top" xlink:title="Load and process reference haplotypes from an MVCF file.">
<polygon fill="white" stroke="#666666" points="370.5,-176.12 222.5,-176.12 222.5,-155.38 370.5,-155.38 370.5,-176.12"/>
<text text-anchor="middle" x="296.5" y="-162.62" font-family="Helvetica,sans-Serif" font-size="10.00">load_reference_haplotypes</text>
</a>
</g>
</g>
<!-- Node1&#45;&gt;Node2 -->
<g id="edge1_Node000001_Node000002" class="edge">
<title>Node1&#45;&gt;Node2</title>
<g id="a_edge1_Node000001_Node000002"><a xlink:title=" ">
<path fill="none" stroke="#63b8ff" d="M433.23,-117.37C414.62,-127.36 391.87,-138.65 370.5,-146.75 362.42,-149.82 353.65,-152.56 345.09,-154.95"/>
<polygon fill="#63b8ff" stroke="#63b8ff" points="434.67,-120.57 441.78,-112.71 431.32,-114.42 434.67,-120.57"/>
</a>
</g>
</g>
<!-- Node5 -->
<g id="Node000005" class="node">
<title>Node5</title>
<g id="a_Node000005"><a xlink:href="input__prep_8cpp.html#ae6103761cf74447b4a53fd6a17de447c" target="_top" xlink:title="Loads reference haplotypes using an older recombination&#45;based approach.">
<polygon fill="white" stroke="#666666" points="370.5,-137.5 222.5,-137.5 222.5,-104 370.5,-104 370.5,-137.5"/>
<text text-anchor="start" x="230.5" y="-124" font-family="Helvetica,sans-Serif" font-size="10.00">load_reference_haplotypes</text>
<text text-anchor="middle" x="296.5" y="-111.25" font-family="Helvetica,sans-Serif" font-size="10.00">_old_recom_approach</text>
</a>
</g>
</g>
<!-- Node1&#45;&gt;Node5 -->
<g id="edge4_Node000001_Node000005" class="edge">
<title>Node1&#45;&gt;Node5</title>
<g id="a_edge4_Node000001_Node000005"><a xlink:title=" ">
<path fill="none" stroke="#63b8ff" d="M395.18,-106.26C387.11,-107.46 378.91,-108.67 370.89,-109.86"/>
<polygon fill="#63b8ff" stroke="#63b8ff" points="395.62,-109.73 405,-104.8 394.59,-102.81 395.62,-109.73"/>
</a>
</g>
</g>
<!-- Node6 -->
<g id="Node000006" class="node">
<title>Node6</title>
<g id="a_Node000006"><a xlink:href="classhidden__markov__model.html#aa0e5498c4f7f7ed9f11d1f81e3335fc6" target="_top" xlink:title="Performs a backward traversal over reference haplotypes to compute posterior probabilities.">
<polygon fill="white" stroke="#666666" points="360,-85.5 233,-85.5 233,-52 360,-52 360,-85.5"/>
<text text-anchor="start" x="241" y="-72" font-family="Helvetica,sans-Serif" font-size="10.00">hidden_markov_model</text>
<text text-anchor="middle" x="296.5" y="-59.25" font-family="Helvetica,sans-Serif" font-size="10.00">::traverse_backward</text>
</a>
</g>
</g>
<!-- Node1&#45;&gt;Node6 -->
<g id="edge5_Node000001_Node000006" class="edge">
<title>Node1&#45;&gt;Node6</title>
<g id="a_edge5_Node000001_Node000006"><a xlink:title=" ">
<path fill="none" stroke="#63b8ff" d="M395.38,-83.27C383.67,-81.53 371.72,-79.76 360.37,-78.08"/>
<polygon fill="#63b8ff" stroke="#63b8ff" points="394.59,-86.69 405,-84.7 395.62,-79.77 394.59,-86.69"/>
</a>
</g>
</g>
<!-- Node7 -->
<g id="Node000007" class="node">
<title>Node7</title>
<g id="a_Node000007"><a xlink:href="classhidden__markov__model.html#aa1459d3b24365049cb34ea8f40ff828d" target="_top" xlink:title="Performs a forward traversal over reference haplotypes for a given target haplotype.">
<polygon fill="white" stroke="#666666" points="360,-33.5 233,-33.5 233,0 360,0 360,-33.5"/>
<text text-anchor="start" x="241" y="-20" font-family="Helvetica,sans-Serif" font-size="10.00">hidden_markov_model</text>
<text text-anchor="middle" x="296.5" y="-7.25" font-family="Helvetica,sans-Serif" font-size="10.00">::traverse_forward</text>
</a>
</g>
</g>
<!-- Node1&#45;&gt;Node7 -->
<g id="edge6_Node000001_Node000007" class="edge">
<title>Node1&#45;&gt;Node7</title>
<g id="a_edge6_Node000001_Node000007"><a xlink:title=" ">
<path fill="none" stroke="#63b8ff" d="M431.39,-72.19C413,-62.56 390.93,-51.54 370.5,-42.75 363.46,-39.72 355.93,-36.75 348.48,-33.96"/>
<polygon fill="#63b8ff" stroke="#63b8ff" points="429.66,-75.23 440.13,-76.81 432.93,-69.05 429.66,-75.23"/>
</a>
</g>
</g>
<!-- Node3 -->
<g id="Node000003" class="node">
<title>Node3</title>
<g id="a_Node000003"><a xlink:href="classimputation.html#a7b5222272b8a616e387a991194235d62" target="_top" xlink:title="Perform genotype imputation for a given genomic region.">
<polygon fill="white" stroke="#666666" points="186.5,-182.5 76.75,-182.5 76.75,-149 186.5,-149 186.5,-182.5"/>
<text text-anchor="start" x="84.75" y="-169" font-family="Helvetica,sans-Serif" font-size="10.00">imputation::impute</text>
<text text-anchor="middle" x="131.62" y="-156.25" font-family="Helvetica,sans-Serif" font-size="10.00">_chunk</text>
</a>
</g>
</g>
<!-- Node2&#45;&gt;Node3 -->
<g id="edge2_Node000002_Node000003" class="edge">
<title>Node2&#45;&gt;Node3</title>
<g id="a_edge2_Node000002_Node000003"><a xlink:title=" ">
<path fill="none" stroke="#63b8ff" d="M210.88,-165.75C202.61,-165.75 194.38,-165.75 186.54,-165.75"/>
<polygon fill="#63b8ff" stroke="#63b8ff" points="210.65,-169.25 220.65,-165.75 210.65,-162.25 210.65,-169.25"/>
</a>
</g>
</g>
<!-- Node4 -->
<g id="Node000004" class="node">
<title>Node4</title>
<g id="a_Node000004"><a xlink:href="main_8cpp.html#a3c04138a5bfe5d72780bb7e82a18e627" target="_top" xlink:title=" ">
<polygon fill="white" stroke="#666666" points="40.75,-176.12 0,-176.12 0,-155.38 40.75,-155.38 40.75,-176.12"/>
<text text-anchor="middle" x="20.38" y="-162.62" font-family="Helvetica,sans-Serif" font-size="10.00">main</text>
</a>
</g>
</g>
<!-- Node3&#45;&gt;Node4 -->
<g id="edge3_Node000003_Node000004" class="edge">
<title>Node3&#45;&gt;Node4</title>
<g id="a_edge3_Node000003_Node000004"><a xlink:title=" ">
<path fill="none" stroke="#63b8ff" d="M64.84,-165.75C56.22,-165.75 47.98,-165.75 41.04,-165.75"/>
<polygon fill="#63b8ff" stroke="#63b8ff" points="64.81,-169.25 74.81,-165.75 64.81,-162.25 64.81,-169.25"/>
</a>
</g>
</g>
</g>
</svg>
