<?xml version="1.0" encoding="UTF-8" standalone="no"?>
<!DOCTYPE svg PUBLIC "-//W3C//DTD SVG 1.1//EN"
 "http://www.w3.org/Graphics/SVG/1.1/DTD/svg11.dtd">
<!-- Generated by graphviz version 12.2.1 (0)
 -->
<!-- Title: unique_haplotype_block::serialize Pages: 1 -->
<svg width="370pt" height="80pt"
 viewBox="0.00 0.00 370.25 80.12" xmlns="http://www.w3.org/2000/svg" xmlns:xlink="http://www.w3.org/1999/xlink">
<g id="graph0" class="graph" transform="scale(1 1) rotate(0) translate(4 76.12)">
<title>unique_haplotype_block::serialize</title>
<!-- Node1 -->
<g id="Node000001" class="node">
<title>Node1</title>
<g id="a_Node000001"><a xlink:title="Serializes the unique haplotype block to a SAVVY output file.">
<polygon fill="#999999" stroke="#666666" points="362.25,-49.12 227.75,-49.12 227.75,-15.62 362.25,-15.62 362.25,-49.12"/>
<text text-anchor="start" x="235.75" y="-35.62" font-family="Helvetica,sans-Serif" font-size="10.00">unique_haplotype_block</text>
<text text-anchor="middle" x="295" y="-22.88" font-family="Helvetica,sans-Serif" font-size="10.00">::serialize</text>
</a>
</g>
</g>
<!-- Node2 -->
<g id="Node000002" class="node">
<title>Node2</title>
<g id="a_Node000002"><a xlink:href="input__prep_8cpp.html#ab5bd937ac31def9857144bb969f642b3" target="_top" xlink:title="Compress a haplotype reference panel into blocks and write to an output file.">
<polygon fill="white" stroke="#666666" points="191.75,-72.12 76.75,-72.12 76.75,-38.62 191.75,-38.62 191.75,-72.12"/>
<text text-anchor="start" x="84.75" y="-58.62" font-family="Helvetica,sans-Serif" font-size="10.00">compress_reference</text>
<text text-anchor="middle" x="134.25" y="-45.88" font-family="Helvetica,sans-Serif" font-size="10.00">_panel</text>
</a>
</g>
</g>
<!-- Node1&#45;&gt;Node2 -->
<g id="edge1_Node000001_Node000002" class="edge">
<title>Node1&#45;&gt;Node2</title>
<g id="a_edge1_Node000001_Node000002"><a xlink:title=" ">
<path fill="none" stroke="#63b8ff" d="M216.36,-43.62C208.09,-44.82 199.79,-46.02 191.82,-47.18"/>
<polygon fill="#63b8ff" stroke="#63b8ff" points="216.7,-47.11 226.1,-42.21 215.7,-40.18 216.7,-47.11"/>
</a>
</g>
</g>
<!-- Node4 -->
<g id="Node000004" class="node">
<title>Node4</title>
<g id="a_Node000004"><a xlink:href="input__prep_8cpp.html#a6b95ba39faa3a2487a7010a060dbad2a" target="_top" xlink:title="Converts an old M3VCF file (v1/v2) to a newer VCF&#45;like format (MVCFv3.0).">
<polygon fill="white" stroke="#666666" points="188.75,-20.75 79.75,-20.75 79.75,0 188.75,0 188.75,-20.75"/>
<text text-anchor="middle" x="134.25" y="-7.25" font-family="Helvetica,sans-Serif" font-size="10.00">convert_old_m3vcf</text>
</a>
</g>
</g>
<!-- Node1&#45;&gt;Node4 -->
<g id="edge3_Node000001_Node000004" class="edge">
<title>Node1&#45;&gt;Node4</title>
<g id="a_edge3_Node000001_Node000004"><a xlink:title=" ">
<path fill="none" stroke="#63b8ff" d="M216.31,-21.61C207.02,-20.32 197.7,-19.03 188.86,-17.8"/>
<polygon fill="#63b8ff" stroke="#63b8ff" points="215.71,-25.06 226.1,-22.96 216.67,-18.13 215.71,-25.06"/>
</a>
</g>
</g>
<!-- Node3 -->
<g id="Node000003" class="node">
<title>Node3</title>
<g id="a_Node000003"><a xlink:href="main_8cpp.html#a3c04138a5bfe5d72780bb7e82a18e627" target="_top" xlink:title=" ">
<polygon fill="white" stroke="#666666" points="40.75,-42.75 0,-42.75 0,-22 40.75,-22 40.75,-42.75"/>
<text text-anchor="middle" x="20.38" y="-29.25" font-family="Helvetica,sans-Serif" font-size="10.00">main</text>
</a>
</g>
</g>
<!-- Node2&#45;&gt;Node3 -->
<g id="edge2_Node000002_Node000003" class="edge">
<title>Node2&#45;&gt;Node3</title>
<g id="a_edge2_Node000002_Node000003"><a xlink:title=" ">
<path fill="none" stroke="#63b8ff" d="M65.16,-41.38C56.47,-39.59 48.19,-37.89 41.21,-36.45"/>
<polygon fill="#63b8ff" stroke="#63b8ff" points="64.35,-44.78 74.85,-43.37 65.76,-37.93 64.35,-44.78"/>
</a>
</g>
</g>
<!-- Node4&#45;&gt;Node3 -->
<g id="edge4_Node000004_Node000003" class="edge">
<title>Node4&#45;&gt;Node3</title>
<g id="a_edge4_Node000004_Node000003"><a xlink:title=" ">
<path fill="none" stroke="#63b8ff" d="M68.13,-23.18C58.33,-25.11 48.93,-26.96 41.15,-28.49"/>
<polygon fill="#63b8ff" stroke="#63b8ff" points="68.66,-26.64 77.79,-21.28 67.31,-19.78 68.66,-26.64"/>
</a>
</g>
</g>
</g>
</svg>
