<?xml version="1.0" encoding="UTF-8" standalone="no"?>
<!DOCTYPE svg PUBLIC "-//W3C//DTD SVG 1.1//EN"
 "http://www.w3.org/Graphics/SVG/1.1/DTD/svg11.dtd">
<!-- Generated by graphviz version 12.2.1 (0)
 -->
<!-- Title: dosage_writer::write_dosages Pages: 1 -->
<svg width="298pt" height="184pt"
 viewBox="0.00 0.00 298.00 183.50" xmlns="http://www.w3.org/2000/svg" xmlns:xlink="http://www.w3.org/1999/xlink">
<g id="graph0" class="graph" transform="scale(1 1) rotate(0) translate(4 179.5)">
<title>dosage_writer::write_dosages</title>
<!-- Node1 -->
<g id="Node000001" class="node">
<title>Node1</title>
<g id="a_Node000001"><a xlink:title="Write imputed dosages and observed genotypes to output files.">
<polygon fill="#999999" stroke="#666666" points="115.75,-100.5 0,-100.5 0,-67 115.75,-67 115.75,-100.5"/>
<text text-anchor="start" x="8" y="-87" font-family="Helvetica,sans-Serif" font-size="10.00">dosage_writer::write</text>
<text text-anchor="middle" x="57.88" y="-74.25" font-family="Helvetica,sans-Serif" font-size="10.00">_dosages</text>
</a>
</g>
</g>
<!-- Node2 -->
<g id="Node000002" class="node">
<title>Node2</title>
<g id="a_Node000002"><a xlink:href="classreduced__haplotypes.html#a60e35764066ee20b0bc825482d956dc1" target="_top" xlink:title=" ">
<polygon fill="white" stroke="#666666" points="278,-175.5 163.75,-175.5 163.75,-142 278,-142 278,-175.5"/>
<text text-anchor="start" x="171.75" y="-162" font-family="Helvetica,sans-Serif" font-size="10.00">reduced_haplotypes</text>
<text text-anchor="middle" x="220.88" y="-149.25" font-family="Helvetica,sans-Serif" font-size="10.00">::begin</text>
</a>
</g>
</g>
<!-- Node1&#45;&gt;Node2 -->
<g id="edge1_Node000001_Node000002" class="edge">
<title>Node1&#45;&gt;Node2</title>
<g id="a_edge1_Node000001_Node000002"><a xlink:title=" ">
<path fill="none" stroke="#63b8ff" d="M88.95,-100.8C106.91,-110.69 130.32,-123.05 151.75,-132.75 155.09,-134.26 158.56,-135.77 162.06,-137.25"/>
<polygon fill="#63b8ff" stroke="#63b8ff" points="160.68,-140.46 171.26,-141.01 163.33,-133.98 160.68,-140.46"/>
</a>
</g>
</g>
<!-- Node3 -->
<g id="Node000003" class="node">
<title>Node3</title>
<g id="a_Node000003"><a xlink:href="classfull__dosages__results.html#a4f2abb43322a58e7a797aee65674d0d6" target="_top" xlink:title="Returns the dimensions of the main dosages matrix.">
<polygon fill="white" stroke="#666666" points="278.75,-123.5 163,-123.5 163,-90 278.75,-90 278.75,-123.5"/>
<text text-anchor="start" x="171" y="-110" font-family="Helvetica,sans-Serif" font-size="10.00">full_dosages_results</text>
<text text-anchor="middle" x="220.88" y="-97.25" font-family="Helvetica,sans-Serif" font-size="10.00">::dimensions</text>
</a>
</g>
</g>
<!-- Node1&#45;&gt;Node3 -->
<g id="edge2_Node000001_Node000003" class="edge">
<title>Node1&#45;&gt;Node3</title>
<g id="a_edge2_Node000001_Node000003"><a xlink:title=" ">
<path fill="none" stroke="#63b8ff" d="M116.09,-91.92C127.53,-93.56 139.65,-95.29 151.43,-96.97"/>
<polygon fill="#63b8ff" stroke="#63b8ff" points="150.68,-100.4 161.07,-98.35 151.67,-93.47 150.68,-100.4"/>
</a>
</g>
</g>
<!-- Node4 -->
<g id="Node000004" class="node">
<title>Node4</title>
<g id="a_Node000004"><a xlink:href="classreduced__haplotypes.html#a84d77aa694b17ecfe412d8f4a4e1614b" target="_top" xlink:title=" ">
<polygon fill="white" stroke="#666666" points="290,-72.12 151.75,-72.12 151.75,-51.38 290,-51.38 290,-72.12"/>
<text text-anchor="middle" x="220.88" y="-58.62" font-family="Helvetica,sans-Serif" font-size="10.00">reduced_haplotypes::end</text>
</a>
</g>
</g>
<!-- Node1&#45;&gt;Node4 -->
<g id="edge3_Node000001_Node000004" class="edge">
<title>Node1&#45;&gt;Node4</title>
<g id="a_edge3_Node000001_Node000004"><a xlink:title=" ">
<path fill="none" stroke="#63b8ff" d="M116.09,-75.93C123.83,-74.87 131.89,-73.77 139.93,-72.67"/>
<polygon fill="#63b8ff" stroke="#63b8ff" points="140.34,-76.15 149.77,-71.33 139.39,-69.22 140.34,-76.15"/>
</a>
</g>
</g>
<!-- Node5 -->
<g id="Node000005" class="node">
<title>Node5</title>
<g id="a_Node000005"><a xlink:href="classreduced__haplotypes.html#a5b11aec30fdec4903d307720f3c378dd" target="_top" xlink:title="Returns the total number of variants across all blocks.">
<polygon fill="white" stroke="#666666" points="278,-33.5 163.75,-33.5 163.75,0 278,0 278,-33.5"/>
<text text-anchor="start" x="171.75" y="-20" font-family="Helvetica,sans-Serif" font-size="10.00">reduced_haplotypes</text>
<text text-anchor="middle" x="220.88" y="-7.25" font-family="Helvetica,sans-Serif" font-size="10.00">::variant_size</text>
</a>
</g>
</g>
<!-- Node1&#45;&gt;Node5 -->
<g id="edge4_Node000001_Node000005" class="edge">
<title>Node1&#45;&gt;Node5</title>
<g id="a_edge4_Node000001_Node000005"><a xlink:title=" ">
<path fill="none" stroke="#63b8ff" d="M96.64,-66.55C113.43,-59.04 133.49,-50.26 151.75,-42.75 155.54,-41.19 159.47,-39.61 163.43,-38.03"/>
<polygon fill="#63b8ff" stroke="#63b8ff" points="164.5,-41.37 172.53,-34.47 161.95,-34.86 164.5,-41.37"/>
</a>
</g>
</g>
</g>
</svg>
