<?xml version="1.0" encoding="UTF-8" standalone="no"?>
<!DOCTYPE svg PUBLIC "-//W3C//DTD SVG 1.1//EN"
 "http://www.w3.org/Graphics/SVG/1.1/DTD/svg11.dtd">
<!-- Generated by graphviz version 12.2.1 (0)
 -->
<!-- Title: reduced_haplotypes::iterator::operator&#45;&#45; Pages: 1 -->
<svg width="429pt" height="94pt"
 viewBox="0.00 0.00 428.75 93.50" xmlns="http://www.w3.org/2000/svg" xmlns:xlink="http://www.w3.org/1999/xlink">
<g id="graph0" class="graph" transform="scale(1 1) rotate(0) translate(4 89.5)">
<title>reduced_haplotypes::iterator::operator&#45;&#45;</title>
<!-- Node1 -->
<g id="Node000001" class="node">
<title>Node1</title>
<g id="a_Node000001"><a xlink:title=" ">
<polygon fill="#999999" stroke="#666666" points="114.25,-59.5 0,-59.5 0,-26 114.25,-26 114.25,-59.5"/>
<text text-anchor="start" x="8" y="-46" font-family="Helvetica,sans-Serif" font-size="10.00">reduced_haplotypes</text>
<text text-anchor="middle" x="57.12" y="-33.25" font-family="Helvetica,sans-Serif" font-size="10.00">::iterator::operator&#45;&#45;</text>
</a>
</g>
</g>
<!-- Node2 -->
<g id="Node000002" class="node">
<title>Node2</title>
<g id="a_Node000002"><a xlink:href="classreduced__haplotypes_1_1iterator.html#a725f25f70b4c0205b9ebe781748f8d15" target="_top" xlink:title=" ">
<polygon fill="white" stroke="#666666" points="264.5,-59.5 150.25,-59.5 150.25,-26 264.5,-26 264.5,-59.5"/>
<text text-anchor="start" x="158.25" y="-46" font-family="Helvetica,sans-Serif" font-size="10.00">reduced_haplotypes</text>
<text text-anchor="middle" x="207.38" y="-33.25" font-family="Helvetica,sans-Serif" font-size="10.00">::iterator::iterator</text>
</a>
</g>
</g>
<!-- Node1&#45;&gt;Node2 -->
<g id="edge1_Node000001_Node000002" class="edge">
<title>Node1&#45;&gt;Node2</title>
<g id="a_edge1_Node000001_Node000002"><a xlink:title=" ">
<path fill="none" stroke="#63b8ff" d="M114.59,-42.75C122.49,-42.75 130.67,-42.75 138.75,-42.75"/>
<polygon fill="#63b8ff" stroke="#63b8ff" points="138.55,-46.25 148.55,-42.75 138.55,-39.25 138.55,-46.25"/>
</a>
</g>
</g>
<!-- Node3 -->
<g id="Node000003" class="node">
<title>Node3</title>
<g id="a_Node000003"><a xlink:href="classreduced__haplotypes_1_1iterator.html#af144cea0b0399dc827f5e8b34e4731dc" target="_top" xlink:title=" ">
<polygon fill="white" stroke="#666666" points="417.75,-85.5 303.5,-85.5 303.5,-52 417.75,-52 417.75,-85.5"/>
<text text-anchor="start" x="311.5" y="-72" font-family="Helvetica,sans-Serif" font-size="10.00">reduced_haplotypes</text>
<text text-anchor="middle" x="360.62" y="-59.25" font-family="Helvetica,sans-Serif" font-size="10.00">::iterator::block_idx</text>
</a>
</g>
</g>
<!-- Node2&#45;&gt;Node3 -->
<g id="edge2_Node000002_Node000003" class="edge">
<title>Node2&#45;&gt;Node3</title>
<g id="a_edge2_Node000002_Node000003"><a xlink:title=" ">
<path fill="none" stroke="#63b8ff" d="M264.69,-52.43C273.49,-53.94 282.67,-55.52 291.69,-57.07"/>
<polygon fill="#63b8ff" stroke="#63b8ff" points="291.07,-60.52 301.51,-58.76 292.25,-53.62 291.07,-60.52"/>
</a>
</g>
</g>
<!-- Node4 -->
<g id="Node000004" class="node">
<title>Node4</title>
<g id="a_Node000004"><a xlink:href="classreduced__haplotypes.html#a21d0bb7ea142f39274ef6a8c4ffde96c" target="_top" xlink:title=" ">
<polygon fill="white" stroke="#666666" points="420.75,-33.5 300.5,-33.5 300.5,0 420.75,0 420.75,-33.5"/>
<text text-anchor="start" x="308.5" y="-20" font-family="Helvetica,sans-Serif" font-size="10.00">reduced_haplotypes</text>
<text text-anchor="middle" x="360.62" y="-7.25" font-family="Helvetica,sans-Serif" font-size="10.00">::reduced_haplotypes</text>
</a>
</g>
</g>
<!-- Node2&#45;&gt;Node4 -->
<g id="edge3_Node000002_Node000004" class="edge">
<title>Node2&#45;&gt;Node4</title>
<g id="a_edge3_Node000002_Node000004"><a xlink:title=" ">
<path fill="none" stroke="#63b8ff" d="M264.69,-33.07C272.66,-31.7 280.94,-30.28 289.13,-28.87"/>
<polygon fill="#63b8ff" stroke="#63b8ff" points="289.47,-32.36 298.73,-27.22 288.28,-25.46 289.47,-32.36"/>
</a>
</g>
</g>
</g>
</svg>
