<?xml version="1.0" encoding="UTF-8" standalone="no"?>
<!DOCTYPE svg PUBLIC "-//W3C//DTD SVG 1.1//EN"
 "http://www.w3.org/Graphics/SVG/1.1/DTD/svg11.dtd">
<!-- Generated by graphviz version 12.2.1 (0)
 -->
<!-- Title: reduced_haplotypes::iterator::iterator Pages: 1 -->
<svg width="279pt" height="94pt"
 viewBox="0.00 0.00 278.50 93.50" xmlns="http://www.w3.org/2000/svg" xmlns:xlink="http://www.w3.org/1999/xlink">
<g id="graph0" class="graph" transform="scale(1 1) rotate(0) translate(4 89.5)">
<title>reduced_haplotypes::iterator::iterator</title>
<!-- Node1 -->
<g id="Node000001" class="node">
<title>Node1</title>
<g id="a_Node000001"><a xlink:title=" ">
<polygon fill="#999999" stroke="#666666" points="114.25,-59.5 0,-59.5 0,-26 114.25,-26 114.25,-59.5"/>
<text text-anchor="start" x="8" y="-46" font-family="Helvetica,sans-Serif" font-size="10.00">reduced_haplotypes</text>
<text text-anchor="middle" x="57.12" y="-33.25" font-family="Helvetica,sans-Serif" font-size="10.00">::iterator::iterator</text>
</a>
</g>
</g>
<!-- Node2 -->
<g id="Node000002" class="node">
<title>Node2</title>
<g id="a_Node000002"><a xlink:href="classreduced__haplotypes_1_1iterator.html#af144cea0b0399dc827f5e8b34e4731dc" target="_top" xlink:title=" ">
<polygon fill="white" stroke="#666666" points="267.5,-85.5 153.25,-85.5 153.25,-52 267.5,-52 267.5,-85.5"/>
<text text-anchor="start" x="161.25" y="-72" font-family="Helvetica,sans-Serif" font-size="10.00">reduced_haplotypes</text>
<text text-anchor="middle" x="210.38" y="-59.25" font-family="Helvetica,sans-Serif" font-size="10.00">::iterator::block_idx</text>
</a>
</g>
</g>
<!-- Node1&#45;&gt;Node2 -->
<g id="edge1_Node000001_Node000002" class="edge">
<title>Node1&#45;&gt;Node2</title>
<g id="a_edge1_Node000001_Node000002"><a xlink:title=" ">
<path fill="none" stroke="#63b8ff" d="M114.44,-52.43C123.24,-53.94 132.42,-55.52 141.44,-57.07"/>
<polygon fill="#63b8ff" stroke="#63b8ff" points="140.82,-60.52 151.26,-58.76 142,-53.62 140.82,-60.52"/>
</a>
</g>
</g>
<!-- Node3 -->
<g id="Node000003" class="node">
<title>Node3</title>
<g id="a_Node000003"><a xlink:href="classreduced__haplotypes.html#a21d0bb7ea142f39274ef6a8c4ffde96c" target="_top" xlink:title=" ">
<polygon fill="white" stroke="#666666" points="270.5,-33.5 150.25,-33.5 150.25,0 270.5,0 270.5,-33.5"/>
<text text-anchor="start" x="158.25" y="-20" font-family="Helvetica,sans-Serif" font-size="10.00">reduced_haplotypes</text>
<text text-anchor="middle" x="210.38" y="-7.25" font-family="Helvetica,sans-Serif" font-size="10.00">::reduced_haplotypes</text>
</a>
</g>
</g>
<!-- Node1&#45;&gt;Node3 -->
<g id="edge2_Node000001_Node000003" class="edge">
<title>Node1&#45;&gt;Node3</title>
<g id="a_edge2_Node000001_Node000003"><a xlink:title=" ">
<path fill="none" stroke="#63b8ff" d="M114.44,-33.07C122.41,-31.7 130.69,-30.28 138.88,-28.87"/>
<polygon fill="#63b8ff" stroke="#63b8ff" points="139.22,-32.36 148.48,-27.22 138.03,-25.46 139.22,-32.36"/>
</a>
</g>
</g>
</g>
</svg>
