<?xml version="1.0" encoding="UTF-8" standalone="no"?>
<!DOCTYPE svg PUBLIC "-//W3C//DTD SVG 1.1//EN"
 "http://www.w3.org/Graphics/SVG/1.1/DTD/svg11.dtd">
<!-- Generated by graphviz version 12.2.1 (0)
 -->
<!-- Title: reduced_haplotypes::iterator::block_idx Pages: 1 -->
<svg width="430pt" height="198pt"
 viewBox="0.00 0.00 430.25 197.50" xmlns="http://www.w3.org/2000/svg" xmlns:xlink="http://www.w3.org/1999/xlink">
<g id="graph0" class="graph" transform="scale(1 1) rotate(0) translate(4 193.5)">
<title>reduced_haplotypes::iterator::block_idx</title>
<!-- Node1 -->
<g id="Node000001" class="node">
<title>Node1</title>
<g id="a_Node000001"><a xlink:title=" ">
<polygon fill="#999999" stroke="#666666" points="422.25,-88.5 308,-88.5 308,-55 422.25,-55 422.25,-88.5"/>
<text text-anchor="start" x="316" y="-75" font-family="Helvetica,sans-Serif" font-size="10.00">reduced_haplotypes</text>
<text text-anchor="middle" x="365.12" y="-62.25" font-family="Helvetica,sans-Serif" font-size="10.00">::iterator::block_idx</text>
</a>
</g>
</g>
<!-- Node2 -->
<g id="Node000002" class="node">
<title>Node2</title>
<g id="a_Node000002"><a xlink:href="classreduced__haplotypes_1_1iterator.html#a725f25f70b4c0205b9ebe781748f8d15" target="_top" xlink:title=" ">
<polygon fill="white" stroke="#666666" points="272,-111.5 157.75,-111.5 157.75,-78 272,-78 272,-111.5"/>
<text text-anchor="start" x="165.75" y="-98" font-family="Helvetica,sans-Serif" font-size="10.00">reduced_haplotypes</text>
<text text-anchor="middle" x="214.88" y="-85.25" font-family="Helvetica,sans-Serif" font-size="10.00">::iterator::iterator</text>
</a>
</g>
</g>
<!-- Node1&#45;&gt;Node2 -->
<g id="edge1_Node000001_Node000002" class="edge">
<title>Node1&#45;&gt;Node2</title>
<g id="a_edge1_Node000001_Node000002"><a xlink:title=" ">
<path fill="none" stroke="#63b8ff" d="M296.34,-82.27C288.26,-83.52 280.08,-84.79 272.19,-86.01"/>
<polygon fill="#63b8ff" stroke="#63b8ff" points="296.81,-85.73 306.16,-80.74 295.74,-78.82 296.81,-85.73"/>
</a>
</g>
</g>
<!-- Node7 -->
<g id="Node000007" class="node">
<title>Node7</title>
<g id="a_Node000007"><a xlink:href="unique__haplotype_8hpp.html#adc5425af4ef556e4e736fb030db44ffe" target="_top" xlink:title="Compares two iterators for equality.">
<polygon fill="white" stroke="#666666" points="251.75,-60.12 178,-60.12 178,-39.38 251.75,-39.38 251.75,-60.12"/>
<text text-anchor="middle" x="214.88" y="-46.62" font-family="Helvetica,sans-Serif" font-size="10.00">operator==</text>
</a>
</g>
</g>
<!-- Node1&#45;&gt;Node7 -->
<g id="edge6_Node000001_Node000007" class="edge">
<title>Node1&#45;&gt;Node7</title>
<g id="a_edge6_Node000001_Node000007"><a xlink:title=" ">
<path fill="none" stroke="#63b8ff" d="M296.58,-61.73C281.23,-59.45 265.49,-57.11 252.04,-55.12"/>
<polygon fill="#63b8ff" stroke="#63b8ff" points="295.75,-65.14 306.16,-63.15 296.78,-58.22 295.75,-65.14"/>
</a>
</g>
</g>
<!-- Node3 -->
<g id="Node000003" class="node">
<title>Node3</title>
<g id="a_Node000003"><a xlink:href="classreduced__haplotypes_1_1iterator.html#a23c6d8779d0832061652255a254a868b" target="_top" xlink:title=" ">
<polygon fill="white" stroke="#666666" points="121.75,-189.5 0,-189.5 0,-156 121.75,-156 121.75,-189.5"/>
<text text-anchor="start" x="8" y="-176" font-family="Helvetica,sans-Serif" font-size="10.00">reduced_haplotypes</text>
<text text-anchor="middle" x="60.88" y="-163.25" font-family="Helvetica,sans-Serif" font-size="10.00">::iterator::operator++</text>
</a>
</g>
</g>
<!-- Node2&#45;&gt;Node3 -->
<g id="edge2_Node000002_Node000003" class="edge">
<title>Node2&#45;&gt;Node3</title>
<g id="a_edge2_Node000002_Node000003"><a xlink:title=" ">
<path fill="none" stroke="#63b8ff" d="M175.5,-117.59C159.14,-127.02 139.72,-137.81 121.75,-146.75 115.76,-149.73 109.36,-152.72 103.04,-155.55"/>
<polygon fill="#63b8ff" stroke="#63b8ff" points="177.05,-120.74 183.94,-112.69 173.53,-114.69 177.05,-120.74"/>
</a>
</g>
</g>
<!-- Node4 -->
<g id="Node000004" class="node">
<title>Node4</title>
<g id="a_Node000004"><a xlink:href="classreduced__haplotypes_1_1iterator.html#a15a9e53c0213deb821f4326aeb93dbd1" target="_top" xlink:title=" ">
<polygon fill="white" stroke="#666666" points="121.75,-137.5 0,-137.5 0,-104 121.75,-104 121.75,-137.5"/>
<text text-anchor="start" x="8" y="-124" font-family="Helvetica,sans-Serif" font-size="10.00">reduced_haplotypes</text>
<text text-anchor="middle" x="60.88" y="-111.25" font-family="Helvetica,sans-Serif" font-size="10.00">::iterator::operator++</text>
</a>
</g>
</g>
<!-- Node2&#45;&gt;Node4 -->
<g id="edge3_Node000002_Node000004" class="edge">
<title>Node2&#45;&gt;Node4</title>
<g id="a_edge3_Node000002_Node000004"><a xlink:title=" ">
<path fill="none" stroke="#63b8ff" d="M146.09,-106.35C138.09,-107.71 129.97,-109.1 122.09,-110.45"/>
<polygon fill="#63b8ff" stroke="#63b8ff" points="146.52,-109.82 155.78,-104.69 145.34,-102.92 146.52,-109.82"/>
</a>
</g>
</g>
<!-- Node5 -->
<g id="Node000005" class="node">
<title>Node5</title>
<g id="a_Node000005"><a xlink:href="classreduced__haplotypes_1_1iterator.html#a19b2252297adb27f6b7ecdc00c824279" target="_top" xlink:title=" ">
<polygon fill="white" stroke="#666666" points="118,-85.5 3.75,-85.5 3.75,-52 118,-52 118,-85.5"/>
<text text-anchor="start" x="11.75" y="-72" font-family="Helvetica,sans-Serif" font-size="10.00">reduced_haplotypes</text>
<text text-anchor="middle" x="60.88" y="-59.25" font-family="Helvetica,sans-Serif" font-size="10.00">::iterator::operator&#45;&#45;</text>
</a>
</g>
</g>
<!-- Node2&#45;&gt;Node5 -->
<g id="edge4_Node000002_Node000005" class="edge">
<title>Node2&#45;&gt;Node5</title>
<g id="a_edge4_Node000002_Node000005"><a xlink:title=" ">
<path fill="none" stroke="#63b8ff" d="M146.07,-83.15C136.78,-81.56 127.32,-79.95 118.27,-78.4"/>
<polygon fill="#63b8ff" stroke="#63b8ff" points="145.34,-86.58 155.78,-84.81 146.52,-79.68 145.34,-86.58"/>
</a>
</g>
</g>
<!-- Node6 -->
<g id="Node000006" class="node">
<title>Node6</title>
<g id="a_Node000006"><a xlink:href="classreduced__haplotypes_1_1iterator.html#a33ef19469278510c2bbe616b9525c803" target="_top" xlink:title=" ">
<polygon fill="white" stroke="#666666" points="118,-33.5 3.75,-33.5 3.75,0 118,0 118,-33.5"/>
<text text-anchor="start" x="11.75" y="-20" font-family="Helvetica,sans-Serif" font-size="10.00">reduced_haplotypes</text>
<text text-anchor="middle" x="60.88" y="-7.25" font-family="Helvetica,sans-Serif" font-size="10.00">::iterator::operator&#45;&#45;</text>
</a>
</g>
</g>
<!-- Node2&#45;&gt;Node6 -->
<g id="edge5_Node000002_Node000006" class="edge">
<title>Node2&#45;&gt;Node6</title>
<g id="a_edge5_Node000002_Node000006"><a xlink:title=" ">
<path fill="none" stroke="#63b8ff" d="M164,-72.27C161.87,-71.11 159.78,-69.94 157.75,-68.75 140.72,-58.78 138.9,-52.52 121.75,-42.75 116.33,-39.67 110.48,-36.71 104.63,-33.96"/>
<polygon fill="#63b8ff" stroke="#63b8ff" points="162.3,-75.33 172.79,-76.81 165.51,-69.11 162.3,-75.33"/>
</a>
</g>
</g>
</g>
</svg>
