<?xml version="1.0" encoding="UTF-8" standalone="no"?>
<!DOCTYPE svg PUBLIC "-//W3C//DTD SVG 1.1//EN"
 "http://www.w3.org/Graphics/SVG/1.1/DTD/svg11.dtd">
<!-- Generated by graphviz version 12.2.1 (0)
 -->
<!-- Title: src/dosage_writer.hpp Pages: 1 -->
<svg width="296pt" height="142pt"
 viewBox="0.00 0.00 296.00 142.25" xmlns="http://www.w3.org/2000/svg" xmlns:xlink="http://www.w3.org/1999/xlink">
<g id="graph0" class="graph" transform="scale(1 1) rotate(0) translate(4 138.25)">
<title>src/dosage_writer.hpp</title>
<!-- Node1 -->
<g id="Node000001" class="node">
<title>Node1</title>
<g id="a_Node000001"><a xlink:title=" ">
<polygon fill="#999999" stroke="#666666" points="188.12,-134.25 65.62,-134.25 65.62,-113.5 188.12,-113.5 188.12,-134.25"/>
<text text-anchor="middle" x="126.88" y="-120.75" font-family="Helvetica,sans-Serif" font-size="10.00">src/dosage_writer.hpp</text>
</a>
</g>
</g>
<!-- Node2 -->
<g id="Node000002" class="node">
<title>Node2</title>
<g id="a_Node000002"><a xlink:href="dosage__writer_8cpp.html" target="_top" xlink:title=" ">
<polygon fill="white" stroke="#666666" points="121.75,-77.5 0,-77.5 0,-56.75 121.75,-56.75 121.75,-77.5"/>
<text text-anchor="middle" x="60.88" y="-64" font-family="Helvetica,sans-Serif" font-size="10.00">src/dosage_writer.cpp</text>
</a>
</g>
</g>
<!-- Node1&#45;&gt;Node2 -->
<g id="edge1_Node000001_Node000002" class="edge">
<title>Node1&#45;&gt;Node2</title>
<g id="a_edge1_Node000001_Node000002"><a xlink:title=" ">
<path fill="none" stroke="#63b8ff" d="M106.4,-105.89C95.28,-96.66 81.93,-85.59 72.57,-77.83"/>
<polygon fill="#63b8ff" stroke="#63b8ff" points="103.98,-108.43 113.91,-112.12 108.45,-103.04 103.98,-108.43"/>
</a>
</g>
</g>
<!-- Node3 -->
<g id="Node000003" class="node">
<title>Node3</title>
<g id="a_Node000003"><a xlink:href="imputation_8hpp.html" target="_top" xlink:title=" ">
<polygon fill="white" stroke="#666666" points="247.62,-77.5 140.12,-77.5 140.12,-56.75 247.62,-56.75 247.62,-77.5"/>
<text text-anchor="middle" x="193.88" y="-64" font-family="Helvetica,sans-Serif" font-size="10.00">src/imputation.hpp</text>
</a>
</g>
</g>
<!-- Node1&#45;&gt;Node3 -->
<g id="edge2_Node000001_Node000003" class="edge">
<title>Node1&#45;&gt;Node3</title>
<g id="a_edge2_Node000001_Node000003"><a xlink:title=" ">
<path fill="none" stroke="#63b8ff" d="M147.67,-105.89C158.95,-96.66 172.5,-85.59 182,-77.83"/>
<polygon fill="#63b8ff" stroke="#63b8ff" points="145.55,-103.09 140.03,-112.13 149.98,-108.51 145.55,-103.09"/>
</a>
</g>
</g>
<!-- Node4 -->
<g id="Node000004" class="node">
<title>Node4</title>
<g id="a_Node000004"><a xlink:href="imputation_8cpp.html" target="_top" xlink:title=" ">
<polygon fill="white" stroke="#666666" points="191.25,-20.75 84.5,-20.75 84.5,0 191.25,0 191.25,-20.75"/>
<text text-anchor="middle" x="137.88" y="-7.25" font-family="Helvetica,sans-Serif" font-size="10.00">src/imputation.cpp</text>
</a>
</g>
</g>
<!-- Node3&#45;&gt;Node4 -->
<g id="edge3_Node000003_Node000004" class="edge">
<title>Node3&#45;&gt;Node4</title>
<g id="a_edge3_Node000003_Node000004"><a xlink:title=" ">
<path fill="none" stroke="#63b8ff" d="M175.64,-48.3C166.39,-39.25 155.5,-28.61 147.8,-21.08"/>
<polygon fill="#63b8ff" stroke="#63b8ff" points="173.18,-50.79 182.78,-55.28 178.08,-45.79 173.18,-50.79"/>
</a>
</g>
</g>
<!-- Node5 -->
<g id="Node000005" class="node">
<title>Node5</title>
<g id="a_Node000005"><a xlink:href="main_8cpp.html" target="_top" xlink:title=" ">
<polygon fill="white" stroke="#666666" points="288,-20.75 209.75,-20.75 209.75,0 288,0 288,-20.75"/>
<text text-anchor="middle" x="248.88" y="-7.25" font-family="Helvetica,sans-Serif" font-size="10.00">src/main.cpp</text>
</a>
</g>
</g>
<!-- Node3&#45;&gt;Node5 -->
<g id="edge4_Node000003_Node000005" class="edge">
<title>Node3&#45;&gt;Node5</title>
<g id="a_edge4_Node000003_Node000005"><a xlink:title=" ">
<path fill="none" stroke="#63b8ff" d="M211.78,-48.3C220.87,-39.25 231.56,-28.61 239.13,-21.08"/>
<polygon fill="#63b8ff" stroke="#63b8ff" points="209.4,-45.73 204.78,-55.27 214.34,-50.69 209.4,-45.73"/>
</a>
</g>
</g>
</g>
</svg>
