<?xml version="1.0" encoding="UTF-8" standalone="no"?>
<!DOCTYPE svg PUBLIC "-//W3C//DTD SVG 1.1//EN"
 "http://www.w3.org/Graphics/SVG/1.1/DTD/svg11.dtd">
<!-- Generated by graphviz version 12.2.1 (0)
 -->
<!-- Title: src/dosage_writer.hpp Pages: 1 -->
<svg width="1116pt" height="313pt"
 viewBox="0.00 0.00 1115.88 312.50" xmlns="http://www.w3.org/2000/svg" xmlns:xlink="http://www.w3.org/1999/xlink">
<g id="graph0" class="graph" transform="scale(1 1) rotate(0) translate(4 308.5)">
<title>src/dosage_writer.hpp</title>
<!-- Node1 -->
<g id="Node000001" class="node">
<title>Node1</title>
<g id="a_Node000001"><a xlink:title=" ">
<polygon fill="#999999" stroke="#666666" points="819.25,-304.5 696.75,-304.5 696.75,-283.75 819.25,-283.75 819.25,-304.5"/>
<text text-anchor="middle" x="758" y="-291" font-family="Helvetica,sans-Serif" font-size="10.00">src/dosage_writer.hpp</text>
</a>
</g>
</g>
<!-- Node2 -->
<g id="Node000002" class="node">
<title>Node2</title>
<g id="a_Node000002"><a xlink:href="variant_8hpp.html" target="_top" xlink:title=" ">
<polygon fill="white" stroke="#666666" points="674.75,-77.5 603.25,-77.5 603.25,-56.75 674.75,-56.75 674.75,-77.5"/>
<text text-anchor="middle" x="639" y="-64" font-family="Helvetica,sans-Serif" font-size="10.00">variant.hpp</text>
</a>
</g>
</g>
<!-- Node1&#45;&gt;Node2 -->
<g id="edge1_Node000001_Node000002" class="edge">
<title>Node1&#45;&gt;Node2</title>
<g id="a_edge1_Node000001_Node000002"><a xlink:title=" ">
<path fill="none" stroke="#63b8ff" d="M736.16,-283.29C703.99,-267.82 643.71,-234.98 607,-191 583.81,-163.22 566.28,-146.1 582,-113.5 587.85,-101.37 598.68,-91.49 609.35,-84.08"/>
<polygon fill="#63b8ff" stroke="#63b8ff" points="611.11,-87.1 617.67,-78.78 607.36,-81.2 611.11,-87.1"/>
</a>
</g>
</g>
<!-- Node7 -->
<g id="Node000007" class="node">
<title>Node7</title>
<g id="a_Node000007"><a xlink:href="unique__haplotype_8hpp.html" target="_top" xlink:title=" ">
<polygon fill="white" stroke="#666666" points="740,-191 616,-191 616,-170.25 740,-170.25 740,-191"/>
<text text-anchor="middle" x="678" y="-177.5" font-family="Helvetica,sans-Serif" font-size="10.00">unique_haplotype.hpp</text>
</a>
</g>
</g>
<!-- Node1&#45;&gt;Node7 -->
<g id="edge6_Node000001_Node000007" class="edge">
<title>Node1&#45;&gt;Node7</title>
<g id="a_edge6_Node000001_Node000007"><a xlink:title=" ">
<path fill="none" stroke="#63b8ff" d="M751.18,-283.62C738.02,-265.28 708.91,-224.7 691.63,-200.62"/>
<polygon fill="#63b8ff" stroke="#63b8ff" points="694.59,-198.74 685.91,-192.65 688.9,-202.82 694.59,-198.74"/>
</a>
</g>
</g>
<!-- Node12 -->
<g id="Node000012" class="node">
<title>Node12</title>
<g id="a_Node000012"><a xlink:title=" ">
<polygon fill="#e0e0e0" stroke="#999999" points="100,-134.25 0,-134.25 0,-113.5 100,-113.5 100,-134.25"/>
<text text-anchor="middle" x="50" y="-120.75" font-family="Helvetica,sans-Serif" font-size="10.00">savvy/reader.hpp</text>
</a>
</g>
</g>
<!-- Node1&#45;&gt;Node12 -->
<g id="edge30_Node000001_Node000012" class="edge">
<title>Node1&#45;&gt;Node12</title>
<g id="a_edge30_Node000001_Node000012"><a xlink:title=" ">
<path fill="none" stroke="#63b8ff" d="M696.82,-283.27C646.67,-274.85 573.96,-261.9 511,-247.75 356.63,-213.06 175.97,-161.73 94.19,-137.9"/>
<polygon fill="#63b8ff" stroke="#63b8ff" points="95.36,-134.6 84.78,-135.15 93.4,-141.31 95.36,-134.6"/>
</a>
</g>
</g>
<!-- Node13 -->
<g id="Node000013" class="node">
<title>Node13</title>
<g id="a_Node000013"><a xlink:title=" ">
<polygon fill="#e0e0e0" stroke="#999999" points="866.5,-134.25 769.5,-134.25 769.5,-113.5 866.5,-113.5 866.5,-134.25"/>
<text text-anchor="middle" x="818" y="-120.75" font-family="Helvetica,sans-Serif" font-size="10.00">savvy/writer.hpp</text>
</a>
</g>
</g>
<!-- Node1&#45;&gt;Node13 -->
<g id="edge31_Node000001_Node000013" class="edge">
<title>Node1&#45;&gt;Node13</title>
<g id="a_edge31_Node000001_Node000013"><a xlink:title=" ">
<path fill="none" stroke="#63b8ff" d="M761.4,-283.6C770.84,-257.12 797.57,-182.18 810.63,-145.55"/>
<polygon fill="#63b8ff" stroke="#63b8ff" points="813.92,-146.74 813.98,-136.14 807.33,-144.39 813.92,-146.74"/>
</a>
</g>
</g>
<!-- Node16 -->
<g id="Node000016" class="node">
<title>Node16</title>
<g id="a_Node000016"><a xlink:href="hidden__markov__model_8hpp.html" target="_top" xlink:title=" ">
<polygon fill="white" stroke="#666666" points="984,-247.75 836,-247.75 836,-227 984,-227 984,-247.75"/>
<text text-anchor="middle" x="910" y="-234.25" font-family="Helvetica,sans-Serif" font-size="10.00">hidden_markov_model.hpp</text>
</a>
</g>
</g>
<!-- Node1&#45;&gt;Node16 -->
<g id="edge24_Node000001_Node000016" class="edge">
<title>Node1&#45;&gt;Node16</title>
<g id="a_edge24_Node000001_Node000016"><a xlink:title=" ">
<path fill="none" stroke="#63b8ff" d="M785.17,-283.34C809.42,-274.61 845.15,-261.73 872.18,-252"/>
<polygon fill="#63b8ff" stroke="#63b8ff" points="873.16,-255.37 881.38,-248.68 870.79,-248.78 873.16,-255.37"/>
</a>
</g>
</g>
<!-- Node19 -->
<g id="Node000019" class="node">
<title>Node19</title>
<g id="a_Node000019"><a xlink:title=" ">
<polygon fill="#e0e0e0" stroke="#999999" points="1059.62,-247.75 1002.38,-247.75 1002.38,-227 1059.62,-227 1059.62,-247.75"/>
<text text-anchor="middle" x="1031" y="-234.25" font-family="Helvetica,sans-Serif" font-size="10.00">memory</text>
</a>
</g>
</g>
<!-- Node1&#45;&gt;Node19 -->
<g id="edge32_Node000001_Node000019" class="edge">
<title>Node1&#45;&gt;Node19</title>
<g id="a_edge32_Node000001_Node000019"><a xlink:title=" ">
<path fill="none" stroke="#63b8ff" d="M813.24,-283.28C858.45,-275.04 924.32,-262.61 990.87,-248.13"/>
<polygon fill="#63b8ff" stroke="#63b8ff" points="991.49,-251.58 1000.51,-246.02 989.99,-244.74 991.49,-251.58"/>
</a>
</g>
</g>
<!-- Node3 -->
<g id="Node000003" class="node">
<title>Node3</title>
<g id="a_Node000003"><a xlink:title=" ">
<polygon fill="#e0e0e0" stroke="#999999" points="596.88,-20.75 553.12,-20.75 553.12,0 596.88,0 596.88,-20.75"/>
<text text-anchor="middle" x="575" y="-7.25" font-family="Helvetica,sans-Serif" font-size="10.00">string</text>
</a>
</g>
</g>
<!-- Node2&#45;&gt;Node3 -->
<g id="edge2_Node000002_Node000003" class="edge">
<title>Node2&#45;&gt;Node3</title>
<g id="a_edge2_Node000002_Node000003"><a xlink:title=" ">
<path fill="none" stroke="#63b8ff" d="M627.56,-56.34C618.55,-48.63 605.77,-37.7 595.07,-28.54"/>
<polygon fill="#63b8ff" stroke="#63b8ff" points="597.37,-25.9 587.49,-22.06 592.82,-31.22 597.37,-25.9"/>
</a>
</g>
</g>
<!-- Node4 -->
<g id="Node000004" class="node">
<title>Node4</title>
<g id="a_Node000004"><a xlink:title=" ">
<polygon fill="#e0e0e0" stroke="#999999" points="189.38,-20.75 142.62,-20.75 142.62,0 189.38,0 189.38,-20.75"/>
<text text-anchor="middle" x="166" y="-7.25" font-family="Helvetica,sans-Serif" font-size="10.00">vector</text>
</a>
</g>
</g>
<!-- Node2&#45;&gt;Node4 -->
<g id="edge3_Node000002_Node000004" class="edge">
<title>Node2&#45;&gt;Node4</title>
<g id="a_edge3_Node000002_Node000004"><a xlink:title=" ">
<path fill="none" stroke="#63b8ff" d="M603.06,-61.96C514.83,-51.75 288.41,-25.54 201.08,-15.44"/>
<polygon fill="#63b8ff" stroke="#63b8ff" points="201.55,-11.97 191.21,-14.29 200.75,-18.92 201.55,-11.97"/>
</a>
</g>
</g>
<!-- Node5 -->
<g id="Node000005" class="node">
<title>Node5</title>
<g id="a_Node000005"><a xlink:title=" ">
<polygon fill="#e0e0e0" stroke="#999999" points="663.5,-20.75 614.5,-20.75 614.5,0 663.5,0 663.5,-20.75"/>
<text text-anchor="middle" x="639" y="-7.25" font-family="Helvetica,sans-Serif" font-size="10.00">cstdint</text>
</a>
</g>
</g>
<!-- Node2&#45;&gt;Node5 -->
<g id="edge4_Node000002_Node000005" class="edge">
<title>Node2&#45;&gt;Node5</title>
<g id="a_edge4_Node000002_Node000005"><a xlink:title=" ">
<path fill="none" stroke="#63b8ff" d="M639,-56.34C639,-49.72 639,-40.72 639,-32.52"/>
<polygon fill="#63b8ff" stroke="#63b8ff" points="642.5,-32.59 639,-22.59 635.5,-32.59 642.5,-32.59"/>
</a>
</g>
</g>
<!-- Node6 -->
<g id="Node000006" class="node">
<title>Node6</title>
<g id="a_Node000006"><a xlink:title=" ">
<polygon fill="#e0e0e0" stroke="#999999" points="743.88,-20.75 700.12,-20.75 700.12,0 743.88,0 743.88,-20.75"/>
<text text-anchor="middle" x="722" y="-7.25" font-family="Helvetica,sans-Serif" font-size="10.00">limits</text>
</a>
</g>
</g>
<!-- Node2&#45;&gt;Node6 -->
<g id="edge5_Node000002_Node000006" class="edge">
<title>Node2&#45;&gt;Node6</title>
<g id="a_edge5_Node000002_Node000006"><a xlink:title=" ">
<path fill="none" stroke="#63b8ff" d="M653.84,-56.34C666.11,-48.24 683.79,-36.58 698.06,-27.17"/>
<polygon fill="#63b8ff" stroke="#63b8ff" points="699.61,-30.34 706.03,-21.91 695.75,-24.5 699.61,-30.34"/>
</a>
</g>
</g>
<!-- Node7&#45;&gt;Node2 -->
<g id="edge7_Node000007_Node000002" class="edge">
<title>Node7&#45;&gt;Node2</title>
<g id="a_edge7_Node000007_Node000002"><a xlink:title=" ">
<path fill="none" stroke="#63b8ff" d="M674.67,-170.12C668.4,-152.19 654.7,-113 646.22,-88.76"/>
<polygon fill="#63b8ff" stroke="#63b8ff" points="649.53,-87.64 642.93,-79.35 642.93,-89.95 649.53,-87.64"/>
</a>
</g>
</g>
<!-- Node7&#45;&gt;Node3 -->
<g id="edge19_Node000007_Node000003" class="edge">
<title>Node7&#45;&gt;Node3</title>
<g id="a_edge19_Node000007_Node000003"><a xlink:title=" ">
<path fill="none" stroke="#63b8ff" d="M634.49,-169.84C615.14,-163.15 594.06,-152.14 582,-134.25 561.37,-103.64 565.39,-58.4 570.19,-32.2"/>
<polygon fill="#63b8ff" stroke="#63b8ff" points="573.6,-33.01 572.2,-22.5 566.75,-31.59 573.6,-33.01"/>
</a>
</g>
</g>
<!-- Node7&#45;&gt;Node4 -->
<g id="edge20_Node000007_Node000004" class="edge">
<title>Node7&#45;&gt;Node4</title>
<g id="a_edge20_Node000007_Node000004"><a xlink:title=" ">
<path fill="none" stroke="#63b8ff" d="M615.67,-175.24C496.78,-165.56 244.18,-138.22 185,-77.5 173.26,-65.46 168.69,-46.67 166.95,-32.19"/>
<polygon fill="#63b8ff" stroke="#63b8ff" points="170.45,-32.05 166.16,-22.36 163.47,-32.61 170.45,-32.05"/>
</a>
</g>
</g>
<!-- Node7&#45;&gt;Node5 -->
<g id="edge18_Node000007_Node000005" class="edge">
<title>Node7&#45;&gt;Node5</title>
<g id="a_edge18_Node000007_Node000005"><a xlink:title=" ">
<path fill="none" stroke="#63b8ff" d="M681.17,-169.91C687.58,-148.5 700.18,-96.05 684,-56.75 679.42,-45.63 670.66,-35.8 662.07,-28.15"/>
<polygon fill="#63b8ff" stroke="#63b8ff" points="664.49,-25.61 654.54,-21.97 660.05,-31.02 664.49,-25.61"/>
</a>
</g>
</g>
<!-- Node7&#45;&gt;Node6 -->
<g id="edge22_Node000007_Node000006" class="edge">
<title>Node7&#45;&gt;Node6</title>
<g id="a_edge22_Node000007_Node000006"><a xlink:title=" ">
<path fill="none" stroke="#63b8ff" d="M684.92,-170.05C690.95,-161.2 699.43,-147.46 704,-134.25 715.88,-99.89 719.92,-57.49 721.29,-32.54"/>
<polygon fill="#63b8ff" stroke="#63b8ff" points="724.78,-32.88 721.73,-22.74 717.79,-32.57 724.78,-32.88"/>
</a>
</g>
</g>
<!-- Node8 -->
<g id="Node000008" class="node">
<title>Node8</title>
<g id="a_Node000008"><a xlink:href="recombination_8hpp.html" target="_top" xlink:title=" ">
<polygon fill="white" stroke="#666666" points="481.75,-134.25 374.25,-134.25 374.25,-113.5 481.75,-113.5 481.75,-134.25"/>
<text text-anchor="middle" x="428" y="-120.75" font-family="Helvetica,sans-Serif" font-size="10.00">recombination.hpp</text>
</a>
</g>
</g>
<!-- Node7&#45;&gt;Node8 -->
<g id="edge8_Node000007_Node000008" class="edge">
<title>Node7&#45;&gt;Node8</title>
<g id="a_edge8_Node000007_Node000008"><a xlink:title=" ">
<path fill="none" stroke="#63b8ff" d="M633.02,-169.77C591.29,-160.63 529.03,-147 484.08,-137.16"/>
<polygon fill="#63b8ff" stroke="#63b8ff" points="485.04,-133.78 474.52,-135.06 483.54,-140.62 485.04,-133.78"/>
</a>
</g>
</g>
<!-- Node7&#45;&gt;Node12 -->
<g id="edge16_Node000007_Node000012" class="edge">
<title>Node7&#45;&gt;Node12</title>
<g id="a_edge16_Node000007_Node000012"><a xlink:title=" ">
<path fill="none" stroke="#63b8ff" d="M615.7,-175.94C511.6,-169.5 295.79,-154.86 114,-134.25 113.16,-134.16 112.32,-134.06 111.47,-133.96"/>
<polygon fill="#63b8ff" stroke="#63b8ff" points="112.13,-130.51 101.77,-132.74 111.26,-137.46 112.13,-130.51"/>
</a>
</g>
</g>
<!-- Node7&#45;&gt;Node13 -->
<g id="edge17_Node000007_Node000013" class="edge">
<title>Node7&#45;&gt;Node13</title>
<g id="a_edge17_Node000007_Node000013"><a xlink:title=" ">
<path fill="none" stroke="#63b8ff" d="M703.03,-169.84C725.23,-161.16 757.89,-148.38 782.73,-138.67"/>
<polygon fill="#63b8ff" stroke="#63b8ff" points="783.74,-142.03 791.78,-135.13 781.19,-135.51 783.74,-142.03"/>
</a>
</g>
</g>
<!-- Node14 -->
<g id="Node000014" class="node">
<title>Node14</title>
<g id="a_Node000014"><a xlink:title=" ">
<polygon fill="#e0e0e0" stroke="#999999" points="637,-134.25 591,-134.25 591,-113.5 637,-113.5 637,-134.25"/>
<text text-anchor="middle" x="614" y="-120.75" font-family="Helvetica,sans-Serif" font-size="10.00">deque</text>
</a>
</g>
</g>
<!-- Node7&#45;&gt;Node14 -->
<g id="edge21_Node000007_Node000014" class="edge">
<title>Node7&#45;&gt;Node14</title>
<g id="a_edge21_Node000007_Node000014"><a xlink:title=" ">
<path fill="none" stroke="#63b8ff" d="M666.56,-169.84C657.55,-162.13 644.77,-151.2 634.07,-142.04"/>
<polygon fill="#63b8ff" stroke="#63b8ff" points="636.37,-139.4 626.49,-135.56 631.82,-144.72 636.37,-139.4"/>
</a>
</g>
</g>
<!-- Node15 -->
<g id="Node000015" class="node">
<title>Node15</title>
<g id="a_Node000015"><a xlink:title=" ">
<polygon fill="#e0e0e0" stroke="#999999" points="935.62,-134.25 884.38,-134.25 884.38,-113.5 935.62,-113.5 935.62,-134.25"/>
<text text-anchor="middle" x="910" y="-120.75" font-family="Helvetica,sans-Serif" font-size="10.00">cassert</text>
</a>
</g>
</g>
<!-- Node7&#45;&gt;Node15 -->
<g id="edge23_Node000007_Node000015" class="edge">
<title>Node7&#45;&gt;Node15</title>
<g id="a_edge23_Node000007_Node000015"><a xlink:title=" ">
<path fill="none" stroke="#63b8ff" d="M723.35,-169.82C761.14,-161.53 816.63,-149.04 873.11,-134.91"/>
<polygon fill="#63b8ff" stroke="#63b8ff" points="873.73,-138.36 882.57,-132.53 872.02,-131.57 873.73,-138.36"/>
</a>
</g>
</g>
<!-- Node8&#45;&gt;Node2 -->
<g id="edge9_Node000008_Node000002" class="edge">
<title>Node8&#45;&gt;Node2</title>
<g id="a_edge9_Node000008_Node000002"><a xlink:title=" ">
<path fill="none" stroke="#63b8ff" d="M465.72,-113.09C501.11,-103.9 554.14,-90.14 592.21,-80.27"/>
<polygon fill="#63b8ff" stroke="#63b8ff" points="592.75,-83.74 601.55,-77.84 590.99,-76.97 592.75,-83.74"/>
</a>
</g>
</g>
<!-- Node8&#45;&gt;Node3 -->
<g id="edge11_Node000008_Node000003" class="edge">
<title>Node8&#45;&gt;Node3</title>
<g id="a_edge11_Node000008_Node000003"><a xlink:title=" ">
<path fill="none" stroke="#63b8ff" d="M374.01,-122.26C299.29,-119.59 178.3,-107.58 223,-56.75 243.87,-33.02 457.36,-18.18 541.34,-13.22"/>
<polygon fill="#63b8ff" stroke="#63b8ff" points="541.45,-16.72 551.24,-12.65 541.05,-9.74 541.45,-16.72"/>
</a>
</g>
</g>
<!-- Node8&#45;&gt;Node4 -->
<g id="edge12_Node000008_Node000004" class="edge">
<title>Node8&#45;&gt;Node4</title>
<g id="a_edge12_Node000008_Node000004"><a xlink:title=" ">
<path fill="none" stroke="#63b8ff" d="M374,-123.02C326.7,-120.67 258.06,-111.01 209,-77.5 192.6,-66.3 180.98,-46.57 173.99,-31.56"/>
<polygon fill="#63b8ff" stroke="#63b8ff" points="177.31,-30.42 170.14,-22.62 170.88,-33.19 177.31,-30.42"/>
</a>
</g>
</g>
<!-- Node8&#45;&gt;Node5 -->
<g id="edge13_Node000008_Node000005" class="edge">
<title>Node8&#45;&gt;Node5</title>
<g id="a_edge13_Node000008_Node000005"><a xlink:title=" ">
<path fill="none" stroke="#63b8ff" d="M447.76,-113.15C466.06,-104.08 493.99,-90.11 518,-77.5 550.31,-60.53 587.05,-40.33 611.48,-26.75"/>
<polygon fill="#63b8ff" stroke="#63b8ff" points="613.11,-29.85 620.14,-21.93 609.7,-23.74 613.11,-29.85"/>
</a>
</g>
</g>
<!-- Node9 -->
<g id="Node000009" class="node">
<title>Node9</title>
<g id="a_Node000009"><a xlink:title=" ">
<polygon fill="#e0e0e0" stroke="#999999" points="363.75,-77.5 232.25,-77.5 232.25,-56.75 363.75,-56.75 363.75,-77.5"/>
<text text-anchor="middle" x="298" y="-64" font-family="Helvetica,sans-Serif" font-size="10.00">shrinkwrap/istream.hpp</text>
</a>
</g>
</g>
<!-- Node8&#45;&gt;Node9 -->
<g id="edge10_Node000008_Node000009" class="edge">
<title>Node8&#45;&gt;Node9</title>
<g id="a_edge10_Node000008_Node000009"><a xlink:title=" ">
<path fill="none" stroke="#63b8ff" d="M404.76,-113.09C384.33,-104.48 354.36,-91.86 331.37,-82.18"/>
<polygon fill="#63b8ff" stroke="#63b8ff" points="333.01,-79.07 322.44,-78.42 330.29,-85.52 333.01,-79.07"/>
</a>
</g>
</g>
<!-- Node10 -->
<g id="Node000010" class="node">
<title>Node10</title>
<g id="a_Node000010"><a xlink:title=" ">
<polygon fill="#e0e0e0" stroke="#999999" points="444.62,-77.5 381.38,-77.5 381.38,-56.75 444.62,-56.75 444.62,-77.5"/>
<text text-anchor="middle" x="413" y="-64" font-family="Helvetica,sans-Serif" font-size="10.00">algorithm</text>
</a>
</g>
</g>
<!-- Node8&#45;&gt;Node10 -->
<g id="edge14_Node000008_Node000010" class="edge">
<title>Node8&#45;&gt;Node10</title>
<g id="a_edge14_Node000008_Node000010"><a xlink:title=" ">
<path fill="none" stroke="#63b8ff" d="M425.32,-113.09C423.46,-106.31 420.92,-97.05 418.63,-88.69"/>
<polygon fill="#63b8ff" stroke="#63b8ff" points="422.08,-88.01 416.06,-79.29 415.33,-89.86 422.08,-88.01"/>
</a>
</g>
</g>
<!-- Node11 -->
<g id="Node000011" class="node">
<title>Node11</title>
<g id="a_Node000011"><a xlink:title=" ">
<polygon fill="#e0e0e0" stroke="#999999" points="509.38,-77.5 462.62,-77.5 462.62,-56.75 509.38,-56.75 509.38,-77.5"/>
<text text-anchor="middle" x="486" y="-64" font-family="Helvetica,sans-Serif" font-size="10.00">cmath</text>
</a>
</g>
</g>
<!-- Node8&#45;&gt;Node11 -->
<g id="edge15_Node000008_Node000011" class="edge">
<title>Node8&#45;&gt;Node11</title>
<g id="a_edge15_Node000008_Node000011"><a xlink:title=" ">
<path fill="none" stroke="#63b8ff" d="M438.37,-113.09C446.45,-105.46 457.88,-94.67 467.52,-85.57"/>
<polygon fill="#63b8ff" stroke="#63b8ff" points="469.75,-88.28 474.62,-78.87 464.95,-83.19 469.75,-88.28"/>
</a>
</g>
</g>
<!-- Node16&#45;&gt;Node2 -->
<g id="edge26_Node000016_Node000002" class="edge">
<title>Node16&#45;&gt;Node2</title>
<g id="a_edge26_Node000016_Node000002"><a xlink:title=" ">
<path fill="none" stroke="#63b8ff" d="M917.92,-226.81C935.56,-204.32 974.27,-147.43 945,-113.5 912.17,-75.45 763.82,-68.78 686.38,-67.95"/>
<polygon fill="#63b8ff" stroke="#63b8ff" points="686.58,-64.45 676.55,-67.87 686.53,-71.45 686.58,-64.45"/>
</a>
</g>
</g>
<!-- Node16&#45;&gt;Node7 -->
<g id="edge25_Node000016_Node000007" class="edge">
<title>Node16&#45;&gt;Node7</title>
<g id="a_edge25_Node000016_Node000007"><a xlink:title=" ">
<path fill="none" stroke="#63b8ff" d="M868.26,-226.52C829.78,-217.44 772.49,-203.92 730.84,-194.09"/>
<polygon fill="#63b8ff" stroke="#63b8ff" points="731.81,-190.73 721.27,-191.84 730.2,-197.54 731.81,-190.73"/>
</a>
</g>
</g>
<!-- Node16&#45;&gt;Node15 -->
<g id="edge28_Node000016_Node000015" class="edge">
<title>Node16&#45;&gt;Node15</title>
<g id="a_edge28_Node000016_Node000015"><a xlink:title=" ">
<path fill="none" stroke="#63b8ff" d="M910,-226.87C910,-209.1 910,-170.47 910,-146.18"/>
<polygon fill="#63b8ff" stroke="#63b8ff" points="913.5,-146.19 910,-136.19 906.5,-146.19 913.5,-146.19"/>
</a>
</g>
</g>
<!-- Node17 -->
<g id="Node000017" class="node">
<title>Node17</title>
<g id="a_Node000017"><a xlink:title=" ">
<polygon fill="#e0e0e0" stroke="#999999" points="1033.75,-191 992.25,-191 992.25,-170.25 1033.75,-170.25 1033.75,-191"/>
<text text-anchor="middle" x="1013" y="-177.5" font-family="Helvetica,sans-Serif" font-size="10.00">array</text>
</a>
</g>
</g>
<!-- Node16&#45;&gt;Node17 -->
<g id="edge27_Node000016_Node000017" class="edge">
<title>Node16&#45;&gt;Node17</title>
<g id="a_edge27_Node000016_Node000017"><a xlink:title=" ">
<path fill="none" stroke="#63b8ff" d="M928.41,-226.59C944.09,-218.26 966.85,-206.16 984.81,-196.61"/>
<polygon fill="#63b8ff" stroke="#63b8ff" points="986.22,-199.82 993.41,-192.04 982.94,-193.64 986.22,-199.82"/>
</a>
</g>
</g>
<!-- Node18 -->
<g id="Node000018" class="node">
<title>Node18</title>
<g id="a_Node000018"><a xlink:title=" ">
<polygon fill="#e0e0e0" stroke="#999999" points="1107.88,-191 1052.12,-191 1052.12,-170.25 1107.88,-170.25 1107.88,-191"/>
<text text-anchor="middle" x="1080" y="-177.5" font-family="Helvetica,sans-Serif" font-size="10.00">numeric</text>
</a>
</g>
</g>
<!-- Node16&#45;&gt;Node18 -->
<g id="edge29_Node000016_Node000018" class="edge">
<title>Node16&#45;&gt;Node18</title>
<g id="a_edge29_Node000016_Node000018"><a xlink:title=" ">
<path fill="none" stroke="#63b8ff" d="M940.39,-226.59C968.55,-217.52 1010.56,-203.99 1041.14,-194.14"/>
<polygon fill="#63b8ff" stroke="#63b8ff" points="1041.96,-197.55 1050.41,-191.16 1039.81,-190.89 1041.96,-197.55"/>
</a>
</g>
</g>
</g>
</svg>
