<?xml version="1.0" encoding="UTF-8" standalone="no"?>
<!DOCTYPE svg PUBLIC "-//W3C//DTD SVG 1.1//EN"
 "http://www.w3.org/Graphics/SVG/1.1/DTD/svg11.dtd">
<!-- Generated by graphviz version 12.2.1 (0)
 -->
<!-- Title: src/dosage_writer.cpp Pages: 1 -->
<svg width="1130pt" height="369pt"
 viewBox="0.00 0.00 1130.38 369.25" xmlns="http://www.w3.org/2000/svg" xmlns:xlink="http://www.w3.org/1999/xlink">
<g id="graph0" class="graph" transform="scale(1 1) rotate(0) translate(4 365.25)">
<title>src/dosage_writer.cpp</title>
<!-- Node1 -->
<g id="Node000001" class="node">
<title>Node1</title>
<g id="a_Node000001"><a xlink:title=" ">
<polygon fill="#999999" stroke="#666666" points="1055.24,-361.25 933.49,-361.25 933.49,-340.5 1055.24,-340.5 1055.24,-361.25"/>
<text text-anchor="middle" x="994.37" y="-347.75" font-family="Helvetica,sans-Serif" font-size="10.00">src/dosage_writer.cpp</text>
</a>
</g>
</g>
<!-- Node2 -->
<g id="Node000002" class="node">
<title>Node2</title>
<g id="a_Node000002"><a xlink:href="dosage__writer_8hpp.html" target="_top" xlink:title=" ">
<polygon fill="white" stroke="#666666" points="831.99,-304.5 726.74,-304.5 726.74,-283.75 831.99,-283.75 831.99,-304.5"/>
<text text-anchor="middle" x="779.37" y="-291" font-family="Helvetica,sans-Serif" font-size="10.00">dosage_writer.hpp</text>
</a>
</g>
</g>
<!-- Node1&#45;&gt;Node2 -->
<g id="edge1_Node000001_Node000002" class="edge">
<title>Node1&#45;&gt;Node2</title>
<g id="a_edge1_Node000001_Node000002"><a xlink:title=" ">
<path fill="none" stroke="#63b8ff" d="M955.93,-340.09C920.42,-331.04 867.48,-317.56 828.83,-307.72"/>
<polygon fill="#63b8ff" stroke="#63b8ff" points="829.85,-304.37 819.3,-305.29 828.13,-311.15 829.85,-304.37"/>
</a>
</g>
</g>
<!-- Node11 -->
<g id="Node000011" class="node">
<title>Node11</title>
<g id="a_Node000011"><a xlink:title=" ">
<polygon fill="#e0e0e0" stroke="#999999" points="814.99,-77.5 751.74,-77.5 751.74,-56.75 814.99,-56.75 814.99,-77.5"/>
<text text-anchor="middle" x="783.37" y="-64" font-family="Helvetica,sans-Serif" font-size="10.00">algorithm</text>
</a>
</g>
</g>
<!-- Node1&#45;&gt;Node11 -->
<g id="edge34_Node000001_Node000011" class="edge">
<title>Node1&#45;&gt;Node11</title>
<g id="a_edge34_Node000001_Node000011"><a xlink:title=" ">
<path fill="none" stroke="#63b8ff" d="M1021.61,-340.06C1058.93,-324.67 1121.37,-291.04 1121.37,-238.38 1121.37,-238.38 1121.37,-238.38 1121.37,-179.62 1121.37,-149.05 1125.43,-133.57 1102.37,-113.5 1062.03,-78.4 904.02,-70.42 826.6,-68.63"/>
<polygon fill="#63b8ff" stroke="#63b8ff" points="826.92,-65.13 816.85,-68.43 826.78,-72.13 826.92,-65.13"/>
</a>
</g>
</g>
<!-- Node3 -->
<g id="Node000003" class="node">
<title>Node3</title>
<g id="a_Node000003"><a xlink:href="variant_8hpp.html" target="_top" xlink:title=" ">
<polygon fill="white" stroke="#666666" points="405.12,-77.5 333.62,-77.5 333.62,-56.75 405.12,-56.75 405.12,-77.5"/>
<text text-anchor="middle" x="369.37" y="-64" font-family="Helvetica,sans-Serif" font-size="10.00">variant.hpp</text>
</a>
</g>
</g>
<!-- Node2&#45;&gt;Node3 -->
<g id="edge2_Node000002_Node000003" class="edge">
<title>Node2&#45;&gt;Node3</title>
<g id="a_edge2_Node000002_Node000003"><a xlink:title=" ">
<path fill="none" stroke="#63b8ff" d="M757.79,-283.29C719.67,-265.74 638.1,-227.44 571.37,-191 528.53,-167.61 519.06,-159.6 477.37,-134.25 448.98,-117 416.49,-97.08 394.62,-83.65"/>
<polygon fill="#63b8ff" stroke="#63b8ff" points="396.73,-80.84 386.38,-78.58 393.06,-86.8 396.73,-80.84"/>
</a>
</g>
</g>
<!-- Node8 -->
<g id="Node000008" class="node">
<title>Node8</title>
<g id="a_Node000008"><a xlink:href="unique__haplotype_8hpp.html" target="_top" xlink:title=" ">
<polygon fill="white" stroke="#666666" points="704.37,-191 580.37,-191 580.37,-170.25 704.37,-170.25 704.37,-191"/>
<text text-anchor="middle" x="642.37" y="-177.5" font-family="Helvetica,sans-Serif" font-size="10.00">unique_haplotype.hpp</text>
</a>
</g>
</g>
<!-- Node2&#45;&gt;Node8 -->
<g id="edge7_Node000002_Node000008" class="edge">
<title>Node2&#45;&gt;Node8</title>
<g id="a_edge7_Node000002_Node000008"><a xlink:title=" ">
<path fill="none" stroke="#63b8ff" d="M767.68,-283.62C744.45,-264.71 692.15,-222.14 662.99,-198.41"/>
<polygon fill="#63b8ff" stroke="#63b8ff" points="665.55,-195.98 655.58,-192.38 661.13,-201.41 665.55,-195.98"/>
</a>
</g>
</g>
<!-- Node13 -->
<g id="Node000013" class="node">
<title>Node13</title>
<g id="a_Node000013"><a xlink:title=" ">
<polygon fill="#e0e0e0" stroke="#999999" points="977.37,-134.25 877.37,-134.25 877.37,-113.5 977.37,-113.5 977.37,-134.25"/>
<text text-anchor="middle" x="927.37" y="-120.75" font-family="Helvetica,sans-Serif" font-size="10.00">savvy/reader.hpp</text>
</a>
</g>
</g>
<!-- Node2&#45;&gt;Node13 -->
<g id="edge31_Node000002_Node000013" class="edge">
<title>Node2&#45;&gt;Node13</title>
<g id="a_edge31_Node000002_Node000013"><a xlink:title=" ">
<path fill="none" stroke="#63b8ff" d="M787.75,-283.6C811.55,-256.54 879.85,-178.9 911.23,-143.21"/>
<polygon fill="#63b8ff" stroke="#63b8ff" points="913.73,-145.67 917.71,-135.85 908.48,-141.05 913.73,-145.67"/>
</a>
</g>
</g>
<!-- Node14 -->
<g id="Node000014" class="node">
<title>Node14</title>
<g id="a_Node000014"><a xlink:title=" ">
<polygon fill="#e0e0e0" stroke="#999999" points="1092.87,-134.25 995.87,-134.25 995.87,-113.5 1092.87,-113.5 1092.87,-134.25"/>
<text text-anchor="middle" x="1044.37" y="-120.75" font-family="Helvetica,sans-Serif" font-size="10.00">savvy/writer.hpp</text>
</a>
</g>
</g>
<!-- Node2&#45;&gt;Node14 -->
<g id="edge32_Node000002_Node000014" class="edge">
<title>Node2&#45;&gt;Node14</title>
<g id="a_edge32_Node000002_Node000014"><a xlink:title=" ">
<path fill="none" stroke="#63b8ff" d="M794.76,-283.35C838.76,-255.42 965.37,-175.03 1019.42,-140.71"/>
<polygon fill="#63b8ff" stroke="#63b8ff" points="1021.09,-143.8 1027.65,-135.49 1017.33,-137.89 1021.09,-143.8"/>
</a>
</g>
</g>
<!-- Node17 -->
<g id="Node000017" class="node">
<title>Node17</title>
<g id="a_Node000017"><a xlink:href="hidden__markov__model_8hpp.html" target="_top" xlink:title=" ">
<polygon fill="white" stroke="#666666" points="205.37,-247.75 57.37,-247.75 57.37,-227 205.37,-227 205.37,-247.75"/>
<text text-anchor="middle" x="131.37" y="-234.25" font-family="Helvetica,sans-Serif" font-size="10.00">hidden_markov_model.hpp</text>
</a>
</g>
</g>
<!-- Node2&#45;&gt;Node17 -->
<g id="edge25_Node000002_Node000017" class="edge">
<title>Node2&#45;&gt;Node17</title>
<g id="a_edge25_Node000002_Node000017"><a xlink:title=" ">
<path fill="none" stroke="#63b8ff" d="M726.34,-288.64C614.32,-279.18 352.77,-257.08 216.83,-245.6"/>
<polygon fill="#63b8ff" stroke="#63b8ff" points="217.43,-242.13 207.17,-244.78 216.84,-249.11 217.43,-242.13"/>
</a>
</g>
</g>
<!-- Node20 -->
<g id="Node000020" class="node">
<title>Node20</title>
<g id="a_Node000020"><a xlink:title=" ">
<polygon fill="#e0e0e0" stroke="#999999" points="807.99,-247.75 750.74,-247.75 750.74,-227 807.99,-227 807.99,-247.75"/>
<text text-anchor="middle" x="779.37" y="-234.25" font-family="Helvetica,sans-Serif" font-size="10.00">memory</text>
</a>
</g>
</g>
<!-- Node2&#45;&gt;Node20 -->
<g id="edge33_Node000002_Node000020" class="edge">
<title>Node2&#45;&gt;Node20</title>
<g id="a_edge33_Node000002_Node000020"><a xlink:title=" ">
<path fill="none" stroke="#63b8ff" d="M779.37,-283.34C779.37,-276.72 779.37,-267.72 779.37,-259.52"/>
<polygon fill="#63b8ff" stroke="#63b8ff" points="782.87,-259.59 779.37,-249.59 775.87,-259.59 782.87,-259.59"/>
</a>
</g>
</g>
<!-- Node4 -->
<g id="Node000004" class="node">
<title>Node4</title>
<g id="a_Node000004"><a xlink:title=" ">
<polygon fill="#e0e0e0" stroke="#999999" points="758.24,-20.75 714.49,-20.75 714.49,0 758.24,0 758.24,-20.75"/>
<text text-anchor="middle" x="736.37" y="-7.25" font-family="Helvetica,sans-Serif" font-size="10.00">string</text>
</a>
</g>
</g>
<!-- Node3&#45;&gt;Node4 -->
<g id="edge3_Node000003_Node000004" class="edge">
<title>Node3&#45;&gt;Node4</title>
<g id="a_edge3_Node000003_Node000004"><a xlink:title=" ">
<path fill="none" stroke="#63b8ff" d="M405.48,-62.05C476.27,-53.93 631.93,-35.45 703.12,-21.11"/>
<polygon fill="#63b8ff" stroke="#63b8ff" points="703.66,-24.58 712.72,-19.08 702.21,-17.73 703.66,-24.58"/>
</a>
</g>
</g>
<!-- Node5 -->
<g id="Node000005" class="node">
<title>Node5</title>
<g id="a_Node000005"><a xlink:title=" ">
<polygon fill="#e0e0e0" stroke="#999999" points="392.74,-20.75 345.99,-20.75 345.99,0 392.74,0 392.74,-20.75"/>
<text text-anchor="middle" x="369.37" y="-7.25" font-family="Helvetica,sans-Serif" font-size="10.00">vector</text>
</a>
</g>
</g>
<!-- Node3&#45;&gt;Node5 -->
<g id="edge4_Node000003_Node000005" class="edge">
<title>Node3&#45;&gt;Node5</title>
<g id="a_edge4_Node000003_Node000005"><a xlink:title=" ">
<path fill="none" stroke="#63b8ff" d="M369.37,-56.34C369.37,-49.72 369.37,-40.72 369.37,-32.52"/>
<polygon fill="#63b8ff" stroke="#63b8ff" points="372.87,-32.59 369.37,-22.59 365.87,-32.59 372.87,-32.59"/>
</a>
</g>
</g>
<!-- Node6 -->
<g id="Node000006" class="node">
<title>Node6</title>
<g id="a_Node000006"><a xlink:title=" ">
<polygon fill="#e0e0e0" stroke="#999999" points="696.87,-20.75 647.87,-20.75 647.87,0 696.87,0 696.87,-20.75"/>
<text text-anchor="middle" x="672.37" y="-7.25" font-family="Helvetica,sans-Serif" font-size="10.00">cstdint</text>
</a>
</g>
</g>
<!-- Node3&#45;&gt;Node6 -->
<g id="edge5_Node000003_Node000006" class="edge">
<title>Node3&#45;&gt;Node6</title>
<g id="a_edge5_Node000003_Node000006"><a xlink:title=" ">
<path fill="none" stroke="#63b8ff" d="M405.61,-59.58C463.96,-49.03 578.02,-28.42 636.27,-17.9"/>
<polygon fill="#63b8ff" stroke="#63b8ff" points="636.77,-21.36 645.99,-16.14 635.52,-14.48 636.77,-21.36"/>
</a>
</g>
</g>
<!-- Node7 -->
<g id="Node000007" class="node">
<title>Node7</title>
<g id="a_Node000007"><a xlink:title=" ">
<polygon fill="#e0e0e0" stroke="#999999" points="309.24,-20.75 265.49,-20.75 265.49,0 309.24,0 309.24,-20.75"/>
<text text-anchor="middle" x="287.37" y="-7.25" font-family="Helvetica,sans-Serif" font-size="10.00">limits</text>
</a>
</g>
</g>
<!-- Node3&#45;&gt;Node7 -->
<g id="edge6_Node000003_Node000007" class="edge">
<title>Node3&#45;&gt;Node7</title>
<g id="a_edge6_Node000003_Node000007"><a xlink:title=" ">
<path fill="none" stroke="#63b8ff" d="M354.71,-56.34C342.69,-48.32 325.45,-36.81 311.43,-27.44"/>
<polygon fill="#63b8ff" stroke="#63b8ff" points="313.42,-24.56 303.16,-21.92 309.53,-30.38 313.42,-24.56"/>
</a>
</g>
</g>
<!-- Node8&#45;&gt;Node3 -->
<g id="edge8_Node000008_Node000003" class="edge">
<title>Node8&#45;&gt;Node3</title>
<g id="a_edge8_Node000008_Node000003"><a xlink:title=" ">
<path fill="none" stroke="#63b8ff" d="M618.62,-169.93C570.21,-150.16 459.98,-105.14 403.75,-82.17"/>
<polygon fill="#63b8ff" stroke="#63b8ff" points="405.24,-79 394.66,-78.45 402.59,-85.48 405.24,-79"/>
</a>
</g>
</g>
<!-- Node8&#45;&gt;Node4 -->
<g id="edge20_Node000008_Node000004" class="edge">
<title>Node8&#45;&gt;Node4</title>
<g id="a_edge20_Node000008_Node000004"><a xlink:title=" ">
<path fill="none" stroke="#63b8ff" d="M704.75,-171.7C735.69,-165.4 772.34,-154.18 800.37,-134.25 825.51,-116.36 831.04,-106.92 840.37,-77.5 843.15,-68.71 845.42,-64.47 840.37,-56.75 824.79,-32.96 793.7,-21.57 769.56,-16.16"/>
<polygon fill="#63b8ff" stroke="#63b8ff" points="770.33,-12.75 759.84,-14.25 768.98,-19.61 770.33,-12.75"/>
</a>
</g>
</g>
<!-- Node8&#45;&gt;Node5 -->
<g id="edge21_Node000008_Node000005" class="edge">
<title>Node8&#45;&gt;Node5</title>
<g id="a_edge21_Node000008_Node000005"><a xlink:title=" ">
<path fill="none" stroke="#63b8ff" d="M585.22,-169.75C502.11,-154.07 354.46,-120.76 324.37,-77.5 312.66,-60.67 329.42,-41.25 345.72,-27.84"/>
<polygon fill="#63b8ff" stroke="#63b8ff" points="347.54,-30.85 353.33,-21.98 343.27,-25.3 347.54,-30.85"/>
</a>
</g>
</g>
<!-- Node8&#45;&gt;Node6 -->
<g id="edge19_Node000008_Node000006" class="edge">
<title>Node8&#45;&gt;Node6</title>
<g id="a_edge19_Node000008_Node000006"><a xlink:title=" ">
<path fill="none" stroke="#63b8ff" d="M689.58,-169.77C735.18,-157.28 800.72,-130.63 824.37,-77.5 828.12,-69.07 829.88,-64.15 824.37,-56.75 823.47,-55.54 752.94,-34.83 708.28,-21.81"/>
<polygon fill="#63b8ff" stroke="#63b8ff" points="709.3,-18.47 698.72,-19.03 707.35,-25.19 709.3,-18.47"/>
</a>
</g>
</g>
<!-- Node8&#45;&gt;Node7 -->
<g id="edge23_Node000008_Node000007" class="edge">
<title>Node8&#45;&gt;Node7</title>
<g id="a_edge23_Node000008_Node000007"><a xlink:title=" ">
<path fill="none" stroke="#63b8ff" d="M580.02,-179.49C523.5,-177.02 439.33,-167.34 374.37,-134.25 342.23,-117.88 336.87,-107.17 316.37,-77.5 306.55,-63.3 298.91,-45.25 293.94,-31.6"/>
<polygon fill="#63b8ff" stroke="#63b8ff" points="297.32,-30.69 290.76,-22.37 290.7,-32.96 297.32,-30.69"/>
</a>
</g>
</g>
<!-- Node9 -->
<g id="Node000009" class="node">
<title>Node9</title>
<g id="a_Node000009"><a xlink:href="recombination_8hpp.html" target="_top" xlink:title=" ">
<polygon fill="white" stroke="#666666" points="688.12,-134.25 580.62,-134.25 580.62,-113.5 688.12,-113.5 688.12,-134.25"/>
<text text-anchor="middle" x="634.37" y="-120.75" font-family="Helvetica,sans-Serif" font-size="10.00">recombination.hpp</text>
</a>
</g>
</g>
<!-- Node8&#45;&gt;Node9 -->
<g id="edge9_Node000008_Node000009" class="edge">
<title>Node8&#45;&gt;Node9</title>
<g id="a_edge9_Node000008_Node000009"><a xlink:title=" ">
<path fill="none" stroke="#63b8ff" d="M640.94,-169.84C639.96,-163.14 638.62,-154.01 637.41,-145.73"/>
<polygon fill="#63b8ff" stroke="#63b8ff" points="640.91,-145.46 636,-136.08 633.98,-146.48 640.91,-145.46"/>
</a>
</g>
</g>
<!-- Node8&#45;&gt;Node13 -->
<g id="edge17_Node000008_Node000013" class="edge">
<title>Node8&#45;&gt;Node13</title>
<g id="a_edge17_Node000008_Node000013"><a xlink:title=" ">
<path fill="none" stroke="#63b8ff" d="M693.65,-169.77C741.92,-160.5 814.29,-146.6 865.69,-136.72"/>
<polygon fill="#63b8ff" stroke="#63b8ff" points="866.33,-140.16 875.49,-134.84 865.01,-133.29 866.33,-140.16"/>
</a>
</g>
</g>
<!-- Node8&#45;&gt;Node14 -->
<g id="edge18_Node000008_Node000014" class="edge">
<title>Node8&#45;&gt;Node14</title>
<g id="a_edge18_Node000008_Node000014"><a xlink:title=" ">
<path fill="none" stroke="#63b8ff" d="M704.59,-171.97C771.12,-163.66 880.03,-149.71 984.27,-134.52"/>
<polygon fill="#63b8ff" stroke="#63b8ff" points="984.76,-137.99 994.15,-133.07 983.75,-131.06 984.76,-137.99"/>
</a>
</g>
</g>
<!-- Node15 -->
<g id="Node000015" class="node">
<title>Node15</title>
<g id="a_Node000015"><a xlink:title=" ">
<polygon fill="#e0e0e0" stroke="#999999" points="752.37,-134.25 706.37,-134.25 706.37,-113.5 752.37,-113.5 752.37,-134.25"/>
<text text-anchor="middle" x="729.37" y="-120.75" font-family="Helvetica,sans-Serif" font-size="10.00">deque</text>
</a>
</g>
</g>
<!-- Node8&#45;&gt;Node15 -->
<g id="edge22_Node000008_Node000015" class="edge">
<title>Node8&#45;&gt;Node15</title>
<g id="a_edge22_Node000008_Node000015"><a xlink:title=" ">
<path fill="none" stroke="#63b8ff" d="M657.92,-169.84C670.79,-161.74 689.31,-150.08 704.27,-140.67"/>
<polygon fill="#63b8ff" stroke="#63b8ff" points="706.07,-143.67 712.67,-135.38 702.34,-137.75 706.07,-143.67"/>
</a>
</g>
</g>
<!-- Node16 -->
<g id="Node000016" class="node">
<title>Node16</title>
<g id="a_Node000016"><a xlink:title=" ">
<polygon fill="#e0e0e0" stroke="#999999" points="238.99,-134.25 187.74,-134.25 187.74,-113.5 238.99,-113.5 238.99,-134.25"/>
<text text-anchor="middle" x="213.37" y="-120.75" font-family="Helvetica,sans-Serif" font-size="10.00">cassert</text>
</a>
</g>
</g>
<!-- Node8&#45;&gt;Node16 -->
<g id="edge24_Node000008_Node000016" class="edge">
<title>Node8&#45;&gt;Node16</title>
<g id="a_edge24_Node000008_Node000016"><a xlink:title=" ">
<path fill="none" stroke="#63b8ff" d="M580.07,-174.57C502.98,-167.8 367.89,-154.28 253.37,-134.25 252.35,-134.07 251.32,-133.89 250.29,-133.69"/>
<polygon fill="#63b8ff" stroke="#63b8ff" points="251.08,-130.28 240.58,-131.67 249.66,-137.13 251.08,-130.28"/>
</a>
</g>
</g>
<!-- Node9&#45;&gt;Node3 -->
<g id="edge10_Node000009_Node000003" class="edge">
<title>Node9&#45;&gt;Node3</title>
<g id="a_edge10_Node000009_Node000003"><a xlink:title=" ">
<path fill="none" stroke="#63b8ff" d="M586.68,-113.02C538.54,-103.08 464.61,-87.8 416.62,-77.89"/>
<polygon fill="#63b8ff" stroke="#63b8ff" points="417.59,-74.51 407.09,-75.92 416.17,-81.37 417.59,-74.51"/>
</a>
</g>
</g>
<!-- Node9&#45;&gt;Node4 -->
<g id="edge12_Node000009_Node000004" class="edge">
<title>Node9&#45;&gt;Node4</title>
<g id="a_edge12_Node000009_Node000004"><a xlink:title=" ">
<path fill="none" stroke="#63b8ff" d="M645.43,-113.16C655.41,-104.23 670.34,-90.43 682.37,-77.5 696.66,-62.13 711.67,-43.53 722.22,-29.97"/>
<polygon fill="#63b8ff" stroke="#63b8ff" points="724.79,-32.37 728.12,-22.31 719.25,-28.1 724.79,-32.37"/>
</a>
</g>
</g>
<!-- Node9&#45;&gt;Node5 -->
<g id="edge13_Node000009_Node000005" class="edge">
<title>Node9&#45;&gt;Node5</title>
<g id="a_edge13_Node000009_Node000005"><a xlink:title=" ">
<path fill="none" stroke="#63b8ff" d="M580.5,-115.66C543.12,-109.19 492.95,-97.54 452.37,-77.5 427.23,-65.09 402.66,-44.08 386.85,-29.07"/>
<polygon fill="#63b8ff" stroke="#63b8ff" points="389.31,-26.57 379.71,-22.09 384.42,-31.58 389.31,-26.57"/>
</a>
</g>
</g>
<!-- Node9&#45;&gt;Node6 -->
<g id="edge14_Node000009_Node000006" class="edge">
<title>Node9&#45;&gt;Node6</title>
<g id="a_edge14_Node000009_Node000006"><a xlink:title=" ">
<path fill="none" stroke="#63b8ff" d="M643.41,-113.3C650.98,-104.67 661.31,-91.25 666.37,-77.5 671.67,-63.07 673.08,-45.73 673.21,-32.42"/>
<polygon fill="#63b8ff" stroke="#63b8ff" points="676.71,-32.59 673.05,-22.65 669.71,-32.7 676.71,-32.59"/>
</a>
</g>
</g>
<!-- Node10 -->
<g id="Node000010" class="node">
<title>Node10</title>
<g id="a_Node000010"><a xlink:title=" ">
<polygon fill="#e0e0e0" stroke="#999999" points="593.12,-77.5 461.62,-77.5 461.62,-56.75 593.12,-56.75 593.12,-77.5"/>
<text text-anchor="middle" x="527.37" y="-64" font-family="Helvetica,sans-Serif" font-size="10.00">shrinkwrap/istream.hpp</text>
</a>
</g>
</g>
<!-- Node9&#45;&gt;Node10 -->
<g id="edge11_Node000009_Node000010" class="edge">
<title>Node9&#45;&gt;Node10</title>
<g id="a_edge11_Node000009_Node000010"><a xlink:title=" ">
<path fill="none" stroke="#63b8ff" d="M615.24,-113.09C598.88,-104.72 575.09,-92.54 556.39,-82.97"/>
<polygon fill="#63b8ff" stroke="#63b8ff" points="558.17,-79.96 547.68,-78.52 554.98,-86.19 558.17,-79.96"/>
</a>
</g>
</g>
<!-- Node9&#45;&gt;Node11 -->
<g id="edge15_Node000009_Node000011" class="edge">
<title>Node9&#45;&gt;Node11</title>
<g id="a_edge15_Node000009_Node000011"><a xlink:title=" ">
<path fill="none" stroke="#63b8ff" d="M661,-113.09C684.66,-104.39 719.49,-91.6 745.94,-81.88"/>
<polygon fill="#63b8ff" stroke="#63b8ff" points="747.11,-85.18 755.29,-78.44 744.69,-78.61 747.11,-85.18"/>
</a>
</g>
</g>
<!-- Node12 -->
<g id="Node000012" class="node">
<title>Node12</title>
<g id="a_Node000012"><a xlink:title=" ">
<polygon fill="#e0e0e0" stroke="#999999" points="657.74,-77.5 610.99,-77.5 610.99,-56.75 657.74,-56.75 657.74,-77.5"/>
<text text-anchor="middle" x="634.37" y="-64" font-family="Helvetica,sans-Serif" font-size="10.00">cmath</text>
</a>
</g>
</g>
<!-- Node9&#45;&gt;Node12 -->
<g id="edge16_Node000009_Node000012" class="edge">
<title>Node9&#45;&gt;Node12</title>
<g id="a_edge16_Node000009_Node000012"><a xlink:title=" ">
<path fill="none" stroke="#63b8ff" d="M634.37,-113.09C634.37,-106.47 634.37,-97.47 634.37,-89.27"/>
<polygon fill="#63b8ff" stroke="#63b8ff" points="637.87,-89.34 634.37,-79.34 630.87,-89.34 637.87,-89.34"/>
</a>
</g>
</g>
<!-- Node17&#45;&gt;Node3 -->
<g id="edge27_Node000017_Node000003" class="edge">
<title>Node17&#45;&gt;Node3</title>
<g id="a_edge27_Node000017_Node000003"><a xlink:title=" ">
<path fill="none" stroke="#63b8ff" d="M133.82,-226.69C140.64,-200.49 160.5,-129.15 178.37,-113.5 199.49,-95 272.56,-81.51 321.95,-74.25"/>
<polygon fill="#63b8ff" stroke="#63b8ff" points="322.43,-77.72 331.83,-72.84 321.44,-70.79 322.43,-77.72"/>
</a>
</g>
</g>
<!-- Node17&#45;&gt;Node8 -->
<g id="edge26_Node000017_Node000008" class="edge">
<title>Node17&#45;&gt;Node8</title>
<g id="a_edge26_Node000017_Node000008"><a xlink:title=" ">
<path fill="none" stroke="#63b8ff" d="M205.67,-228.41C302.76,-218.01 471.76,-199.9 568.59,-189.53"/>
<polygon fill="#63b8ff" stroke="#63b8ff" points="568.95,-193.01 578.52,-188.47 568.21,-186.05 568.95,-193.01"/>
</a>
</g>
</g>
<!-- Node17&#45;&gt;Node16 -->
<g id="edge29_Node000017_Node000016" class="edge">
<title>Node17&#45;&gt;Node16</title>
<g id="a_edge29_Node000017_Node000016"><a xlink:title=" ">
<path fill="none" stroke="#63b8ff" d="M72.95,-226.51C30.16,-216.71 -16.72,-198.94 6.37,-170.25 27.27,-144.27 122.38,-132.33 176.11,-127.57"/>
<polygon fill="#63b8ff" stroke="#63b8ff" points="176.36,-131.07 186.03,-126.74 175.77,-124.09 176.36,-131.07"/>
</a>
</g>
</g>
<!-- Node18 -->
<g id="Node000018" class="node">
<title>Node18</title>
<g id="a_Node000018"><a xlink:title=" ">
<polygon fill="#e0e0e0" stroke="#999999" points="57.12,-191 15.62,-191 15.62,-170.25 57.12,-170.25 57.12,-191"/>
<text text-anchor="middle" x="36.37" y="-177.5" font-family="Helvetica,sans-Serif" font-size="10.00">array</text>
</a>
</g>
</g>
<!-- Node17&#45;&gt;Node18 -->
<g id="edge28_Node000017_Node000018" class="edge">
<title>Node17&#45;&gt;Node18</title>
<g id="a_edge28_Node000017_Node000018"><a xlink:title=" ">
<path fill="none" stroke="#63b8ff" d="M114.38,-226.59C100.06,-218.33 79.32,-206.38 62.83,-196.88"/>
<polygon fill="#63b8ff" stroke="#63b8ff" points="64.93,-194.05 54.51,-192.08 61.43,-200.11 64.93,-194.05"/>
</a>
</g>
</g>
<!-- Node19 -->
<g id="Node000019" class="node">
<title>Node19</title>
<g id="a_Node000019"><a xlink:title=" ">
<polygon fill="#e0e0e0" stroke="#999999" points="131.24,-191 75.49,-191 75.49,-170.25 131.24,-170.25 131.24,-191"/>
<text text-anchor="middle" x="103.37" y="-177.5" font-family="Helvetica,sans-Serif" font-size="10.00">numeric</text>
</a>
</g>
</g>
<!-- Node17&#45;&gt;Node19 -->
<g id="edge30_Node000017_Node000019" class="edge">
<title>Node17&#45;&gt;Node19</title>
<g id="a_edge30_Node000017_Node000019"><a xlink:title=" ">
<path fill="none" stroke="#63b8ff" d="M126.36,-226.59C122.78,-219.58 117.83,-209.91 113.44,-201.33"/>
<polygon fill="#63b8ff" stroke="#63b8ff" points="116.69,-199.99 109.02,-192.68 110.45,-203.17 116.69,-199.99"/>
</a>
</g>
</g>
</g>
</svg>
