<?xml version="1.0" encoding="UTF-8" standalone="no"?>
<!DOCTYPE svg PUBLIC "-//W3C//DTD SVG 1.1//EN"
 "http://www.w3.org/Graphics/SVG/1.1/DTD/svg11.dtd">
<!-- Generated by graphviz version 12.2.1 (0)
 -->
<!-- Title: WriteDosages Pages: 1 -->
<svg width="401pt" height="731pt"
 viewBox="0.00 0.00 400.50 730.50" xmlns="http://www.w3.org/2000/svg" xmlns:xlink="http://www.w3.org/1999/xlink">
<g id="graph0" class="graph" transform="scale(1 1) rotate(0) translate(4 726.5)">
<title>WriteDosages</title>
<polygon fill="white" stroke="none" points="-4,4 -4,-726.5 396.5,-726.5 396.5,4 -4,4"/>
<!-- Start -->
<g id="node1" class="node">
<title>Start</title>
<path fill="none" stroke="black" d="M318.12,-722.5C318.12,-722.5 288.12,-722.5 288.12,-722.5 282.12,-722.5 276.12,-716.5 276.12,-710.5 276.12,-710.5 276.12,-698.5 276.12,-698.5 276.12,-692.5 282.12,-686.5 288.12,-686.5 288.12,-686.5 318.12,-686.5 318.12,-686.5 324.12,-686.5 330.12,-692.5 330.12,-698.5 330.12,-698.5 330.12,-710.5 330.12,-710.5 330.12,-716.5 324.12,-722.5 318.12,-722.5"/>
<text text-anchor="middle" x="303.12" y="-700.62" font-family="Times,serif" font-size="10.00">Start</text>
</g>
<!-- Skip leading variants -->
<g id="node2" class="node">
<title>Skip leading variants</title>
<path fill="none" stroke="black" d="M354.25,-649.5C354.25,-649.5 252,-649.5 252,-649.5 246,-649.5 240,-643.5 240,-637.5 240,-637.5 240,-625.5 240,-625.5 240,-619.5 246,-613.5 252,-613.5 252,-613.5 354.25,-613.5 354.25,-613.5 360.25,-613.5 366.25,-619.5 366.25,-625.5 366.25,-625.5 366.25,-637.5 366.25,-637.5 366.25,-643.5 360.25,-649.5 354.25,-649.5"/>
<text text-anchor="middle" x="303.12" y="-627.62" font-family="Times,serif" font-size="10.00">Skip leading variants</text>
</g>
<!-- Start&#45;&gt;Skip leading variants -->
<g id="edge1" class="edge">
<title>Start&#45;&gt;Skip leading variants</title>
<path fill="none" stroke="black" d="M303.12,-686.31C303.12,-678.73 303.12,-669.6 303.12,-661.04"/>
<polygon fill="black" stroke="black" points="306.63,-661.04 303.13,-651.04 299.63,-661.04 306.63,-661.04"/>
</g>
<!-- Iterate over reference variants -->
<g id="node3" class="node">
<title>Iterate over reference variants</title>
<path fill="none" stroke="black" d="M380.5,-576.5C380.5,-576.5 225.75,-576.5 225.75,-576.5 219.75,-576.5 213.75,-570.5 213.75,-564.5 213.75,-564.5 213.75,-552.5 213.75,-552.5 213.75,-546.5 219.75,-540.5 225.75,-540.5 225.75,-540.5 380.5,-540.5 380.5,-540.5 386.5,-540.5 392.5,-546.5 392.5,-552.5 392.5,-552.5 392.5,-564.5 392.5,-564.5 392.5,-570.5 386.5,-576.5 380.5,-576.5"/>
<text text-anchor="middle" x="303.12" y="-554.62" font-family="Times,serif" font-size="10.00">Iterate over reference variants</text>
</g>
<!-- Skip leading variants&#45;&gt;Iterate over reference variants -->
<g id="edge2" class="edge">
<title>Skip leading variants&#45;&gt;Iterate over reference variants</title>
<path fill="none" stroke="black" d="M303.12,-613.31C303.12,-605.73 303.12,-596.6 303.12,-588.04"/>
<polygon fill="black" stroke="black" points="306.63,-588.04 303.13,-578.04 299.63,-588.04 306.63,-588.04"/>
</g>
<!-- Target&#45;only before ref? -->
<g id="node4" class="node">
<title>Target&#45;only before ref?</title>
<path fill="none" stroke="black" d="M311.5,-503.5C311.5,-503.5 198.75,-503.5 198.75,-503.5 192.75,-503.5 186.75,-497.5 186.75,-491.5 186.75,-491.5 186.75,-479.5 186.75,-479.5 186.75,-473.5 192.75,-467.5 198.75,-467.5 198.75,-467.5 311.5,-467.5 311.5,-467.5 317.5,-467.5 323.5,-473.5 323.5,-479.5 323.5,-479.5 323.5,-491.5 323.5,-491.5 323.5,-497.5 317.5,-503.5 311.5,-503.5"/>
<text text-anchor="middle" x="255.12" y="-481.62" font-family="Times,serif" font-size="10.00">Target&#45;only before ref?</text>
</g>
<!-- Iterate over reference variants&#45;&gt;Target&#45;only before ref? -->
<g id="edge3" class="edge">
<title>Iterate over reference variants&#45;&gt;Target&#45;only before ref?</title>
<path fill="none" stroke="black" d="M291.51,-540.31C285.96,-532.12 279.21,-522.12 273.03,-512.98"/>
<polygon fill="black" stroke="black" points="275.99,-511.11 267.49,-504.78 270.19,-515.03 275.99,-511.11"/>
</g>
<!-- End -->
<g id="node12" class="node">
<title>End</title>
<ellipse fill="none" stroke="black" cx="303.12" cy="-18" rx="27" ry="18"/>
<text text-anchor="middle" x="303.12" y="-14.12" font-family="Times,serif" font-size="10.00">End</text>
</g>
<!-- Iterate over reference variants&#45;&gt;End -->
<g id="edge12" class="edge">
<title>Iterate over reference variants&#45;&gt;End</title>
<path fill="none" stroke="black" d="M323.48,-540.09C336.56,-526.89 351.12,-507.48 351.12,-486.5 351.12,-486.5 351.12,-486.5 351.12,-90 351.12,-71.26 339.51,-53.78 327.71,-40.85"/>
<polygon fill="black" stroke="black" points="330.22,-38.41 320.71,-33.74 325.23,-43.32 330.22,-38.41"/>
</g>
<!-- Write target&#45;only site -->
<g id="node5" class="node">
<title>Write target&#45;only site</title>
<path fill="none" stroke="black" d="M169.88,-415.75C169.88,-415.75 62.38,-415.75 62.38,-415.75 56.38,-415.75 50.38,-409.75 50.38,-403.75 50.38,-403.75 50.38,-391.75 50.38,-391.75 50.38,-385.75 56.38,-379.75 62.38,-379.75 62.38,-379.75 169.88,-379.75 169.88,-379.75 175.88,-379.75 181.88,-385.75 181.88,-391.75 181.88,-391.75 181.88,-403.75 181.88,-403.75 181.88,-409.75 175.88,-415.75 169.88,-415.75"/>
<text text-anchor="middle" x="116.12" y="-393.88" font-family="Times,serif" font-size="10.00">Write target&#45;only site</text>
</g>
<!-- Target&#45;only before ref?&#45;&gt;Write target&#45;only site -->
<g id="edge4" class="edge">
<title>Target&#45;only before ref?&#45;&gt;Write target&#45;only site</title>
<path fill="none" stroke="black" d="M227,-467.15C205.99,-454.19 177.05,-436.34 154.01,-422.12"/>
<polygon fill="black" stroke="black" points="155.85,-419.14 145.5,-416.87 152.17,-425.1 155.85,-419.14"/>
<text text-anchor="middle" x="208.2" y="-436.2" font-family="Times,serif" font-size="14.00">yes</text>
</g>
<!-- Build imputed site -->
<g id="node6" class="node">
<title>Build imputed site</title>
<path fill="none" stroke="black" d="M298.38,-415.75C298.38,-415.75 211.88,-415.75 211.88,-415.75 205.88,-415.75 199.88,-409.75 199.88,-403.75 199.88,-403.75 199.88,-391.75 199.88,-391.75 199.88,-385.75 205.88,-379.75 211.88,-379.75 211.88,-379.75 298.38,-379.75 298.38,-379.75 304.38,-379.75 310.38,-385.75 310.38,-391.75 310.38,-391.75 310.38,-403.75 310.38,-403.75 310.38,-409.75 304.38,-415.75 298.38,-415.75"/>
<text text-anchor="middle" x="255.12" y="-393.88" font-family="Times,serif" font-size="10.00">Build imputed site</text>
</g>
<!-- Target&#45;only before ref?&#45;&gt;Build imputed site -->
<g id="edge5" class="edge">
<title>Target&#45;only before ref?&#45;&gt;Build imputed site</title>
<path fill="none" stroke="black" d="M255.12,-467.15C255.12,-455.76 255.12,-440.59 255.12,-427.43"/>
<polygon fill="black" stroke="black" points="258.63,-427.59 255.13,-417.59 251.63,-427.59 258.63,-427.59"/>
<text text-anchor="middle" x="261.88" y="-436.2" font-family="Times,serif" font-size="14.00">no</text>
</g>
<!-- Matches target variant? -->
<g id="node7" class="node">
<title>Matches target variant?</title>
<path fill="none" stroke="black" d="M311.5,-342.75C311.5,-342.75 198.75,-342.75 198.75,-342.75 192.75,-342.75 186.75,-336.75 186.75,-330.75 186.75,-330.75 186.75,-318.75 186.75,-318.75 186.75,-312.75 192.75,-306.75 198.75,-306.75 198.75,-306.75 311.5,-306.75 311.5,-306.75 317.5,-306.75 323.5,-312.75 323.5,-318.75 323.5,-318.75 323.5,-330.75 323.5,-330.75 323.5,-336.75 317.5,-342.75 311.5,-342.75"/>
<text text-anchor="middle" x="255.12" y="-320.88" font-family="Times,serif" font-size="10.00">Matches target variant?</text>
</g>
<!-- Build imputed site&#45;&gt;Matches target variant? -->
<g id="edge6" class="edge">
<title>Build imputed site&#45;&gt;Matches target variant?</title>
<path fill="none" stroke="black" d="M255.12,-379.56C255.12,-371.98 255.12,-362.85 255.12,-354.29"/>
<polygon fill="black" stroke="black" points="258.63,-354.29 255.13,-344.29 251.63,-354.29 258.63,-354.29"/>
</g>
<!-- Add GT + LOO, write empirical -->
<g id="node8" class="node">
<title>Add GT + LOO, write empirical</title>
<path fill="none" stroke="black" d="M156.25,-255C156.25,-255 12,-255 12,-255 6,-255 0,-249 0,-243 0,-243 0,-231 0,-231 0,-225 6,-219 12,-219 12,-219 156.25,-219 156.25,-219 162.25,-219 168.25,-225 168.25,-231 168.25,-231 168.25,-243 168.25,-243 168.25,-249 162.25,-255 156.25,-255"/>
<text text-anchor="middle" x="84.12" y="-233.12" font-family="Times,serif" font-size="10.00">Add GT + LOO, write empirical</text>
</g>
<!-- Matches target variant?&#45;&gt;Add GT + LOO, write empirical -->
<g id="edge7" class="edge">
<title>Matches target variant?&#45;&gt;Add GT + LOO, write empirical</title>
<path fill="none" stroke="black" d="M220.52,-306.4C194.18,-293.19 157.72,-274.9 129.12,-260.56"/>
<polygon fill="black" stroke="black" points="130.83,-257.51 120.32,-256.15 127.69,-263.76 130.83,-257.51"/>
<text text-anchor="middle" x="195.07" y="-275.45" font-family="Times,serif" font-size="14.00">yes</text>
</g>
<!-- Write imputed&#45;only site -->
<g id="node9" class="node">
<title>Write imputed&#45;only site</title>
<path fill="none" stroke="black" d="M311.5,-255C311.5,-255 198.75,-255 198.75,-255 192.75,-255 186.75,-249 186.75,-243 186.75,-243 186.75,-231 186.75,-231 186.75,-225 192.75,-219 198.75,-219 198.75,-219 311.5,-219 311.5,-219 317.5,-219 323.5,-225 323.5,-231 323.5,-231 323.5,-243 323.5,-243 323.5,-249 317.5,-255 311.5,-255"/>
<text text-anchor="middle" x="255.12" y="-233.12" font-family="Times,serif" font-size="10.00">Write imputed&#45;only site</text>
</g>
<!-- Matches target variant?&#45;&gt;Write imputed&#45;only site -->
<g id="edge8" class="edge">
<title>Matches target variant?&#45;&gt;Write imputed&#45;only site</title>
<path fill="none" stroke="black" d="M255.12,-306.4C255.12,-295.01 255.12,-279.84 255.12,-266.68"/>
<polygon fill="black" stroke="black" points="258.63,-266.84 255.13,-256.84 251.63,-266.84 258.63,-266.84"/>
<text text-anchor="middle" x="261.88" y="-275.45" font-family="Times,serif" font-size="14.00">no</text>
</g>
<!-- QC filter (r²) -->
<g id="node10" class="node">
<title>QC filter (r²)</title>
<path fill="none" stroke="black" d="M287.88,-182C287.88,-182 222.38,-182 222.38,-182 216.38,-182 210.38,-176 210.38,-170 210.38,-170 210.38,-158 210.38,-158 210.38,-152 216.38,-146 222.38,-146 222.38,-146 287.88,-146 287.88,-146 293.88,-146 299.88,-152 299.88,-158 299.88,-158 299.88,-170 299.88,-170 299.88,-176 293.88,-182 287.88,-182"/>
<text text-anchor="middle" x="255.12" y="-160.12" font-family="Times,serif" font-size="10.00">QC filter (r²)</text>
</g>
<!-- Add GT + LOO, write empirical&#45;&gt;QC filter (r²) -->
<g id="edge9" class="edge">
<title>Add GT + LOO, write empirical&#45;&gt;QC filter (r²)</title>
<path fill="none" stroke="black" d="M125.96,-218.63C149.04,-209.05 177.93,-197.05 202.53,-186.84"/>
<polygon fill="black" stroke="black" points="203.84,-190.08 211.74,-183.02 201.16,-183.62 203.84,-190.08"/>
</g>
<!-- Write imputed&#45;only site&#45;&gt;QC filter (r²) -->
<g id="edge10" class="edge">
<title>Write imputed&#45;only site&#45;&gt;QC filter (r²)</title>
<path fill="none" stroke="black" d="M255.12,-218.81C255.12,-211.23 255.12,-202.1 255.12,-193.54"/>
<polygon fill="black" stroke="black" points="258.63,-193.54 255.13,-183.54 251.63,-193.54 258.63,-193.54"/>
</g>
<!-- Write to output streams -->
<g id="node11" class="node">
<title>Write to output streams</title>
<path fill="none" stroke="black" d="M311.5,-109C311.5,-109 198.75,-109 198.75,-109 192.75,-109 186.75,-103 186.75,-97 186.75,-97 186.75,-85 186.75,-85 186.75,-79 192.75,-73 198.75,-73 198.75,-73 311.5,-73 311.5,-73 317.5,-73 323.5,-79 323.5,-85 323.5,-85 323.5,-97 323.5,-97 323.5,-103 317.5,-109 311.5,-109"/>
<text text-anchor="middle" x="255.12" y="-87.12" font-family="Times,serif" font-size="10.00">Write to output streams</text>
</g>
<!-- QC filter (r²)&#45;&gt;Write to output streams -->
<g id="edge11" class="edge">
<title>QC filter (r²)&#45;&gt;Write to output streams</title>
<path fill="none" stroke="black" d="M255.12,-145.81C255.12,-138.23 255.12,-129.1 255.12,-120.54"/>
<polygon fill="black" stroke="black" points="258.63,-120.54 255.13,-110.54 251.63,-120.54 258.63,-120.54"/>
</g>
<!-- Write to output streams&#45;&gt;End -->
<g id="edge13" class="edge">
<title>Write to output streams&#45;&gt;End</title>
<path fill="none" stroke="black" d="M266.74,-72.81C272.59,-64.16 279.79,-53.51 286.24,-43.98"/>
<polygon fill="black" stroke="black" points="289.05,-46.07 291.75,-35.83 283.25,-42.15 289.05,-46.07"/>
</g>
</g>
</svg>
