<?xml version="1.0" encoding="UTF-8" standalone="no"?>
<!DOCTYPE svg PUBLIC "-//W3C//DTD SVG 1.1//EN"
 "http://www.w3.org/Graphics/SVG/1.1/DTD/svg11.dtd">
<!-- Generated by graphviz version 12.2.1 (0)
 -->
<!-- Title: stat_ref_panel_flow Pages: 1 -->
<svg width="910pt" height="722pt"
 viewBox="0.00 0.00 909.85 722.00" xmlns="http://www.w3.org/2000/svg" xmlns:xlink="http://www.w3.org/1999/xlink">
<g id="graph0" class="graph" transform="scale(1 1) rotate(0) translate(4 718)">
<title>stat_ref_panel_flow</title>
<polygon fill="white" stroke="none" points="-4,4 -4,-718 905.85,-718 905.85,4 -4,4"/>
<!-- start -->
<g id="node1" class="node">
<title>start</title>
<path fill="none" stroke="black" d="M626.85,-714C626.85,-714 499.85,-714 499.85,-714 493.85,-714 487.85,-708 487.85,-702 487.85,-702 487.85,-690 487.85,-690 487.85,-684 493.85,-678 499.85,-678 499.85,-678 626.85,-678 626.85,-678 632.85,-678 638.85,-684 638.85,-690 638.85,-690 638.85,-702 638.85,-702 638.85,-708 632.85,-714 626.85,-714"/>
<text text-anchor="middle" x="563.35" y="-690.58" font-family="Times,serif" font-size="14.00">Start: ref_file_path</text>
</g>
<!-- check_s1r -->
<g id="node2" class="node">
<title>check_s1r</title>
<path fill="none" stroke="black" d="M640.35,-641C640.35,-641 486.35,-641 486.35,-641 480.35,-641 474.35,-635 474.35,-629 474.35,-629 474.35,-617 474.35,-617 474.35,-611 480.35,-605 486.35,-605 486.35,-605 640.35,-605 640.35,-605 646.35,-605 652.35,-611 652.35,-617 652.35,-617 652.35,-629 652.35,-629 652.35,-635 646.35,-641 640.35,-641"/>
<text text-anchor="middle" x="563.35" y="-617.58" font-family="Times,serif" font-size="14.00">Check .s1r index exists?</text>
</g>
<!-- start&#45;&gt;check_s1r -->
<g id="edge1" class="edge">
<title>start&#45;&gt;check_s1r</title>
<path fill="none" stroke="black" d="M563.35,-677.81C563.35,-670.23 563.35,-661.1 563.35,-652.54"/>
<polygon fill="black" stroke="black" points="566.85,-652.54 563.35,-642.54 559.85,-652.54 566.85,-652.54"/>
</g>
<!-- s1r_found -->
<g id="node3" class="node">
<title>s1r_found</title>
<path fill="none" stroke="black" d="M568.22,-392.5C568.22,-392.5 434.47,-392.5 434.47,-392.5 428.47,-392.5 422.47,-386.5 422.47,-380.5 422.47,-380.5 422.47,-368.5 422.47,-368.5 422.47,-362.5 428.47,-356.5 434.47,-356.5 434.47,-356.5 568.22,-356.5 568.22,-356.5 574.22,-356.5 580.22,-362.5 580.22,-368.5 580.22,-368.5 580.22,-380.5 580.22,-380.5 580.22,-386.5 574.22,-392.5 568.22,-392.5"/>
<text text-anchor="middle" x="501.35" y="-369.07" font-family="Times,serif" font-size="14.00">Use s1r::stat_index()</text>
</g>
<!-- check_s1r&#45;&gt;s1r_found -->
<g id="edge2" class="edge">
<title>check_s1r&#45;&gt;s1r_found</title>
<path fill="none" stroke="black" d="M558.99,-604.67C548.43,-562.68 521.39,-455.19 508.45,-403.76"/>
<polygon fill="black" stroke="black" points="511.9,-403.13 506.07,-394.28 505.11,-404.83 511.9,-403.13"/>
<text text-anchor="middle" x="542.47" y="-485.95" font-family="Times,serif" font-size="14.00">yes</text>
</g>
<!-- check_csi -->
<g id="node8" class="node">
<title>check_csi</title>
<path fill="none" stroke="black" d="M821.72,-553.25C821.72,-553.25 660.97,-553.25 660.97,-553.25 654.97,-553.25 648.97,-547.25 648.97,-541.25 648.97,-541.25 648.97,-529.25 648.97,-529.25 648.97,-523.25 654.97,-517.25 660.97,-517.25 660.97,-517.25 821.72,-517.25 821.72,-517.25 827.72,-517.25 833.72,-523.25 833.72,-529.25 833.72,-529.25 833.72,-541.25 833.72,-541.25 833.72,-547.25 827.72,-553.25 821.72,-553.25"/>
<text text-anchor="middle" x="741.35" y="-529.83" font-family="Times,serif" font-size="14.00">Check .csi or .tbi index?</text>
</g>
<!-- check_s1r&#45;&gt;check_csi -->
<g id="edge3" class="edge">
<title>check_s1r&#45;&gt;check_csi</title>
<path fill="none" stroke="black" d="M599.37,-604.65C626.9,-591.38 665.07,-572.99 694.9,-558.62"/>
<polygon fill="black" stroke="black" points="696.22,-561.87 703.71,-554.38 693.18,-555.57 696.22,-561.87"/>
<text text-anchor="middle" x="675.04" y="-573.7" font-family="Times,serif" font-size="14.00">no</text>
</g>
<!-- chrom_set -->
<g id="node4" class="node">
<title>chrom_set</title>
<path fill="none" stroke="black" d="M537.85,-304.75C537.85,-304.75 464.85,-304.75 464.85,-304.75 458.85,-304.75 452.85,-298.75 452.85,-292.75 452.85,-292.75 452.85,-280.75 452.85,-280.75 452.85,-274.75 458.85,-268.75 464.85,-268.75 464.85,-268.75 537.85,-268.75 537.85,-268.75 543.85,-268.75 549.85,-274.75 549.85,-280.75 549.85,-280.75 549.85,-292.75 549.85,-292.75 549.85,-298.75 543.85,-304.75 537.85,-304.75"/>
<text text-anchor="middle" x="501.35" y="-281.32" font-family="Times,serif" font-size="14.00">chrom empty?</text>
</g>
<!-- s1r_found&#45;&gt;chrom_set -->
<g id="edge4" class="edge">
<title>s1r_found&#45;&gt;chrom_set</title>
<path fill="none" stroke="black" d="M501.35,-356.15C501.35,-344.76 501.35,-329.59 501.35,-316.43"/>
<polygon fill="black" stroke="black" points="504.85,-316.59 501.35,-306.59 497.85,-316.59 504.85,-316.59"/>
</g>
<!-- multi_chrom -->
<g id="node7" class="node">
<title>multi_chrom</title>
<path fill="none" stroke="black" d="M225.38,-249.84C225.38,-249.84 11.97,-233.66 11.97,-233.66 5.98,-233.2 5.98,-232.3 11.97,-231.84 11.97,-231.84 225.38,-215.66 225.38,-215.66 231.36,-215.2 243.33,-215.2 249.31,-215.66 249.31,-215.66 462.73,-231.84 462.73,-231.84 468.71,-232.3 468.71,-233.2 462.73,-233.66 462.73,-233.66 249.31,-249.84 249.31,-249.84 243.33,-250.3 231.36,-250.3 225.38,-249.84"/>
<text text-anchor="middle" x="237.35" y="-227.32" font-family="Times,serif" font-size="14.00">Multiple contigs → require &#45;&#45;region</text>
</g>
<!-- s1r_found&#45;&gt;multi_chrom -->
<g id="edge10" class="edge">
<title>s1r_found&#45;&gt;multi_chrom</title>
<path fill="none" stroke="black" d="M434.04,-356.07C419,-351.19 403.36,-345.32 389.35,-338.5 342.81,-315.84 294.49,-280.07 265.16,-256.76"/>
<polygon fill="black" stroke="black" points="267.5,-254.15 257.51,-250.61 263.11,-259.61 267.5,-254.15"/>
<text text-anchor="middle" x="443.35" y="-325.2" font-family="Times,serif" font-size="14.00">multiple contigs</text>
</g>
<!-- chrom_ok -->
<g id="node5" class="node">
<title>chrom_ok</title>
<path fill="none" stroke="black" d="M604.47,-196.75C604.47,-196.75 484.22,-196.75 484.22,-196.75 478.22,-196.75 472.22,-190.75 472.22,-184.75 472.22,-184.75 472.22,-172.75 472.22,-172.75 472.22,-166.75 478.22,-160.75 484.22,-160.75 484.22,-160.75 604.47,-160.75 604.47,-160.75 610.47,-160.75 616.47,-166.75 616.47,-172.75 616.47,-172.75 616.47,-184.75 616.47,-184.75 616.47,-190.75 610.47,-196.75 604.47,-196.75"/>
<text text-anchor="middle" x="544.35" y="-173.32" font-family="Times,serif" font-size="14.00">Set chrom + end_pos</text>
</g>
<!-- chrom_set&#45;&gt;chrom_ok -->
<g id="edge5" class="edge">
<title>chrom_set&#45;&gt;chrom_ok</title>
<path fill="none" stroke="black" d="M509.55,-268.4C512.12,-262.8 514.92,-256.54 517.35,-250.75 523.21,-236.73 529.27,-220.94 534.15,-207.82"/>
<polygon fill="black" stroke="black" points="537.41,-209.1 537.59,-198.51 530.84,-206.68 537.41,-209.1"/>
<text text-anchor="middle" x="541.21" y="-227.32" font-family="Times,serif" font-size="14.00">yes</text>
</g>
<!-- chrom_verify -->
<g id="node6" class="node">
<title>chrom_verify</title>
<path fill="none" stroke="black" d="M442.47,-196.75C442.47,-196.75 268.22,-196.75 268.22,-196.75 262.22,-196.75 256.22,-190.75 256.22,-184.75 256.22,-184.75 256.22,-172.75 256.22,-172.75 256.22,-166.75 262.22,-160.75 268.22,-160.75 268.22,-160.75 442.47,-160.75 442.47,-160.75 448.47,-160.75 454.47,-166.75 454.47,-172.75 454.47,-172.75 454.47,-184.75 454.47,-184.75 454.47,-190.75 448.47,-196.75 442.47,-196.75"/>
<text text-anchor="middle" x="355.35" y="-173.32" font-family="Times,serif" font-size="14.00">Verify contig matches chrom</text>
</g>
<!-- chrom_set&#45;&gt;chrom_verify -->
<g id="edge6" class="edge">
<title>chrom_set&#45;&gt;chrom_verify</title>
<path fill="none" stroke="black" d="M499.98,-268.44C497.8,-252.36 492.12,-228.85 477.35,-214.75 472.5,-210.12 467.07,-206.1 461.29,-202.6"/>
<polygon fill="black" stroke="black" points="463.04,-199.57 452.57,-197.92 459.72,-205.73 463.04,-199.57"/>
<text text-anchor="middle" x="502.95" y="-227.32" font-family="Times,serif" font-size="14.00">no</text>
</g>
<!-- success -->
<g id="node15" class="node">
<title>success</title>
<ellipse fill="lightgreen" stroke="black" cx="544.35" cy="-91" rx="42.08" ry="18"/>
<text text-anchor="middle" x="544.35" y="-85.58" font-family="Times,serif" font-size="14.00">Success</text>
</g>
<!-- chrom_ok&#45;&gt;success -->
<g id="edge9" class="edge">
<title>chrom_ok&#45;&gt;success</title>
<path fill="none" stroke="black" d="M544.35,-160.4C544.35,-149.01 544.35,-133.84 544.35,-120.68"/>
<polygon fill="black" stroke="black" points="547.85,-120.84 544.35,-110.84 540.85,-120.84 547.85,-120.84"/>
</g>
<!-- fail -->
<g id="node14" class="node">
<title>fail</title>
<path fill="none" stroke="black" d="M677.85,-36C677.85,-36 442.85,-36 442.85,-36 436.85,-36 430.85,-30 430.85,-24 430.85,-24 430.85,-12 430.85,-12 430.85,-6 436.85,0 442.85,0 442.85,0 677.85,0 677.85,0 683.85,0 689.85,-6 689.85,-12 689.85,-12 689.85,-24 689.85,-24 689.85,-30 683.85,-36 677.85,-36"/>
<text text-anchor="middle" x="560.35" y="-12.57" font-family="Times,serif" font-size="14.00">Fail: could not load reference index</text>
</g>
<!-- chrom_verify&#45;&gt;fail -->
<g id="edge8" class="edge">
<title>chrom_verify&#45;&gt;fail</title>
<path fill="none" stroke="black" d="M356.75,-160.39C359.54,-137.3 367.79,-96.66 392.1,-73 406.91,-58.58 425.58,-48.01 445.06,-40.26"/>
<polygon fill="black" stroke="black" points="446.03,-43.63 454.2,-36.88 443.6,-37.07 446.03,-43.63"/>
<text text-anchor="middle" x="442.72" y="-85.58" font-family="Times,serif" font-size="14.00">contig mismatch</text>
</g>
<!-- chrom_verify&#45;&gt;success -->
<g id="edge7" class="edge">
<title>chrom_verify&#45;&gt;success</title>
<path fill="none" stroke="black" d="M383.24,-160.48C400.81,-150.02 424.2,-136.83 445.85,-127 463.2,-119.12 482.88,-111.82 500.07,-105.94"/>
<polygon fill="black" stroke="black" points="501.15,-109.27 509.52,-102.78 498.93,-102.63 501.15,-109.27"/>
<text text-anchor="middle" x="493.1" y="-129.45" font-family="Times,serif" font-size="14.00">contig matches</text>
</g>
<!-- multi_chrom&#45;&gt;fail -->
<g id="edge11" class="edge">
<title>multi_chrom&#45;&gt;fail</title>
<path fill="none" stroke="black" d="M236.18,-214.47C235.95,-199.29 237.63,-177.13 247.35,-160.75 280.7,-104.55 308.36,-105.01 365.35,-73 391.55,-58.28 422.03,-47.37 450.99,-39.36"/>
<polygon fill="black" stroke="black" points="451.77,-42.77 460.54,-36.82 449.97,-36.01 451.77,-42.77"/>
</g>
<!-- parse_header -->
<g id="node9" class="node">
<title>parse_header</title>
<path fill="none" stroke="black" d="M811.6,-465.5C811.6,-465.5 671.1,-465.5 671.1,-465.5 665.1,-465.5 659.1,-459.5 659.1,-453.5 659.1,-453.5 659.1,-441.5 659.1,-441.5 659.1,-435.5 665.1,-429.5 671.1,-429.5 671.1,-429.5 811.6,-429.5 811.6,-429.5 817.6,-429.5 823.6,-435.5 823.6,-441.5 823.6,-441.5 823.6,-453.5 823.6,-453.5 823.6,-459.5 817.6,-465.5 811.6,-465.5"/>
<text text-anchor="middle" x="741.35" y="-442.07" font-family="Times,serif" font-size="14.00">Open file, read header</text>
</g>
<!-- check_csi&#45;&gt;parse_header -->
<g id="edge12" class="edge">
<title>check_csi&#45;&gt;parse_header</title>
<path fill="none" stroke="black" d="M741.35,-516.9C741.35,-505.51 741.35,-490.34 741.35,-477.18"/>
<polygon fill="black" stroke="black" points="744.85,-477.34 741.35,-467.34 737.85,-477.34 744.85,-477.34"/>
<text text-anchor="middle" x="751.47" y="-485.95" font-family="Times,serif" font-size="14.00">yes</text>
</g>
<!-- check_csi&#45;&gt;fail -->
<g id="edge13" class="edge">
<title>check_csi&#45;&gt;fail</title>
<path fill="none" stroke="black" d="M823.44,-516.75C857.11,-504.31 888.35,-483.36 888.35,-448.5 888.35,-448.5 888.35,-448.5 888.35,-90 888.35,-49.21 790.23,-31.8 701.33,-24.4"/>
<polygon fill="black" stroke="black" points="701.73,-20.92 691.49,-23.62 701.18,-27.9 701.73,-20.92"/>
<text text-anchor="middle" x="895.1" y="-281.32" font-family="Times,serif" font-size="14.00">no</text>
</g>
<!-- chrom_empty -->
<g id="node10" class="node">
<title>chrom_empty</title>
<path fill="none" stroke="black" d="M777.85,-392.5C777.85,-392.5 704.85,-392.5 704.85,-392.5 698.85,-392.5 692.85,-386.5 692.85,-380.5 692.85,-380.5 692.85,-368.5 692.85,-368.5 692.85,-362.5 698.85,-356.5 704.85,-356.5 704.85,-356.5 777.85,-356.5 777.85,-356.5 783.85,-356.5 789.85,-362.5 789.85,-368.5 789.85,-368.5 789.85,-380.5 789.85,-380.5 789.85,-386.5 783.85,-392.5 777.85,-392.5"/>
<text text-anchor="middle" x="741.35" y="-369.07" font-family="Times,serif" font-size="14.00">chrom empty?</text>
</g>
<!-- parse_header&#45;&gt;chrom_empty -->
<g id="edge14" class="edge">
<title>parse_header&#45;&gt;chrom_empty</title>
<path fill="none" stroke="black" d="M741.35,-429.31C741.35,-421.73 741.35,-412.6 741.35,-404.04"/>
<polygon fill="black" stroke="black" points="744.85,-404.04 741.35,-394.04 737.85,-404.04 744.85,-404.04"/>
</g>
<!-- parse_first_var -->
<g id="node11" class="node">
<title>parse_first_var</title>
<path fill="none" stroke="black" d="M786.97,-304.75C786.97,-304.75 585.72,-304.75 585.72,-304.75 579.72,-304.75 573.72,-298.75 573.72,-292.75 573.72,-292.75 573.72,-280.75 573.72,-280.75 573.72,-274.75 579.72,-268.75 585.72,-268.75 585.72,-268.75 786.97,-268.75 786.97,-268.75 792.97,-268.75 798.97,-274.75 798.97,-280.75 798.97,-280.75 798.97,-292.75 798.97,-292.75 798.97,-298.75 792.97,-304.75 786.97,-304.75"/>
<text text-anchor="middle" x="686.35" y="-281.32" font-family="Times,serif" font-size="14.00">Read first variant to set chrom</text>
</g>
<!-- chrom_empty&#45;&gt;parse_first_var -->
<g id="edge15" class="edge">
<title>chrom_empty&#45;&gt;parse_first_var</title>
<path fill="none" stroke="black" d="M730.22,-356.15C722.54,-344.18 712.18,-328.03 703.46,-314.43"/>
<polygon fill="black" stroke="black" points="706.62,-312.88 698.28,-306.35 700.73,-316.66 706.62,-312.88"/>
<text text-anchor="middle" x="728.9" y="-325.2" font-family="Times,serif" font-size="14.00">yes</text>
</g>
<!-- parse_contig -->
<g id="node12" class="node">
<title>parse_contig</title>
<path fill="none" stroke="black" d="M847.97,-196.75C847.97,-196.75 646.72,-196.75 646.72,-196.75 640.72,-196.75 634.72,-190.75 634.72,-184.75 634.72,-184.75 634.72,-172.75 634.72,-172.75 634.72,-166.75 640.72,-160.75 646.72,-160.75 646.72,-160.75 847.97,-160.75 847.97,-160.75 853.97,-160.75 859.97,-166.75 859.97,-172.75 859.97,-172.75 859.97,-184.75 859.97,-184.75 859.97,-190.75 853.97,-196.75 847.97,-196.75"/>
<text text-anchor="middle" x="747.35" y="-173.32" font-family="Times,serif" font-size="14.00">Parse contig length from header</text>
</g>
<!-- chrom_empty&#45;&gt;parse_contig -->
<g id="edge16" class="edge">
<title>chrom_empty&#45;&gt;parse_contig</title>
<path fill="none" stroke="black" d="M766.08,-356.18C781.43,-343.84 799.81,-325.75 808.35,-304.75 822.67,-269.53 796.3,-230.36 773.88,-205.41"/>
<polygon fill="black" stroke="black" points="776.61,-203.21 767.22,-198.31 771.51,-208 776.61,-203.21"/>
<text text-anchor="middle" x="819.16" y="-281.32" font-family="Times,serif" font-size="14.00">no</text>
</g>
<!-- parse_first_var&#45;&gt;parse_contig -->
<g id="edge17" class="edge">
<title>parse_first_var&#45;&gt;parse_contig</title>
<path fill="none" stroke="black" d="M696.15,-268.72C705.74,-252.05 720.5,-226.4 731.72,-206.91"/>
<polygon fill="black" stroke="black" points="734.66,-208.82 736.61,-198.4 728.59,-205.32 734.66,-208.82"/>
</g>
<!-- fail_parse -->
<g id="node13" class="node">
<title>fail_parse</title>
<path fill="none" stroke="black" d="M836.35,-109C836.35,-109 628.35,-109 628.35,-109 622.35,-109 616.35,-103 616.35,-97 616.35,-97 616.35,-85 616.35,-85 616.35,-79 622.35,-73 628.35,-73 628.35,-73 836.35,-73 836.35,-73 842.35,-73 848.35,-79 848.35,-85 848.35,-85 848.35,-97 848.35,-97 848.35,-103 842.35,-109 836.35,-109"/>
<text text-anchor="middle" x="732.35" y="-85.58" font-family="Times,serif" font-size="14.00">Fail: cannot parse contig length</text>
</g>
<!-- parse_contig&#45;&gt;fail_parse -->
<g id="edge19" class="edge">
<title>parse_contig&#45;&gt;fail_parse</title>
<path fill="none" stroke="black" d="M744.31,-160.4C742.3,-148.89 739.61,-133.53 737.29,-120.28"/>
<polygon fill="black" stroke="black" points="740.81,-120.07 735.64,-110.82 733.91,-121.27 740.81,-120.07"/>
<text text-anchor="middle" x="771.56" y="-129.45" font-family="Times,serif" font-size="14.00">no length</text>
</g>
<!-- parse_contig&#45;&gt;success -->
<g id="edge18" class="edge">
<title>parse_contig&#45;&gt;success</title>
<path fill="none" stroke="black" d="M706.27,-160.4C670.57,-145.32 619.19,-123.62 583.94,-108.73"/>
<polygon fill="black" stroke="black" points="585.52,-105.59 574.95,-104.93 582.8,-112.04 585.52,-105.59"/>
<text text-anchor="middle" x="694.4" y="-129.45" font-family="Times,serif" font-size="14.00">parsed OK</text>
</g>
<!-- fail_parse&#45;&gt;fail -->
<g id="edge20" class="edge">
<title>fail_parse&#45;&gt;fail</title>
<path fill="none" stroke="black" d="M690.27,-72.63C666.95,-63 637.74,-50.95 612.92,-40.7"/>
<polygon fill="black" stroke="black" points="614.56,-37.59 603.98,-37.01 611.89,-44.06 614.56,-37.59"/>
</g>
</g>
</svg>
