<?xml version="1.0" encoding="UTF-8" standalone="no"?>
<!DOCTYPE svg PUBLIC "-//W3C//DTD SVG 1.1//EN"
 "http://www.w3.org/Graphics/SVG/1.1/DTD/svg11.dtd">
<!-- Generated by graphviz version 12.2.1 (0)
 -->
<!-- Title: src/getopt_wrapper.hpp Pages: 1 -->
<svg width="402pt" height="86pt"
 viewBox="0.00 0.00 401.75 85.50" xmlns="http://www.w3.org/2000/svg" xmlns:xlink="http://www.w3.org/1999/xlink">
<g id="graph0" class="graph" transform="scale(1 1) rotate(0) translate(4 81.5)">
<title>src/getopt_wrapper.hpp</title>
<!-- Node1 -->
<g id="Node000001" class="node">
<title>Node1</title>
<g id="a_Node000001"><a xlink:title=" ">
<polygon fill="#999999" stroke="#666666" points="250.5,-77.5 120.5,-77.5 120.5,-56.75 250.5,-56.75 250.5,-77.5"/>
<text text-anchor="middle" x="185.5" y="-64" font-family="Helvetica,sans-Serif" font-size="10.00">src/getopt_wrapper.hpp</text>
</a>
</g>
</g>
<!-- Node2 -->
<g id="Node000002" class="node">
<title>Node2</title>
<g id="a_Node000002"><a xlink:title=" ">
<polygon fill="#e0e0e0" stroke="#999999" points="49,-20.75 0,-20.75 0,0 49,0 49,-20.75"/>
<text text-anchor="middle" x="24.5" y="-7.25" font-family="Helvetica,sans-Serif" font-size="10.00">cstdint</text>
</a>
</g>
</g>
<!-- Node1&#45;&gt;Node2 -->
<g id="edge1_Node000001_Node000002" class="edge">
<title>Node1&#45;&gt;Node2</title>
<g id="a_edge1_Node000001_Node000002"><a xlink:title=" ">
<path fill="none" stroke="#63b8ff" d="M156.72,-56.34C129.61,-47.12 88.93,-33.29 59.86,-23.4"/>
<polygon fill="#63b8ff" stroke="#63b8ff" points="61.37,-20.22 50.77,-20.31 59.11,-26.84 61.37,-20.22"/>
</a>
</g>
</g>
<!-- Node3 -->
<g id="Node000003" class="node">
<title>Node3</title>
<g id="a_Node000003"><a xlink:title=" ">
<polygon fill="#e0e0e0" stroke="#999999" points="110.38,-20.75 66.62,-20.75 66.62,0 110.38,0 110.38,-20.75"/>
<text text-anchor="middle" x="88.5" y="-7.25" font-family="Helvetica,sans-Serif" font-size="10.00">string</text>
</a>
</g>
</g>
<!-- Node1&#45;&gt;Node3 -->
<g id="edge2_Node000001_Node000003" class="edge">
<title>Node1&#45;&gt;Node3</title>
<g id="a_edge2_Node000001_Node000003"><a xlink:title=" ">
<path fill="none" stroke="#63b8ff" d="M168.16,-56.34C153.54,-48.08 132.36,-36.13 115.52,-26.63"/>
<polygon fill="#63b8ff" stroke="#63b8ff" points="117.44,-23.69 107.01,-21.82 114,-29.79 117.44,-23.69"/>
</a>
</g>
</g>
<!-- Node4 -->
<g id="Node000004" class="node">
<title>Node4</title>
<g id="a_Node000004"><a xlink:title=" ">
<polygon fill="#e0e0e0" stroke="#999999" points="177,-20.75 128,-20.75 128,0 177,0 177,-20.75"/>
<text text-anchor="middle" x="152.5" y="-7.25" font-family="Helvetica,sans-Serif" font-size="10.00">cstring</text>
</a>
</g>
</g>
<!-- Node1&#45;&gt;Node4 -->
<g id="edge3_Node000001_Node000004" class="edge">
<title>Node1&#45;&gt;Node4</title>
<g id="a_edge3_Node000001_Node000004"><a xlink:title=" ">
<path fill="none" stroke="#63b8ff" d="M179.6,-56.34C175.33,-49.25 169.42,-39.44 164.2,-30.79"/>
<polygon fill="#63b8ff" stroke="#63b8ff" points="167.29,-29.13 159.13,-22.37 161.29,-32.75 167.29,-29.13"/>
</a>
</g>
</g>
<!-- Node5 -->
<g id="Node000005" class="node">
<title>Node5</title>
<g id="a_Node000005"><a xlink:title=" ">
<polygon fill="#e0e0e0" stroke="#999999" points="241.88,-20.75 195.12,-20.75 195.12,0 241.88,0 241.88,-20.75"/>
<text text-anchor="middle" x="218.5" y="-7.25" font-family="Helvetica,sans-Serif" font-size="10.00">vector</text>
</a>
</g>
</g>
<!-- Node1&#45;&gt;Node5 -->
<g id="edge4_Node000001_Node000005" class="edge">
<title>Node1&#45;&gt;Node5</title>
<g id="a_edge4_Node000001_Node000005"><a xlink:title=" ">
<path fill="none" stroke="#63b8ff" d="M191.4,-56.34C195.67,-49.25 201.58,-39.44 206.8,-30.79"/>
<polygon fill="#63b8ff" stroke="#63b8ff" points="209.71,-32.75 211.87,-22.37 203.71,-29.13 209.71,-32.75"/>
</a>
</g>
</g>
<!-- Node6 -->
<g id="Node000006" class="node">
<title>Node6</title>
<g id="a_Node000006"><a xlink:title=" ">
<polygon fill="#e0e0e0" stroke="#999999" points="319.25,-20.75 259.75,-20.75 259.75,0 319.25,0 319.25,-20.75"/>
<text text-anchor="middle" x="289.5" y="-7.25" font-family="Helvetica,sans-Serif" font-size="10.00">iostream</text>
</a>
</g>
</g>
<!-- Node1&#45;&gt;Node6 -->
<g id="edge5_Node000001_Node000006" class="edge">
<title>Node1&#45;&gt;Node6</title>
<g id="a_edge5_Node000001_Node000006"><a xlink:title=" ">
<path fill="none" stroke="#63b8ff" d="M204.09,-56.34C219.92,-48.01 242.9,-35.91 261.04,-26.36"/>
<polygon fill="#63b8ff" stroke="#63b8ff" points="262.51,-29.54 269.73,-21.78 259.25,-23.34 262.51,-29.54"/>
</a>
</g>
</g>
<!-- Node7 -->
<g id="Node000007" class="node">
<title>Node7</title>
<g id="a_Node000007"><a xlink:title=" ">
<polygon fill="#e0e0e0" stroke="#999999" points="393.75,-20.75 337.25,-20.75 337.25,0 393.75,0 393.75,-20.75"/>
<text text-anchor="middle" x="365.5" y="-7.25" font-family="Helvetica,sans-Serif" font-size="10.00">getopt.h</text>
</a>
</g>
</g>
<!-- Node1&#45;&gt;Node7 -->
<g id="edge6_Node000001_Node000007" class="edge">
<title>Node1&#45;&gt;Node7</title>
<g id="a_edge6_Node000001_Node000007"><a xlink:title=" ">
<path fill="none" stroke="#63b8ff" d="M217.68,-56.34C247.98,-47.12 293.45,-33.29 325.95,-23.4"/>
<polygon fill="#63b8ff" stroke="#63b8ff" points="326.87,-26.78 335.41,-20.53 324.83,-20.09 326.87,-26.78"/>
</a>
</g>
</g>
</g>
</svg>
