<?xml version="1.0" encoding="UTF-8" standalone="no"?>
<!DOCTYPE svg PUBLIC "-//W3C//DTD SVG 1.1//EN"
 "http://www.w3.org/Graphics/SVG/1.1/DTD/svg11.dtd">
<!-- Generated by graphviz version 12.2.1 (0)
 -->
<!-- Title: src/hidden_markov_model.cpp Pages: 1 -->
<svg width="778pt" height="313pt"
 viewBox="0.00 0.00 778.12 312.50" xmlns="http://www.w3.org/2000/svg" xmlns:xlink="http://www.w3.org/1999/xlink">
<g id="graph0" class="graph" transform="scale(1 1) rotate(0) translate(4 308.5)">
<title>src/hidden_markov_model.cpp</title>
<!-- Node1 -->
<g id="Node000001" class="node">
<title>Node1</title>
<g id="a_Node000001"><a xlink:title=" ">
<polygon fill="#999999" stroke="#666666" points="676.12,-304.5 511.62,-304.5 511.62,-283.75 676.12,-283.75 676.12,-304.5"/>
<text text-anchor="middle" x="593.88" y="-291" font-family="Helvetica,sans-Serif" font-size="10.00">src/hidden_markov_model.cpp</text>
</a>
</g>
</g>
<!-- Node2 -->
<g id="Node000002" class="node">
<title>Node2</title>
<g id="a_Node000002"><a xlink:href="hidden__markov__model_8hpp.html" target="_top" xlink:title=" ">
<polygon fill="white" stroke="#666666" points="564.88,-247.75 416.88,-247.75 416.88,-227 564.88,-227 564.88,-247.75"/>
<text text-anchor="middle" x="490.88" y="-234.25" font-family="Helvetica,sans-Serif" font-size="10.00">hidden_markov_model.hpp</text>
</a>
</g>
</g>
<!-- Node1&#45;&gt;Node2 -->
<g id="edge1_Node000001_Node000002" class="edge">
<title>Node1&#45;&gt;Node2</title>
<g id="a_edge1_Node000001_Node000002"><a xlink:title=" ">
<path fill="none" stroke="#63b8ff" d="M575.46,-283.34C559.79,-275.01 537.03,-262.91 519.06,-253.36"/>
<polygon fill="#63b8ff" stroke="#63b8ff" points="520.94,-250.39 510.47,-248.79 517.65,-256.57 520.94,-250.39"/>
</a>
</g>
</g>
<!-- Node4 -->
<g id="Node000004" class="node">
<title>Node4</title>
<g id="a_Node000004"><a xlink:href="variant_8hpp.html" target="_top" xlink:title=" ">
<polygon fill="white" stroke="#666666" points="168.62,-77.5 97.12,-77.5 97.12,-56.75 168.62,-56.75 168.62,-77.5"/>
<text text-anchor="middle" x="132.88" y="-64" font-family="Helvetica,sans-Serif" font-size="10.00">variant.hpp</text>
</a>
</g>
</g>
<!-- Node1&#45;&gt;Node4 -->
<g id="edge28_Node000001_Node000004" class="edge">
<title>Node1&#45;&gt;Node4</title>
<g id="a_edge28_Node000001_Node000004"><a xlink:title=" ">
<path fill="none" stroke="#63b8ff" d="M511.38,-285.82C420.01,-275.1 270.37,-249.58 154.88,-191 120.37,-173.5 105.01,-169.41 88.88,-134.25 80.68,-116.4 95.23,-97.94 109.74,-85.08"/>
<polygon fill="#63b8ff" stroke="#63b8ff" points="111.88,-87.85 117.41,-78.81 107.45,-82.43 111.88,-87.85"/>
</a>
</g>
</g>
<!-- Node16 -->
<g id="Node000016" class="node">
<title>Node16</title>
<g id="a_Node000016"><a xlink:title=" ">
<polygon fill="#e0e0e0" stroke="#999999" points="714.5,-134.25 663.25,-134.25 663.25,-113.5 714.5,-113.5 714.5,-134.25"/>
<text text-anchor="middle" x="688.88" y="-120.75" font-family="Helvetica,sans-Serif" font-size="10.00">cassert</text>
</a>
</g>
</g>
<!-- Node1&#45;&gt;Node16 -->
<g id="edge29_Node000001_Node000016" class="edge">
<title>Node1&#45;&gt;Node16</title>
<g id="a_edge29_Node000001_Node000016"><a xlink:title=" ">
<path fill="none" stroke="#63b8ff" d="M599.25,-283.6C614.34,-256.89 657.26,-180.87 677.74,-144.6"/>
<polygon fill="#63b8ff" stroke="#63b8ff" points="680.7,-146.46 682.57,-136.04 674.61,-143.02 680.7,-146.46"/>
</a>
</g>
</g>
<!-- Node18 -->
<g id="Node000018" class="node">
<title>Node18</title>
<g id="a_Node000018"><a xlink:title=" ">
<polygon fill="#e0e0e0" stroke="#999999" points="621.75,-191 566,-191 566,-170.25 621.75,-170.25 621.75,-191"/>
<text text-anchor="middle" x="593.88" y="-177.5" font-family="Helvetica,sans-Serif" font-size="10.00">numeric</text>
</a>
</g>
</g>
<!-- Node1&#45;&gt;Node18 -->
<g id="edge30_Node000001_Node000018" class="edge">
<title>Node1&#45;&gt;Node18</title>
<g id="a_edge30_Node000001_Node000018"><a xlink:title=" ">
<path fill="none" stroke="#63b8ff" d="M593.88,-283.62C593.88,-265.85 593.88,-227.22 593.88,-202.93"/>
<polygon fill="#63b8ff" stroke="#63b8ff" points="597.38,-202.94 593.88,-192.94 590.38,-202.94 597.38,-202.94"/>
</a>
</g>
</g>
<!-- Node19 -->
<g id="Node000019" class="node">
<title>Node19</title>
<g id="a_Node000019"><a xlink:title=" ">
<polygon fill="#e0e0e0" stroke="#999999" points="770.12,-247.75 677.62,-247.75 677.62,-227 770.12,-227 770.12,-247.75"/>
<text text-anchor="middle" x="723.88" y="-234.25" font-family="Helvetica,sans-Serif" font-size="10.00">unordered_map</text>
</a>
</g>
</g>
<!-- Node1&#45;&gt;Node19 -->
<g id="edge31_Node000001_Node000019" class="edge">
<title>Node1&#45;&gt;Node19</title>
<g id="a_edge31_Node000001_Node000019"><a xlink:title=" ">
<path fill="none" stroke="#63b8ff" d="M617.12,-283.34C637.54,-274.73 667.51,-262.11 690.5,-252.43"/>
<polygon fill="#63b8ff" stroke="#63b8ff" points="691.58,-255.77 699.44,-248.67 688.87,-249.32 691.58,-255.77"/>
</a>
</g>
</g>
<!-- Node3 -->
<g id="Node000003" class="node">
<title>Node3</title>
<g id="a_Node000003"><a xlink:href="unique__haplotype_8hpp.html" target="_top" xlink:title=" ">
<polygon fill="white" stroke="#666666" points="449.88,-191 325.88,-191 325.88,-170.25 449.88,-170.25 449.88,-191"/>
<text text-anchor="middle" x="387.88" y="-177.5" font-family="Helvetica,sans-Serif" font-size="10.00">unique_haplotype.hpp</text>
</a>
</g>
</g>
<!-- Node2&#45;&gt;Node3 -->
<g id="edge2_Node000002_Node000003" class="edge">
<title>Node2&#45;&gt;Node3</title>
<g id="a_edge2_Node000002_Node000003"><a xlink:title=" ">
<path fill="none" stroke="#63b8ff" d="M472.46,-226.59C456.79,-218.26 434.03,-206.16 416.06,-196.61"/>
<polygon fill="#63b8ff" stroke="#63b8ff" points="417.94,-193.64 407.47,-192.04 414.65,-199.82 417.94,-193.64"/>
</a>
</g>
</g>
<!-- Node2&#45;&gt;Node4 -->
<g id="edge24_Node000002_Node000004" class="edge">
<title>Node2&#45;&gt;Node4</title>
<g id="a_edge24_Node000002_Node000004"><a xlink:title=" ">
<path fill="none" stroke="#63b8ff" d="M416.75,-227.9C313.78,-214.44 135.69,-184.41 96.88,-134.25 85.15,-119.1 98.65,-99.62 112.34,-85.74"/>
<polygon fill="#63b8ff" stroke="#63b8ff" points="114.68,-88.34 119.56,-78.94 109.88,-83.25 114.68,-88.34"/>
</a>
</g>
</g>
<!-- Node2&#45;&gt;Node16 -->
<g id="edge26_Node000002_Node000016" class="edge">
<title>Node2&#45;&gt;Node16</title>
<g id="a_edge26_Node000002_Node000016"><a xlink:title=" ">
<path fill="none" stroke="#63b8ff" d="M497.96,-226.92C509.05,-212.72 531.84,-185.9 556.88,-170.25 573.03,-160.15 619.13,-145.34 652.3,-135.42"/>
<polygon fill="#63b8ff" stroke="#63b8ff" points="652.95,-138.88 661.54,-132.68 650.96,-132.16 652.95,-138.88"/>
</a>
</g>
</g>
<!-- Node17 -->
<g id="Node000017" class="node">
<title>Node17</title>
<g id="a_Node000017"><a xlink:title=" ">
<polygon fill="#e0e0e0" stroke="#999999" points="509.62,-191 468.12,-191 468.12,-170.25 509.62,-170.25 509.62,-191"/>
<text text-anchor="middle" x="488.88" y="-177.5" font-family="Helvetica,sans-Serif" font-size="10.00">array</text>
</a>
</g>
</g>
<!-- Node2&#45;&gt;Node17 -->
<g id="edge25_Node000002_Node000017" class="edge">
<title>Node2&#45;&gt;Node17</title>
<g id="a_edge25_Node000002_Node000017"><a xlink:title=" ">
<path fill="none" stroke="#63b8ff" d="M490.52,-226.59C490.28,-219.97 489.95,-210.97 489.65,-202.77"/>
<polygon fill="#63b8ff" stroke="#63b8ff" points="493.15,-202.71 489.28,-192.84 486.15,-202.96 493.15,-202.71"/>
</a>
</g>
</g>
<!-- Node2&#45;&gt;Node18 -->
<g id="edge27_Node000002_Node000018" class="edge">
<title>Node2&#45;&gt;Node18</title>
<g id="a_edge27_Node000002_Node000018"><a xlink:title=" ">
<path fill="none" stroke="#63b8ff" d="M509.29,-226.59C524.96,-218.26 547.72,-206.16 565.69,-196.61"/>
<polygon fill="#63b8ff" stroke="#63b8ff" points="567.1,-199.82 574.28,-192.04 563.81,-193.64 567.1,-199.82"/>
</a>
</g>
</g>
<!-- Node3&#45;&gt;Node4 -->
<g id="edge3_Node000003_Node000004" class="edge">
<title>Node3&#45;&gt;Node4</title>
<g id="a_edge3_Node000003_Node000004"><a xlink:title=" ">
<path fill="none" stroke="#63b8ff" d="M392.9,-169.8C399.37,-155.62 408.28,-129.38 394.88,-113.5 364.04,-76.99 229.92,-85.9 182.88,-77.5 181.89,-77.32 180.89,-77.14 179.88,-76.96"/>
<polygon fill="#63b8ff" stroke="#63b8ff" points="180.87,-73.58 170.4,-75.23 179.61,-80.47 180.87,-73.58"/>
</a>
</g>
</g>
<!-- Node5 -->
<g id="Node000005" class="node">
<title>Node5</title>
<g id="a_Node000005"><a xlink:title=" ">
<polygon fill="#e0e0e0" stroke="#999999" points="154.75,-20.75 111,-20.75 111,0 154.75,0 154.75,-20.75"/>
<text text-anchor="middle" x="132.88" y="-7.25" font-family="Helvetica,sans-Serif" font-size="10.00">string</text>
</a>
</g>
</g>
<!-- Node3&#45;&gt;Node5 -->
<g id="edge19_Node000003_Node000005" class="edge">
<title>Node3&#45;&gt;Node5</title>
<g id="a_edge19_Node000003_Node000005"><a xlink:title=" ">
<path fill="none" stroke="#63b8ff" d="M325.49,-178.25C249.72,-175.2 128.14,-165.44 96.88,-134.25 72.32,-109.76 74.67,-88.81 87.88,-56.75 92.45,-45.63 101.22,-35.8 109.8,-28.15"/>
<polygon fill="#63b8ff" stroke="#63b8ff" points="111.82,-31.02 117.34,-21.97 107.38,-25.61 111.82,-31.02"/>
</a>
</g>
</g>
<!-- Node6 -->
<g id="Node000006" class="node">
<title>Node6</title>
<g id="a_Node000006"><a xlink:title=" ">
<polygon fill="#e0e0e0" stroke="#999999" points="553.25,-20.75 506.5,-20.75 506.5,0 553.25,0 553.25,-20.75"/>
<text text-anchor="middle" x="529.88" y="-7.25" font-family="Helvetica,sans-Serif" font-size="10.00">vector</text>
</a>
</g>
</g>
<!-- Node3&#45;&gt;Node6 -->
<g id="edge20_Node000003_Node000006" class="edge">
<title>Node3&#45;&gt;Node6</title>
<g id="a_edge20_Node000003_Node000006"><a xlink:title=" ">
<path fill="none" stroke="#63b8ff" d="M450.14,-171.16C493.33,-163.86 545.44,-151.72 558.88,-134.25 582.48,-103.56 559.7,-56.71 543.31,-30.62"/>
<polygon fill="#63b8ff" stroke="#63b8ff" points="546.3,-28.8 537.87,-22.38 540.46,-32.65 546.3,-28.8"/>
</a>
</g>
</g>
<!-- Node7 -->
<g id="Node000007" class="node">
<title>Node7</title>
<g id="a_Node000007"><a xlink:title=" ">
<polygon fill="#e0e0e0" stroke="#999999" points="630.38,-20.75 581.38,-20.75 581.38,0 630.38,0 630.38,-20.75"/>
<text text-anchor="middle" x="605.88" y="-7.25" font-family="Helvetica,sans-Serif" font-size="10.00">cstdint</text>
</a>
</g>
</g>
<!-- Node3&#45;&gt;Node7 -->
<g id="edge18_Node000003_Node000007" class="edge">
<title>Node3&#45;&gt;Node7</title>
<g id="a_edge18_Node000003_Node000007"><a xlink:title=" ">
<path fill="none" stroke="#63b8ff" d="M441.22,-169.77C493.65,-159.63 567.2,-143.96 576.88,-134.25 603.98,-107.04 607.57,-59.5 607.13,-32.22"/>
<polygon fill="#63b8ff" stroke="#63b8ff" points="610.64,-32.31 606.76,-22.45 603.64,-32.58 610.64,-32.31"/>
</a>
</g>
</g>
<!-- Node8 -->
<g id="Node000008" class="node">
<title>Node8</title>
<g id="a_Node000008"><a xlink:title=" ">
<polygon fill="#e0e0e0" stroke="#999999" points="43.75,-20.75 0,-20.75 0,0 43.75,0 43.75,-20.75"/>
<text text-anchor="middle" x="21.88" y="-7.25" font-family="Helvetica,sans-Serif" font-size="10.00">limits</text>
</a>
</g>
</g>
<!-- Node3&#45;&gt;Node8 -->
<g id="edge22_Node000003_Node000008" class="edge">
<title>Node3&#45;&gt;Node8</title>
<g id="a_edge22_Node000003_Node000008"><a xlink:title=" ">
<path fill="none" stroke="#63b8ff" d="M325.5,-177.44C246.45,-173.51 115.87,-162.79 77.88,-134.25 44.72,-109.34 30.64,-60.18 25.11,-32.18"/>
<polygon fill="#63b8ff" stroke="#63b8ff" points="28.58,-31.7 23.4,-22.46 21.69,-32.92 28.58,-31.7"/>
</a>
</g>
</g>
<!-- Node9 -->
<g id="Node000009" class="node">
<title>Node9</title>
<g id="a_Node000009"><a xlink:href="recombination_8hpp.html" target="_top" xlink:title=" ">
<polygon fill="white" stroke="#666666" points="549.62,-134.25 442.12,-134.25 442.12,-113.5 549.62,-113.5 549.62,-134.25"/>
<text text-anchor="middle" x="495.88" y="-120.75" font-family="Helvetica,sans-Serif" font-size="10.00">recombination.hpp</text>
</a>
</g>
</g>
<!-- Node3&#45;&gt;Node9 -->
<g id="edge8_Node000003_Node000009" class="edge">
<title>Node3&#45;&gt;Node9</title>
<g id="a_edge8_Node000003_Node000009"><a xlink:title=" ">
<path fill="none" stroke="#63b8ff" d="M407.18,-169.84C423.69,-161.47 447.71,-149.29 466.58,-139.72"/>
<polygon fill="#63b8ff" stroke="#63b8ff" points="468.05,-142.91 475.38,-135.26 464.88,-136.66 468.05,-142.91"/>
</a>
</g>
</g>
<!-- Node13 -->
<g id="Node000013" class="node">
<title>Node13</title>
<g id="a_Node000013"><a xlink:title=" ">
<polygon fill="#e0e0e0" stroke="#999999" points="205.88,-134.25 105.88,-134.25 105.88,-113.5 205.88,-113.5 205.88,-134.25"/>
<text text-anchor="middle" x="155.88" y="-120.75" font-family="Helvetica,sans-Serif" font-size="10.00">savvy/reader.hpp</text>
</a>
</g>
</g>
<!-- Node3&#45;&gt;Node13 -->
<g id="edge16_Node000003_Node000013" class="edge">
<title>Node3&#45;&gt;Node13</title>
<g id="a_edge16_Node000003_Node000013"><a xlink:title=" ">
<path fill="none" stroke="#63b8ff" d="M346.13,-169.77C307.65,-160.69 250.37,-147.17 208.71,-137.34"/>
<polygon fill="#63b8ff" stroke="#63b8ff" points="209.69,-133.98 199.15,-135.09 208.08,-140.79 209.69,-133.98"/>
</a>
</g>
</g>
<!-- Node14 -->
<g id="Node000014" class="node">
<title>Node14</title>
<g id="a_Node000014"><a xlink:title=" ">
<polygon fill="#e0e0e0" stroke="#999999" points="321.38,-134.25 224.38,-134.25 224.38,-113.5 321.38,-113.5 321.38,-134.25"/>
<text text-anchor="middle" x="272.88" y="-120.75" font-family="Helvetica,sans-Serif" font-size="10.00">savvy/writer.hpp</text>
</a>
</g>
</g>
<!-- Node3&#45;&gt;Node14 -->
<g id="edge17_Node000003_Node000014" class="edge">
<title>Node3&#45;&gt;Node14</title>
<g id="a_edge17_Node000003_Node000014"><a xlink:title=" ">
<path fill="none" stroke="#63b8ff" d="M367.32,-169.84C349.57,-161.39 323.69,-149.07 303.51,-139.46"/>
<polygon fill="#63b8ff" stroke="#63b8ff" points="305.16,-136.37 294.62,-135.23 302.15,-142.69 305.16,-136.37"/>
</a>
</g>
</g>
<!-- Node15 -->
<g id="Node000015" class="node">
<title>Node15</title>
<g id="a_Node000015"><a xlink:title=" ">
<polygon fill="#e0e0e0" stroke="#999999" points="385.88,-134.25 339.88,-134.25 339.88,-113.5 385.88,-113.5 385.88,-134.25"/>
<text text-anchor="middle" x="362.88" y="-120.75" font-family="Helvetica,sans-Serif" font-size="10.00">deque</text>
</a>
</g>
</g>
<!-- Node3&#45;&gt;Node15 -->
<g id="edge21_Node000003_Node000015" class="edge">
<title>Node3&#45;&gt;Node15</title>
<g id="a_edge21_Node000003_Node000015"><a xlink:title=" ">
<path fill="none" stroke="#63b8ff" d="M383.41,-169.84C380.24,-162.91 375.89,-153.37 372,-144.86"/>
<polygon fill="#63b8ff" stroke="#63b8ff" points="375.27,-143.6 367.93,-135.96 368.9,-146.51 375.27,-143.6"/>
</a>
</g>
</g>
<!-- Node3&#45;&gt;Node16 -->
<g id="edge23_Node000003_Node000016" class="edge">
<title>Node3&#45;&gt;Node16</title>
<g id="a_edge23_Node000003_Node000016"><a xlink:title=" ">
<path fill="none" stroke="#63b8ff" d="M450.29,-169.82C503.29,-161.24 581.28,-148.04 648.88,-134.25 649.88,-134.04 650.91,-133.83 651.94,-133.61"/>
<polygon fill="#63b8ff" stroke="#63b8ff" points="652.62,-137.05 661.62,-131.47 651.11,-130.21 652.62,-137.05"/>
</a>
</g>
</g>
<!-- Node4&#45;&gt;Node5 -->
<g id="edge4_Node000004_Node000005" class="edge">
<title>Node4&#45;&gt;Node5</title>
<g id="a_edge4_Node000004_Node000005"><a xlink:title=" ">
<path fill="none" stroke="#63b8ff" d="M132.88,-56.34C132.88,-49.72 132.88,-40.72 132.88,-32.52"/>
<polygon fill="#63b8ff" stroke="#63b8ff" points="136.38,-32.59 132.88,-22.59 129.38,-32.59 136.38,-32.59"/>
</a>
</g>
</g>
<!-- Node4&#45;&gt;Node6 -->
<g id="edge5_Node000004_Node000006" class="edge">
<title>Node4&#45;&gt;Node6</title>
<g id="a_edge5_Node000004_Node000006"><a xlink:title=" ">
<path fill="none" stroke="#63b8ff" d="M168.81,-61.17C244.72,-50.7 420.57,-26.45 495.29,-16.14"/>
<polygon fill="#63b8ff" stroke="#63b8ff" points="495.45,-19.66 504.88,-14.82 494.5,-12.72 495.45,-19.66"/>
</a>
</g>
</g>
<!-- Node4&#45;&gt;Node7 -->
<g id="edge6_Node000004_Node000007" class="edge">
<title>Node4&#45;&gt;Node7</title>
<g id="a_edge6_Node000004_Node000007"><a xlink:title=" ">
<path fill="none" stroke="#63b8ff" d="M168.82,-62C183.42,-60.34 200.45,-58.42 215.88,-56.75 369.58,-40.07 409.16,-44.89 561.88,-20.75 564.54,-20.33 567.29,-19.85 570.06,-19.34"/>
<polygon fill="#63b8ff" stroke="#63b8ff" points="570.69,-22.78 579.81,-17.39 569.32,-15.91 570.69,-22.78"/>
</a>
</g>
</g>
<!-- Node4&#45;&gt;Node8 -->
<g id="edge7_Node000004_Node000008" class="edge">
<title>Node4&#45;&gt;Node8</title>
<g id="a_edge7_Node000004_Node000008"><a xlink:title=" ">
<path fill="none" stroke="#63b8ff" d="M113.03,-56.34C95.98,-47.93 71.15,-35.68 51.71,-26.09"/>
<polygon fill="#63b8ff" stroke="#63b8ff" points="53.42,-23.03 42.91,-21.75 50.33,-29.31 53.42,-23.03"/>
</a>
</g>
</g>
<!-- Node9&#45;&gt;Node4 -->
<g id="edge9_Node000009_Node000004" class="edge">
<title>Node9&#45;&gt;Node4</title>
<g id="a_edge9_Node000009_Node000004"><a xlink:title=" ">
<path fill="none" stroke="#63b8ff" d="M441.75,-115.3C365.81,-104.64 231.49,-85.58 182.88,-77.5 181.88,-77.34 180.88,-77.17 179.87,-77"/>
<polygon fill="#63b8ff" stroke="#63b8ff" points="180.84,-73.61 170.38,-75.33 179.63,-80.51 180.84,-73.61"/>
</a>
</g>
</g>
<!-- Node9&#45;&gt;Node5 -->
<g id="edge11_Node000009_Node000005" class="edge">
<title>Node9&#45;&gt;Node5</title>
<g id="a_edge11_Node000009_Node000005"><a xlink:title=" ">
<path fill="none" stroke="#63b8ff" d="M441.85,-115.62C366.33,-105.26 236.14,-86.47 215.88,-77.5 189.72,-65.92 164.76,-44.07 149.17,-28.66"/>
<polygon fill="#63b8ff" stroke="#63b8ff" points="152.09,-26.63 142.58,-21.95 147.09,-31.54 152.09,-26.63"/>
</a>
</g>
</g>
<!-- Node9&#45;&gt;Node6 -->
<g id="edge12_Node000009_Node000006" class="edge">
<title>Node9&#45;&gt;Node6</title>
<g id="a_edge12_Node000009_Node000006"><a xlink:title=" ">
<path fill="none" stroke="#63b8ff" d="M499.21,-113.17C502.32,-104.01 507.06,-89.87 510.88,-77.5 515.58,-62.28 520.54,-44.97 524.21,-31.88"/>
<polygon fill="#63b8ff" stroke="#63b8ff" points="527.57,-32.86 526.88,-22.29 520.83,-30.98 527.57,-32.86"/>
</a>
</g>
</g>
<!-- Node9&#45;&gt;Node7 -->
<g id="edge13_Node000009_Node000007" class="edge">
<title>Node9&#45;&gt;Node7</title>
<g id="a_edge13_Node000009_Node000007"><a xlink:title=" ">
<path fill="none" stroke="#63b8ff" d="M505.25,-113.37C523.67,-94.7 564.82,-52.99 588.39,-29.1"/>
<polygon fill="#63b8ff" stroke="#63b8ff" points="590.61,-31.83 595.14,-22.25 585.63,-26.91 590.61,-31.83"/>
</a>
</g>
</g>
<!-- Node10 -->
<g id="Node000010" class="node">
<title>Node10</title>
<g id="a_Node000010"><a xlink:title=" ">
<polygon fill="#e0e0e0" stroke="#999999" points="420.62,-77.5 289.12,-77.5 289.12,-56.75 420.62,-56.75 420.62,-77.5"/>
<text text-anchor="middle" x="354.88" y="-64" font-family="Helvetica,sans-Serif" font-size="10.00">shrinkwrap/istream.hpp</text>
</a>
</g>
</g>
<!-- Node9&#45;&gt;Node10 -->
<g id="edge10_Node000009_Node000010" class="edge">
<title>Node9&#45;&gt;Node10</title>
<g id="a_edge10_Node000009_Node000010"><a xlink:title=" ">
<path fill="none" stroke="#63b8ff" d="M470.67,-113.09C448.31,-104.41 415.42,-91.63 390.4,-81.92"/>
<polygon fill="#63b8ff" stroke="#63b8ff" points="391.86,-78.73 381.28,-78.38 389.33,-85.26 391.86,-78.73"/>
</a>
</g>
</g>
<!-- Node11 -->
<g id="Node000011" class="node">
<title>Node11</title>
<g id="a_Node000011"><a xlink:title=" ">
<polygon fill="#e0e0e0" stroke="#999999" points="501.5,-77.5 438.25,-77.5 438.25,-56.75 501.5,-56.75 501.5,-77.5"/>
<text text-anchor="middle" x="469.88" y="-64" font-family="Helvetica,sans-Serif" font-size="10.00">algorithm</text>
</a>
</g>
</g>
<!-- Node9&#45;&gt;Node11 -->
<g id="edge14_Node000009_Node000011" class="edge">
<title>Node9&#45;&gt;Node11</title>
<g id="a_edge14_Node000009_Node000011"><a xlink:title=" ">
<path fill="none" stroke="#63b8ff" d="M491.23,-113.09C487.94,-106.16 483.41,-96.62 479.37,-88.11"/>
<polygon fill="#63b8ff" stroke="#63b8ff" points="482.58,-86.73 475.13,-79.2 476.26,-89.73 482.58,-86.73"/>
</a>
</g>
</g>
<!-- Node12 -->
<g id="Node000012" class="node">
<title>Node12</title>
<g id="a_Node000012"><a xlink:title=" ">
<polygon fill="#e0e0e0" stroke="#999999" points="271.25,-77.5 224.5,-77.5 224.5,-56.75 271.25,-56.75 271.25,-77.5"/>
<text text-anchor="middle" x="247.88" y="-64" font-family="Helvetica,sans-Serif" font-size="10.00">cmath</text>
</a>
</g>
</g>
<!-- Node9&#45;&gt;Node12 -->
<g id="edge15_Node000009_Node000012" class="edge">
<title>Node9&#45;&gt;Node12</title>
<g id="a_edge15_Node000009_Node000012"><a xlink:title=" ">
<path fill="none" stroke="#63b8ff" d="M443.24,-113.01C401.82,-104.98 342.45,-92.87 282.4,-78"/>
<polygon fill="#63b8ff" stroke="#63b8ff" points="283.6,-74.7 273.05,-75.66 281.9,-81.49 283.6,-74.7"/>
</a>
</g>
</g>
</g>
</svg>
