<?xml version="1.0" encoding="UTF-8" standalone="no"?>
<!DOCTYPE svg PUBLIC "-//W3C//DTD SVG 1.1//EN"
 "http://www.w3.org/Graphics/SVG/1.1/DTD/svg11.dtd">
<!-- Generated by graphviz version 12.2.1 (0)
 -->
<!-- Title: src/hidden_markov_model.hpp Pages: 1 -->
<svg width="394pt" height="199pt"
 viewBox="0.00 0.00 394.12 199.00" xmlns="http://www.w3.org/2000/svg" xmlns:xlink="http://www.w3.org/1999/xlink">
<g id="graph0" class="graph" transform="scale(1 1) rotate(0) translate(4 195)">
<title>src/hidden_markov_model.hpp</title>
<!-- Node1 -->
<g id="Node000001" class="node">
<title>Node1</title>
<g id="a_Node000001"><a xlink:title=" ">
<polygon fill="#999999" stroke="#666666" points="276.5,-191 111.25,-191 111.25,-170.25 276.5,-170.25 276.5,-191"/>
<text text-anchor="middle" x="193.88" y="-177.5" font-family="Helvetica,sans-Serif" font-size="10.00">src/hidden_markov_model.hpp</text>
</a>
</g>
</g>
<!-- Node2 -->
<g id="Node000002" class="node">
<title>Node2</title>
<g id="a_Node000002"><a xlink:href="dosage__writer_8hpp.html" target="_top" xlink:title=" ">
<polygon fill="white" stroke="#666666" points="166.12,-134.25 43.62,-134.25 43.62,-113.5 166.12,-113.5 166.12,-134.25"/>
<text text-anchor="middle" x="104.88" y="-120.75" font-family="Helvetica,sans-Serif" font-size="10.00">src/dosage_writer.hpp</text>
</a>
</g>
</g>
<!-- Node1&#45;&gt;Node2 -->
<g id="edge1_Node000001_Node000002" class="edge">
<title>Node1&#45;&gt;Node2</title>
<g id="a_edge1_Node000001_Node000002"><a xlink:title=" ">
<path fill="none" stroke="#63b8ff" d="M168.48,-164.01C153.08,-154.53 133.9,-142.73 120.65,-134.58"/>
<polygon fill="#63b8ff" stroke="#63b8ff" points="166.32,-166.79 176.67,-169.04 169.99,-160.82 166.32,-166.79"/>
</a>
</g>
</g>
<!-- Node4 -->
<g id="Node000004" class="node">
<title>Node4</title>
<g id="a_Node000004"><a xlink:href="imputation_8hpp.html" target="_top" xlink:title=" ">
<polygon fill="white" stroke="#666666" points="247.62,-77.5 140.12,-77.5 140.12,-56.75 247.62,-56.75 247.62,-77.5"/>
<text text-anchor="middle" x="193.88" y="-64" font-family="Helvetica,sans-Serif" font-size="10.00">src/imputation.hpp</text>
</a>
</g>
</g>
<!-- Node1&#45;&gt;Node4 -->
<g id="edge7_Node000001_Node000004" class="edge">
<title>Node1&#45;&gt;Node4</title>
<g id="a_edge7_Node000001_Node000004"><a xlink:title=" ">
<path fill="none" stroke="#63b8ff" d="M193.88,-158.72C193.88,-134.59 193.88,-95.92 193.88,-77.93"/>
<polygon fill="#63b8ff" stroke="#63b8ff" points="190.38,-158.6 193.88,-168.61 197.38,-158.61 190.38,-158.6"/>
</a>
</g>
</g>
<!-- Node7 -->
<g id="Node000007" class="node">
<title>Node7</title>
<g id="a_Node000007"><a xlink:href="hidden__markov__model_8cpp.html" target="_top" xlink:title=" ">
<polygon fill="white" stroke="#666666" points="386.12,-134.25 221.62,-134.25 221.62,-113.5 386.12,-113.5 386.12,-134.25"/>
<text text-anchor="middle" x="303.88" y="-120.75" font-family="Helvetica,sans-Serif" font-size="10.00">src/hidden_markov_model.cpp</text>
</a>
</g>
</g>
<!-- Node1&#45;&gt;Node7 -->
<g id="edge6_Node000001_Node000007" class="edge">
<title>Node1&#45;&gt;Node7</title>
<g id="a_edge6_Node000001_Node000007"><a xlink:title=" ">
<path fill="none" stroke="#63b8ff" d="M223.64,-164.81C242.94,-155.2 267.54,-142.96 284.38,-134.58"/>
<polygon fill="#63b8ff" stroke="#63b8ff" points="222.29,-161.57 214.9,-169.16 225.41,-167.84 222.29,-161.57"/>
</a>
</g>
</g>
<!-- Node3 -->
<g id="Node000003" class="node">
<title>Node3</title>
<g id="a_Node000003"><a xlink:href="dosage__writer_8cpp.html" target="_top" xlink:title=" ">
<polygon fill="white" stroke="#666666" points="121.75,-77.5 0,-77.5 0,-56.75 121.75,-56.75 121.75,-77.5"/>
<text text-anchor="middle" x="60.88" y="-64" font-family="Helvetica,sans-Serif" font-size="10.00">src/dosage_writer.cpp</text>
</a>
</g>
</g>
<!-- Node2&#45;&gt;Node3 -->
<g id="edge2_Node000002_Node000003" class="edge">
<title>Node2&#45;&gt;Node3</title>
<g id="a_edge2_Node000002_Node000003"><a xlink:title=" ">
<path fill="none" stroke="#63b8ff" d="M89.87,-104.21C82.75,-95.34 74.54,-85.12 68.67,-77.83"/>
<polygon fill="#63b8ff" stroke="#63b8ff" points="87.07,-106.3 96.06,-111.91 92.52,-101.92 87.07,-106.3"/>
</a>
</g>
</g>
<!-- Node2&#45;&gt;Node4 -->
<g id="edge3_Node000002_Node000004" class="edge">
<title>Node2&#45;&gt;Node4</title>
<g id="a_edge3_Node000002_Node000004"><a xlink:title=" ">
<path fill="none" stroke="#63b8ff" d="M130.27,-107.26C145.67,-97.78 164.85,-85.98 178.1,-77.83"/>
<polygon fill="#63b8ff" stroke="#63b8ff" points="128.76,-104.07 122.08,-112.29 132.43,-110.04 128.76,-104.07"/>
</a>
</g>
</g>
<!-- Node5 -->
<g id="Node000005" class="node">
<title>Node5</title>
<g id="a_Node000005"><a xlink:href="imputation_8cpp.html" target="_top" xlink:title=" ">
<polygon fill="white" stroke="#666666" points="191.25,-20.75 84.5,-20.75 84.5,0 191.25,0 191.25,-20.75"/>
<text text-anchor="middle" x="137.88" y="-7.25" font-family="Helvetica,sans-Serif" font-size="10.00">src/imputation.cpp</text>
</a>
</g>
</g>
<!-- Node4&#45;&gt;Node5 -->
<g id="edge4_Node000004_Node000005" class="edge">
<title>Node4&#45;&gt;Node5</title>
<g id="a_edge4_Node000004_Node000005"><a xlink:title=" ">
<path fill="none" stroke="#63b8ff" d="M175.64,-48.3C166.39,-39.25 155.5,-28.61 147.8,-21.08"/>
<polygon fill="#63b8ff" stroke="#63b8ff" points="173.18,-50.79 182.78,-55.28 178.08,-45.79 173.18,-50.79"/>
</a>
</g>
</g>
<!-- Node6 -->
<g id="Node000006" class="node">
<title>Node6</title>
<g id="a_Node000006"><a xlink:href="main_8cpp.html" target="_top" xlink:title=" ">
<polygon fill="white" stroke="#666666" points="288,-20.75 209.75,-20.75 209.75,0 288,0 288,-20.75"/>
<text text-anchor="middle" x="248.88" y="-7.25" font-family="Helvetica,sans-Serif" font-size="10.00">src/main.cpp</text>
</a>
</g>
</g>
<!-- Node4&#45;&gt;Node6 -->
<g id="edge5_Node000004_Node000006" class="edge">
<title>Node4&#45;&gt;Node6</title>
<g id="a_edge5_Node000004_Node000006"><a xlink:title=" ">
<path fill="none" stroke="#63b8ff" d="M211.78,-48.3C220.87,-39.25 231.56,-28.61 239.13,-21.08"/>
<polygon fill="#63b8ff" stroke="#63b8ff" points="209.4,-45.73 204.78,-55.27 214.34,-50.69 209.4,-45.73"/>
</a>
</g>
</g>
</g>
</svg>
