<?xml version="1.0" encoding="UTF-8" standalone="no"?>
<!DOCTYPE svg PUBLIC "-//W3C//DTD SVG 1.1//EN"
 "http://www.w3.org/Graphics/SVG/1.1/DTD/svg11.dtd">
<!-- Generated by graphviz version 12.2.1 (0)
 -->
<!-- Title: src/hidden_markov_model.hpp Pages: 1 -->
<svg width="838pt" height="256pt"
 viewBox="0.00 0.00 837.90 255.75" xmlns="http://www.w3.org/2000/svg" xmlns:xlink="http://www.w3.org/1999/xlink">
<g id="graph0" class="graph" transform="scale(1 1) rotate(0) translate(4 251.75)">
<title>src/hidden_markov_model.hpp</title>
<!-- Node1 -->
<g id="Node000001" class="node">
<title>Node1</title>
<g id="a_Node000001"><a xlink:title=" ">
<polygon fill="#999999" stroke="#666666" points="768.65,-247.75 603.4,-247.75 603.4,-227 768.65,-227 768.65,-247.75"/>
<text text-anchor="middle" x="686.03" y="-234.25" font-family="Helvetica,sans-Serif" font-size="10.00">src/hidden_markov_model.hpp</text>
</a>
</g>
</g>
<!-- Node2 -->
<g id="Node000002" class="node">
<title>Node2</title>
<g id="a_Node000002"><a xlink:href="unique__haplotype_8hpp.html" target="_top" xlink:title=" ">
<polygon fill="white" stroke="#666666" points="448.03,-191 324.03,-191 324.03,-170.25 448.03,-170.25 448.03,-191"/>
<text text-anchor="middle" x="386.03" y="-177.5" font-family="Helvetica,sans-Serif" font-size="10.00">unique_haplotype.hpp</text>
</a>
</g>
</g>
<!-- Node1&#45;&gt;Node2 -->
<g id="edge1_Node000001_Node000002" class="edge">
<title>Node1&#45;&gt;Node2</title>
<g id="a_edge1_Node000001_Node000002"><a xlink:title=" ">
<path fill="none" stroke="#63b8ff" d="M632.05,-226.52C581.34,-217.27 505.36,-203.4 451.27,-193.53"/>
<polygon fill="#63b8ff" stroke="#63b8ff" points="452.04,-190.11 441.57,-191.76 450.78,-197 452.04,-190.11"/>
</a>
</g>
</g>
<!-- Node3 -->
<g id="Node000003" class="node">
<title>Node3</title>
<g id="a_Node000003"><a xlink:href="variant_8hpp.html" target="_top" xlink:title=" ">
<polygon fill="white" stroke="#666666" points="511.78,-77.5 440.28,-77.5 440.28,-56.75 511.78,-56.75 511.78,-77.5"/>
<text text-anchor="middle" x="476.03" y="-64" font-family="Helvetica,sans-Serif" font-size="10.00">variant.hpp</text>
</a>
</g>
</g>
<!-- Node1&#45;&gt;Node3 -->
<g id="edge23_Node000001_Node000003" class="edge">
<title>Node1&#45;&gt;Node3</title>
<g id="a_edge23_Node000001_Node000003"><a xlink:title=" ">
<path fill="none" stroke="#63b8ff" d="M687.8,-226.56C691.34,-203.52 696.61,-145.54 667.03,-113.5 647.89,-92.76 573.59,-79.87 523.5,-73.35"/>
<polygon fill="#63b8ff" stroke="#63b8ff" points="524.13,-69.9 513.77,-72.13 523.26,-76.84 524.13,-69.9"/>
</a>
</g>
</g>
<!-- Node15 -->
<g id="Node000015" class="node">
<title>Node15</title>
<g id="a_Node000015"><a xlink:title=" ">
<polygon fill="#e0e0e0" stroke="#999999" points="657.65,-134.25 606.4,-134.25 606.4,-113.5 657.65,-113.5 657.65,-134.25"/>
<text text-anchor="middle" x="632.03" y="-120.75" font-family="Helvetica,sans-Serif" font-size="10.00">cassert</text>
</a>
</g>
</g>
<!-- Node1&#45;&gt;Node15 -->
<g id="edge25_Node000001_Node000015" class="edge">
<title>Node1&#45;&gt;Node15</title>
<g id="a_edge25_Node000001_Node000015"><a xlink:title=" ">
<path fill="none" stroke="#63b8ff" d="M681.43,-226.87C672.66,-208.77 653.42,-169.03 641.7,-144.85"/>
<polygon fill="#63b8ff" stroke="#63b8ff" points="644.94,-143.51 637.44,-136.04 638.64,-146.56 644.94,-143.51"/>
</a>
</g>
</g>
<!-- Node16 -->
<g id="Node000016" class="node">
<title>Node16</title>
<g id="a_Node000016"><a xlink:title=" ">
<polygon fill="#e0e0e0" stroke="#999999" points="755.78,-191 714.28,-191 714.28,-170.25 755.78,-170.25 755.78,-191"/>
<text text-anchor="middle" x="735.03" y="-177.5" font-family="Helvetica,sans-Serif" font-size="10.00">array</text>
</a>
</g>
</g>
<!-- Node1&#45;&gt;Node16 -->
<g id="edge24_Node000001_Node000016" class="edge">
<title>Node1&#45;&gt;Node16</title>
<g id="a_edge24_Node000001_Node000016"><a xlink:title=" ">
<path fill="none" stroke="#63b8ff" d="M694.79,-226.59C701.48,-219.11 710.88,-208.61 718.92,-199.63"/>
<polygon fill="#63b8ff" stroke="#63b8ff" points="721.28,-202.24 725.34,-192.46 716.06,-197.57 721.28,-202.24"/>
</a>
</g>
</g>
<!-- Node17 -->
<g id="Node000017" class="node">
<title>Node17</title>
<g id="a_Node000017"><a xlink:title=" ">
<polygon fill="#e0e0e0" stroke="#999999" points="829.9,-191 774.15,-191 774.15,-170.25 829.9,-170.25 829.9,-191"/>
<text text-anchor="middle" x="802.03" y="-177.5" font-family="Helvetica,sans-Serif" font-size="10.00">numeric</text>
</a>
</g>
</g>
<!-- Node1&#45;&gt;Node17 -->
<g id="edge26_Node000001_Node000017" class="edge">
<title>Node1&#45;&gt;Node17</title>
<g id="a_edge26_Node000001_Node000017"><a xlink:title=" ">
<path fill="none" stroke="#63b8ff" d="M706.77,-226.59C724.67,-218.14 750.77,-205.82 771.13,-196.21"/>
<polygon fill="#63b8ff" stroke="#63b8ff" points="772.55,-199.41 780.1,-191.97 769.57,-193.08 772.55,-199.41"/>
</a>
</g>
</g>
<!-- Node2&#45;&gt;Node3 -->
<g id="edge2_Node000002_Node000003" class="edge">
<title>Node2&#45;&gt;Node3</title>
<g id="a_edge2_Node000002_Node000003"><a xlink:title=" ">
<path fill="none" stroke="#63b8ff" d="M405.05,-169.76C418.84,-161.78 437.1,-149.39 449.03,-134.25 459.59,-120.84 466.6,-102.73 470.83,-88.85"/>
<polygon fill="#63b8ff" stroke="#63b8ff" points="474.14,-90 473.44,-79.43 467.39,-88.13 474.14,-90"/>
</a>
</g>
</g>
<!-- Node4 -->
<g id="Node000004" class="node">
<title>Node4</title>
<g id="a_Node000004"><a xlink:title=" ">
<polygon fill="#e0e0e0" stroke="#999999" points="497.9,-20.75 454.15,-20.75 454.15,0 497.9,0 497.9,-20.75"/>
<text text-anchor="middle" x="476.03" y="-7.25" font-family="Helvetica,sans-Serif" font-size="10.00">string</text>
</a>
</g>
</g>
<!-- Node2&#45;&gt;Node4 -->
<g id="edge18_Node000002_Node000004" class="edge">
<title>Node2&#45;&gt;Node4</title>
<g id="a_edge18_Node000002_Node000004"><a xlink:title=" ">
<path fill="none" stroke="#63b8ff" d="M412.42,-169.82C446.15,-155.56 502.39,-125.43 521.03,-77.5 524.37,-68.9 524.54,-65.28 521.03,-56.75 516.45,-45.63 507.69,-35.8 499.1,-28.15"/>
<polygon fill="#63b8ff" stroke="#63b8ff" points="501.52,-25.61 491.57,-21.97 497.08,-31.02 501.52,-25.61"/>
</a>
</g>
</g>
<!-- Node5 -->
<g id="Node000005" class="node">
<title>Node5</title>
<g id="a_Node000005"><a xlink:title=" ">
<polygon fill="#e0e0e0" stroke="#999999" points="64.4,-20.75 17.65,-20.75 17.65,0 64.4,0 64.4,-20.75"/>
<text text-anchor="middle" x="41.03" y="-7.25" font-family="Helvetica,sans-Serif" font-size="10.00">vector</text>
</a>
</g>
</g>
<!-- Node2&#45;&gt;Node5 -->
<g id="edge19_Node000002_Node000005" class="edge">
<title>Node2&#45;&gt;Node5</title>
<g id="a_edge19_Node000002_Node000005"><a xlink:title=" ">
<path fill="none" stroke="#63b8ff" d="M323.59,-176.5C222.52,-170.8 32.31,-157.14 12.03,-134.25 -13.89,-104.99 10.37,-56.87 27.48,-30.37"/>
<polygon fill="#63b8ff" stroke="#63b8ff" points="30.23,-32.55 32.94,-22.3 24.44,-28.62 30.23,-32.55"/>
</a>
</g>
</g>
<!-- Node6 -->
<g id="Node000006" class="node">
<title>Node6</title>
<g id="a_Node000006"><a xlink:title=" ">
<polygon fill="#e0e0e0" stroke="#999999" points="167.53,-20.75 118.53,-20.75 118.53,0 167.53,0 167.53,-20.75"/>
<text text-anchor="middle" x="143.03" y="-7.25" font-family="Helvetica,sans-Serif" font-size="10.00">cstdint</text>
</a>
</g>
</g>
<!-- Node2&#45;&gt;Node6 -->
<g id="edge17_Node000002_Node000006" class="edge">
<title>Node2&#45;&gt;Node6</title>
<g id="a_edge17_Node000002_Node000006"><a xlink:title=" ">
<path fill="none" stroke="#63b8ff" d="M323.78,-176.22C225.74,-170.21 44.44,-156.25 25.03,-134.25 -10.64,-93.82 64.33,-48.66 110.45,-26.01"/>
<polygon fill="#63b8ff" stroke="#63b8ff" points="111.76,-29.26 119.27,-21.79 108.74,-22.95 111.76,-29.26"/>
</a>
</g>
</g>
<!-- Node7 -->
<g id="Node000007" class="node">
<title>Node7</title>
<g id="a_Node000007"><a xlink:title=" ">
<polygon fill="#e0e0e0" stroke="#999999" points="579.9,-20.75 536.15,-20.75 536.15,0 579.9,0 579.9,-20.75"/>
<text text-anchor="middle" x="558.03" y="-7.25" font-family="Helvetica,sans-Serif" font-size="10.00">limits</text>
</a>
</g>
</g>
<!-- Node2&#45;&gt;Node7 -->
<g id="edge21_Node000002_Node000007" class="edge">
<title>Node2&#45;&gt;Node7</title>
<g id="a_edge21_Node000002_Node000007"><a xlink:title=" ">
<path fill="none" stroke="#63b8ff" d="M429.11,-169.75C452.33,-162.78 480.38,-151.54 501.03,-134.25 532.77,-107.68 547.81,-59.55 554.11,-32.07"/>
<polygon fill="#63b8ff" stroke="#63b8ff" points="557.48,-33.04 556.11,-22.54 550.63,-31.61 557.48,-33.04"/>
</a>
</g>
</g>
<!-- Node8 -->
<g id="Node000008" class="node">
<title>Node8</title>
<g id="a_Node000008"><a xlink:href="recombination_8hpp.html" target="_top" xlink:title=" ">
<polygon fill="white" stroke="#666666" points="439.78,-134.25 332.28,-134.25 332.28,-113.5 439.78,-113.5 439.78,-134.25"/>
<text text-anchor="middle" x="386.03" y="-120.75" font-family="Helvetica,sans-Serif" font-size="10.00">recombination.hpp</text>
</a>
</g>
</g>
<!-- Node2&#45;&gt;Node8 -->
<g id="edge7_Node000002_Node000008" class="edge">
<title>Node2&#45;&gt;Node8</title>
<g id="a_edge7_Node000002_Node000008"><a xlink:title=" ">
<path fill="none" stroke="#63b8ff" d="M386.03,-169.84C386.03,-163.22 386.03,-154.22 386.03,-146.02"/>
<polygon fill="#63b8ff" stroke="#63b8ff" points="389.53,-146.09 386.03,-136.09 382.53,-146.09 389.53,-146.09"/>
</a>
</g>
</g>
<!-- Node12 -->
<g id="Node000012" class="node">
<title>Node12</title>
<g id="a_Node000012"><a xlink:title=" ">
<polygon fill="#e0e0e0" stroke="#999999" points="134.03,-134.25 34.03,-134.25 34.03,-113.5 134.03,-113.5 134.03,-134.25"/>
<text text-anchor="middle" x="84.03" y="-120.75" font-family="Helvetica,sans-Serif" font-size="10.00">savvy/reader.hpp</text>
</a>
</g>
</g>
<!-- Node2&#45;&gt;Node12 -->
<g id="edge15_Node000002_Node000012" class="edge">
<title>Node2&#45;&gt;Node12</title>
<g id="a_edge15_Node000002_Node000012"><a xlink:title=" ">
<path fill="none" stroke="#63b8ff" d="M331.69,-169.77C279.37,-160.29 200.34,-145.96 145.69,-136.05"/>
<polygon fill="#63b8ff" stroke="#63b8ff" points="146.37,-132.62 135.91,-134.28 145.12,-139.51 146.37,-132.62"/>
</a>
</g>
</g>
<!-- Node13 -->
<g id="Node000013" class="node">
<title>Node13</title>
<g id="a_Node000013"><a xlink:title=" ">
<polygon fill="#e0e0e0" stroke="#999999" points="249.53,-134.25 152.53,-134.25 152.53,-113.5 249.53,-113.5 249.53,-134.25"/>
<text text-anchor="middle" x="201.03" y="-120.75" font-family="Helvetica,sans-Serif" font-size="10.00">savvy/writer.hpp</text>
</a>
</g>
</g>
<!-- Node2&#45;&gt;Node13 -->
<g id="edge16_Node000002_Node000013" class="edge">
<title>Node2&#45;&gt;Node13</title>
<g id="a_edge16_Node000002_Node000013"><a xlink:title=" ">
<path fill="none" stroke="#63b8ff" d="M352.96,-169.84C322.8,-160.91 278.02,-147.66 244.88,-137.85"/>
<polygon fill="#63b8ff" stroke="#63b8ff" points="246.16,-134.58 235.58,-135.1 244.18,-141.29 246.16,-134.58"/>
</a>
</g>
</g>
<!-- Node14 -->
<g id="Node000014" class="node">
<title>Node14</title>
<g id="a_Node000014"><a xlink:title=" ">
<polygon fill="#e0e0e0" stroke="#999999" points="314.03,-134.25 268.03,-134.25 268.03,-113.5 314.03,-113.5 314.03,-134.25"/>
<text text-anchor="middle" x="291.03" y="-120.75" font-family="Helvetica,sans-Serif" font-size="10.00">deque</text>
</a>
</g>
</g>
<!-- Node2&#45;&gt;Node14 -->
<g id="edge20_Node000002_Node000014" class="edge">
<title>Node2&#45;&gt;Node14</title>
<g id="a_edge20_Node000002_Node000014"><a xlink:title=" ">
<path fill="none" stroke="#63b8ff" d="M369.05,-169.84C354.73,-161.58 333.99,-149.63 317.49,-140.13"/>
<polygon fill="#63b8ff" stroke="#63b8ff" points="319.59,-137.3 309.18,-135.33 316.09,-143.36 319.59,-137.3"/>
</a>
</g>
</g>
<!-- Node2&#45;&gt;Node15 -->
<g id="edge22_Node000002_Node000015" class="edge">
<title>Node2&#45;&gt;Node15</title>
<g id="a_edge22_Node000002_Node000015"><a xlink:title=" ">
<path fill="none" stroke="#63b8ff" d="M431.48,-169.8C473.25,-160.72 536.86,-146.79 592.03,-134.25 593.03,-134.02 594.05,-133.79 595.08,-133.55"/>
<polygon fill="#63b8ff" stroke="#63b8ff" points="595.79,-136.98 604.75,-131.32 594.21,-130.16 595.79,-136.98"/>
</a>
</g>
</g>
<!-- Node3&#45;&gt;Node4 -->
<g id="edge3_Node000003_Node000004" class="edge">
<title>Node3&#45;&gt;Node4</title>
<g id="a_edge3_Node000003_Node000004"><a xlink:title=" ">
<path fill="none" stroke="#63b8ff" d="M476.03,-56.34C476.03,-49.72 476.03,-40.72 476.03,-32.52"/>
<polygon fill="#63b8ff" stroke="#63b8ff" points="479.53,-32.59 476.03,-22.59 472.53,-32.59 479.53,-32.59"/>
</a>
</g>
</g>
<!-- Node3&#45;&gt;Node5 -->
<g id="edge4_Node000003_Node000005" class="edge">
<title>Node3&#45;&gt;Node5</title>
<g id="a_edge4_Node000003_Node000005"><a xlink:title=" ">
<path fill="none" stroke="#63b8ff" d="M439.81,-61.82C373.93,-53.94 230.14,-36.58 109.03,-20.75 98.3,-19.35 86.62,-17.76 76.02,-16.29"/>
<polygon fill="#63b8ff" stroke="#63b8ff" points="76.51,-12.83 66.12,-14.92 75.54,-19.76 76.51,-12.83"/>
</a>
</g>
</g>
<!-- Node3&#45;&gt;Node6 -->
<g id="edge5_Node000003_Node000006" class="edge">
<title>Node3&#45;&gt;Node6</title>
<g id="a_edge5_Node000003_Node000006"><a xlink:title=" ">
<path fill="none" stroke="#63b8ff" d="M440.08,-60.21C375.96,-49.67 242.61,-27.75 178.7,-17.24"/>
<polygon fill="#63b8ff" stroke="#63b8ff" points="179.53,-13.83 169.1,-15.66 178.4,-20.74 179.53,-13.83"/>
</a>
</g>
</g>
<!-- Node3&#45;&gt;Node7 -->
<g id="edge6_Node000003_Node000007" class="edge">
<title>Node3&#45;&gt;Node7</title>
<g id="a_edge6_Node000003_Node000007"><a xlink:title=" ">
<path fill="none" stroke="#63b8ff" d="M490.69,-56.34C502.7,-48.32 519.94,-36.81 533.97,-27.44"/>
<polygon fill="#63b8ff" stroke="#63b8ff" points="535.87,-30.38 542.24,-21.92 531.98,-24.56 535.87,-30.38"/>
</a>
</g>
</g>
<!-- Node8&#45;&gt;Node3 -->
<g id="edge8_Node000008_Node000003" class="edge">
<title>Node8&#45;&gt;Node3</title>
<g id="a_edge8_Node000008_Node000003"><a xlink:title=" ">
<path fill="none" stroke="#63b8ff" d="M402.12,-113.09C415.56,-104.91 434.96,-93.11 450.52,-83.65"/>
<polygon fill="#63b8ff" stroke="#63b8ff" points="452.06,-86.8 458.79,-78.62 448.42,-80.82 452.06,-86.8"/>
</a>
</g>
</g>
<!-- Node8&#45;&gt;Node4 -->
<g id="edge10_Node000008_Node000004" class="edge">
<title>Node8&#45;&gt;Node4</title>
<g id="a_edge10_Node000008_Node000004"><a xlink:title=" ">
<path fill="none" stroke="#63b8ff" d="M391.91,-113.06C400.04,-99.79 415.48,-75.61 431.03,-56.75 439.1,-46.97 448.93,-36.87 457.34,-28.7"/>
<polygon fill="#63b8ff" stroke="#63b8ff" points="459.54,-31.44 464.37,-22.01 454.71,-26.37 459.54,-31.44"/>
</a>
</g>
</g>
<!-- Node8&#45;&gt;Node5 -->
<g id="edge11_Node000008_Node000005" class="edge">
<title>Node8&#45;&gt;Node5</title>
<g id="a_edge11_Node000008_Node000005"><a xlink:title=" ">
<path fill="none" stroke="#63b8ff" d="M332.08,-114.8C329.02,-114.36 325.99,-113.92 323.03,-113.5 264.63,-105.16 104.63,-116.11 60.03,-77.5 47.19,-66.38 42.75,-47.22 41.34,-32.37"/>
<polygon fill="#63b8ff" stroke="#63b8ff" points="44.85,-32.5 40.83,-22.7 37.86,-32.87 44.85,-32.5"/>
</a>
</g>
</g>
<!-- Node8&#45;&gt;Node6 -->
<g id="edge12_Node000008_Node000006" class="edge">
<title>Node8&#45;&gt;Node6</title>
<g id="a_edge12_Node000008_Node000006"><a xlink:title=" ">
<path fill="none" stroke="#63b8ff" d="M331.81,-113.34C267.55,-101.83 168.31,-83.29 162.03,-77.5 149.55,-65.98 145.07,-46.86 143.56,-32.13"/>
<polygon fill="#63b8ff" stroke="#63b8ff" points="147.08,-32.34 142.96,-22.57 140.09,-32.77 147.08,-32.34"/>
</a>
</g>
</g>
<!-- Node9 -->
<g id="Node000009" class="node">
<title>Node9</title>
<g id="a_Node000009"><a xlink:title=" ">
<polygon fill="#e0e0e0" stroke="#999999" points="302.78,-77.5 171.28,-77.5 171.28,-56.75 302.78,-56.75 302.78,-77.5"/>
<text text-anchor="middle" x="237.03" y="-64" font-family="Helvetica,sans-Serif" font-size="10.00">shrinkwrap/istream.hpp</text>
</a>
</g>
</g>
<!-- Node8&#45;&gt;Node9 -->
<g id="edge9_Node000008_Node000009" class="edge">
<title>Node8&#45;&gt;Node9</title>
<g id="a_edge9_Node000008_Node000009"><a xlink:title=" ">
<path fill="none" stroke="#63b8ff" d="M359.39,-113.09C335.73,-104.39 300.91,-91.6 274.46,-81.88"/>
<polygon fill="#63b8ff" stroke="#63b8ff" points="275.7,-78.61 265.11,-78.44 273.29,-85.18 275.7,-78.61"/>
</a>
</g>
</g>
<!-- Node10 -->
<g id="Node000010" class="node">
<title>Node10</title>
<g id="a_Node000010"><a xlink:title=" ">
<polygon fill="#e0e0e0" stroke="#999999" points="383.65,-77.5 320.4,-77.5 320.4,-56.75 383.65,-56.75 383.65,-77.5"/>
<text text-anchor="middle" x="352.03" y="-64" font-family="Helvetica,sans-Serif" font-size="10.00">algorithm</text>
</a>
</g>
</g>
<!-- Node8&#45;&gt;Node10 -->
<g id="edge13_Node000008_Node000010" class="edge">
<title>Node8&#45;&gt;Node10</title>
<g id="a_edge13_Node000008_Node000010"><a xlink:title=" ">
<path fill="none" stroke="#63b8ff" d="M379.95,-113.09C375.55,-106 369.46,-96.19 364.09,-87.54"/>
<polygon fill="#63b8ff" stroke="#63b8ff" points="367.1,-85.76 358.85,-79.11 361.16,-89.46 367.1,-85.76"/>
</a>
</g>
</g>
<!-- Node11 -->
<g id="Node000011" class="node">
<title>Node11</title>
<g id="a_Node000011"><a xlink:title=" ">
<polygon fill="#e0e0e0" stroke="#999999" points="115.4,-77.5 68.65,-77.5 68.65,-56.75 115.4,-56.75 115.4,-77.5"/>
<text text-anchor="middle" x="92.03" y="-64" font-family="Helvetica,sans-Serif" font-size="10.00">cmath</text>
</a>
</g>
</g>
<!-- Node8&#45;&gt;Node11 -->
<g id="edge14_Node000008_Node000011" class="edge">
<title>Node8&#45;&gt;Node11</title>
<g id="a_edge14_Node000008_Node000011"><a xlink:title=" ">
<path fill="none" stroke="#63b8ff" d="M332.15,-114.54C280,-106.2 198.8,-92.48 129.03,-77.5 128.36,-77.36 127.69,-77.21 127.01,-77.06"/>
<polygon fill="#63b8ff" stroke="#63b8ff" points="127.86,-73.66 117.33,-74.78 126.26,-80.48 127.86,-73.66"/>
</a>
</g>
</g>
</g>
</svg>
