<?xml version="1.0" encoding="UTF-8" standalone="no"?>
<!DOCTYPE svg PUBLIC "-//W3C//DTD SVG 1.1//EN"
 "http://www.w3.org/Graphics/SVG/1.1/DTD/svg11.dtd">
<!-- Generated by graphviz version 12.2.1 (0)
 -->
<!-- Title: src/imputation.cpp Pages: 1 -->
<svg width="1454pt" height="426pt"
 viewBox="0.00 0.00 1454.00 426.00" xmlns="http://www.w3.org/2000/svg" xmlns:xlink="http://www.w3.org/1999/xlink">
<g id="graph0" class="graph" transform="scale(1 1) rotate(0) translate(4 422)">
<title>src/imputation.cpp</title>
<!-- Node1 -->
<g id="Node000001" class="node">
<title>Node1</title>
<g id="a_Node000001"><a xlink:title=" ">
<polygon fill="#999999" stroke="#666666" points="653,-418 546.25,-418 546.25,-397.25 653,-397.25 653,-418"/>
<text text-anchor="middle" x="599.62" y="-404.5" font-family="Helvetica,sans-Serif" font-size="10.00">src/imputation.cpp</text>
</a>
</g>
</g>
<!-- Node2 -->
<g id="Node000002" class="node">
<title>Node2</title>
<g id="a_Node000002"><a xlink:href="imputation_8hpp.html" target="_top" xlink:title=" ">
<polygon fill="white" stroke="#666666" points="644.75,-361.25 554.5,-361.25 554.5,-340.5 644.75,-340.5 644.75,-361.25"/>
<text text-anchor="middle" x="599.62" y="-347.75" font-family="Helvetica,sans-Serif" font-size="10.00">imputation.hpp</text>
</a>
</g>
</g>
<!-- Node1&#45;&gt;Node2 -->
<g id="edge1_Node000001_Node000002" class="edge">
<title>Node1&#45;&gt;Node2</title>
<g id="a_edge1_Node000001_Node000002"><a xlink:title=" ">
<path fill="none" stroke="#63b8ff" d="M599.62,-396.84C599.62,-390.22 599.62,-381.22 599.62,-373.02"/>
<polygon fill="#63b8ff" stroke="#63b8ff" points="603.13,-373.09 599.63,-363.09 596.13,-373.09 603.13,-373.09"/>
</a>
</g>
</g>
<!-- Node3 -->
<g id="Node000003" class="node">
<title>Node3</title>
<g id="a_Node000003"><a xlink:title=" ">
<polygon fill="#e0e0e0" stroke="#999999" points="45.25,-304.5 0,-304.5 0,-283.75 45.25,-283.75 45.25,-304.5"/>
<text text-anchor="middle" x="22.62" y="-291" font-family="Helvetica,sans-Serif" font-size="10.00">cstdio</text>
</a>
</g>
</g>
<!-- Node2&#45;&gt;Node3 -->
<g id="edge2_Node000002_Node000003" class="edge">
<title>Node2&#45;&gt;Node3</title>
<g id="a_edge2_Node000002_Node000003"><a xlink:title=" ">
<path fill="none" stroke="#63b8ff" d="M554.15,-348.57C460.85,-345.35 241.26,-334.93 59.62,-304.5 58.62,-304.33 57.61,-304.15 56.59,-303.96"/>
<polygon fill="#63b8ff" stroke="#63b8ff" points="57.59,-300.59 47.07,-301.89 56.1,-307.43 57.59,-300.59"/>
</a>
</g>
</g>
<!-- Node4 -->
<g id="Node000004" class="node">
<title>Node4</title>
<g id="a_Node000004"><a xlink:title=" ">
<polygon fill="#e0e0e0" stroke="#999999" points="199.38,-20.75 139.88,-20.75 139.88,0 199.38,0 199.38,-20.75"/>
<text text-anchor="middle" x="169.62" y="-7.25" font-family="Helvetica,sans-Serif" font-size="10.00">iostream</text>
</a>
</g>
</g>
<!-- Node2&#45;&gt;Node4 -->
<g id="edge3_Node000002_Node000004" class="edge">
<title>Node2&#45;&gt;Node4</title>
<g id="a_edge3_Node000002_Node000004"><a xlink:title=" ">
<path fill="none" stroke="#63b8ff" d="M554.32,-349.86C426.73,-348.6 73.62,-336.27 73.62,-238.38 73.62,-238.38 73.62,-238.38 73.62,-122.88 73.62,-80.37 114.18,-46.02 142.57,-27.18"/>
<polygon fill="#63b8ff" stroke="#63b8ff" points="144.18,-30.3 150.74,-21.98 140.42,-24.39 144.18,-30.3"/>
</a>
</g>
</g>
<!-- Node5 -->
<g id="Node000005" class="node">
<title>Node5</title>
<g id="a_Node000005"><a xlink:title=" ">
<polygon fill="#e0e0e0" stroke="#999999" points="308.5,-304.5 264.75,-304.5 264.75,-283.75 308.5,-283.75 308.5,-304.5"/>
<text text-anchor="middle" x="286.62" y="-291" font-family="Helvetica,sans-Serif" font-size="10.00">ctime</text>
</a>
</g>
</g>
<!-- Node2&#45;&gt;Node5 -->
<g id="edge4_Node000002_Node000005" class="edge">
<title>Node2&#45;&gt;Node5</title>
<g id="a_edge4_Node000002_Node000005"><a xlink:title=" ">
<path fill="none" stroke="#63b8ff" d="M554.14,-344.63C500.21,-337.96 407.46,-325.09 320,-305.06"/>
<polygon fill="#63b8ff" stroke="#63b8ff" points="320.81,-301.65 310.28,-302.79 319.22,-308.47 320.81,-301.65"/>
</a>
</g>
</g>
<!-- Node6 -->
<g id="Node000006" class="node">
<title>Node6</title>
<g id="a_Node000006"><a xlink:title=" ">
<polygon fill="#e0e0e0" stroke="#999999" points="381.12,-304.5 326.12,-304.5 326.12,-283.75 381.12,-283.75 381.12,-304.5"/>
<text text-anchor="middle" x="353.62" y="-291" font-family="Helvetica,sans-Serif" font-size="10.00">unistd.h</text>
</a>
</g>
</g>
<!-- Node2&#45;&gt;Node6 -->
<g id="edge5_Node000002_Node000006" class="edge">
<title>Node2&#45;&gt;Node6</title>
<g id="a_edge5_Node000002_Node000006"><a xlink:title=" ">
<path fill="none" stroke="#63b8ff" d="M555.45,-340.06C514.13,-330.88 450.69,-316.77 395.62,-304.5 394.46,-304.24 393.27,-303.98 392.08,-303.71"/>
<polygon fill="#63b8ff" stroke="#63b8ff" points="393.19,-300.37 382.66,-301.61 391.66,-307.2 393.19,-300.37"/>
</a>
</g>
</g>
<!-- Node7 -->
<g id="Node000007" class="node">
<title>Node7</title>
<g id="a_Node000007"><a xlink:title=" ">
<polygon fill="#e0e0e0" stroke="#999999" points="155.75,-134.25 101.5,-134.25 101.5,-113.5 155.75,-113.5 155.75,-134.25"/>
<text text-anchor="middle" x="128.62" y="-120.75" font-family="Helvetica,sans-Serif" font-size="10.00">fstream</text>
</a>
</g>
</g>
<!-- Node2&#45;&gt;Node7 -->
<g id="edge6_Node000002_Node000007" class="edge">
<title>Node2&#45;&gt;Node7</title>
<g id="a_edge6_Node000002_Node000007"><a xlink:title=" ">
<path fill="none" stroke="#63b8ff" d="M574.03,-340.17C551.17,-331.34 516.88,-317.72 487.62,-304.5 362.11,-247.78 216.43,-171.58 156.53,-139.78"/>
<polygon fill="#63b8ff" stroke="#63b8ff" points="158.5,-136.87 148.02,-135.26 155.21,-143.05 158.5,-136.87"/>
</a>
</g>
</g>
<!-- Node8 -->
<g id="Node000008" class="node">
<title>Node8</title>
<g id="a_Node000008"><a xlink:title=" ">
<polygon fill="#e0e0e0" stroke="#999999" points="552.88,-304.5 496.38,-304.5 496.38,-283.75 552.88,-283.75 552.88,-304.5"/>
<text text-anchor="middle" x="524.62" y="-291" font-family="Helvetica,sans-Serif" font-size="10.00">ostream</text>
</a>
</g>
</g>
<!-- Node2&#45;&gt;Node8 -->
<g id="edge7_Node000002_Node000008" class="edge">
<title>Node2&#45;&gt;Node8</title>
<g id="a_edge7_Node000002_Node000008"><a xlink:title=" ">
<path fill="none" stroke="#63b8ff" d="M586.22,-340.09C575.34,-332.15 559.77,-320.78 547.01,-311.46"/>
<polygon fill="#63b8ff" stroke="#63b8ff" points="549.28,-308.79 539.14,-305.72 545.15,-314.44 549.28,-308.79"/>
</a>
</g>
</g>
<!-- Node9 -->
<g id="Node000009" class="node">
<title>Node9</title>
<g id="a_Node000009"><a xlink:href="prog__args_8hpp.html" target="_top" xlink:title=" ">
<polygon fill="white" stroke="#666666" points="523.12,-191 438.12,-191 438.12,-170.25 523.12,-170.25 523.12,-191"/>
<text text-anchor="middle" x="480.62" y="-177.5" font-family="Helvetica,sans-Serif" font-size="10.00">prog_args.hpp</text>
</a>
</g>
</g>
<!-- Node2&#45;&gt;Node9 -->
<g id="edge8_Node000002_Node000009" class="edge">
<title>Node2&#45;&gt;Node9</title>
<g id="a_edge8_Node000002_Node000009"><a xlink:title=" ">
<path fill="none" stroke="#63b8ff" d="M594.64,-340.19C587.76,-327.06 574.71,-303.03 561.62,-283.75 540.88,-253.17 513.65,-220.05 496.64,-200.08"/>
<polygon fill="#63b8ff" stroke="#63b8ff" points="499.34,-197.85 490.17,-192.54 494.03,-202.41 499.34,-197.85"/>
</a>
</g>
</g>
<!-- Node16 -->
<g id="Node000016" class="node">
<title>Node16</title>
<g id="a_Node000016"><a xlink:title=" ">
<polygon fill="#e0e0e0" stroke="#999999" points="765.62,-134.25 665.62,-134.25 665.62,-113.5 765.62,-113.5 765.62,-134.25"/>
<text text-anchor="middle" x="715.62" y="-120.75" font-family="Helvetica,sans-Serif" font-size="10.00">savvy/reader.hpp</text>
</a>
</g>
</g>
<!-- Node2&#45;&gt;Node16 -->
<g id="edge62_Node000002_Node000016" class="edge">
<title>Node2&#45;&gt;Node16</title>
<g id="a_edge62_Node000002_Node000016"><a xlink:title=" ">
<path fill="none" stroke="#63b8ff" d="M599.48,-340.26C599.5,-311.57 603.05,-225.13 642.62,-170.25 652.08,-157.13 666.62,-146.99 680.23,-139.65"/>
<polygon fill="#63b8ff" stroke="#63b8ff" points="681.63,-142.87 689.01,-135.26 678.5,-136.61 681.63,-142.87"/>
</a>
</g>
</g>
<!-- Node20 -->
<g id="Node000020" class="node">
<title>Node20</title>
<g id="a_Node000020"><a xlink:href="input__prep_8hpp.html" target="_top" xlink:title=" ">
<polygon fill="white" stroke="#666666" points="773,-247.75 684.25,-247.75 684.25,-227 773,-227 773,-247.75"/>
<text text-anchor="middle" x="728.62" y="-234.25" font-family="Helvetica,sans-Serif" font-size="10.00">input_prep.hpp</text>
</a>
</g>
</g>
<!-- Node2&#45;&gt;Node20 -->
<g id="edge24_Node000002_Node000020" class="edge">
<title>Node2&#45;&gt;Node20</title>
<g id="a_edge24_Node000002_Node000020"><a xlink:title=" ">
<path fill="none" stroke="#63b8ff" d="M617.8,-340.16C632.75,-331.74 654.09,-318.7 670.62,-304.5 687.38,-290.11 703.71,-270.87 714.76,-256.86"/>
<polygon fill="#63b8ff" stroke="#63b8ff" points="717.24,-259.37 720.57,-249.32 711.69,-255.1 717.24,-259.37"/>
</a>
</g>
</g>
<!-- Node24 -->
<g id="Node000024" class="node">
<title>Node24</title>
<g id="a_Node000024"><a xlink:href="recombination_8hpp.html" target="_top" xlink:title=" ">
<polygon fill="white" stroke="#666666" points="891.38,-134.25 783.88,-134.25 783.88,-113.5 891.38,-113.5 891.38,-134.25"/>
<text text-anchor="middle" x="837.62" y="-120.75" font-family="Helvetica,sans-Serif" font-size="10.00">recombination.hpp</text>
</a>
</g>
</g>
<!-- Node2&#45;&gt;Node24 -->
<g id="edge54_Node000002_Node000024" class="edge">
<title>Node2&#45;&gt;Node24</title>
<g id="a_edge54_Node000002_Node000024"><a xlink:title=" ">
<path fill="none" stroke="#63b8ff" d="M603.73,-340.25C613.52,-318.13 640.13,-262.8 675.62,-227 714.34,-187.95 770.65,-156.73 805.66,-139.52"/>
<polygon fill="#63b8ff" stroke="#63b8ff" points="806.94,-142.79 814.43,-135.3 803.9,-136.48 806.94,-142.79"/>
</a>
</g>
</g>
<!-- Node28 -->
<g id="Node000028" class="node">
<title>Node28</title>
<g id="a_Node000028"><a xlink:title=" ">
<polygon fill="#e0e0e0" stroke="#999999" points="1383.12,-134.25 1286.12,-134.25 1286.12,-113.5 1383.12,-113.5 1383.12,-134.25"/>
<text text-anchor="middle" x="1334.62" y="-120.75" font-family="Helvetica,sans-Serif" font-size="10.00">savvy/writer.hpp</text>
</a>
</g>
</g>
<!-- Node2&#45;&gt;Node28 -->
<g id="edge63_Node000002_Node000028" class="edge">
<title>Node2&#45;&gt;Node28</title>
<g id="a_edge63_Node000002_Node000028"><a xlink:title=" ">
<path fill="none" stroke="#63b8ff" d="M644.91,-348.92C782.07,-345.18 1189.77,-327.44 1290.62,-247.75 1322.08,-222.9 1331.07,-173.72 1333.63,-145.7"/>
<polygon fill="#63b8ff" stroke="#63b8ff" points="1337.1,-146.21 1334.3,-135.99 1330.12,-145.72 1337.1,-146.21"/>
</a>
</g>
</g>
<!-- Node31 -->
<g id="Node000031" class="node">
<title>Node31</title>
<g id="a_Node000031"><a xlink:href="hidden__markov__model_8hpp.html" target="_top" xlink:title=" ">
<polygon fill="white" stroke="#666666" points="1281.62,-247.75 1133.62,-247.75 1133.62,-227 1281.62,-227 1281.62,-247.75"/>
<text text-anchor="middle" x="1207.62" y="-234.25" font-family="Helvetica,sans-Serif" font-size="10.00">hidden_markov_model.hpp</text>
</a>
</g>
</g>
<!-- Node2&#45;&gt;Node31 -->
<g id="edge48_Node000002_Node000031" class="edge">
<title>Node2&#45;&gt;Node31</title>
<g id="a_edge48_Node000002_Node000031"><a xlink:title=" ">
<path fill="none" stroke="#63b8ff" d="M645.08,-347.23C718.28,-342.38 866.5,-330.12 989.62,-304.5 1054.14,-291.08 1127.02,-267.12 1170.05,-252.02"/>
<polygon fill="#63b8ff" stroke="#63b8ff" points="1171.15,-255.34 1179.41,-248.71 1168.82,-248.74 1171.15,-255.34"/>
</a>
</g>
</g>
<!-- Node34 -->
<g id="Node000034" class="node">
<title>Node34</title>
<g id="a_Node000034"><a xlink:href="dosage__writer_8hpp.html" target="_top" xlink:title=" ">
<polygon fill="white" stroke="#666666" points="980.25,-304.5 875,-304.5 875,-283.75 980.25,-283.75 980.25,-304.5"/>
<text text-anchor="middle" x="927.62" y="-291" font-family="Helvetica,sans-Serif" font-size="10.00">dosage_writer.hpp</text>
</a>
</g>
</g>
<!-- Node2&#45;&gt;Node34 -->
<g id="edge55_Node000002_Node000034" class="edge">
<title>Node2&#45;&gt;Node34</title>
<g id="a_edge55_Node000002_Node000034"><a xlink:title=" ">
<path fill="none" stroke="#63b8ff" d="M645.23,-342.26C701.94,-332.8 799.09,-316.58 863.33,-305.86"/>
<polygon fill="#63b8ff" stroke="#63b8ff" points="863.75,-309.34 873.04,-304.24 862.6,-302.43 863.75,-309.34"/>
</a>
</g>
</g>
<!-- Node36 -->
<g id="Node000036" class="node">
<title>Node36</title>
<g id="a_Node000036"><a xlink:title=" ">
<polygon fill="#e0e0e0" stroke="#999999" points="1446,-304.5 1387.25,-304.5 1387.25,-283.75 1446,-283.75 1446,-304.5"/>
<text text-anchor="middle" x="1416.62" y="-291" font-family="Helvetica,sans-Serif" font-size="10.00">omp.hpp</text>
</a>
</g>
</g>
<!-- Node2&#45;&gt;Node36 -->
<g id="edge64_Node000002_Node000036" class="edge">
<title>Node2&#45;&gt;Node36</title>
<g id="a_edge64_Node000002_Node000036"><a xlink:title=" ">
<path fill="none" stroke="#63b8ff" d="M645.23,-349.68C765.14,-348.63 1098.92,-342.26 1373.62,-304.5 1374.45,-304.39 1375.28,-304.27 1376.12,-304.14"/>
<polygon fill="#63b8ff" stroke="#63b8ff" points="1376.4,-307.64 1385.63,-302.46 1375.18,-300.75 1376.4,-307.64"/>
</a>
</g>
</g>
<!-- Node9&#45;&gt;Node7 -->
<g id="edge22_Node000009_Node000007" class="edge">
<title>Node9&#45;&gt;Node7</title>
<g id="a_edge22_Node000009_Node000007"><a xlink:title=" ">
<path fill="none" stroke="#63b8ff" d="M437.69,-172.45C432.95,-171.69 428.19,-170.94 423.62,-170.25 312.31,-153.36 280.57,-156.7 167.29,-134.59"/>
<polygon fill="#63b8ff" stroke="#63b8ff" points="168.04,-131.17 157.55,-132.67 166.68,-138.04 168.04,-131.17"/>
</a>
</g>
</g>
<!-- Node10 -->
<g id="Node000010" class="node">
<title>Node10</title>
<g id="a_Node000010"><a xlink:href="getopt__wrapper_8hpp.html" target="_top" xlink:title=" ">
<polygon fill="white" stroke="#666666" points="434,-77.5 321.25,-77.5 321.25,-56.75 434,-56.75 434,-77.5"/>
<text text-anchor="middle" x="377.62" y="-64" font-family="Helvetica,sans-Serif" font-size="10.00">getopt_wrapper.hpp</text>
</a>
</g>
</g>
<!-- Node9&#45;&gt;Node10 -->
<g id="edge9_Node000009_Node000010" class="edge">
<title>Node9&#45;&gt;Node10</title>
<g id="a_edge9_Node000009_Node000010"><a xlink:title=" ">
<path fill="none" stroke="#63b8ff" d="M471.84,-170.12C454.67,-151.53 416.41,-110.11 394.29,-86.16"/>
<polygon fill="#63b8ff" stroke="#63b8ff" points="397.06,-84.01 387.71,-79.04 391.92,-88.76 397.06,-84.01"/>
</a>
</g>
</g>
<!-- Node11 -->
<g id="Node000011" class="node">
<title>Node11</title>
<g id="a_Node000011"><a xlink:title=" ">
<polygon fill="#e0e0e0" stroke="#999999" points="587.12,-20.75 538.12,-20.75 538.12,0 587.12,0 587.12,-20.75"/>
<text text-anchor="middle" x="562.62" y="-7.25" font-family="Helvetica,sans-Serif" font-size="10.00">cstdint</text>
</a>
</g>
</g>
<!-- Node9&#45;&gt;Node11 -->
<g id="edge20_Node000009_Node000011" class="edge">
<title>Node9&#45;&gt;Node11</title>
<g id="a_edge20_Node000009_Node000011"><a xlink:title=" ">
<path fill="none" stroke="#63b8ff" d="M478.09,-169.82C472.98,-147.78 463.69,-93.39 485.62,-56.75 494.95,-41.17 511.84,-30.36 527.42,-23.2"/>
<polygon fill="#63b8ff" stroke="#63b8ff" points="528.63,-26.49 536.5,-19.41 525.92,-20.04 528.63,-26.49"/>
</a>
</g>
</g>
<!-- Node12 -->
<g id="Node000012" class="node">
<title>Node12</title>
<g id="a_Node000012"><a xlink:title=" ">
<polygon fill="#e0e0e0" stroke="#999999" points="648.5,-20.75 604.75,-20.75 604.75,0 648.5,0 648.5,-20.75"/>
<text text-anchor="middle" x="626.62" y="-7.25" font-family="Helvetica,sans-Serif" font-size="10.00">string</text>
</a>
</g>
</g>
<!-- Node9&#45;&gt;Node12 -->
<g id="edge17_Node000009_Node000012" class="edge">
<title>Node9&#45;&gt;Node12</title>
<g id="a_edge17_Node000009_Node000012"><a xlink:title=" ">
<path fill="none" stroke="#63b8ff" d="M481.42,-170C483.78,-147.4 492.63,-90.27 523.62,-56.75 533.61,-45.95 567.45,-32.17 593.65,-22.64"/>
<polygon fill="#63b8ff" stroke="#63b8ff" points="594.65,-26 602.89,-19.35 592.3,-19.41 594.65,-26"/>
</a>
</g>
</g>
<!-- Node14 -->
<g id="Node000014" class="node">
<title>Node14</title>
<g id="a_Node000014"><a xlink:title=" ">
<polygon fill="#e0e0e0" stroke="#999999" points="970,-20.75 923.25,-20.75 923.25,0 970,0 970,-20.75"/>
<text text-anchor="middle" x="946.62" y="-7.25" font-family="Helvetica,sans-Serif" font-size="10.00">vector</text>
</a>
</g>
</g>
<!-- Node9&#45;&gt;Node14 -->
<g id="edge18_Node000009_Node000014" class="edge">
<title>Node9&#45;&gt;Node14</title>
<g id="a_edge18_Node000009_Node000014"><a xlink:title=" ">
<path fill="none" stroke="#63b8ff" d="M489.04,-169.9C510.33,-146.03 569.19,-84.45 632.62,-56.75 727.31,-15.41 851.82,-10.29 911.61,-10.51"/>
<polygon fill="#63b8ff" stroke="#63b8ff" points="911.47,-14.01 921.51,-10.6 911.54,-7.01 911.47,-14.01"/>
</a>
</g>
</g>
<!-- Node9&#45;&gt;Node16 -->
<g id="edge16_Node000009_Node000016" class="edge">
<title>Node9&#45;&gt;Node16</title>
<g id="a_edge16_Node000009_Node000016"><a xlink:title=" ">
<path fill="none" stroke="#63b8ff" d="M522.91,-169.77C561.89,-160.69 619.91,-147.17 662.11,-137.34"/>
<polygon fill="#63b8ff" stroke="#63b8ff" points="662.86,-140.76 671.81,-135.08 661.28,-133.94 662.86,-140.76"/>
</a>
</g>
</g>
<!-- Node17 -->
<g id="Node000017" class="node">
<title>Node17</title>
<g id="a_Node000017"><a xlink:title=" ">
<polygon fill="#e0e0e0" stroke="#999999" points="259.5,-134.25 173.75,-134.25 173.75,-113.5 259.5,-113.5 259.5,-134.25"/>
<text text-anchor="middle" x="216.62" y="-120.75" font-family="Helvetica,sans-Serif" font-size="10.00">unordered_set</text>
</a>
</g>
</g>
<!-- Node9&#45;&gt;Node17 -->
<g id="edge19_Node000009_Node000017" class="edge">
<title>Node9&#45;&gt;Node17</title>
<g id="a_edge19_Node000009_Node000017"><a xlink:title=" ">
<path fill="none" stroke="#63b8ff" d="M437.92,-170.77C392.43,-161.33 320.3,-146.38 270.84,-136.12"/>
<polygon fill="#63b8ff" stroke="#63b8ff" points="271.7,-132.72 261.19,-134.12 270.27,-139.58 271.7,-132.72"/>
</a>
</g>
</g>
<!-- Node18 -->
<g id="Node000018" class="node">
<title>Node18</title>
<g id="a_Node000018"><a xlink:title=" ">
<polygon fill="#e0e0e0" stroke="#999999" points="325.75,-134.25 277.5,-134.25 277.5,-113.5 325.75,-113.5 325.75,-134.25"/>
<text text-anchor="middle" x="301.62" y="-120.75" font-family="Helvetica,sans-Serif" font-size="10.00">cstdlib</text>
</a>
</g>
</g>
<!-- Node9&#45;&gt;Node18 -->
<g id="edge21_Node000009_Node000018" class="edge">
<title>Node9&#45;&gt;Node18</title>
<g id="a_edge21_Node000009_Node000018"><a xlink:title=" ">
<path fill="none" stroke="#63b8ff" d="M448.62,-169.84C417.23,-160.23 369.47,-145.63 336.97,-135.69"/>
<polygon fill="#63b8ff" stroke="#63b8ff" points="338.2,-132.4 327.61,-132.82 336.15,-139.1 338.2,-132.4"/>
</a>
</g>
</g>
<!-- Node19 -->
<g id="Node000019" class="node">
<title>Node19</title>
<g id="a_Node000019"><a xlink:title=" ">
<polygon fill="#e0e0e0" stroke="#999999" points="395.62,-134.25 343.62,-134.25 343.62,-113.5 395.62,-113.5 395.62,-134.25"/>
<text text-anchor="middle" x="369.62" y="-120.75" font-family="Helvetica,sans-Serif" font-size="10.00">iterator</text>
</a>
</g>
</g>
<!-- Node9&#45;&gt;Node19 -->
<g id="edge23_Node000009_Node000019" class="edge">
<title>Node9&#45;&gt;Node19</title>
<g id="a_edge23_Node000009_Node000019"><a xlink:title=" ">
<path fill="none" stroke="#63b8ff" d="M460.78,-169.84C443.73,-161.43 418.9,-149.18 399.46,-139.59"/>
<polygon fill="#63b8ff" stroke="#63b8ff" points="401.17,-136.53 390.66,-135.25 398.08,-142.81 401.17,-136.53"/>
</a>
</g>
</g>
<!-- Node10&#45;&gt;Node4 -->
<g id="edge14_Node000010_Node000004" class="edge">
<title>Node10&#45;&gt;Node4</title>
<g id="a_edge14_Node000010_Node000004"><a xlink:title=" ">
<path fill="none" stroke="#63b8ff" d="M340.44,-56.34C304.01,-46.75 248.62,-32.17 210.86,-22.23"/>
<polygon fill="#63b8ff" stroke="#63b8ff" points="211.77,-18.85 201.21,-19.69 209.99,-25.62 211.77,-18.85"/>
</a>
</g>
</g>
<!-- Node10&#45;&gt;Node11 -->
<g id="edge10_Node000010_Node000011" class="edge">
<title>Node10&#45;&gt;Node11</title>
<g id="a_edge10_Node000010_Node000011"><a xlink:title=" ">
<path fill="none" stroke="#63b8ff" d="M410.7,-56.34C443.47,-46.64 493.51,-31.83 527.11,-21.89"/>
<polygon fill="#63b8ff" stroke="#63b8ff" points="527.78,-25.34 536.38,-19.14 525.79,-18.63 527.78,-25.34"/>
</a>
</g>
</g>
<!-- Node10&#45;&gt;Node12 -->
<g id="edge11_Node000010_Node000012" class="edge">
<title>Node10&#45;&gt;Node12</title>
<g id="a_edge11_Node000010_Node000012"><a xlink:title=" ">
<path fill="none" stroke="#63b8ff" d="M432.42,-56.32C474.32,-48.48 533.72,-36.61 593.29,-21.45"/>
<polygon fill="#63b8ff" stroke="#63b8ff" points="594.14,-24.85 602.95,-18.96 592.39,-18.07 594.14,-24.85"/>
</a>
</g>
</g>
<!-- Node13 -->
<g id="Node000013" class="node">
<title>Node13</title>
<g id="a_Node000013"><a xlink:title=" ">
<polygon fill="#e0e0e0" stroke="#999999" points="437.12,-20.75 388.12,-20.75 388.12,0 437.12,0 437.12,-20.75"/>
<text text-anchor="middle" x="412.62" y="-7.25" font-family="Helvetica,sans-Serif" font-size="10.00">cstring</text>
</a>
</g>
</g>
<!-- Node10&#45;&gt;Node13 -->
<g id="edge12_Node000010_Node000013" class="edge">
<title>Node10&#45;&gt;Node13</title>
<g id="a_edge12_Node000010_Node000013"><a xlink:title=" ">
<path fill="none" stroke="#63b8ff" d="M383.88,-56.34C388.46,-49.17 394.82,-39.23 400.39,-30.51"/>
<polygon fill="#63b8ff" stroke="#63b8ff" points="403.17,-32.66 405.61,-22.35 397.27,-28.89 403.17,-32.66"/>
</a>
</g>
</g>
<!-- Node10&#45;&gt;Node14 -->
<g id="edge13_Node000010_Node000014" class="edge">
<title>Node10&#45;&gt;Node14</title>
<g id="a_edge13_Node000010_Node000014"><a xlink:title=" ">
<path fill="none" stroke="#63b8ff" d="M434.26,-60.68C551.12,-49.43 816,-23.94 911.48,-14.76"/>
<polygon fill="#63b8ff" stroke="#63b8ff" points="911.65,-18.26 921.27,-13.81 910.98,-11.29 911.65,-18.26"/>
</a>
</g>
</g>
<!-- Node15 -->
<g id="Node000015" class="node">
<title>Node15</title>
<g id="a_Node000015"><a xlink:title=" ">
<polygon fill="#e0e0e0" stroke="#999999" points="369.88,-20.75 313.38,-20.75 313.38,0 369.88,0 369.88,-20.75"/>
<text text-anchor="middle" x="341.62" y="-7.25" font-family="Helvetica,sans-Serif" font-size="10.00">getopt.h</text>
</a>
</g>
</g>
<!-- Node10&#45;&gt;Node15 -->
<g id="edge15_Node000010_Node000015" class="edge">
<title>Node10&#45;&gt;Node15</title>
<g id="a_edge15_Node000010_Node000015"><a xlink:title=" ">
<path fill="none" stroke="#63b8ff" d="M371.19,-56.34C366.48,-49.17 359.94,-39.23 354.21,-30.51"/>
<polygon fill="#63b8ff" stroke="#63b8ff" points="357.26,-28.78 348.84,-22.34 351.41,-32.62 357.26,-28.78"/>
</a>
</g>
</g>
<!-- Node20&#45;&gt;Node16 -->
<g id="edge47_Node000020_Node000016" class="edge">
<title>Node20&#45;&gt;Node16</title>
<g id="a_edge47_Node000020_Node000016"><a xlink:title=" ">
<path fill="none" stroke="#63b8ff" d="M727.52,-226.87C725.44,-209.02 720.9,-170.11 718.07,-145.84"/>
<polygon fill="#63b8ff" stroke="#63b8ff" points="721.58,-145.71 716.94,-136.18 714.62,-146.52 721.58,-145.71"/>
</a>
</g>
</g>
<!-- Node21 -->
<g id="Node000021" class="node">
<title>Node21</title>
<g id="a_Node000021"><a xlink:href="unique__haplotype_8hpp.html" target="_top" xlink:title=" ">
<polygon fill="white" stroke="#666666" points="1079.62,-191 955.62,-191 955.62,-170.25 1079.62,-170.25 1079.62,-191"/>
<text text-anchor="middle" x="1017.62" y="-177.5" font-family="Helvetica,sans-Serif" font-size="10.00">unique_haplotype.hpp</text>
</a>
</g>
</g>
<!-- Node20&#45;&gt;Node21 -->
<g id="edge25_Node000020_Node000021" class="edge">
<title>Node20&#45;&gt;Node21</title>
<g id="a_edge25_Node000020_Node000021"><a xlink:title=" ">
<path fill="none" stroke="#63b8ff" d="M773.46,-227.88C821.94,-218.7 899.59,-203.99 954.28,-193.62"/>
<polygon fill="#63b8ff" stroke="#63b8ff" points="954.93,-197.07 964.1,-191.77 953.62,-190.19 954.93,-197.07"/>
</a>
</g>
</g>
<!-- Node21&#45;&gt;Node11 -->
<g id="edge41_Node000021_Node000011" class="edge">
<title>Node21&#45;&gt;Node11</title>
<g id="a_edge41_Node000021_Node000011"><a xlink:title=" ">
<path fill="none" stroke="#63b8ff" d="M1013.78,-169.81C1003.76,-145.73 974.35,-83.71 927.62,-56.75 866.17,-21.29 685.34,-33.7 598.71,-20.83"/>
<polygon fill="#63b8ff" stroke="#63b8ff" points="599.32,-17.39 588.87,-19.15 598.14,-24.29 599.32,-17.39"/>
</a>
</g>
</g>
<!-- Node21&#45;&gt;Node12 -->
<g id="edge42_Node000021_Node000012" class="edge">
<title>Node21&#45;&gt;Node12</title>
<g id="a_edge42_Node000021_Node000012"><a xlink:title=" ">
<path fill="none" stroke="#63b8ff" d="M1025.09,-169.77C1044.06,-144.68 1092.73,-80.2 1093.62,-77.5 1096.52,-68.75 1099.82,-63.58 1093.62,-56.75 1064.56,-24.72 762.34,-14.61 660.17,-12.09"/>
<polygon fill="#63b8ff" stroke="#63b8ff" points="660.32,-8.59 650.24,-11.85 660.16,-15.59 660.32,-8.59"/>
</a>
</g>
</g>
<!-- Node21&#45;&gt;Node14 -->
<g id="edge43_Node000021_Node000014" class="edge">
<title>Node21&#45;&gt;Node14</title>
<g id="a_edge43_Node000021_Node000014"><a xlink:title=" ">
<path fill="none" stroke="#63b8ff" d="M1077.91,-169.83C1098.45,-163.3 1119.31,-152.41 1131.62,-134.25 1141.17,-120.17 1145.36,-78.73 1126.62,-56.75 1108.03,-34.93 1028.33,-21.52 981.45,-15.37"/>
<polygon fill="#63b8ff" stroke="#63b8ff" points="982.16,-11.94 971.8,-14.16 981.28,-18.88 982.16,-11.94"/>
</a>
</g>
</g>
<!-- Node21&#45;&gt;Node16 -->
<g id="edge39_Node000021_Node000016" class="edge">
<title>Node21&#45;&gt;Node16</title>
<g id="a_edge39_Node000021_Node000016"><a xlink:title=" ">
<path fill="none" stroke="#63b8ff" d="M963.28,-169.77C910.97,-160.29 831.94,-145.96 777.29,-136.05"/>
<polygon fill="#63b8ff" stroke="#63b8ff" points="777.97,-132.62 767.5,-134.28 776.72,-139.51 777.97,-132.62"/>
</a>
</g>
</g>
<!-- Node22 -->
<g id="Node000022" class="node">
<title>Node22</title>
<g id="a_Node000022"><a xlink:href="variant_8hpp.html" target="_top" xlink:title=" ">
<polygon fill="white" stroke="#666666" points="1084.38,-77.5 1012.88,-77.5 1012.88,-56.75 1084.38,-56.75 1084.38,-77.5"/>
<text text-anchor="middle" x="1048.62" y="-64" font-family="Helvetica,sans-Serif" font-size="10.00">variant.hpp</text>
</a>
</g>
</g>
<!-- Node21&#45;&gt;Node22 -->
<g id="edge26_Node000021_Node000022" class="edge">
<title>Node21&#45;&gt;Node22</title>
<g id="a_edge26_Node000021_Node000022"><a xlink:title=" ">
<path fill="none" stroke="#63b8ff" d="M1019.91,-170.17C1023.04,-157.3 1028.95,-133.58 1034.62,-113.5 1036.92,-105.38 1039.62,-96.5 1042.03,-88.76"/>
<polygon fill="#63b8ff" stroke="#63b8ff" points="1045.36,-89.85 1045.03,-79.26 1038.68,-87.75 1045.36,-89.85"/>
</a>
</g>
</g>
<!-- Node23 -->
<g id="Node000023" class="node">
<title>Node23</title>
<g id="a_Node000023"><a xlink:title=" ">
<polygon fill="#e0e0e0" stroke="#999999" points="1140.5,-20.75 1096.75,-20.75 1096.75,0 1140.5,0 1140.5,-20.75"/>
<text text-anchor="middle" x="1118.62" y="-7.25" font-family="Helvetica,sans-Serif" font-size="10.00">limits</text>
</a>
</g>
</g>
<!-- Node21&#45;&gt;Node23 -->
<g id="edge45_Node000021_Node000023" class="edge">
<title>Node21&#45;&gt;Node23</title>
<g id="a_edge45_Node000021_Node000023"><a xlink:title=" ">
<path fill="none" stroke="#63b8ff" d="M1079.82,-173.71C1105.48,-167.84 1132.85,-156.41 1148.62,-134.25 1171.12,-102.65 1148.28,-56.15 1131.97,-30.36"/>
<polygon fill="#63b8ff" stroke="#63b8ff" points="1135.02,-28.63 1126.57,-22.23 1129.19,-32.5 1135.02,-28.63"/>
</a>
</g>
</g>
<!-- Node21&#45;&gt;Node24 -->
<g id="edge31_Node000021_Node000024" class="edge">
<title>Node21&#45;&gt;Node24</title>
<g id="a_edge31_Node000021_Node000024"><a xlink:title=" ">
<path fill="none" stroke="#63b8ff" d="M985.44,-169.84C956.23,-160.95 912.91,-147.77 880.71,-137.98"/>
<polygon fill="#63b8ff" stroke="#63b8ff" points="881.86,-134.67 871.28,-135.11 879.83,-141.37 881.86,-134.67"/>
</a>
</g>
</g>
<!-- Node21&#45;&gt;Node28 -->
<g id="edge40_Node000021_Node000028" class="edge">
<title>Node21&#45;&gt;Node28</title>
<g id="a_edge40_Node000021_Node000028"><a xlink:title=" ">
<path fill="none" stroke="#63b8ff" d="M1074.66,-169.77C1131.15,-160.02 1217.29,-145.14 1274.74,-135.22"/>
<polygon fill="#63b8ff" stroke="#63b8ff" points="1275.09,-138.71 1284.34,-133.56 1273.89,-131.81 1275.09,-138.71"/>
</a>
</g>
</g>
<!-- Node29 -->
<g id="Node000029" class="node">
<title>Node29</title>
<g id="a_Node000029"><a xlink:title=" ">
<polygon fill="#e0e0e0" stroke="#999999" points="1122.62,-134.25 1076.62,-134.25 1076.62,-113.5 1122.62,-113.5 1122.62,-134.25"/>
<text text-anchor="middle" x="1099.62" y="-120.75" font-family="Helvetica,sans-Serif" font-size="10.00">deque</text>
</a>
</g>
</g>
<!-- Node21&#45;&gt;Node29 -->
<g id="edge44_Node000021_Node000029" class="edge">
<title>Node21&#45;&gt;Node29</title>
<g id="a_edge44_Node000021_Node000029"><a xlink:title=" ">
<path fill="none" stroke="#63b8ff" d="M1032.28,-169.84C1044.3,-161.82 1061.54,-150.31 1075.56,-140.94"/>
<polygon fill="#63b8ff" stroke="#63b8ff" points="1077.46,-143.88 1083.83,-135.42 1073.57,-138.06 1077.46,-143.88"/>
</a>
</g>
</g>
<!-- Node30 -->
<g id="Node000030" class="node">
<title>Node30</title>
<g id="a_Node000030"><a xlink:title=" ">
<polygon fill="#e0e0e0" stroke="#999999" points="1268.25,-134.25 1217,-134.25 1217,-113.5 1268.25,-113.5 1268.25,-134.25"/>
<text text-anchor="middle" x="1242.62" y="-120.75" font-family="Helvetica,sans-Serif" font-size="10.00">cassert</text>
</a>
</g>
</g>
<!-- Node21&#45;&gt;Node30 -->
<g id="edge46_Node000021_Node000030" class="edge">
<title>Node21&#45;&gt;Node30</title>
<g id="a_edge46_Node000021_Node000030"><a xlink:title=" ">
<path fill="none" stroke="#63b8ff" d="M1058.11,-169.77C1100,-159.58 1164.87,-143.79 1205.49,-133.91"/>
<polygon fill="#63b8ff" stroke="#63b8ff" points="1206.15,-137.35 1215.04,-131.59 1204.49,-130.55 1206.15,-137.35"/>
</a>
</g>
</g>
<!-- Node22&#45;&gt;Node11 -->
<g id="edge29_Node000022_Node000011" class="edge">
<title>Node22&#45;&gt;Node11</title>
<g id="a_edge29_Node000022_Node000011"><a xlink:title=" ">
<path fill="none" stroke="#63b8ff" d="M1012.64,-58.95C1007.94,-58.14 1003.17,-57.38 998.62,-56.75 824.14,-32.66 774.47,-52.61 598.59,-21"/>
<polygon fill="#63b8ff" stroke="#63b8ff" points="599.33,-17.58 588.86,-19.22 598.07,-24.46 599.33,-17.58"/>
</a>
</g>
</g>
<!-- Node22&#45;&gt;Node12 -->
<g id="edge27_Node000022_Node000012" class="edge">
<title>Node22&#45;&gt;Node12</title>
<g id="a_edge27_Node000022_Node000012"><a xlink:title=" ">
<path fill="none" stroke="#63b8ff" d="M1012.62,-59.09C1007.92,-58.25 1003.16,-57.45 998.62,-56.75 874.23,-37.52 725.41,-21.44 660.11,-14.73"/>
<polygon fill="#63b8ff" stroke="#63b8ff" points="660.73,-11.28 650.42,-13.74 660.01,-18.24 660.73,-11.28"/>
</a>
</g>
</g>
<!-- Node22&#45;&gt;Node14 -->
<g id="edge28_Node000022_Node000014" class="edge">
<title>Node22&#45;&gt;Node14</title>
<g id="a_edge28_Node000022_Node000014"><a xlink:title=" ">
<path fill="none" stroke="#63b8ff" d="M1030.39,-56.34C1014.94,-48.05 992.54,-36.02 974.79,-26.49"/>
<polygon fill="#63b8ff" stroke="#63b8ff" points="976.5,-23.44 966.04,-21.79 973.19,-29.61 976.5,-23.44"/>
</a>
</g>
</g>
<!-- Node22&#45;&gt;Node23 -->
<g id="edge30_Node000022_Node000023" class="edge">
<title>Node22&#45;&gt;Node23</title>
<g id="a_edge30_Node000022_Node000023"><a xlink:title=" ">
<path fill="none" stroke="#63b8ff" d="M1061.14,-56.34C1071.19,-48.47 1085.54,-37.25 1097.38,-27.99"/>
<polygon fill="#63b8ff" stroke="#63b8ff" points="1099.31,-30.93 1105.03,-22.01 1094.99,-25.41 1099.31,-30.93"/>
</a>
</g>
</g>
<!-- Node24&#45;&gt;Node11 -->
<g id="edge36_Node000024_Node000011" class="edge">
<title>Node24&#45;&gt;Node11</title>
<g id="a_edge36_Node000024_Node000011"><a xlink:title=" ">
<path fill="none" stroke="#63b8ff" d="M783.55,-113.49C723.66,-102.81 633.66,-85.76 619.62,-77.5 600.31,-66.13 584.29,-45.83 574.21,-30.71"/>
<polygon fill="#63b8ff" stroke="#63b8ff" points="577.32,-29.09 569.01,-22.53 571.41,-32.84 577.32,-29.09"/>
</a>
</g>
</g>
<!-- Node24&#45;&gt;Node12 -->
<g id="edge34_Node000024_Node000012" class="edge">
<title>Node24&#45;&gt;Node12</title>
<g id="a_edge34_Node000024_Node000012"><a xlink:title=" ">
<path fill="none" stroke="#63b8ff" d="M783.39,-114.25C726.1,-104.61 642.63,-88.87 632.62,-77.5 621.9,-65.32 621.16,-46.54 622.66,-32.1"/>
<polygon fill="#63b8ff" stroke="#63b8ff" points="626.11,-32.72 624.14,-22.31 619.19,-31.67 626.11,-32.72"/>
</a>
</g>
</g>
<!-- Node24&#45;&gt;Node14 -->
<g id="edge35_Node000024_Node000014" class="edge">
<title>Node24&#45;&gt;Node14</title>
<g id="a_edge35_Node000024_Node000014"><a xlink:title=" ">
<path fill="none" stroke="#63b8ff" d="M871.91,-113.12C890.84,-106.09 913.34,-94.75 927.62,-77.5 938.23,-64.69 942.92,-46.26 944.99,-32.11"/>
<polygon fill="#63b8ff" stroke="#63b8ff" points="948.43,-32.85 946.06,-22.52 941.48,-32.08 948.43,-32.85"/>
</a>
</g>
</g>
<!-- Node24&#45;&gt;Node22 -->
<g id="edge32_Node000024_Node000022" class="edge">
<title>Node24&#45;&gt;Node22</title>
<g id="a_edge32_Node000024_Node000022"><a xlink:title=" ">
<path fill="none" stroke="#63b8ff" d="M875.35,-113.09C910.73,-103.9 963.76,-90.14 1001.83,-80.27"/>
<polygon fill="#63b8ff" stroke="#63b8ff" points="1002.37,-83.74 1011.17,-77.84 1000.61,-76.97 1002.37,-83.74"/>
</a>
</g>
</g>
<!-- Node25 -->
<g id="Node000025" class="node">
<title>Node25</title>
<g id="a_Node000025"><a xlink:title=" ">
<polygon fill="#e0e0e0" stroke="#999999" points="773.38,-77.5 641.88,-77.5 641.88,-56.75 773.38,-56.75 773.38,-77.5"/>
<text text-anchor="middle" x="707.62" y="-64" font-family="Helvetica,sans-Serif" font-size="10.00">shrinkwrap/istream.hpp</text>
</a>
</g>
</g>
<!-- Node24&#45;&gt;Node25 -->
<g id="edge33_Node000024_Node000025" class="edge">
<title>Node24&#45;&gt;Node25</title>
<g id="a_edge33_Node000024_Node000025"><a xlink:title=" ">
<path fill="none" stroke="#63b8ff" d="M814.38,-113.09C793.96,-104.48 763.99,-91.86 741,-82.18"/>
<polygon fill="#63b8ff" stroke="#63b8ff" points="742.63,-79.07 732.06,-78.42 739.92,-85.52 742.63,-79.07"/>
</a>
</g>
</g>
<!-- Node26 -->
<g id="Node000026" class="node">
<title>Node26</title>
<g id="a_Node000026"><a xlink:title=" ">
<polygon fill="#e0e0e0" stroke="#999999" points="854.25,-77.5 791,-77.5 791,-56.75 854.25,-56.75 854.25,-77.5"/>
<text text-anchor="middle" x="822.62" y="-64" font-family="Helvetica,sans-Serif" font-size="10.00">algorithm</text>
</a>
</g>
</g>
<!-- Node24&#45;&gt;Node26 -->
<g id="edge37_Node000024_Node000026" class="edge">
<title>Node24&#45;&gt;Node26</title>
<g id="a_edge37_Node000024_Node000026"><a xlink:title=" ">
<path fill="none" stroke="#63b8ff" d="M834.94,-113.09C833.09,-106.31 830.55,-97.05 828.26,-88.69"/>
<polygon fill="#63b8ff" stroke="#63b8ff" points="831.7,-88.01 825.68,-79.29 824.95,-89.86 831.7,-88.01"/>
</a>
</g>
</g>
<!-- Node27 -->
<g id="Node000027" class="node">
<title>Node27</title>
<g id="a_Node000027"><a xlink:title=" ">
<polygon fill="#e0e0e0" stroke="#999999" points="919,-77.5 872.25,-77.5 872.25,-56.75 919,-56.75 919,-77.5"/>
<text text-anchor="middle" x="895.62" y="-64" font-family="Helvetica,sans-Serif" font-size="10.00">cmath</text>
</a>
</g>
</g>
<!-- Node24&#45;&gt;Node27 -->
<g id="edge38_Node000024_Node000027" class="edge">
<title>Node24&#45;&gt;Node27</title>
<g id="a_edge38_Node000024_Node000027"><a xlink:title=" ">
<path fill="none" stroke="#63b8ff" d="M847.99,-113.09C856.08,-105.46 867.51,-94.67 877.15,-85.57"/>
<polygon fill="#63b8ff" stroke="#63b8ff" points="879.38,-88.28 884.24,-78.87 874.57,-83.19 879.38,-88.28"/>
</a>
</g>
</g>
<!-- Node31&#45;&gt;Node21 -->
<g id="edge49_Node000031_Node000021" class="edge">
<title>Node31&#45;&gt;Node21</title>
<g id="a_edge49_Node000031_Node000021"><a xlink:title=" ">
<path fill="none" stroke="#63b8ff" d="M1173.66,-226.59C1142.68,-217.66 1096.69,-204.41 1062.66,-194.6"/>
<polygon fill="#63b8ff" stroke="#63b8ff" points="1063.65,-191.25 1053.07,-191.84 1061.71,-197.97 1063.65,-191.25"/>
</a>
</g>
</g>
<!-- Node31&#45;&gt;Node22 -->
<g id="edge50_Node000031_Node000022" class="edge">
<title>Node31&#45;&gt;Node22</title>
<g id="a_edge50_Node000031_Node000022"><a xlink:title=" ">
<path fill="none" stroke="#63b8ff" d="M1194.4,-226.5C1177.83,-212.94 1153.32,-188.21 1168.62,-170.25 1235.24,-92.08 1460.33,-190.72 1392.62,-113.5 1373.36,-91.53 1185.75,-76.8 1096,-70.95"/>
<polygon fill="#63b8ff" stroke="#63b8ff" points="1096.5,-67.48 1086.29,-70.33 1096.05,-74.47 1096.5,-67.48"/>
</a>
</g>
</g>
<!-- Node31&#45;&gt;Node30 -->
<g id="edge52_Node000031_Node000030" class="edge">
<title>Node31&#45;&gt;Node30</title>
<g id="a_edge52_Node000031_Node000030"><a xlink:title=" ">
<path fill="none" stroke="#63b8ff" d="M1251.64,-226.6C1270.75,-219.93 1291.32,-208.93 1302.62,-191 1314.7,-171.84 1293.46,-153.02 1272.99,-140.38"/>
<polygon fill="#63b8ff" stroke="#63b8ff" points="1274.87,-137.43 1264.46,-135.46 1271.37,-143.49 1274.87,-137.43"/>
</a>
</g>
</g>
<!-- Node32 -->
<g id="Node000032" class="node">
<title>Node32</title>
<g id="a_Node000032"><a xlink:title=" ">
<polygon fill="#e0e0e0" stroke="#999999" points="1293.38,-191 1251.88,-191 1251.88,-170.25 1293.38,-170.25 1293.38,-191"/>
<text text-anchor="middle" x="1272.62" y="-177.5" font-family="Helvetica,sans-Serif" font-size="10.00">array</text>
</a>
</g>
</g>
<!-- Node31&#45;&gt;Node32 -->
<g id="edge51_Node000031_Node000032" class="edge">
<title>Node31&#45;&gt;Node32</title>
<g id="a_edge51_Node000031_Node000032"><a xlink:title=" ">
<path fill="none" stroke="#63b8ff" d="M1219.25,-226.59C1228.49,-218.8 1241.64,-207.72 1252.57,-198.51"/>
<polygon fill="#63b8ff" stroke="#63b8ff" points="1254.55,-201.42 1259.95,-192.3 1250.04,-196.07 1254.55,-201.42"/>
</a>
</g>
</g>
<!-- Node33 -->
<g id="Node000033" class="node">
<title>Node33</title>
<g id="a_Node000033"><a xlink:title=" ">
<polygon fill="#e0e0e0" stroke="#999999" points="1233.5,-191 1177.75,-191 1177.75,-170.25 1233.5,-170.25 1233.5,-191"/>
<text text-anchor="middle" x="1205.62" y="-177.5" font-family="Helvetica,sans-Serif" font-size="10.00">numeric</text>
</a>
</g>
</g>
<!-- Node31&#45;&gt;Node33 -->
<g id="edge53_Node000031_Node000033" class="edge">
<title>Node31&#45;&gt;Node33</title>
<g id="a_edge53_Node000031_Node000033"><a xlink:title=" ">
<path fill="none" stroke="#63b8ff" d="M1207.27,-226.59C1207.03,-219.97 1206.7,-210.97 1206.4,-202.77"/>
<polygon fill="#63b8ff" stroke="#63b8ff" points="1209.9,-202.71 1206.03,-192.84 1202.9,-202.96 1209.9,-202.71"/>
</a>
</g>
</g>
<!-- Node34&#45;&gt;Node16 -->
<g id="edge59_Node000034_Node000016" class="edge">
<title>Node34&#45;&gt;Node16</title>
<g id="a_edge59_Node000034_Node000016"><a xlink:title=" ">
<path fill="none" stroke="#63b8ff" d="M900.8,-283.38C880.94,-275.46 853.78,-263.1 832.62,-247.75 790.13,-216.92 750.1,-169.46 729.69,-143.47"/>
<polygon fill="#63b8ff" stroke="#63b8ff" points="732.68,-141.61 723.8,-135.84 727.14,-145.89 732.68,-141.61"/>
</a>
</g>
</g>
<!-- Node34&#45;&gt;Node21 -->
<g id="edge57_Node000034_Node000021" class="edge">
<title>Node34&#45;&gt;Node21</title>
<g id="a_edge57_Node000034_Node000021"><a xlink:title=" ">
<path fill="none" stroke="#63b8ff" d="M935.3,-283.62C950.17,-265.2 983.15,-224.34 1002.55,-200.3"/>
<polygon fill="#63b8ff" stroke="#63b8ff" points="1005.21,-202.58 1008.76,-192.6 999.76,-198.19 1005.21,-202.58"/>
</a>
</g>
</g>
<!-- Node34&#45;&gt;Node22 -->
<g id="edge56_Node000034_Node000022" class="edge">
<title>Node34&#45;&gt;Node22</title>
<g id="a_edge56_Node000034_Node000022"><a xlink:title=" ">
<path fill="none" stroke="#63b8ff" d="M927.14,-283.26C926.5,-261.56 927.21,-208.57 946.62,-170.25 965.05,-133.91 1001.21,-102.53 1025.16,-84.47"/>
<polygon fill="#63b8ff" stroke="#63b8ff" points="1027.06,-87.42 1033.05,-78.69 1022.92,-81.77 1027.06,-87.42"/>
</a>
</g>
</g>
<!-- Node34&#45;&gt;Node28 -->
<g id="edge60_Node000034_Node000028" class="edge">
<title>Node34&#45;&gt;Node28</title>
<g id="a_edge60_Node000034_Node000028"><a xlink:title=" ">
<path fill="none" stroke="#63b8ff" d="M943.05,-283.31C979.44,-260.53 1074.01,-203.49 1159.62,-170.25 1196.98,-155.74 1240.61,-144.42 1274.96,-136.71"/>
<polygon fill="#63b8ff" stroke="#63b8ff" points="1275.27,-140.23 1284.28,-134.66 1273.77,-133.39 1275.27,-140.23"/>
</a>
</g>
</g>
<!-- Node34&#45;&gt;Node31 -->
<g id="edge58_Node000034_Node000031" class="edge">
<title>Node34&#45;&gt;Node31</title>
<g id="a_edge58_Node000034_Node000031"><a xlink:title=" ">
<path fill="none" stroke="#63b8ff" d="M978.01,-283.27C1025.14,-274.06 1095.65,-260.27 1146.09,-250.41"/>
<polygon fill="#63b8ff" stroke="#63b8ff" points="1146.55,-253.88 1155.69,-248.53 1145.2,-247.01 1146.55,-253.88"/>
</a>
</g>
</g>
<!-- Node35 -->
<g id="Node000035" class="node">
<title>Node35</title>
<g id="a_Node000035"><a xlink:title=" ">
<polygon fill="#e0e0e0" stroke="#999999" points="899.25,-247.75 842,-247.75 842,-227 899.25,-227 899.25,-247.75"/>
<text text-anchor="middle" x="870.62" y="-234.25" font-family="Helvetica,sans-Serif" font-size="10.00">memory</text>
</a>
</g>
</g>
<!-- Node34&#45;&gt;Node35 -->
<g id="edge61_Node000034_Node000035" class="edge">
<title>Node34&#45;&gt;Node35</title>
<g id="a_edge61_Node000034_Node000035"><a xlink:title=" ">
<path fill="none" stroke="#63b8ff" d="M917.43,-283.34C909.49,-275.71 898.26,-264.92 888.79,-255.82"/>
<polygon fill="#63b8ff" stroke="#63b8ff" points="891.46,-253.53 881.82,-249.13 886.61,-258.58 891.46,-253.53"/>
</a>
</g>
</g>
</g>
</svg>
