<?xml version="1.0" encoding="UTF-8" standalone="no"?>
<!DOCTYPE svg PUBLIC "-//W3C//DTD SVG 1.1//EN"
 "http://www.w3.org/Graphics/SVG/1.1/DTD/svg11.dtd">
<!-- Generated by graphviz version 12.2.1 (0)
 -->
<!-- Title: Graphical Class Hierarchy Pages: 1 -->
<svg width="261pt" height="68pt"
 viewBox="0.00 0.00 260.50 67.75" xmlns="http://www.w3.org/2000/svg" xmlns:xlink="http://www.w3.org/1999/xlink">
<g id="graph0" class="graph" transform="scale(1 1) rotate(0) translate(4 63.75)">
<title>Graphical Class Hierarchy</title>
<!-- Node0 -->
<g id="Node000000" class="node">
<title>Node0</title>
<g id="a_Node000000"><a xlink:href="structreference__site__info.html" target="_top" xlink:title="Stores information about a site in the reference dataset.">
<polygon fill="white" stroke="#666666" points="109.75,-39.75 0,-39.75 0,-19 109.75,-19 109.75,-39.75"/>
<text text-anchor="middle" x="54.88" y="-26.25" font-family="Helvetica,sans-Serif" font-size="10.00">reference_site_info</text>
</a>
</g>
</g>
<!-- Node1 -->
<g id="Node000001" class="node">
<title>Node1</title>
<g id="a_Node000001"><a xlink:href="structreference__variant.html" target="_top" xlink:title="Extends reference_site_info to include genotype data and allele counts.">
<polygon fill="white" stroke="#666666" points="250.25,-59.75 148,-59.75 148,-39 250.25,-39 250.25,-59.75"/>
<text text-anchor="middle" x="199.12" y="-46.25" font-family="Helvetica,sans-Serif" font-size="10.00">reference_variant</text>
</a>
</g>
</g>
<!-- Node0&#45;&gt;Node1 -->
<g id="edge3_Node000000_Node000001" class="edge">
<title>Node0&#45;&gt;Node1</title>
<g id="a_edge3_Node000000_Node000001"><a xlink:title=" ">
<path fill="none" stroke="#63b8ff" d="M121.26,-38.57C130.18,-39.82 139.23,-41.09 147.83,-42.3"/>
<polygon fill="#63b8ff" stroke="#63b8ff" points="121.95,-35.13 111.56,-37.2 120.97,-42.06 121.95,-35.13"/>
</a>
</g>
</g>
<!-- Node2 -->
<g id="Node000002" class="node">
<title>Node2</title>
<g id="a_Node000002"><a xlink:href="structsparse__ref__variant.html" target="_top" xlink:title="Represents a reference variant with sparse allele information.">
<polygon fill="white" stroke="#666666" points="252.5,-20.75 145.75,-20.75 145.75,0 252.5,0 252.5,-20.75"/>
<text text-anchor="middle" x="199.12" y="-7.25" font-family="Helvetica,sans-Serif" font-size="10.00">sparse_ref_variant</text>
</a>
</g>
</g>
<!-- Node0&#45;&gt;Node2 -->
<g id="edge4_Node000000_Node000002" class="edge">
<title>Node0&#45;&gt;Node2</title>
<g id="a_edge4_Node000000_Node000002"><a xlink:title=" ">
<path fill="none" stroke="#63b8ff" d="M121.38,-20.63C129.46,-19.55 137.64,-18.45 145.5,-17.4"/>
<polygon fill="#63b8ff" stroke="#63b8ff" points="121.01,-17.14 111.56,-21.94 121.94,-24.08 121.01,-17.14"/>
</a>
</g>
</g>
</g>
</svg>
