<?xml version="1.0" encoding="UTF-8" standalone="no"?>
<!DOCTYPE svg PUBLIC "-//W3C//DTD SVG 1.1//EN"
 "http://www.w3.org/Graphics/SVG/1.1/DTD/svg11.dtd">
<!-- Generated by graphviz version 12.2.1 (0)
 -->
<!-- Title: src/input_prep.cpp Pages: 1 -->
<svg width="762pt" height="313pt"
 viewBox="0.00 0.00 761.50 312.50" xmlns="http://www.w3.org/2000/svg" xmlns:xlink="http://www.w3.org/1999/xlink">
<g id="graph0" class="graph" transform="scale(1 1) rotate(0) translate(4 308.5)">
<title>src/input_prep.cpp</title>
<!-- Node1 -->
<g id="Node000001" class="node">
<title>Node1</title>
<g id="a_Node000001"><a xlink:title=" ">
<polygon fill="#999999" stroke="#666666" points="685.5,-304.5 580.25,-304.5 580.25,-283.75 685.5,-283.75 685.5,-304.5"/>
<text text-anchor="middle" x="632.88" y="-291" font-family="Helvetica,sans-Serif" font-size="10.00">src/input_prep.cpp</text>
</a>
</g>
</g>
<!-- Node2 -->
<g id="Node000002" class="node">
<title>Node2</title>
<g id="a_Node000002"><a xlink:href="input__prep_8hpp.html" target="_top" xlink:title=" ">
<polygon fill="white" stroke="#666666" points="494.25,-247.75 405.5,-247.75 405.5,-227 494.25,-227 494.25,-247.75"/>
<text text-anchor="middle" x="449.88" y="-234.25" font-family="Helvetica,sans-Serif" font-size="10.00">input_prep.hpp</text>
</a>
</g>
</g>
<!-- Node1&#45;&gt;Node2 -->
<g id="edge1_Node000001_Node000002" class="edge">
<title>Node1&#45;&gt;Node2</title>
<g id="a_edge1_Node000001_Node000002"><a xlink:title=" ">
<path fill="none" stroke="#63b8ff" d="M600.16,-283.34C570.32,-274.41 526.03,-261.16 493.25,-251.35"/>
<polygon fill="#63b8ff" stroke="#63b8ff" points="494.65,-248.12 484.07,-248.6 492.64,-254.82 494.65,-248.12"/>
</a>
</g>
</g>
<!-- Node9 -->
<g id="Node000009" class="node">
<title>Node9</title>
<g id="a_Node000009"><a xlink:href="recombination_8hpp.html" target="_top" xlink:title=" ">
<polygon fill="white" stroke="#666666" points="625.62,-134.25 518.12,-134.25 518.12,-113.5 625.62,-113.5 625.62,-134.25"/>
<text text-anchor="middle" x="571.88" y="-120.75" font-family="Helvetica,sans-Serif" font-size="10.00">recombination.hpp</text>
</a>
</g>
</g>
<!-- Node1&#45;&gt;Node9 -->
<g id="edge25_Node000001_Node000009" class="edge">
<title>Node1&#45;&gt;Node9</title>
<g id="a_edge25_Node000001_Node000009"><a xlink:title=" ">
<path fill="none" stroke="#63b8ff" d="M629.42,-283.6C619.78,-257 592.41,-181.52 579.2,-145.07"/>
<polygon fill="#63b8ff" stroke="#63b8ff" points="582.66,-144.35 575.96,-136.14 576.08,-146.73 582.66,-144.35"/>
</a>
</g>
</g>
<!-- Node11 -->
<g id="Node000011" class="node">
<title>Node11</title>
<g id="a_Node000011"><a xlink:title=" ">
<polygon fill="#e0e0e0" stroke="#999999" points="753.5,-77.5 690.25,-77.5 690.25,-56.75 753.5,-56.75 753.5,-77.5"/>
<text text-anchor="middle" x="721.88" y="-64" font-family="Helvetica,sans-Serif" font-size="10.00">algorithm</text>
</a>
</g>
</g>
<!-- Node1&#45;&gt;Node11 -->
<g id="edge26_Node000001_Node000011" class="edge">
<title>Node1&#45;&gt;Node11</title>
<g id="a_edge26_Node000001_Node000011"><a xlink:title=" ">
<path fill="none" stroke="#63b8ff" d="M636.7,-283.46C650.14,-249.49 695.37,-135.14 713.88,-88.34"/>
<polygon fill="#63b8ff" stroke="#63b8ff" points="717.08,-89.75 717.51,-79.16 710.58,-87.18 717.08,-89.75"/>
</a>
</g>
</g>
<!-- Node17 -->
<g id="Node000017" class="node">
<title>Node17</title>
<g id="a_Node000017"><a xlink:title=" ">
<polygon fill="#e0e0e0" stroke="#999999" points="745.5,-247.75 682.25,-247.75 682.25,-227 745.5,-227 745.5,-247.75"/>
<text text-anchor="middle" x="713.88" y="-234.25" font-family="Helvetica,sans-Serif" font-size="10.00">sys/stat.h</text>
</a>
</g>
</g>
<!-- Node1&#45;&gt;Node17 -->
<g id="edge27_Node000001_Node000017" class="edge">
<title>Node1&#45;&gt;Node17</title>
<g id="a_edge27_Node000001_Node000017"><a xlink:title=" ">
<path fill="none" stroke="#63b8ff" d="M647.36,-283.34C659.22,-275.32 676.25,-263.81 690.11,-254.44"/>
<polygon fill="#63b8ff" stroke="#63b8ff" points="691.94,-257.43 698.27,-248.93 688.02,-251.63 691.94,-257.43"/>
</a>
</g>
</g>
<!-- Node3 -->
<g id="Node000003" class="node">
<title>Node3</title>
<g id="a_Node000003"><a xlink:href="unique__haplotype_8hpp.html" target="_top" xlink:title=" ">
<polygon fill="white" stroke="#666666" points="312.88,-191 188.88,-191 188.88,-170.25 312.88,-170.25 312.88,-191"/>
<text text-anchor="middle" x="250.88" y="-177.5" font-family="Helvetica,sans-Serif" font-size="10.00">unique_haplotype.hpp</text>
</a>
</g>
</g>
<!-- Node2&#45;&gt;Node3 -->
<g id="edge2_Node000002_Node000003" class="edge">
<title>Node2&#45;&gt;Node3</title>
<g id="a_edge2_Node000002_Node000003"><a xlink:title=" ">
<path fill="none" stroke="#63b8ff" d="M414.3,-226.59C381.57,-217.58 332.85,-204.18 297.12,-194.35"/>
<polygon fill="#63b8ff" stroke="#63b8ff" points="298.51,-191.1 287.94,-191.82 296.65,-197.85 298.51,-191.1"/>
</a>
</g>
</g>
<!-- Node13 -->
<g id="Node000013" class="node">
<title>Node13</title>
<g id="a_Node000013"><a xlink:title=" ">
<polygon fill="#e0e0e0" stroke="#999999" points="499.88,-134.25 399.88,-134.25 399.88,-113.5 499.88,-113.5 499.88,-134.25"/>
<text text-anchor="middle" x="449.88" y="-120.75" font-family="Helvetica,sans-Serif" font-size="10.00">savvy/reader.hpp</text>
</a>
</g>
</g>
<!-- Node2&#45;&gt;Node13 -->
<g id="edge24_Node000002_Node000013" class="edge">
<title>Node2&#45;&gt;Node13</title>
<g id="a_edge24_Node000002_Node000013"><a xlink:title=" ">
<path fill="none" stroke="#63b8ff" d="M449.88,-226.87C449.88,-209.1 449.88,-170.47 449.88,-146.18"/>
<polygon fill="#63b8ff" stroke="#63b8ff" points="453.38,-146.19 449.88,-136.19 446.38,-146.19 453.38,-146.19"/>
</a>
</g>
</g>
<!-- Node4 -->
<g id="Node000004" class="node">
<title>Node4</title>
<g id="a_Node000004"><a xlink:href="variant_8hpp.html" target="_top" xlink:title=" ">
<polygon fill="white" stroke="#666666" points="171.62,-77.5 100.12,-77.5 100.12,-56.75 171.62,-56.75 171.62,-77.5"/>
<text text-anchor="middle" x="135.88" y="-64" font-family="Helvetica,sans-Serif" font-size="10.00">variant.hpp</text>
</a>
</g>
</g>
<!-- Node3&#45;&gt;Node4 -->
<g id="edge3_Node000003_Node000004" class="edge">
<title>Node3&#45;&gt;Node4</title>
<g id="a_edge3_Node000003_Node000004"><a xlink:title=" ">
<path fill="none" stroke="#63b8ff" d="M188.57,-172.68C140.67,-165.9 80.17,-153.72 64.88,-134.25 49.33,-114.46 76.12,-95.24 101.12,-82.67"/>
<polygon fill="#63b8ff" stroke="#63b8ff" points="102.33,-85.97 109.87,-78.52 99.33,-79.65 102.33,-85.97"/>
</a>
</g>
</g>
<!-- Node5 -->
<g id="Node000005" class="node">
<title>Node5</title>
<g id="a_Node000005"><a xlink:title=" ">
<polygon fill="#e0e0e0" stroke="#999999" points="157.75,-20.75 114,-20.75 114,0 157.75,0 157.75,-20.75"/>
<text text-anchor="middle" x="135.88" y="-7.25" font-family="Helvetica,sans-Serif" font-size="10.00">string</text>
</a>
</g>
</g>
<!-- Node3&#45;&gt;Node5 -->
<g id="edge19_Node000003_Node000005" class="edge">
<title>Node3&#45;&gt;Node5</title>
<g id="a_edge19_Node000003_Node000005"><a xlink:title=" ">
<path fill="none" stroke="#63b8ff" d="M188.61,-173.49C137.97,-167.06 72.3,-154.94 55.88,-134.25 27.21,-98.14 79.15,-51.62 111.99,-27.5"/>
<polygon fill="#63b8ff" stroke="#63b8ff" points="113.71,-30.57 119.83,-21.91 109.65,-24.86 113.71,-30.57"/>
</a>
</g>
</g>
<!-- Node6 -->
<g id="Node000006" class="node">
<title>Node6</title>
<g id="a_Node000006"><a xlink:title=" ">
<polygon fill="#e0e0e0" stroke="#999999" points="395.25,-20.75 348.5,-20.75 348.5,0 395.25,0 395.25,-20.75"/>
<text text-anchor="middle" x="371.88" y="-7.25" font-family="Helvetica,sans-Serif" font-size="10.00">vector</text>
</a>
</g>
</g>
<!-- Node3&#45;&gt;Node6 -->
<g id="edge20_Node000003_Node000006" class="edge">
<title>Node3&#45;&gt;Node6</title>
<g id="a_edge20_Node000003_Node000006"><a xlink:title=" ">
<path fill="none" stroke="#63b8ff" d="M296.77,-169.78C317,-163.1 339.22,-152.11 352.88,-134.25 375.52,-104.63 376.26,-59.04 374.34,-32.52"/>
<polygon fill="#63b8ff" stroke="#63b8ff" points="377.84,-32.31 373.41,-22.69 370.87,-32.97 377.84,-32.31"/>
</a>
</g>
</g>
<!-- Node7 -->
<g id="Node000007" class="node">
<title>Node7</title>
<g id="a_Node000007"><a xlink:title=" ">
<polygon fill="#e0e0e0" stroke="#999999" points="224.38,-20.75 175.38,-20.75 175.38,0 224.38,0 224.38,-20.75"/>
<text text-anchor="middle" x="199.88" y="-7.25" font-family="Helvetica,sans-Serif" font-size="10.00">cstdint</text>
</a>
</g>
</g>
<!-- Node3&#45;&gt;Node7 -->
<g id="edge18_Node000003_Node000007" class="edge">
<title>Node3&#45;&gt;Node7</title>
<g id="a_edge18_Node000003_Node000007"><a xlink:title=" ">
<path fill="none" stroke="#63b8ff" d="M242.04,-169.97C234.61,-161.29 224.36,-147.84 218.88,-134.25 205.18,-100.33 201.29,-57.48 200.22,-32.38"/>
<polygon fill="#63b8ff" stroke="#63b8ff" points="203.73,-32.42 199.93,-22.53 196.73,-32.63 203.73,-32.42"/>
</a>
</g>
</g>
<!-- Node8 -->
<g id="Node000008" class="node">
<title>Node8</title>
<g id="a_Node000008"><a xlink:title=" ">
<polygon fill="#e0e0e0" stroke="#999999" points="43.75,-20.75 0,-20.75 0,0 43.75,0 43.75,-20.75"/>
<text text-anchor="middle" x="21.88" y="-7.25" font-family="Helvetica,sans-Serif" font-size="10.00">limits</text>
</a>
</g>
</g>
<!-- Node3&#45;&gt;Node8 -->
<g id="edge22_Node000003_Node000008" class="edge">
<title>Node3&#45;&gt;Node8</title>
<g id="a_edge22_Node000003_Node000008"><a xlink:title=" ">
<path fill="none" stroke="#63b8ff" d="M188.61,-173.57C135.13,-167.06 63.61,-154.76 43.88,-134.25 17.54,-106.88 16.95,-59.4 19.2,-32.17"/>
<polygon fill="#63b8ff" stroke="#63b8ff" points="22.66,-32.74 20.23,-22.42 15.7,-32 22.66,-32.74"/>
</a>
</g>
</g>
<!-- Node3&#45;&gt;Node9 -->
<g id="edge8_Node000003_Node000009" class="edge">
<title>Node3&#45;&gt;Node9</title>
<g id="a_edge8_Node000003_Node000009"><a xlink:title=" ">
<path fill="none" stroke="#63b8ff" d="M308.63,-169.77C364.31,-160.28 448.44,-145.93 506.53,-136.02"/>
<polygon fill="#63b8ff" stroke="#63b8ff" points="507.03,-139.49 516.29,-134.35 505.85,-132.59 507.03,-139.49"/>
</a>
</g>
</g>
<!-- Node3&#45;&gt;Node13 -->
<g id="edge16_Node000003_Node000013" class="edge">
<title>Node3&#45;&gt;Node13</title>
<g id="a_edge16_Node000003_Node000013"><a xlink:title=" ">
<path fill="none" stroke="#63b8ff" d="M286.45,-169.84C319.18,-160.83 367.9,-147.43 403.63,-137.6"/>
<polygon fill="#63b8ff" stroke="#63b8ff" points="404.1,-141.1 412.81,-135.07 402.24,-134.35 404.1,-141.1"/>
</a>
</g>
</g>
<!-- Node14 -->
<g id="Node000014" class="node">
<title>Node14</title>
<g id="a_Node000014"><a xlink:title=" ">
<polygon fill="#e0e0e0" stroke="#999999" points="171.38,-134.25 74.38,-134.25 74.38,-113.5 171.38,-113.5 171.38,-134.25"/>
<text text-anchor="middle" x="122.88" y="-120.75" font-family="Helvetica,sans-Serif" font-size="10.00">savvy/writer.hpp</text>
</a>
</g>
</g>
<!-- Node3&#45;&gt;Node14 -->
<g id="edge17_Node000003_Node000014" class="edge">
<title>Node3&#45;&gt;Node14</title>
<g id="a_edge17_Node000003_Node000014"><a xlink:title=" ">
<path fill="none" stroke="#63b8ff" d="M227.99,-169.84C207.97,-161.27 178.64,-148.73 156.04,-139.06"/>
<polygon fill="#63b8ff" stroke="#63b8ff" points="157.52,-135.89 146.95,-135.17 154.77,-142.32 157.52,-135.89"/>
</a>
</g>
</g>
<!-- Node15 -->
<g id="Node000015" class="node">
<title>Node15</title>
<g id="a_Node000015"><a xlink:title=" ">
<polygon fill="#e0e0e0" stroke="#999999" points="273.88,-134.25 227.88,-134.25 227.88,-113.5 273.88,-113.5 273.88,-134.25"/>
<text text-anchor="middle" x="250.88" y="-120.75" font-family="Helvetica,sans-Serif" font-size="10.00">deque</text>
</a>
</g>
</g>
<!-- Node3&#45;&gt;Node15 -->
<g id="edge21_Node000003_Node000015" class="edge">
<title>Node3&#45;&gt;Node15</title>
<g id="a_edge21_Node000003_Node000015"><a xlink:title=" ">
<path fill="none" stroke="#63b8ff" d="M250.88,-169.84C250.88,-163.22 250.88,-154.22 250.88,-146.02"/>
<polygon fill="#63b8ff" stroke="#63b8ff" points="254.38,-146.09 250.88,-136.09 247.38,-146.09 254.38,-146.09"/>
</a>
</g>
</g>
<!-- Node16 -->
<g id="Node000016" class="node">
<title>Node16</title>
<g id="a_Node000016"><a xlink:title=" ">
<polygon fill="#e0e0e0" stroke="#999999" points="343.5,-134.25 292.25,-134.25 292.25,-113.5 343.5,-113.5 343.5,-134.25"/>
<text text-anchor="middle" x="317.88" y="-120.75" font-family="Helvetica,sans-Serif" font-size="10.00">cassert</text>
</a>
</g>
</g>
<!-- Node3&#45;&gt;Node16 -->
<g id="edge23_Node000003_Node000016" class="edge">
<title>Node3&#45;&gt;Node16</title>
<g id="a_edge23_Node000003_Node000016"><a xlink:title=" ">
<path fill="none" stroke="#63b8ff" d="M262.85,-169.84C272.38,-162.05 285.94,-150.97 297.21,-141.76"/>
<polygon fill="#63b8ff" stroke="#63b8ff" points="299.3,-144.57 304.83,-135.54 294.87,-139.15 299.3,-144.57"/>
</a>
</g>
</g>
<!-- Node4&#45;&gt;Node5 -->
<g id="edge4_Node000004_Node000005" class="edge">
<title>Node4&#45;&gt;Node5</title>
<g id="a_edge4_Node000004_Node000005"><a xlink:title=" ">
<path fill="none" stroke="#63b8ff" d="M135.88,-56.34C135.88,-49.72 135.88,-40.72 135.88,-32.52"/>
<polygon fill="#63b8ff" stroke="#63b8ff" points="139.38,-32.59 135.88,-22.59 132.38,-32.59 139.38,-32.59"/>
</a>
</g>
</g>
<!-- Node4&#45;&gt;Node6 -->
<g id="edge5_Node000004_Node000006" class="edge">
<title>Node4&#45;&gt;Node6</title>
<g id="a_edge5_Node000004_Node000006"><a xlink:title=" ">
<path fill="none" stroke="#63b8ff" d="M171.98,-57.75C216.9,-47.33 293.07,-29.66 337.28,-19.4"/>
<polygon fill="#63b8ff" stroke="#63b8ff" points="337.9,-22.85 346.85,-17.18 336.32,-16.03 337.9,-22.85"/>
</a>
</g>
</g>
<!-- Node4&#45;&gt;Node7 -->
<g id="edge6_Node000004_Node000007" class="edge">
<title>Node4&#45;&gt;Node7</title>
<g id="a_edge6_Node000004_Node000007"><a xlink:title=" ">
<path fill="none" stroke="#63b8ff" d="M147.32,-56.34C156.33,-48.63 169.11,-37.7 179.81,-28.54"/>
<polygon fill="#63b8ff" stroke="#63b8ff" points="182.06,-31.22 187.38,-22.06 177.51,-25.9 182.06,-31.22"/>
</a>
</g>
</g>
<!-- Node4&#45;&gt;Node8 -->
<g id="edge7_Node000004_Node000008" class="edge">
<title>Node4&#45;&gt;Node8</title>
<g id="a_edge7_Node000004_Node000008"><a xlink:title=" ">
<path fill="none" stroke="#63b8ff" d="M115.49,-56.34C97.91,-47.89 72.25,-35.57 52.24,-25.96"/>
<polygon fill="#63b8ff" stroke="#63b8ff" points="53.97,-22.91 43.44,-21.73 50.94,-29.22 53.97,-22.91"/>
</a>
</g>
</g>
<!-- Node9&#45;&gt;Node4 -->
<g id="edge9_Node000009_Node000004" class="edge">
<title>Node9&#45;&gt;Node4</title>
<g id="a_edge9_Node000009_Node000004"><a xlink:title=" ">
<path fill="none" stroke="#63b8ff" d="M517.93,-114.75C514.87,-114.32 511.83,-113.9 508.88,-113.5 391.91,-97.69 253.96,-81.56 183.12,-73.46"/>
<polygon fill="#63b8ff" stroke="#63b8ff" points="183.76,-70.01 173.43,-72.36 182.97,-76.97 183.76,-70.01"/>
</a>
</g>
</g>
<!-- Node9&#45;&gt;Node5 -->
<g id="edge11_Node000009_Node000005" class="edge">
<title>Node9&#45;&gt;Node5</title>
<g id="a_edge11_Node000009_Node000005"><a xlink:title=" ">
<path fill="none" stroke="#63b8ff" d="M517.91,-113.46C472.53,-105.17 406.09,-92.15 348.88,-77.5 269.77,-57.24 248.86,-46.92 168.76,-21.67"/>
<polygon fill="#63b8ff" stroke="#63b8ff" points="170.19,-18.45 159.6,-18.8 168.09,-25.13 170.19,-18.45"/>
</a>
</g>
</g>
<!-- Node9&#45;&gt;Node6 -->
<g id="edge12_Node000009_Node000006" class="edge">
<title>Node9&#45;&gt;Node6</title>
<g id="a_edge12_Node000009_Node000006"><a xlink:title=" ">
<path fill="none" stroke="#63b8ff" d="M545.29,-113.09C523.64,-104.73 492.55,-91.8 466.88,-77.5 440.38,-62.75 412.12,-42.42 393.37,-28.21"/>
<polygon fill="#63b8ff" stroke="#63b8ff" points="395.52,-25.44 385.46,-22.13 391.26,-30.99 395.52,-25.44"/>
</a>
</g>
</g>
<!-- Node9&#45;&gt;Node7 -->
<g id="edge13_Node000009_Node000007" class="edge">
<title>Node9&#45;&gt;Node7</title>
<g id="a_edge13_Node000009_Node000007"><a xlink:title=" ">
<path fill="none" stroke="#63b8ff" d="M539.19,-113.08C469.68,-92.25 307.69,-43.69 235.59,-22.08"/>
<polygon fill="#63b8ff" stroke="#63b8ff" points="236.85,-18.8 226.26,-19.28 234.84,-25.51 236.85,-18.8"/>
</a>
</g>
</g>
<!-- Node10 -->
<g id="Node000010" class="node">
<title>Node10</title>
<g id="a_Node000010"><a xlink:title=" ">
<polygon fill="#e0e0e0" stroke="#999999" points="607.62,-77.5 476.12,-77.5 476.12,-56.75 607.62,-56.75 607.62,-77.5"/>
<text text-anchor="middle" x="541.88" y="-64" font-family="Helvetica,sans-Serif" font-size="10.00">shrinkwrap/istream.hpp</text>
</a>
</g>
</g>
<!-- Node9&#45;&gt;Node10 -->
<g id="edge10_Node000009_Node000010" class="edge">
<title>Node9&#45;&gt;Node10</title>
<g id="a_edge10_Node000009_Node000010"><a xlink:title=" ">
<path fill="none" stroke="#63b8ff" d="M566.51,-113.09C562.67,-106.08 557.37,-96.41 552.67,-87.83"/>
<polygon fill="#63b8ff" stroke="#63b8ff" points="555.79,-86.24 547.92,-79.16 549.66,-89.61 555.79,-86.24"/>
</a>
</g>
</g>
<!-- Node9&#45;&gt;Node11 -->
<g id="edge14_Node000009_Node000011" class="edge">
<title>Node9&#45;&gt;Node11</title>
<g id="a_edge14_Node000009_Node000011"><a xlink:title=" ">
<path fill="none" stroke="#63b8ff" d="M598.69,-113.09C622.61,-104.36 657.88,-91.48 684.55,-81.75"/>
<polygon fill="#63b8ff" stroke="#63b8ff" points="685.42,-85.16 693.62,-78.44 683.02,-78.58 685.42,-85.16"/>
</a>
</g>
</g>
<!-- Node12 -->
<g id="Node000012" class="node">
<title>Node12</title>
<g id="a_Node000012"><a xlink:title=" ">
<polygon fill="#e0e0e0" stroke="#999999" points="672.25,-77.5 625.5,-77.5 625.5,-56.75 672.25,-56.75 672.25,-77.5"/>
<text text-anchor="middle" x="648.88" y="-64" font-family="Helvetica,sans-Serif" font-size="10.00">cmath</text>
</a>
</g>
</g>
<!-- Node9&#45;&gt;Node12 -->
<g id="edge15_Node000009_Node000012" class="edge">
<title>Node9&#45;&gt;Node12</title>
<g id="a_edge15_Node000009_Node000012"><a xlink:title=" ">
<path fill="none" stroke="#63b8ff" d="M585.64,-113.09C596.81,-105.15 612.79,-93.78 625.9,-84.46"/>
<polygon fill="#63b8ff" stroke="#63b8ff" points="627.87,-87.35 633.99,-78.71 623.82,-81.65 627.87,-87.35"/>
</a>
</g>
</g>
</g>
</svg>
