<?xml version="1.0" encoding="UTF-8" standalone="no"?>
<!DOCTYPE svg PUBLIC "-//W3C//DTD SVG 1.1//EN"
 "http://www.w3.org/Graphics/SVG/1.1/DTD/svg11.dtd">
<!-- Generated by graphviz version 12.2.1 (0)
 -->
<!-- Title: load_reference_haplotypes Pages: 1 -->
<svg width="521pt" height="482pt"
 viewBox="0.00 0.00 521.00 481.50" xmlns="http://www.w3.org/2000/svg" xmlns:xlink="http://www.w3.org/1999/xlink">
<g id="graph0" class="graph" transform="scale(1 1) rotate(0) translate(4 477.5)">
<title>load_reference_haplotypes</title>
<!-- Node1 -->
<g id="Node000001" class="node">
<title>Node1</title>
<g id="a_Node000001"><a xlink:title="Load and process reference haplotypes from an MVCF file.">
<polygon fill="#999999" stroke="#666666" points="148,-250.12 0,-250.12 0,-229.38 148,-229.38 148,-250.12"/>
<text text-anchor="middle" x="74" y="-236.62" font-family="Helvetica,sans-Serif" font-size="10.00">load_reference_haplotypes</text>
</a>
</g>
</g>
<!-- Node2 -->
<g id="Node000002" class="node">
<title>Node2</title>
<g id="a_Node000002"><a xlink:href="classreduced__haplotypes.html#abe0143dde9fc1721c441e0c23e739be5" target="_top" xlink:title="Appends a new haplotype block to the collection of reduced haplotype blocks.">
<polygon fill="white" stroke="#666666" points="320.38,-473.5 206.12,-473.5 206.12,-440 320.38,-440 320.38,-473.5"/>
<text text-anchor="start" x="214.12" y="-460" font-family="Helvetica,sans-Serif" font-size="10.00">reduced_haplotypes</text>
<text text-anchor="middle" x="263.25" y="-447.25" font-family="Helvetica,sans-Serif" font-size="10.00">::append_block</text>
</a>
</g>
</g>
<!-- Node1&#45;&gt;Node2 -->
<g id="edge1_Node000001_Node000002" class="edge">
<title>Node1&#45;&gt;Node2</title>
<g id="a_edge1_Node000001_Node000002"><a xlink:title=" ">
<path fill="none" stroke="#63b8ff" d="M78.36,-250.21C88.88,-281.32 124.06,-374.34 184,-425.75 187.62,-428.85 191.59,-431.67 195.75,-434.22"/>
<polygon fill="#63b8ff" stroke="#63b8ff" points="193.99,-437.25 204.45,-438.98 197.35,-431.11 193.99,-437.25"/>
</a>
</g>
</g>
<!-- Node3 -->
<g id="Node000003" class="node">
<title>Node3</title>
<g id="a_Node000003"><a xlink:href="classunique__haplotype__block.html#ad08c799f3eb6ffe2c7c5cad53f6381a9" target="_top" xlink:title="Get the list of compressed reference variants in this block.">
<polygon fill="white" stroke="#666666" points="513,-450.5 378.5,-450.5 378.5,-417 513,-417 513,-450.5"/>
<text text-anchor="start" x="386.5" y="-437" font-family="Helvetica,sans-Serif" font-size="10.00">unique_haplotype_block</text>
<text text-anchor="middle" x="445.75" y="-424.25" font-family="Helvetica,sans-Serif" font-size="10.00">::variants</text>
</a>
</g>
</g>
<!-- Node1&#45;&gt;Node3 -->
<g id="edge14_Node000001_Node000003" class="edge">
<title>Node1&#45;&gt;Node3</title>
<g id="a_edge14_Node000001_Node000003"><a xlink:title=" ">
<path fill="none" stroke="#63b8ff" d="M79.14,-250.52C90.75,-279.12 126.58,-357.24 184,-392.75 213.89,-411.23 301.56,-422.29 367.05,-428.18"/>
<polygon fill="#63b8ff" stroke="#63b8ff" points="366.4,-431.63 376.67,-429.02 367.01,-424.66 366.4,-431.63"/>
</a>
</g>
</g>
<!-- Node4 -->
<g id="Node000004" class="node">
<title>Node4</title>
<g id="a_Node000004"><a xlink:href="classrecombination.html#a7c20c24aa59851417602f61648e686de" target="_top" xlink:title="Convert genetic distance to switch probability (default decay rate).">
<polygon fill="white" stroke="#666666" points="324.5,-383.5 202,-383.5 202,-350 324.5,-350 324.5,-383.5"/>
<text text-anchor="start" x="210" y="-370" font-family="Helvetica,sans-Serif" font-size="10.00">recombination::cm_to</text>
<text text-anchor="middle" x="263.25" y="-357.25" font-family="Helvetica,sans-Serif" font-size="10.00">_switch_prob</text>
</a>
</g>
</g>
<!-- Node1&#45;&gt;Node4 -->
<g id="edge3_Node000001_Node000004" class="edge">
<title>Node1&#45;&gt;Node4</title>
<g id="a_edge3_Node000001_Node000004"><a xlink:title=" ">
<path fill="none" stroke="#63b8ff" d="M83.77,-250.48C100.95,-270.87 141.14,-315.4 184,-340.75 186.43,-342.18 188.94,-343.55 191.52,-344.85"/>
<polygon fill="#63b8ff" stroke="#63b8ff" points="189.78,-347.91 200.33,-348.93 192.72,-341.55 189.78,-347.91"/>
</a>
</g>
</g>
<!-- Node5 -->
<g id="Node000005" class="node">
<title>Node5</title>
<g id="a_Node000005"><a xlink:href="classreduced__haplotypes.html#a438770877030eb2d23369ef1ed130e16" target="_top" xlink:title="Compresses a variant into the current reduced haplotype block.">
<polygon fill="white" stroke="#666666" points="320.38,-331.5 206.12,-331.5 206.12,-298 320.38,-298 320.38,-331.5"/>
<text text-anchor="start" x="214.12" y="-318" font-family="Helvetica,sans-Serif" font-size="10.00">reduced_haplotypes</text>
<text text-anchor="middle" x="263.25" y="-305.25" font-family="Helvetica,sans-Serif" font-size="10.00">::compress_variant</text>
</a>
</g>
</g>
<!-- Node1&#45;&gt;Node5 -->
<g id="edge4_Node000001_Node000005" class="edge">
<title>Node1&#45;&gt;Node5</title>
<g id="a_edge4_Node000001_Node000005"><a xlink:title=" ">
<path fill="none" stroke="#63b8ff" d="M97.26,-250.56C119.09,-260.97 153.46,-276.85 184,-288.75 188.35,-290.45 192.86,-292.13 197.43,-293.78"/>
<polygon fill="#63b8ff" stroke="#63b8ff" points="196.09,-297.02 206.69,-297.06 198.42,-290.42 196.09,-297.02"/>
</a>
</g>
</g>
<!-- Node6 -->
<g id="Node000006" class="node">
<title>Node6</title>
<g id="a_Node000006"><a xlink:href="classunique__haplotype__block.html#ada3ab17532ea5baefd80fe72307846f2" target="_top" xlink:title="Deserialize a unique haplotype block from an input stream (m3vcf format).">
<polygon fill="white" stroke="#666666" points="330.5,-279.5 196,-279.5 196,-246 330.5,-246 330.5,-279.5"/>
<text text-anchor="start" x="204" y="-266" font-family="Helvetica,sans-Serif" font-size="10.00">unique_haplotype_block</text>
<text text-anchor="middle" x="263.25" y="-253.25" font-family="Helvetica,sans-Serif" font-size="10.00">::deserialize</text>
</a>
</g>
</g>
<!-- Node1&#45;&gt;Node6 -->
<g id="edge5_Node000001_Node000006" class="edge">
<title>Node1&#45;&gt;Node6</title>
<g id="a_edge5_Node000001_Node000006"><a xlink:title=" ">
<path fill="none" stroke="#63b8ff" d="M148.47,-248.77C160.27,-250.22 172.52,-251.73 184.42,-253.19"/>
<polygon fill="#63b8ff" stroke="#63b8ff" points="183.84,-256.65 194.19,-254.39 184.7,-249.7 183.84,-256.65"/>
</a>
</g>
</g>
<!-- Node8 -->
<g id="Node000008" class="node">
<title>Node8</title>
<g id="a_Node000008"><a xlink:href="classreduced__haplotypes.html#a84d77aa694b17ecfe412d8f4a4e1614b" target="_top" xlink:title=" ">
<polygon fill="white" stroke="#666666" points="332.38,-228.12 194.12,-228.12 194.12,-207.38 332.38,-207.38 332.38,-228.12"/>
<text text-anchor="middle" x="263.25" y="-214.62" font-family="Helvetica,sans-Serif" font-size="10.00">reduced_haplotypes::end</text>
</a>
</g>
</g>
<!-- Node1&#45;&gt;Node8 -->
<g id="edge7_Node000001_Node000008" class="edge">
<title>Node1&#45;&gt;Node8</title>
<g id="a_edge7_Node000001_Node000008"><a xlink:title=" ">
<path fill="none" stroke="#63b8ff" d="M148.47,-231.12C159.69,-229.8 171.31,-228.43 182.66,-227.1"/>
<polygon fill="#63b8ff" stroke="#63b8ff" points="182.85,-230.6 192.38,-225.96 182.04,-223.65 182.85,-230.6"/>
</a>
</g>
</g>
<!-- Node9 -->
<g id="Node000009" class="node">
<title>Node9</title>
<g id="a_Node000009"><a xlink:href="classgenetic__map__file.html#af9d9dec9d1657b85a7fb7d89e7be0d5b" target="_top" xlink:title="Interpolate the genetic map position (in centimorgans) for a variant.">
<polygon fill="white" stroke="#666666" points="342.5,-189.5 184,-189.5 184,-156 342.5,-156 342.5,-189.5"/>
<text text-anchor="start" x="192" y="-176" font-family="Helvetica,sans-Serif" font-size="10.00">genetic_map_file::interpolate</text>
<text text-anchor="middle" x="263.25" y="-163.25" font-family="Helvetica,sans-Serif" font-size="10.00">_centimorgan</text>
</a>
</g>
</g>
<!-- Node1&#45;&gt;Node9 -->
<g id="edge8_Node000001_Node000009" class="edge">
<title>Node1&#45;&gt;Node9</title>
<g id="a_edge8_Node000001_Node000009"><a xlink:title=" ">
<path fill="none" stroke="#63b8ff" d="M102.67,-229C124.63,-220.55 156.17,-208.6 184,-198.75 188.76,-197.07 193.69,-195.35 198.66,-193.65"/>
<polygon fill="#63b8ff" stroke="#63b8ff" points="199.76,-196.97 208.11,-190.44 197.51,-190.34 199.76,-196.97"/>
</a>
</g>
</g>
<!-- Node10 -->
<g id="Node000010" class="node">
<title>Node10</title>
<g id="a_Node000010"><a xlink:href="classunique__haplotype__block.html#ad29df3bdc6f4c36d1549f519006c9ae7" target="_top" xlink:title="Removes &quot;end&#45;of&#45;vector&quot; markers from the unique haplotype map.">
<polygon fill="white" stroke="#666666" points="330.5,-137.5 196,-137.5 196,-104 330.5,-104 330.5,-137.5"/>
<text text-anchor="start" x="204" y="-124" font-family="Helvetica,sans-Serif" font-size="10.00">unique_haplotype_block</text>
<text text-anchor="middle" x="263.25" y="-111.25" font-family="Helvetica,sans-Serif" font-size="10.00">::remove_eov</text>
</a>
</g>
</g>
<!-- Node1&#45;&gt;Node10 -->
<g id="edge9_Node000001_Node000010" class="edge">
<title>Node1&#45;&gt;Node10</title>
<g id="a_edge9_Node000001_Node000010"><a xlink:title=" ">
<path fill="none" stroke="#63b8ff" d="M84.79,-229.02C102.73,-209.95 142.83,-169.97 184,-146.75 186.66,-145.25 189.41,-143.82 192.23,-142.46"/>
<polygon fill="#63b8ff" stroke="#63b8ff" points="193.56,-145.7 201.28,-138.45 190.72,-139.31 193.56,-145.7"/>
</a>
</g>
</g>
<!-- Node11 -->
<g id="Node000011" class="node">
<title>Node11</title>
<g id="a_Node000011"><a xlink:href="classunique__haplotype__block.html#aad2e7d5ff6d7e6e0860edb6521fc033c" target="_top" xlink:title="Trims variants outside a specified genomic range.">
<polygon fill="white" stroke="#666666" points="330.5,-85.5 196,-85.5 196,-52 330.5,-52 330.5,-85.5"/>
<text text-anchor="start" x="204" y="-72" font-family="Helvetica,sans-Serif" font-size="10.00">unique_haplotype_block</text>
<text text-anchor="middle" x="263.25" y="-59.25" font-family="Helvetica,sans-Serif" font-size="10.00">::trim</text>
</a>
</g>
</g>
<!-- Node1&#45;&gt;Node11 -->
<g id="edge10_Node000001_Node000011" class="edge">
<title>Node1&#45;&gt;Node11</title>
<g id="a_edge10_Node000001_Node000011"><a xlink:title=" ">
<path fill="none" stroke="#63b8ff" d="M80.21,-228.88C93.59,-202.07 131.84,-132.26 184,-94.75 185.74,-93.5 187.55,-92.3 189.41,-91.16"/>
<polygon fill="#63b8ff" stroke="#63b8ff" points="190.62,-94.48 197.73,-86.63 187.28,-88.34 190.62,-94.48"/>
</a>
</g>
</g>
<!-- Node13 -->
<g id="Node000013" class="node">
<title>Node13</title>
<g id="a_Node000013"><a xlink:href="classunique__haplotype__block.html#a3100e7e155907f588b0cd74eac77778b" target="_top" xlink:title="Get the mapping from haplotypes to unique columns.">
<polygon fill="white" stroke="#666666" points="330.5,-33.5 196,-33.5 196,0 330.5,0 330.5,-33.5"/>
<text text-anchor="start" x="204" y="-20" font-family="Helvetica,sans-Serif" font-size="10.00">unique_haplotype_block</text>
<text text-anchor="middle" x="263.25" y="-7.25" font-family="Helvetica,sans-Serif" font-size="10.00">::unique_map</text>
</a>
</g>
</g>
<!-- Node1&#45;&gt;Node13 -->
<g id="edge13_Node000001_Node000013" class="edge">
<title>Node1&#45;&gt;Node13</title>
<g id="a_edge13_Node000001_Node000013"><a xlink:title=" ">
<path fill="none" stroke="#63b8ff" d="M77.9,-228.98C87.34,-196.05 120.25,-95.7 184,-42.75 185.27,-41.69 186.59,-40.68 187.95,-39.7"/>
<polygon fill="#63b8ff" stroke="#63b8ff" points="189.44,-42.89 196.09,-34.65 185.75,-36.95 189.44,-42.89"/>
</a>
</g>
</g>
<!-- Node2&#45;&gt;Node3 -->
<g id="edge2_Node000002_Node000003" class="edge">
<title>Node2&#45;&gt;Node3</title>
<g id="a_edge2_Node000002_Node000003"><a xlink:title=" ">
<path fill="none" stroke="#63b8ff" d="M320.87,-449.54C335.51,-447.67 351.53,-445.63 367.05,-443.65"/>
<polygon fill="#63b8ff" stroke="#63b8ff" points="367.25,-447.15 376.73,-442.42 366.36,-440.21 367.25,-447.15"/>
</a>
</g>
</g>
<!-- Node7 -->
<g id="Node000007" class="node">
<title>Node7</title>
<g id="a_Node000007"><a xlink:href="classunique__haplotype__block.html#ad3b893b578cd0a31bad9b21fa6fee652" target="_top" xlink:title="Clears all data stored in the haplotype block.">
<polygon fill="white" stroke="#666666" points="513,-208.5 378.5,-208.5 378.5,-175 513,-175 513,-208.5"/>
<text text-anchor="start" x="386.5" y="-195" font-family="Helvetica,sans-Serif" font-size="10.00">unique_haplotype_block</text>
<text text-anchor="middle" x="445.75" y="-182.25" font-family="Helvetica,sans-Serif" font-size="10.00">::clear</text>
</a>
</g>
</g>
<!-- Node6&#45;&gt;Node7 -->
<g id="edge6_Node000006_Node000007" class="edge">
<title>Node6&#45;&gt;Node7</title>
<g id="a_edge6_Node000006_Node000007"><a xlink:title=" ">
<path fill="none" stroke="#63b8ff" d="M318.37,-245.51C326.5,-242.7 334.75,-239.73 342.5,-236.75 360.79,-229.71 380.56,-221.21 397.81,-213.51"/>
<polygon fill="#63b8ff" stroke="#63b8ff" points="399.12,-216.76 406.8,-209.46 396.25,-210.38 399.12,-216.76"/>
</a>
</g>
</g>
<!-- Node11&#45;&gt;Node7 -->
<g id="edge11_Node000011_Node000007" class="edge">
<title>Node11&#45;&gt;Node7</title>
<g id="a_edge11_Node000011_Node000007"><a xlink:title=" ">
<path fill="none" stroke="#63b8ff" d="M324.84,-85.87C330.97,-88.49 336.97,-91.44 342.5,-94.75 374.27,-113.79 404.22,-144.23 423.39,-165.93"/>
<polygon fill="#63b8ff" stroke="#63b8ff" points="420.75,-168.22 429.93,-173.49 426.04,-163.64 420.75,-168.22"/>
</a>
</g>
</g>
<!-- Node12 -->
<g id="Node000012" class="node">
<title>Node12</title>
<g id="a_Node000012"><a xlink:href="classunique__haplotype__block.html#ac6accb25615e067cd96ce3abdf82e70f" target="_top" xlink:title="Get the number of variants compressed in this block.">
<polygon fill="white" stroke="#666666" points="513,-85.5 378.5,-85.5 378.5,-52 513,-52 513,-85.5"/>
<text text-anchor="start" x="386.5" y="-72" font-family="Helvetica,sans-Serif" font-size="10.00">unique_haplotype_block</text>
<text text-anchor="middle" x="445.75" y="-59.25" font-family="Helvetica,sans-Serif" font-size="10.00">::variant_size</text>
</a>
</g>
</g>
<!-- Node11&#45;&gt;Node12 -->
<g id="edge12_Node000011_Node000012" class="edge">
<title>Node11&#45;&gt;Node12</title>
<g id="a_edge12_Node000011_Node000012"><a xlink:title=" ">
<path fill="none" stroke="#63b8ff" d="M330.95,-68.75C342.59,-68.75 354.8,-68.75 366.72,-68.75"/>
<polygon fill="#63b8ff" stroke="#63b8ff" points="366.51,-72.25 376.51,-68.75 366.51,-65.25 366.51,-72.25"/>
</a>
</g>
</g>
</g>
</svg>
