<?xml version="1.0" encoding="UTF-8" standalone="no"?>
<!DOCTYPE svg PUBLIC "-//W3C//DTD SVG 1.1//EN"
 "http://www.w3.org/Graphics/SVG/1.1/DTD/svg11.dtd">
<!-- Generated by graphviz version 12.2.1 (0)
 -->
<!-- Title: load_variant_hmm_params Pages: 1 -->
<svg width="332pt" height="236pt"
 viewBox="0.00 0.00 331.75 235.50" xmlns="http://www.w3.org/2000/svg" xmlns:xlink="http://www.w3.org/1999/xlink">
<g id="graph0" class="graph" transform="scale(1 1) rotate(0) translate(4 231.5)">
<title>load_variant_hmm_params</title>
<!-- Node1 -->
<g id="Node000001" class="node">
<title>Node1</title>
<g id="a_Node000001"><a xlink:title="Loads Hidden Markov Model (HMM) parameters for target variants.">
<polygon fill="#999999" stroke="#666666" points="149.5,-124.12 0,-124.12 0,-103.38 149.5,-103.38 149.5,-124.12"/>
<text text-anchor="middle" x="74.75" y="-110.62" font-family="Helvetica,sans-Serif" font-size="10.00">load_variant_hmm_params</text>
</a>
</g>
</g>
<!-- Node2 -->
<g id="Node000002" class="node">
<title>Node2</title>
<g id="a_Node000002"><a xlink:href="classreduced__haplotypes.html#a60e35764066ee20b0bc825482d956dc1" target="_top" xlink:title=" ">
<polygon fill="white" stroke="#666666" points="311.75,-227.5 197.5,-227.5 197.5,-194 311.75,-194 311.75,-227.5"/>
<text text-anchor="start" x="205.5" y="-214" font-family="Helvetica,sans-Serif" font-size="10.00">reduced_haplotypes</text>
<text text-anchor="middle" x="254.62" y="-201.25" font-family="Helvetica,sans-Serif" font-size="10.00">::begin</text>
</a>
</g>
</g>
<!-- Node1&#45;&gt;Node2 -->
<g id="edge1_Node000001_Node000002" class="edge">
<title>Node1&#45;&gt;Node2</title>
<g id="a_edge1_Node000001_Node000002"><a xlink:title=" ">
<path fill="none" stroke="#63b8ff" d="M90.07,-124.42C110.49,-139.29 149.47,-166.48 185.5,-184.75 188.36,-186.2 191.32,-187.62 194.33,-188.99"/>
<polygon fill="#63b8ff" stroke="#63b8ff" points="192.75,-192.12 203.31,-192.9 195.54,-185.7 192.75,-192.12"/>
</a>
</g>
</g>
<!-- Node3 -->
<g id="Node000003" class="node">
<title>Node3</title>
<g id="a_Node000003"><a xlink:href="classrecombination.html#a7c20c24aa59851417602f61648e686de" target="_top" xlink:title="Convert genetic distance to switch probability (default decay rate).">
<polygon fill="white" stroke="#666666" points="315.88,-175.5 193.38,-175.5 193.38,-142 315.88,-142 315.88,-175.5"/>
<text text-anchor="start" x="201.38" y="-162" font-family="Helvetica,sans-Serif" font-size="10.00">recombination::cm_to</text>
<text text-anchor="middle" x="254.62" y="-149.25" font-family="Helvetica,sans-Serif" font-size="10.00">_switch_prob</text>
</a>
</g>
</g>
<!-- Node1&#45;&gt;Node3 -->
<g id="edge2_Node000001_Node000003" class="edge">
<title>Node1&#45;&gt;Node3</title>
<g id="a_edge2_Node000001_Node000003"><a xlink:title=" ">
<path fill="none" stroke="#63b8ff" d="M118.36,-124.53C137.44,-129.36 160.46,-135.18 182.07,-140.65"/>
<polygon fill="#63b8ff" stroke="#63b8ff" points="181.18,-144.03 191.74,-143.09 182.9,-137.25 181.18,-144.03"/>
</a>
</g>
</g>
<!-- Node4 -->
<g id="Node000004" class="node">
<title>Node4</title>
<g id="a_Node000004"><a xlink:href="classreduced__haplotypes.html#a84d77aa694b17ecfe412d8f4a4e1614b" target="_top" xlink:title=" ">
<polygon fill="white" stroke="#666666" points="323.75,-124.12 185.5,-124.12 185.5,-103.38 323.75,-103.38 323.75,-124.12"/>
<text text-anchor="middle" x="254.62" y="-110.62" font-family="Helvetica,sans-Serif" font-size="10.00">reduced_haplotypes::end</text>
</a>
</g>
</g>
<!-- Node1&#45;&gt;Node4 -->
<g id="edge3_Node000001_Node000004" class="edge">
<title>Node1&#45;&gt;Node4</title>
<g id="a_edge3_Node000001_Node000004"><a xlink:title=" ">
<path fill="none" stroke="#63b8ff" d="M149.9,-113.75C157.71,-113.75 165.68,-113.75 173.56,-113.75"/>
<polygon fill="#63b8ff" stroke="#63b8ff" points="173.49,-117.25 183.49,-113.75 173.49,-110.25 173.49,-117.25"/>
</a>
</g>
</g>
<!-- Node5 -->
<g id="Node000005" class="node">
<title>Node5</title>
<g id="a_Node000005"><a xlink:href="classreduced__haplotypes.html#a2b64b102c51814ddaf9e923b3c67e33f" target="_top" xlink:title="Fills the centimorgan (cM) values for all variants in all blocks using the provided genetic map.">
<polygon fill="white" stroke="#666666" points="311.75,-85.5 197.5,-85.5 197.5,-52 311.75,-52 311.75,-85.5"/>
<text text-anchor="start" x="205.5" y="-72" font-family="Helvetica,sans-Serif" font-size="10.00">reduced_haplotypes</text>
<text text-anchor="middle" x="254.62" y="-59.25" font-family="Helvetica,sans-Serif" font-size="10.00">::fill_cm</text>
</a>
</g>
</g>
<!-- Node1&#45;&gt;Node5 -->
<g id="edge4_Node000001_Node000005" class="edge">
<title>Node1&#45;&gt;Node5</title>
<g id="a_edge4_Node000001_Node000005"><a xlink:title=" ">
<path fill="none" stroke="#63b8ff" d="M118.36,-102.97C138.67,-97.83 163.46,-91.56 186.24,-85.8"/>
<polygon fill="#63b8ff" stroke="#63b8ff" points="186.93,-89.23 195.77,-83.39 185.22,-82.45 186.93,-89.23"/>
</a>
</g>
</g>
<!-- Node6 -->
<g id="Node000006" class="node">
<title>Node6</title>
<g id="a_Node000006"><a xlink:href="classreduced__haplotypes.html#a5b11aec30fdec4903d307720f3c378dd" target="_top" xlink:title="Returns the total number of variants across all blocks.">
<polygon fill="white" stroke="#666666" points="311.75,-33.5 197.5,-33.5 197.5,0 311.75,0 311.75,-33.5"/>
<text text-anchor="start" x="205.5" y="-20" font-family="Helvetica,sans-Serif" font-size="10.00">reduced_haplotypes</text>
<text text-anchor="middle" x="254.62" y="-7.25" font-family="Helvetica,sans-Serif" font-size="10.00">::variant_size</text>
</a>
</g>
</g>
<!-- Node1&#45;&gt;Node6 -->
<g id="edge5_Node000001_Node000006" class="edge">
<title>Node1&#45;&gt;Node6</title>
<g id="a_edge5_Node000001_Node000006"><a xlink:title=" ">
<path fill="none" stroke="#63b8ff" d="M90.07,-103.08C110.49,-88.21 149.47,-61.02 185.5,-42.75 188.36,-41.3 191.32,-39.88 194.33,-38.51"/>
<polygon fill="#63b8ff" stroke="#63b8ff" points="195.54,-41.8 203.31,-34.6 192.75,-35.38 195.54,-41.8"/>
</a>
</g>
</g>
</g>
</svg>
