<?xml version="1.0" encoding="UTF-8" standalone="no"?>
<!DOCTYPE svg PUBLIC "-//W3C//DTD SVG 1.1//EN"
 "http://www.w3.org/Graphics/SVG/1.1/DTD/svg11.dtd">
<!-- Generated by graphviz version 12.2.1 (0)
 -->
<!-- Title: compress_reference_panel Pages: 1 -->
<svg width="294pt" height="250pt"
 viewBox="0.00 0.00 293.50 249.50" xmlns="http://www.w3.org/2000/svg" xmlns:xlink="http://www.w3.org/1999/xlink">
<g id="graph0" class="graph" transform="scale(1 1) rotate(0) translate(4 245.5)">
<title>compress_reference_panel</title>
<!-- Node1 -->
<g id="Node000001" class="node">
<title>Node1</title>
<g id="a_Node000001"><a xlink:title="Compress a haplotype reference panel into blocks and write to an output file.">
<polygon fill="#999999" stroke="#666666" points="115,-137.5 0,-137.5 0,-104 115,-104 115,-137.5"/>
<text text-anchor="start" x="8" y="-124" font-family="Helvetica,sans-Serif" font-size="10.00">compress_reference</text>
<text text-anchor="middle" x="57.5" y="-111.25" font-family="Helvetica,sans-Serif" font-size="10.00">_panel</text>
</a>
</g>
</g>
<!-- Node2 -->
<g id="Node000002" class="node">
<title>Node2</title>
<g id="a_Node000002"><a xlink:href="classunique__haplotype__block.html#ad3b893b578cd0a31bad9b21fa6fee652" target="_top" xlink:title="Clears all data stored in the haplotype block.">
<polygon fill="white" stroke="#666666" points="285.5,-241.5 151,-241.5 151,-208 285.5,-208 285.5,-241.5"/>
<text text-anchor="start" x="159" y="-228" font-family="Helvetica,sans-Serif" font-size="10.00">unique_haplotype_block</text>
<text text-anchor="middle" x="218.25" y="-215.25" font-family="Helvetica,sans-Serif" font-size="10.00">::clear</text>
</a>
</g>
</g>
<!-- Node1&#45;&gt;Node2 -->
<g id="edge1_Node000001_Node000002" class="edge">
<title>Node1&#45;&gt;Node2</title>
<g id="a_edge1_Node000001_Node000002"><a xlink:title=" ">
<path fill="none" stroke="#63b8ff" d="M75.26,-137.85C92.85,-155.05 121.94,-181.44 151,-198.75 153.28,-200.11 155.65,-201.43 158.07,-202.69"/>
<polygon fill="#63b8ff" stroke="#63b8ff" points="156.37,-205.76 166.89,-206.98 159.43,-199.46 156.37,-205.76"/>
</a>
</g>
</g>
<!-- Node3 -->
<g id="Node000003" class="node">
<title>Node3</title>
<g id="a_Node000003"><a xlink:href="classunique__haplotype__block.html#abae0532d646fcfaf21c7327012b80a51" target="_top" xlink:title="Compress and map haplotype alleles for a new variant into the block.">
<polygon fill="white" stroke="#666666" points="285.5,-189.5 151,-189.5 151,-156 285.5,-156 285.5,-189.5"/>
<text text-anchor="start" x="159" y="-176" font-family="Helvetica,sans-Serif" font-size="10.00">unique_haplotype_block</text>
<text text-anchor="middle" x="218.25" y="-163.25" font-family="Helvetica,sans-Serif" font-size="10.00">::compress_variant</text>
</a>
</g>
</g>
<!-- Node1&#45;&gt;Node3 -->
<g id="edge2_Node000001_Node000003" class="edge">
<title>Node1&#45;&gt;Node3</title>
<g id="a_edge2_Node000001_Node000003"><a xlink:title=" ">
<path fill="none" stroke="#63b8ff" d="M110.92,-137.92C124.67,-142.42 139.64,-147.33 153.89,-152"/>
<polygon fill="#63b8ff" stroke="#63b8ff" points="152.58,-155.25 163.18,-155.04 154.76,-148.6 152.58,-155.25"/>
</a>
</g>
</g>
<!-- Node4 -->
<g id="Node000004" class="node">
<title>Node4</title>
<g id="a_Node000004"><a xlink:href="classunique__haplotype__block.html#aeec29660714f418ad463e25b691e192a" target="_top" xlink:title="Serializes the unique haplotype block to a SAVVY output file.">
<polygon fill="white" stroke="#666666" points="285.5,-137.5 151,-137.5 151,-104 285.5,-104 285.5,-137.5"/>
<text text-anchor="start" x="159" y="-124" font-family="Helvetica,sans-Serif" font-size="10.00">unique_haplotype_block</text>
<text text-anchor="middle" x="218.25" y="-111.25" font-family="Helvetica,sans-Serif" font-size="10.00">::serialize</text>
</a>
</g>
</g>
<!-- Node1&#45;&gt;Node4 -->
<g id="edge3_Node000001_Node000004" class="edge">
<title>Node1&#45;&gt;Node4</title>
<g id="a_edge3_Node000001_Node000004"><a xlink:title=" ">
<path fill="none" stroke="#63b8ff" d="M115.36,-120.75C123.1,-120.75 131.16,-120.75 139.19,-120.75"/>
<polygon fill="#63b8ff" stroke="#63b8ff" points="138.99,-124.25 148.99,-120.75 138.99,-117.25 138.99,-124.25"/>
</a>
</g>
</g>
<!-- Node5 -->
<g id="Node000005" class="node">
<title>Node5</title>
<g id="a_Node000005"><a xlink:href="classunique__haplotype__block.html#ac6accb25615e067cd96ce3abdf82e70f" target="_top" xlink:title="Get the number of variants compressed in this block.">
<polygon fill="white" stroke="#666666" points="285.5,-85.5 151,-85.5 151,-52 285.5,-52 285.5,-85.5"/>
<text text-anchor="start" x="159" y="-72" font-family="Helvetica,sans-Serif" font-size="10.00">unique_haplotype_block</text>
<text text-anchor="middle" x="218.25" y="-59.25" font-family="Helvetica,sans-Serif" font-size="10.00">::variant_size</text>
</a>
</g>
</g>
<!-- Node1&#45;&gt;Node5 -->
<g id="edge4_Node000001_Node000005" class="edge">
<title>Node1&#45;&gt;Node5</title>
<g id="a_edge4_Node000001_Node000005"><a xlink:title=" ">
<path fill="none" stroke="#63b8ff" d="M110.92,-103.58C124.67,-99.08 139.64,-94.17 153.89,-89.5"/>
<polygon fill="#63b8ff" stroke="#63b8ff" points="154.76,-92.9 163.18,-86.46 152.58,-86.25 154.76,-92.9"/>
</a>
</g>
</g>
<!-- Node6 -->
<g id="Node000006" class="node">
<title>Node6</title>
<g id="a_Node000006"><a xlink:href="classunique__haplotype__block.html#ad08c799f3eb6ffe2c7c5cad53f6381a9" target="_top" xlink:title="Get the list of compressed reference variants in this block.">
<polygon fill="white" stroke="#666666" points="285.5,-33.5 151,-33.5 151,0 285.5,0 285.5,-33.5"/>
<text text-anchor="start" x="159" y="-20" font-family="Helvetica,sans-Serif" font-size="10.00">unique_haplotype_block</text>
<text text-anchor="middle" x="218.25" y="-7.25" font-family="Helvetica,sans-Serif" font-size="10.00">::variants</text>
</a>
</g>
</g>
<!-- Node1&#45;&gt;Node6 -->
<g id="edge5_Node000001_Node000006" class="edge">
<title>Node1&#45;&gt;Node6</title>
<g id="a_edge5_Node000001_Node000006"><a xlink:title=" ">
<path fill="none" stroke="#63b8ff" d="M75.26,-103.65C92.85,-86.45 121.94,-60.06 151,-42.75 153.28,-41.39 155.65,-40.07 158.07,-38.81"/>
<polygon fill="#63b8ff" stroke="#63b8ff" points="159.43,-42.04 166.89,-34.52 156.37,-35.74 159.43,-42.04"/>
</a>
</g>
</g>
</g>
</svg>
