<?xml version="1.0" encoding="UTF-8" standalone="no"?>
<!DOCTYPE svg PUBLIC "-//W3C//DTD SVG 1.1//EN"
 "http://www.w3.org/Graphics/SVG/1.1/DTD/svg11.dtd">
<!-- Generated by graphviz version 12.2.1 (0)
 -->
<!-- Title: convert_old_m3vcf Pages: 1 -->
<svg width="482pt" height="198pt"
 viewBox="0.00 0.00 482.00 197.50" xmlns="http://www.w3.org/2000/svg" xmlns:xlink="http://www.w3.org/1999/xlink">
<g id="graph0" class="graph" transform="scale(1 1) rotate(0) translate(4 193.5)">
<title>convert_old_m3vcf</title>
<!-- Node1 -->
<g id="Node000001" class="node">
<title>Node1</title>
<g id="a_Node000001"><a xlink:title="Converts an old M3VCF file (v1/v2) to a newer VCF&#45;like format (MVCFv3.0).">
<polygon fill="#999999" stroke="#666666" points="109,-105.12 0,-105.12 0,-84.38 109,-84.38 109,-105.12"/>
<text text-anchor="middle" x="54.5" y="-91.62" font-family="Helvetica,sans-Serif" font-size="10.00">convert_old_m3vcf</text>
</a>
</g>
</g>
<!-- Node2 -->
<g id="Node000002" class="node">
<title>Node2</title>
<g id="a_Node000002"><a xlink:href="classunique__haplotype__block.html#ada3ab17532ea5baefd80fe72307846f2" target="_top" xlink:title="Deserialize a unique haplotype block from an input stream (m3vcf format).">
<polygon fill="white" stroke="#666666" points="279.5,-189.5 145,-189.5 145,-156 279.5,-156 279.5,-189.5"/>
<text text-anchor="start" x="153" y="-176" font-family="Helvetica,sans-Serif" font-size="10.00">unique_haplotype_block</text>
<text text-anchor="middle" x="212.25" y="-163.25" font-family="Helvetica,sans-Serif" font-size="10.00">::deserialize</text>
</a>
</g>
</g>
<!-- Node1&#45;&gt;Node2 -->
<g id="edge1_Node000001_Node000002" class="edge">
<title>Node1&#45;&gt;Node2</title>
<g id="a_edge1_Node000001_Node000002"><a xlink:title=" ">
<path fill="none" stroke="#63b8ff" d="M72.24,-105.51C89.91,-116.62 118.79,-134.08 145,-146.75 148.07,-148.23 151.25,-149.7 154.48,-151.14"/>
<polygon fill="#63b8ff" stroke="#63b8ff" points="152.92,-154.28 163.49,-155 155.68,-147.84 152.92,-154.28"/>
</a>
</g>
</g>
<!-- Node4 -->
<g id="Node000004" class="node">
<title>Node4</title>
<g id="a_Node000004"><a xlink:href="classunique__haplotype__block.html#a6cece685c1b9ed1e8605d6da1605fca8" target="_top" xlink:title="Fills the centimorgan (cM) values for all variants in the haplotype block.">
<polygon fill="white" stroke="#666666" points="279.5,-137.5 145,-137.5 145,-104 279.5,-104 279.5,-137.5"/>
<text text-anchor="start" x="153" y="-124" font-family="Helvetica,sans-Serif" font-size="10.00">unique_haplotype_block</text>
<text text-anchor="middle" x="212.25" y="-111.25" font-family="Helvetica,sans-Serif" font-size="10.00">::fill_cm</text>
</a>
</g>
</g>
<!-- Node1&#45;&gt;Node4 -->
<g id="edge3_Node000001_Node000004" class="edge">
<title>Node1&#45;&gt;Node4</title>
<g id="a_edge3_Node000001_Node000004"><a xlink:title=" ">
<path fill="none" stroke="#63b8ff" d="M109.1,-103.7C116.96,-105.01 125.2,-106.38 133.43,-107.76"/>
<polygon fill="#63b8ff" stroke="#63b8ff" points="132.68,-111.18 143.12,-109.38 133.84,-104.28 132.68,-111.18"/>
</a>
</g>
</g>
<!-- Node6 -->
<g id="Node000006" class="node">
<title>Node6</title>
<g id="a_Node000006"><a xlink:href="classunique__haplotype__block.html#aeec29660714f418ad463e25b691e192a" target="_top" xlink:title="Serializes the unique haplotype block to a SAVVY output file.">
<polygon fill="white" stroke="#666666" points="279.5,-85.5 145,-85.5 145,-52 279.5,-52 279.5,-85.5"/>
<text text-anchor="start" x="153" y="-72" font-family="Helvetica,sans-Serif" font-size="10.00">unique_haplotype_block</text>
<text text-anchor="middle" x="212.25" y="-59.25" font-family="Helvetica,sans-Serif" font-size="10.00">::serialize</text>
</a>
</g>
</g>
<!-- Node1&#45;&gt;Node6 -->
<g id="edge5_Node000001_Node000006" class="edge">
<title>Node1&#45;&gt;Node6</title>
<g id="a_edge5_Node000001_Node000006"><a xlink:title=" ">
<path fill="none" stroke="#63b8ff" d="M109.1,-85.8C116.96,-84.49 125.2,-83.12 133.43,-81.74"/>
<polygon fill="#63b8ff" stroke="#63b8ff" points="133.84,-85.22 143.12,-80.12 132.68,-78.32 133.84,-85.22"/>
</a>
</g>
</g>
<!-- Node7 -->
<g id="Node000007" class="node">
<title>Node7</title>
<g id="a_Node000007"><a xlink:href="classunique__haplotype__block.html#ad08c799f3eb6ffe2c7c5cad53f6381a9" target="_top" xlink:title="Get the list of compressed reference variants in this block.">
<polygon fill="white" stroke="#666666" points="279.5,-33.5 145,-33.5 145,0 279.5,0 279.5,-33.5"/>
<text text-anchor="start" x="153" y="-20" font-family="Helvetica,sans-Serif" font-size="10.00">unique_haplotype_block</text>
<text text-anchor="middle" x="212.25" y="-7.25" font-family="Helvetica,sans-Serif" font-size="10.00">::variants</text>
</a>
</g>
</g>
<!-- Node1&#45;&gt;Node7 -->
<g id="edge6_Node000001_Node000007" class="edge">
<title>Node1&#45;&gt;Node7</title>
<g id="a_edge6_Node000001_Node000007"><a xlink:title=" ">
<path fill="none" stroke="#63b8ff" d="M72.24,-83.99C89.91,-72.88 118.79,-55.42 145,-42.75 148.07,-41.27 151.25,-39.8 154.48,-38.36"/>
<polygon fill="#63b8ff" stroke="#63b8ff" points="155.68,-41.66 163.49,-34.5 152.92,-35.22 155.68,-41.66"/>
</a>
</g>
</g>
<!-- Node3 -->
<g id="Node000003" class="node">
<title>Node3</title>
<g id="a_Node000003"><a xlink:href="classunique__haplotype__block.html#ad3b893b578cd0a31bad9b21fa6fee652" target="_top" xlink:title="Clears all data stored in the haplotype block.">
<polygon fill="white" stroke="#666666" points="462,-189.5 327.5,-189.5 327.5,-156 462,-156 462,-189.5"/>
<text text-anchor="start" x="335.5" y="-176" font-family="Helvetica,sans-Serif" font-size="10.00">unique_haplotype_block</text>
<text text-anchor="middle" x="394.75" y="-163.25" font-family="Helvetica,sans-Serif" font-size="10.00">::clear</text>
</a>
</g>
</g>
<!-- Node2&#45;&gt;Node3 -->
<g id="edge2_Node000002_Node000003" class="edge">
<title>Node2&#45;&gt;Node3</title>
<g id="a_edge2_Node000002_Node000003"><a xlink:title=" ">
<path fill="none" stroke="#63b8ff" d="M279.95,-172.75C291.59,-172.75 303.8,-172.75 315.72,-172.75"/>
<polygon fill="#63b8ff" stroke="#63b8ff" points="315.51,-176.25 325.51,-172.75 315.51,-169.25 315.51,-176.25"/>
</a>
</g>
</g>
<!-- Node5 -->
<g id="Node000005" class="node">
<title>Node5</title>
<g id="a_Node000005"><a xlink:href="classgenetic__map__file.html#af9d9dec9d1657b85a7fb7d89e7be0d5b" target="_top" xlink:title="Interpolate the genetic map position (in centimorgans) for a variant.">
<polygon fill="white" stroke="#666666" points="474,-137.5 315.5,-137.5 315.5,-104 474,-104 474,-137.5"/>
<text text-anchor="start" x="323.5" y="-124" font-family="Helvetica,sans-Serif" font-size="10.00">genetic_map_file::interpolate</text>
<text text-anchor="middle" x="394.75" y="-111.25" font-family="Helvetica,sans-Serif" font-size="10.00">_centimorgan</text>
</a>
</g>
</g>
<!-- Node4&#45;&gt;Node5 -->
<g id="edge4_Node000004_Node000005" class="edge">
<title>Node4&#45;&gt;Node5</title>
<g id="a_edge4_Node000004_Node000005"><a xlink:title=" ">
<path fill="none" stroke="#63b8ff" d="M279.95,-120.75C287.73,-120.75 295.76,-120.75 303.79,-120.75"/>
<polygon fill="#63b8ff" stroke="#63b8ff" points="303.6,-124.25 313.6,-120.75 303.6,-117.25 303.6,-124.25"/>
</a>
</g>
</g>
</g>
</svg>
