<?xml version="1.0" encoding="UTF-8" standalone="no"?>
<!DOCTYPE svg PUBLIC "-//W3C//DTD SVG 1.1//EN"
 "http://www.w3.org/Graphics/SVG/1.1/DTD/svg11.dtd">
<!-- Generated by graphviz version 12.2.1 (0)
 -->
<!-- Title: src/input_prep.hpp Pages: 1 -->
<svg width="710pt" height="256pt"
 viewBox="0.00 0.00 710.38 255.75" xmlns="http://www.w3.org/2000/svg" xmlns:xlink="http://www.w3.org/1999/xlink">
<g id="graph0" class="graph" transform="scale(1 1) rotate(0) translate(4 251.75)">
<title>src/input_prep.hpp</title>
<!-- Node1 -->
<g id="Node000001" class="node">
<title>Node1</title>
<g id="a_Node000001"><a xlink:title=" ">
<polygon fill="#999999" stroke="#666666" points="542.38,-247.75 436.38,-247.75 436.38,-227 542.38,-227 542.38,-247.75"/>
<text text-anchor="middle" x="489.38" y="-234.25" font-family="Helvetica,sans-Serif" font-size="10.00">src/input_prep.hpp</text>
</a>
</g>
</g>
<!-- Node2 -->
<g id="Node000002" class="node">
<title>Node2</title>
<g id="a_Node000002"><a xlink:href="unique__haplotype_8hpp.html" target="_top" xlink:title=" ">
<polygon fill="white" stroke="#666666" points="506.38,-191 382.38,-191 382.38,-170.25 506.38,-170.25 506.38,-191"/>
<text text-anchor="middle" x="444.38" y="-177.5" font-family="Helvetica,sans-Serif" font-size="10.00">unique_haplotype.hpp</text>
</a>
</g>
</g>
<!-- Node1&#45;&gt;Node2 -->
<g id="edge1_Node000001_Node000002" class="edge">
<title>Node1&#45;&gt;Node2</title>
<g id="a_edge1_Node000001_Node000002"><a xlink:title=" ">
<path fill="none" stroke="#63b8ff" d="M481.33,-226.59C475.31,-219.27 466.91,-209.04 459.63,-200.19"/>
<polygon fill="#63b8ff" stroke="#63b8ff" points="462.37,-198 453.31,-192.5 456.96,-202.45 462.37,-198"/>
</a>
</g>
</g>
<!-- Node12 -->
<g id="Node000012" class="node">
<title>Node12</title>
<g id="a_Node000012"><a xlink:title=" ">
<polygon fill="#e0e0e0" stroke="#999999" points="702.38,-134.25 602.38,-134.25 602.38,-113.5 702.38,-113.5 702.38,-134.25"/>
<text text-anchor="middle" x="652.38" y="-120.75" font-family="Helvetica,sans-Serif" font-size="10.00">savvy/reader.hpp</text>
</a>
</g>
</g>
<!-- Node1&#45;&gt;Node12 -->
<g id="edge23_Node000001_Node000012" class="edge">
<title>Node1&#45;&gt;Node12</title>
<g id="a_edge23_Node000001_Node000012"><a xlink:title=" ">
<path fill="none" stroke="#63b8ff" d="M503.56,-226.68C531.61,-207.48 594.46,-164.49 628.83,-140.98"/>
<polygon fill="#63b8ff" stroke="#63b8ff" points="630.58,-144.02 636.86,-135.49 626.63,-138.24 630.58,-144.02"/>
</a>
</g>
</g>
<!-- Node3 -->
<g id="Node000003" class="node">
<title>Node3</title>
<g id="a_Node000003"><a xlink:href="variant_8hpp.html" target="_top" xlink:title=" ">
<polygon fill="white" stroke="#666666" points="508.12,-77.5 436.62,-77.5 436.62,-56.75 508.12,-56.75 508.12,-77.5"/>
<text text-anchor="middle" x="472.38" y="-64" font-family="Helvetica,sans-Serif" font-size="10.00">variant.hpp</text>
</a>
</g>
</g>
<!-- Node2&#45;&gt;Node3 -->
<g id="edge2_Node000002_Node000003" class="edge">
<title>Node2&#45;&gt;Node3</title>
<g id="a_edge2_Node000002_Node000003"><a xlink:title=" ">
<path fill="none" stroke="#63b8ff" d="M454.93,-169.99C463.37,-161.53 474.56,-148.38 479.38,-134.25 484.39,-119.53 482.19,-101.98 478.98,-88.67"/>
<polygon fill="#63b8ff" stroke="#63b8ff" points="482.41,-87.96 476.33,-79.28 475.68,-89.86 482.41,-87.96"/>
</a>
</g>
</g>
<!-- Node4 -->
<g id="Node000004" class="node">
<title>Node4</title>
<g id="a_Node000004"><a xlink:title=" ">
<polygon fill="#e0e0e0" stroke="#999999" points="494.25,-20.75 450.5,-20.75 450.5,0 494.25,0 494.25,-20.75"/>
<text text-anchor="middle" x="472.38" y="-7.25" font-family="Helvetica,sans-Serif" font-size="10.00">string</text>
</a>
</g>
</g>
<!-- Node2&#45;&gt;Node4 -->
<g id="edge18_Node000002_Node000004" class="edge">
<title>Node2&#45;&gt;Node4</title>
<g id="a_edge18_Node000002_Node000004"><a xlink:title=" ">
<path fill="none" stroke="#63b8ff" d="M458.26,-169.81C469.28,-161.42 484.44,-148.48 494.38,-134.25 509.95,-111.93 512.17,-104.21 517.38,-77.5 519.14,-68.45 520.89,-65.28 517.38,-56.75 512.8,-45.63 504.03,-35.8 495.45,-28.15"/>
<polygon fill="#63b8ff" stroke="#63b8ff" points="497.87,-25.61 487.91,-21.97 493.43,-31.02 497.87,-25.61"/>
</a>
</g>
</g>
<!-- Node5 -->
<g id="Node000005" class="node">
<title>Node5</title>
<g id="a_Node000005"><a xlink:title=" ">
<polygon fill="#e0e0e0" stroke="#999999" points="46.75,-20.75 0,-20.75 0,0 46.75,0 46.75,-20.75"/>
<text text-anchor="middle" x="23.38" y="-7.25" font-family="Helvetica,sans-Serif" font-size="10.00">vector</text>
</a>
</g>
</g>
<!-- Node2&#45;&gt;Node5 -->
<g id="edge19_Node000002_Node000005" class="edge">
<title>Node2&#45;&gt;Node5</title>
<g id="a_edge19_Node000002_Node000005"><a xlink:title=" ">
<path fill="none" stroke="#63b8ff" d="M381.95,-178.66C292.05,-176.14 131.82,-167.03 85.38,-134.25 50.68,-109.77 34.28,-60.07 27.49,-31.96"/>
<polygon fill="#63b8ff" stroke="#63b8ff" points="30.98,-31.53 25.41,-22.52 24.15,-33.04 30.98,-31.53"/>
</a>
</g>
</g>
<!-- Node6 -->
<g id="Node000006" class="node">
<title>Node6</title>
<g id="a_Node000006"><a xlink:title=" ">
<polygon fill="#e0e0e0" stroke="#999999" points="113.88,-20.75 64.88,-20.75 64.88,0 113.88,0 113.88,-20.75"/>
<text text-anchor="middle" x="89.38" y="-7.25" font-family="Helvetica,sans-Serif" font-size="10.00">cstdint</text>
</a>
</g>
</g>
<!-- Node2&#45;&gt;Node6 -->
<g id="edge17_Node000002_Node000006" class="edge">
<title>Node2&#45;&gt;Node6</title>
<g id="a_edge17_Node000002_Node000006"><a xlink:title=" ">
<path fill="none" stroke="#63b8ff" d="M381.9,-178.81C295.64,-176.46 146,-167.54 104.38,-134.25 74.55,-110.4 78.9,-60.45 84.36,-32.13"/>
<polygon fill="#63b8ff" stroke="#63b8ff" points="87.72,-33.13 86.42,-22.61 80.88,-31.65 87.72,-33.13"/>
</a>
</g>
</g>
<!-- Node7 -->
<g id="Node000007" class="node">
<title>Node7</title>
<g id="a_Node000007"><a xlink:title=" ">
<polygon fill="#e0e0e0" stroke="#999999" points="576.25,-20.75 532.5,-20.75 532.5,0 576.25,0 576.25,-20.75"/>
<text text-anchor="middle" x="554.38" y="-7.25" font-family="Helvetica,sans-Serif" font-size="10.00">limits</text>
</a>
</g>
</g>
<!-- Node2&#45;&gt;Node7 -->
<g id="edge21_Node000002_Node000007" class="edge">
<title>Node2&#45;&gt;Node7</title>
<g id="a_edge21_Node000002_Node000007"><a xlink:title=" ">
<path fill="none" stroke="#63b8ff" d="M467.19,-169.86C482.53,-162.22 502.11,-150.21 514.38,-134.25 537.99,-103.52 547.95,-58.32 551.93,-32.16"/>
<polygon fill="#63b8ff" stroke="#63b8ff" points="555.36,-32.88 553.23,-22.5 548.42,-31.94 555.36,-32.88"/>
</a>
</g>
</g>
<!-- Node8 -->
<g id="Node000008" class="node">
<title>Node8</title>
<g id="a_Node000008"><a xlink:href="recombination_8hpp.html" target="_top" xlink:title=" ">
<polygon fill="white" stroke="#666666" points="221.12,-134.25 113.62,-134.25 113.62,-113.5 221.12,-113.5 221.12,-134.25"/>
<text text-anchor="middle" x="167.38" y="-120.75" font-family="Helvetica,sans-Serif" font-size="10.00">recombination.hpp</text>
</a>
</g>
</g>
<!-- Node2&#45;&gt;Node8 -->
<g id="edge7_Node000002_Node000008" class="edge">
<title>Node2&#45;&gt;Node8</title>
<g id="a_edge7_Node000002_Node000008"><a xlink:title=" ">
<path fill="none" stroke="#63b8ff" d="M394.53,-169.77C348,-160.58 278.44,-146.83 228.56,-136.97"/>
<polygon fill="#63b8ff" stroke="#63b8ff" points="229.26,-133.54 218.77,-135.03 227.9,-140.41 229.26,-133.54"/>
</a>
</g>
</g>
<!-- Node2&#45;&gt;Node12 -->
<g id="edge15_Node000002_Node000012" class="edge">
<title>Node2&#45;&gt;Node12</title>
<g id="a_edge15_Node000002_Node000012"><a xlink:title=" ">
<path fill="none" stroke="#63b8ff" d="M481.56,-169.84C515.77,-160.83 566.69,-147.43 604.04,-137.6"/>
<polygon fill="#63b8ff" stroke="#63b8ff" points="604.92,-140.99 613.7,-135.06 603.14,-134.22 604.92,-140.99"/>
</a>
</g>
</g>
<!-- Node13 -->
<g id="Node000013" class="node">
<title>Node13</title>
<g id="a_Node000013"><a xlink:title=" ">
<polygon fill="#e0e0e0" stroke="#999999" points="335.88,-134.25 238.88,-134.25 238.88,-113.5 335.88,-113.5 335.88,-134.25"/>
<text text-anchor="middle" x="287.38" y="-120.75" font-family="Helvetica,sans-Serif" font-size="10.00">savvy/writer.hpp</text>
</a>
</g>
</g>
<!-- Node2&#45;&gt;Node13 -->
<g id="edge16_Node000002_Node000013" class="edge">
<title>Node2&#45;&gt;Node13</title>
<g id="a_edge16_Node000002_Node000013"><a xlink:title=" ">
<path fill="none" stroke="#63b8ff" d="M416.31,-169.84C391.16,-161.07 354.03,-148.12 326.07,-138.37"/>
<polygon fill="#63b8ff" stroke="#63b8ff" points="327.49,-135.16 316.89,-135.17 325.18,-141.77 327.49,-135.16"/>
</a>
</g>
</g>
<!-- Node14 -->
<g id="Node000014" class="node">
<title>Node14</title>
<g id="a_Node000014"><a xlink:title=" ">
<polygon fill="#e0e0e0" stroke="#999999" points="400.38,-134.25 354.38,-134.25 354.38,-113.5 400.38,-113.5 400.38,-134.25"/>
<text text-anchor="middle" x="377.38" y="-120.75" font-family="Helvetica,sans-Serif" font-size="10.00">deque</text>
</a>
</g>
</g>
<!-- Node2&#45;&gt;Node14 -->
<g id="edge20_Node000002_Node000014" class="edge">
<title>Node2&#45;&gt;Node14</title>
<g id="a_edge20_Node000002_Node000014"><a xlink:title=" ">
<path fill="none" stroke="#63b8ff" d="M432.4,-169.84C422.87,-162.05 409.31,-150.97 398.04,-141.76"/>
<polygon fill="#63b8ff" stroke="#63b8ff" points="400.38,-139.15 390.42,-135.54 395.95,-144.57 400.38,-139.15"/>
</a>
</g>
</g>
<!-- Node15 -->
<g id="Node000015" class="node">
<title>Node15</title>
<g id="a_Node000015"><a xlink:title=" ">
<polygon fill="#e0e0e0" stroke="#999999" points="470,-134.25 418.75,-134.25 418.75,-113.5 470,-113.5 470,-134.25"/>
<text text-anchor="middle" x="444.38" y="-120.75" font-family="Helvetica,sans-Serif" font-size="10.00">cassert</text>
</a>
</g>
</g>
<!-- Node2&#45;&gt;Node15 -->
<g id="edge22_Node000002_Node000015" class="edge">
<title>Node2&#45;&gt;Node15</title>
<g id="a_edge22_Node000002_Node000015"><a xlink:title=" ">
<path fill="none" stroke="#63b8ff" d="M444.38,-169.84C444.38,-163.22 444.38,-154.22 444.38,-146.02"/>
<polygon fill="#63b8ff" stroke="#63b8ff" points="447.88,-146.09 444.38,-136.09 440.88,-146.09 447.88,-146.09"/>
</a>
</g>
</g>
<!-- Node3&#45;&gt;Node4 -->
<g id="edge3_Node000003_Node000004" class="edge">
<title>Node3&#45;&gt;Node4</title>
<g id="a_edge3_Node000003_Node000004"><a xlink:title=" ">
<path fill="none" stroke="#63b8ff" d="M472.38,-56.34C472.38,-49.72 472.38,-40.72 472.38,-32.52"/>
<polygon fill="#63b8ff" stroke="#63b8ff" points="475.88,-32.59 472.38,-22.59 468.88,-32.59 475.88,-32.59"/>
</a>
</g>
</g>
<!-- Node3&#45;&gt;Node5 -->
<g id="edge4_Node000003_Node000005" class="edge">
<title>Node3&#45;&gt;Node5</title>
<g id="a_edge4_Node000003_Node000005"><a xlink:title=" ">
<path fill="none" stroke="#63b8ff" d="M436.43,-62.02C421.83,-60.37 404.8,-58.45 389.38,-56.75 244.6,-40.77 203.79,-49.41 58.16,-21.01"/>
<polygon fill="#63b8ff" stroke="#63b8ff" points="59,-17.61 48.51,-19.11 57.64,-24.48 59,-17.61"/>
</a>
</g>
</g>
<!-- Node3&#45;&gt;Node6 -->
<g id="edge5_Node000003_Node000006" class="edge">
<title>Node3&#45;&gt;Node6</title>
<g id="a_edge5_Node000003_Node000006"><a xlink:title=" ">
<path fill="none" stroke="#63b8ff" d="M436.34,-60.97C363.32,-50.53 198.6,-26.99 125.5,-16.54"/>
<polygon fill="#63b8ff" stroke="#63b8ff" points="126.06,-13.08 115.67,-15.13 125.07,-20.01 126.06,-13.08"/>
</a>
</g>
</g>
<!-- Node3&#45;&gt;Node7 -->
<g id="edge6_Node000003_Node000007" class="edge">
<title>Node3&#45;&gt;Node7</title>
<g id="a_edge6_Node000003_Node000007"><a xlink:title=" ">
<path fill="none" stroke="#63b8ff" d="M487.03,-56.34C499.05,-48.32 516.29,-36.81 530.31,-27.44"/>
<polygon fill="#63b8ff" stroke="#63b8ff" points="532.21,-30.38 538.58,-21.92 528.32,-24.56 532.21,-30.38"/>
</a>
</g>
</g>
<!-- Node8&#45;&gt;Node3 -->
<g id="edge8_Node000008_Node000003" class="edge">
<title>Node8&#45;&gt;Node3</title>
<g id="a_edge8_Node000008_Node000003"><a xlink:title=" ">
<path fill="none" stroke="#63b8ff" d="M221.62,-113.37C273.26,-104.29 353.15,-90.15 422.38,-77.5 423.36,-77.32 424.36,-77.14 425.37,-76.95"/>
<polygon fill="#63b8ff" stroke="#63b8ff" points="425.65,-80.46 434.84,-75.2 424.37,-73.58 425.65,-80.46"/>
</a>
</g>
</g>
<!-- Node8&#45;&gt;Node4 -->
<g id="edge10_Node000008_Node000004" class="edge">
<title>Node8&#45;&gt;Node4</title>
<g id="a_edge10_Node000008_Node000004"><a xlink:title=" ">
<path fill="none" stroke="#63b8ff" d="M221.38,-113.2C282.12,-102.11 374.3,-84.55 389.38,-77.5 415.01,-65.52 439.75,-44.12 455.45,-28.91"/>
<polygon fill="#63b8ff" stroke="#63b8ff" points="457.51,-31.8 462.12,-22.27 452.57,-26.85 457.51,-31.8"/>
</a>
</g>
</g>
<!-- Node8&#45;&gt;Node5 -->
<g id="edge11_Node000008_Node000005" class="edge">
<title>Node8&#45;&gt;Node5</title>
<g id="a_edge11_Node000008_Node000005"><a xlink:title=" ">
<path fill="none" stroke="#63b8ff" d="M144.36,-113.04C126.73,-104.91 102.29,-92.32 83.38,-77.5 65.53,-63.52 48.49,-43.93 37.16,-29.7"/>
<polygon fill="#63b8ff" stroke="#63b8ff" points="40.11,-27.8 31.22,-22.04 34.58,-32.09 40.11,-27.8"/>
</a>
</g>
</g>
<!-- Node8&#45;&gt;Node6 -->
<g id="edge12_Node000008_Node000006" class="edge">
<title>Node8&#45;&gt;Node6</title>
<g id="a_edge12_Node000008_Node000006"><a xlink:title=" ">
<path fill="none" stroke="#63b8ff" d="M139.77,-113.11C123.68,-105.88 104.59,-94.34 94.38,-77.5 86.24,-64.08 85.35,-46.21 86.3,-32.43"/>
<polygon fill="#63b8ff" stroke="#63b8ff" points="89.75,-33 87.36,-22.67 82.8,-32.24 89.75,-33"/>
</a>
</g>
</g>
<!-- Node9 -->
<g id="Node000009" class="node">
<title>Node9</title>
<g id="a_Node000009"><a xlink:title=" ">
<polygon fill="#e0e0e0" stroke="#999999" points="235.12,-77.5 103.62,-77.5 103.62,-56.75 235.12,-56.75 235.12,-77.5"/>
<text text-anchor="middle" x="169.38" y="-64" font-family="Helvetica,sans-Serif" font-size="10.00">shrinkwrap/istream.hpp</text>
</a>
</g>
</g>
<!-- Node8&#45;&gt;Node9 -->
<g id="edge9_Node000008_Node000009" class="edge">
<title>Node8&#45;&gt;Node9</title>
<g id="a_edge9_Node000008_Node000009"><a xlink:title=" ">
<path fill="none" stroke="#63b8ff" d="M167.73,-113.09C167.97,-106.47 168.3,-97.47 168.6,-89.27"/>
<polygon fill="#63b8ff" stroke="#63b8ff" points="172.1,-89.46 168.97,-79.34 165.1,-89.21 172.1,-89.46"/>
</a>
</g>
</g>
<!-- Node10 -->
<g id="Node000010" class="node">
<title>Node10</title>
<g id="a_Node000010"><a xlink:title=" ">
<polygon fill="#e0e0e0" stroke="#999999" points="316,-77.5 252.75,-77.5 252.75,-56.75 316,-56.75 316,-77.5"/>
<text text-anchor="middle" x="284.38" y="-64" font-family="Helvetica,sans-Serif" font-size="10.00">algorithm</text>
</a>
</g>
</g>
<!-- Node8&#45;&gt;Node10 -->
<g id="edge13_Node000008_Node000010" class="edge">
<title>Node8&#45;&gt;Node10</title>
<g id="a_edge13_Node000008_Node000010"><a xlink:title=" ">
<path fill="none" stroke="#63b8ff" d="M188.29,-113.09C206.34,-104.64 232.68,-92.32 253.21,-82.71"/>
<polygon fill="#63b8ff" stroke="#63b8ff" points="254.69,-85.88 262.27,-78.47 251.73,-79.54 254.69,-85.88"/>
</a>
</g>
</g>
<!-- Node11 -->
<g id="Node000011" class="node">
<title>Node11</title>
<g id="a_Node000011"><a xlink:title=" ">
<polygon fill="#e0e0e0" stroke="#999999" points="380.75,-77.5 334,-77.5 334,-56.75 380.75,-56.75 380.75,-77.5"/>
<text text-anchor="middle" x="357.38" y="-64" font-family="Helvetica,sans-Serif" font-size="10.00">cmath</text>
</a>
</g>
</g>
<!-- Node8&#45;&gt;Node11 -->
<g id="edge14_Node000008_Node000011" class="edge">
<title>Node8&#45;&gt;Node11</title>
<g id="a_edge14_Node000008_Node000011"><a xlink:title=" ">
<path fill="none" stroke="#63b8ff" d="M201.91,-113.01C231.62,-104.52 275.9,-91.83 322.65,-78.28"/>
<polygon fill="#63b8ff" stroke="#63b8ff" points="323.53,-81.67 332.16,-75.52 321.58,-74.95 323.53,-81.67"/>
</a>
</g>
</g>
</g>
</svg>
