<?xml version="1.0" encoding="UTF-8" standalone="no"?>
<!DOCTYPE svg PUBLIC "-//W3C//DTD SVG 1.1//EN"
 "http://www.w3.org/Graphics/SVG/1.1/DTD/svg11.dtd">
<!-- Generated by graphviz version 12.2.1 (0)
 -->
<!-- Title: src/prog_args.hpp Pages: 1 -->
<svg width="705pt" height="142pt"
 viewBox="0.00 0.00 704.50 142.25" xmlns="http://www.w3.org/2000/svg" xmlns:xlink="http://www.w3.org/1999/xlink">
<g id="graph0" class="graph" transform="scale(1 1) rotate(0) translate(4 138.25)">
<title>src/prog_args.hpp</title>
<!-- Node1 -->
<g id="Node000001" class="node">
<title>Node1</title>
<g id="a_Node000001"><a xlink:title=" ">
<polygon fill="#999999" stroke="#666666" points="385.62,-134.25 283.38,-134.25 283.38,-113.5 385.62,-113.5 385.62,-134.25"/>
<text text-anchor="middle" x="334.5" y="-120.75" font-family="Helvetica,sans-Serif" font-size="10.00">src/prog_args.hpp</text>
</a>
</g>
</g>
<!-- Node2 -->
<g id="Node000002" class="node">
<title>Node2</title>
<g id="a_Node000002"><a xlink:href="getopt__wrapper_8hpp.html" target="_top" xlink:title=" ">
<polygon fill="white" stroke="#666666" points="228.88,-77.5 116.12,-77.5 116.12,-56.75 228.88,-56.75 228.88,-77.5"/>
<text text-anchor="middle" x="172.5" y="-64" font-family="Helvetica,sans-Serif" font-size="10.00">getopt_wrapper.hpp</text>
</a>
</g>
</g>
<!-- Node1&#45;&gt;Node2 -->
<g id="edge1_Node000001_Node000002" class="edge">
<title>Node1&#45;&gt;Node2</title>
<g id="a_edge1_Node000001_Node000002"><a xlink:title=" ">
<path fill="none" stroke="#63b8ff" d="M305.54,-113.09C279.47,-104.28 240.94,-91.25 212.04,-81.49"/>
<polygon fill="#63b8ff" stroke="#63b8ff" points="213.51,-78.29 202.92,-78.41 211.27,-84.92 213.51,-78.29"/>
</a>
</g>
</g>
<!-- Node3 -->
<g id="Node000003" class="node">
<title>Node3</title>
<g id="a_Node000003"><a xlink:title=" ">
<polygon fill="#e0e0e0" stroke="#999999" points="49,-20.75 0,-20.75 0,0 49,0 49,-20.75"/>
<text text-anchor="middle" x="24.5" y="-7.25" font-family="Helvetica,sans-Serif" font-size="10.00">cstdint</text>
</a>
</g>
</g>
<!-- Node1&#45;&gt;Node3 -->
<g id="edge12_Node000001_Node000003" class="edge">
<title>Node1&#45;&gt;Node3</title>
<g id="a_edge12_Node000001_Node000003"><a xlink:title=" ">
<path fill="none" stroke="#63b8ff" d="M283.03,-122.08C231.55,-119.33 151.49,-109.65 90.5,-77.5 68.84,-66.08 49.78,-45.14 37.78,-29.88"/>
<polygon fill="#63b8ff" stroke="#63b8ff" points="40.68,-27.91 31.87,-22.03 35.09,-32.12 40.68,-27.91"/>
</a>
</g>
</g>
<!-- Node4 -->
<g id="Node000004" class="node">
<title>Node4</title>
<g id="a_Node000004"><a xlink:title=" ">
<polygon fill="#e0e0e0" stroke="#999999" points="110.38,-20.75 66.62,-20.75 66.62,0 110.38,0 110.38,-20.75"/>
<text text-anchor="middle" x="88.5" y="-7.25" font-family="Helvetica,sans-Serif" font-size="10.00">string</text>
</a>
</g>
</g>
<!-- Node1&#45;&gt;Node4 -->
<g id="edge9_Node000001_Node000004" class="edge">
<title>Node1&#45;&gt;Node4</title>
<g id="a_edge9_Node000001_Node000004"><a xlink:title=" ">
<path fill="none" stroke="#63b8ff" d="M283.11,-118.76C224.22,-113.02 132.59,-100.6 107.5,-77.5 95.01,-66 90.53,-46.87 89.02,-32.14"/>
<polygon fill="#63b8ff" stroke="#63b8ff" points="92.54,-32.34 88.43,-22.58 85.55,-32.77 92.54,-32.34"/>
</a>
</g>
</g>
<!-- Node6 -->
<g id="Node000006" class="node">
<title>Node6</title>
<g id="a_Node000006"><a xlink:title=" ">
<polygon fill="#e0e0e0" stroke="#999999" points="393.88,-20.75 347.12,-20.75 347.12,0 393.88,0 393.88,-20.75"/>
<text text-anchor="middle" x="370.5" y="-7.25" font-family="Helvetica,sans-Serif" font-size="10.00">vector</text>
</a>
</g>
</g>
<!-- Node1&#45;&gt;Node6 -->
<g id="edge10_Node000001_Node000006" class="edge">
<title>Node1&#45;&gt;Node6</title>
<g id="a_edge10_Node000001_Node000006"><a xlink:title=" ">
<path fill="none" stroke="#63b8ff" d="M314.66,-113.21C292.51,-101.03 261.47,-79 275.5,-56.75 282.56,-45.55 312.03,-32.51 336.3,-23.28"/>
<polygon fill="#63b8ff" stroke="#63b8ff" points="337.4,-26.61 345.57,-19.86 334.98,-20.04 337.4,-26.61"/>
</a>
</g>
</g>
<!-- Node9 -->
<g id="Node000009" class="node">
<title>Node9</title>
<g id="a_Node000009"><a xlink:title=" ">
<polygon fill="#e0e0e0" stroke="#999999" points="384.5,-77.5 284.5,-77.5 284.5,-56.75 384.5,-56.75 384.5,-77.5"/>
<text text-anchor="middle" x="334.5" y="-64" font-family="Helvetica,sans-Serif" font-size="10.00">savvy/reader.hpp</text>
</a>
</g>
</g>
<!-- Node1&#45;&gt;Node9 -->
<g id="edge8_Node000001_Node000009" class="edge">
<title>Node1&#45;&gt;Node9</title>
<g id="a_edge8_Node000001_Node000009"><a xlink:title=" ">
<path fill="none" stroke="#63b8ff" d="M334.5,-113.09C334.5,-106.47 334.5,-97.47 334.5,-89.27"/>
<polygon fill="#63b8ff" stroke="#63b8ff" points="338,-89.34 334.5,-79.34 331,-89.34 338,-89.34"/>
</a>
</g>
</g>
<!-- Node10 -->
<g id="Node000010" class="node">
<title>Node10</title>
<g id="a_Node000010"><a xlink:title=" ">
<polygon fill="#e0e0e0" stroke="#999999" points="488.38,-77.5 402.62,-77.5 402.62,-56.75 488.38,-56.75 488.38,-77.5"/>
<text text-anchor="middle" x="445.5" y="-64" font-family="Helvetica,sans-Serif" font-size="10.00">unordered_set</text>
</a>
</g>
</g>
<!-- Node1&#45;&gt;Node10 -->
<g id="edge11_Node000001_Node000010" class="edge">
<title>Node1&#45;&gt;Node10</title>
<g id="a_edge11_Node000001_Node000010"><a xlink:title=" ">
<path fill="none" stroke="#63b8ff" d="M354.34,-113.09C371.39,-104.68 396.22,-92.43 415.66,-82.84"/>
<polygon fill="#63b8ff" stroke="#63b8ff" points="417.05,-86.06 424.47,-78.5 413.95,-79.78 417.05,-86.06"/>
</a>
</g>
</g>
<!-- Node11 -->
<g id="Node000011" class="node">
<title>Node11</title>
<g id="a_Node000011"><a xlink:title=" ">
<polygon fill="#e0e0e0" stroke="#999999" points="554.62,-77.5 506.38,-77.5 506.38,-56.75 554.62,-56.75 554.62,-77.5"/>
<text text-anchor="middle" x="530.5" y="-64" font-family="Helvetica,sans-Serif" font-size="10.00">cstdlib</text>
</a>
</g>
</g>
<!-- Node1&#45;&gt;Node11 -->
<g id="edge13_Node000001_Node000011" class="edge">
<title>Node1&#45;&gt;Node11</title>
<g id="a_edge13_Node000001_Node000011"><a xlink:title=" ">
<path fill="none" stroke="#63b8ff" d="M370.13,-113.02C400.84,-104.5 446.65,-91.78 494.99,-78.2"/>
<polygon fill="#63b8ff" stroke="#63b8ff" points="495.86,-81.59 504.54,-75.51 493.96,-74.85 495.86,-81.59"/>
</a>
</g>
</g>
<!-- Node12 -->
<g id="Node000012" class="node">
<title>Node12</title>
<g id="a_Node000012"><a xlink:title=" ">
<polygon fill="#e0e0e0" stroke="#999999" points="626.62,-77.5 572.38,-77.5 572.38,-56.75 626.62,-56.75 626.62,-77.5"/>
<text text-anchor="middle" x="599.5" y="-64" font-family="Helvetica,sans-Serif" font-size="10.00">fstream</text>
</a>
</g>
</g>
<!-- Node1&#45;&gt;Node12 -->
<g id="edge14_Node000001_Node000012" class="edge">
<title>Node1&#45;&gt;Node12</title>
<g id="a_edge14_Node000001_Node000012"><a xlink:title=" ">
<path fill="none" stroke="#63b8ff" d="M386.07,-113.56C430.15,-105.39 495.51,-92.81 561.08,-77.96"/>
<polygon fill="#63b8ff" stroke="#63b8ff" points="561.58,-81.43 570.55,-75.8 560.02,-74.61 561.58,-81.43"/>
</a>
</g>
</g>
<!-- Node13 -->
<g id="Node000013" class="node">
<title>Node13</title>
<g id="a_Node000013"><a xlink:title=" ">
<polygon fill="#e0e0e0" stroke="#999999" points="696.5,-77.5 644.5,-77.5 644.5,-56.75 696.5,-56.75 696.5,-77.5"/>
<text text-anchor="middle" x="670.5" y="-64" font-family="Helvetica,sans-Serif" font-size="10.00">iterator</text>
</a>
</g>
</g>
<!-- Node1&#45;&gt;Node13 -->
<g id="edge15_Node000001_Node000013" class="edge">
<title>Node1&#45;&gt;Node13</title>
<g id="a_edge15_Node000001_Node000013"><a xlink:title=" ">
<path fill="none" stroke="#63b8ff" d="M385.94,-116.9C443.77,-109.8 540.65,-96.71 632.97,-77.84"/>
<polygon fill="#63b8ff" stroke="#63b8ff" points="633.64,-81.27 642.72,-75.82 632.22,-74.42 633.64,-81.27"/>
</a>
</g>
</g>
<!-- Node2&#45;&gt;Node3 -->
<g id="edge2_Node000002_Node000003" class="edge">
<title>Node2&#45;&gt;Node3</title>
<g id="a_edge2_Node000002_Node000003"><a xlink:title=" ">
<path fill="none" stroke="#63b8ff" d="M146.04,-56.34C122.03,-47.46 86.45,-34.29 59.98,-24.5"/>
<polygon fill="#63b8ff" stroke="#63b8ff" points="61.27,-21.24 50.67,-21.06 58.84,-27.81 61.27,-21.24"/>
</a>
</g>
</g>
<!-- Node2&#45;&gt;Node4 -->
<g id="edge3_Node000002_Node000004" class="edge">
<title>Node2&#45;&gt;Node4</title>
<g id="a_edge3_Node000002_Node000004"><a xlink:title=" ">
<path fill="none" stroke="#63b8ff" d="M157.48,-56.34C145.06,-48.24 127.18,-36.58 112.73,-27.17"/>
<polygon fill="#63b8ff" stroke="#63b8ff" points="114.94,-24.43 104.66,-21.9 111.12,-30.3 114.94,-24.43"/>
</a>
</g>
</g>
<!-- Node5 -->
<g id="Node000005" class="node">
<title>Node5</title>
<g id="a_Node000005"><a xlink:title=" ">
<polygon fill="#e0e0e0" stroke="#999999" points="177,-20.75 128,-20.75 128,0 177,0 177,-20.75"/>
<text text-anchor="middle" x="152.5" y="-7.25" font-family="Helvetica,sans-Serif" font-size="10.00">cstring</text>
</a>
</g>
</g>
<!-- Node2&#45;&gt;Node5 -->
<g id="edge4_Node000002_Node000005" class="edge">
<title>Node2&#45;&gt;Node5</title>
<g id="a_edge4_Node000002_Node000005"><a xlink:title=" ">
<path fill="none" stroke="#63b8ff" d="M168.92,-56.34C166.42,-49.49 162.99,-40.09 159.91,-31.65"/>
<polygon fill="#63b8ff" stroke="#63b8ff" points="163.28,-30.69 156.56,-22.5 156.71,-33.09 163.28,-30.69"/>
</a>
</g>
</g>
<!-- Node2&#45;&gt;Node6 -->
<g id="edge5_Node000002_Node000006" class="edge">
<title>Node2&#45;&gt;Node6</title>
<g id="a_edge5_Node000002_Node000006"><a xlink:title=" ">
<path fill="none" stroke="#63b8ff" d="M208.57,-56.3C239.73,-47.79 286.24,-35.04 335.77,-21.22"/>
<polygon fill="#63b8ff" stroke="#63b8ff" points="336.57,-24.63 345.26,-18.57 334.68,-17.89 336.57,-24.63"/>
</a>
</g>
</g>
<!-- Node7 -->
<g id="Node000007" class="node">
<title>Node7</title>
<g id="a_Node000007"><a xlink:title=" ">
<polygon fill="#e0e0e0" stroke="#999999" points="254.25,-20.75 194.75,-20.75 194.75,0 254.25,0 254.25,-20.75"/>
<text text-anchor="middle" x="224.5" y="-7.25" font-family="Helvetica,sans-Serif" font-size="10.00">iostream</text>
</a>
</g>
</g>
<!-- Node2&#45;&gt;Node7 -->
<g id="edge6_Node000002_Node000007" class="edge">
<title>Node2&#45;&gt;Node7</title>
<g id="a_edge6_Node000002_Node000007"><a xlink:title=" ">
<path fill="none" stroke="#63b8ff" d="M181.8,-56.34C188.9,-48.86 198.87,-38.36 207.4,-29.38"/>
<polygon fill="#63b8ff" stroke="#63b8ff" points="209.89,-31.84 214.24,-22.18 204.82,-27.02 209.89,-31.84"/>
</a>
</g>
</g>
<!-- Node8 -->
<g id="Node000008" class="node">
<title>Node8</title>
<g id="a_Node000008"><a xlink:title=" ">
<polygon fill="#e0e0e0" stroke="#999999" points="328.75,-20.75 272.25,-20.75 272.25,0 328.75,0 328.75,-20.75"/>
<text text-anchor="middle" x="300.5" y="-7.25" font-family="Helvetica,sans-Serif" font-size="10.00">getopt.h</text>
</a>
</g>
</g>
<!-- Node2&#45;&gt;Node8 -->
<g id="edge7_Node000002_Node000008" class="edge">
<title>Node2&#45;&gt;Node8</title>
<g id="a_edge7_Node000002_Node000008"><a xlink:title=" ">
<path fill="none" stroke="#63b8ff" d="M195.38,-56.34C215.41,-47.77 244.74,-35.23 267.33,-25.56"/>
<polygon fill="#63b8ff" stroke="#63b8ff" points="268.6,-28.82 276.42,-21.67 265.85,-22.39 268.6,-28.82"/>
</a>
</g>
</g>
</g>
</svg>
