<?xml version="1.0" encoding="UTF-8" standalone="no"?>
<!DOCTYPE svg PUBLIC "-//W3C//DTD SVG 1.1//EN"
 "http://www.w3.org/Graphics/SVG/1.1/DTD/svg11.dtd">
<!-- Generated by graphviz version 12.2.1 (0)
 -->
<!-- Title: src/prog_args.hpp Pages: 1 -->
<svg width="212pt" height="142pt"
 viewBox="0.00 0.00 211.50 142.25" xmlns="http://www.w3.org/2000/svg" xmlns:xlink="http://www.w3.org/1999/xlink">
<g id="graph0" class="graph" transform="scale(1 1) rotate(0) translate(4 138.25)">
<title>src/prog_args.hpp</title>
<!-- Node1 -->
<g id="Node000001" class="node">
<title>Node1</title>
<g id="a_Node000001"><a xlink:title=" ">
<polygon fill="#999999" stroke="#666666" points="159.5,-134.25 57.25,-134.25 57.25,-113.5 159.5,-113.5 159.5,-134.25"/>
<text text-anchor="middle" x="108.38" y="-120.75" font-family="Helvetica,sans-Serif" font-size="10.00">src/prog_args.hpp</text>
</a>
</g>
</g>
<!-- Node2 -->
<g id="Node000002" class="node">
<title>Node2</title>
<g id="a_Node000002"><a xlink:href="imputation_8hpp.html" target="_top" xlink:title=" ">
<polygon fill="white" stroke="#666666" points="162.12,-77.5 54.62,-77.5 54.62,-56.75 162.12,-56.75 162.12,-77.5"/>
<text text-anchor="middle" x="108.38" y="-64" font-family="Helvetica,sans-Serif" font-size="10.00">src/imputation.hpp</text>
</a>
</g>
</g>
<!-- Node1&#45;&gt;Node2 -->
<g id="edge1_Node000001_Node000002" class="edge">
<title>Node1&#45;&gt;Node2</title>
<g id="a_edge1_Node000001_Node000002"><a xlink:title=" ">
<path fill="none" stroke="#63b8ff" d="M108.38,-101.63C108.38,-93.41 108.38,-84.43 108.38,-77.83"/>
<polygon fill="#63b8ff" stroke="#63b8ff" points="104.88,-101.57 108.38,-111.57 111.88,-101.57 104.88,-101.57"/>
</a>
</g>
</g>
<!-- Node3 -->
<g id="Node000003" class="node">
<title>Node3</title>
<g id="a_Node000003"><a xlink:href="imputation_8cpp.html" target="_top" xlink:title=" ">
<polygon fill="white" stroke="#666666" points="106.75,-20.75 0,-20.75 0,0 106.75,0 106.75,-20.75"/>
<text text-anchor="middle" x="53.38" y="-7.25" font-family="Helvetica,sans-Serif" font-size="10.00">src/imputation.cpp</text>
</a>
</g>
</g>
<!-- Node2&#45;&gt;Node3 -->
<g id="edge2_Node000002_Node000003" class="edge">
<title>Node2&#45;&gt;Node3</title>
<g id="a_edge2_Node000002_Node000003"><a xlink:title=" ">
<path fill="none" stroke="#63b8ff" d="M90.47,-48.3C81.38,-39.25 70.69,-28.61 63.12,-21.08"/>
<polygon fill="#63b8ff" stroke="#63b8ff" points="87.91,-50.69 97.47,-55.27 92.85,-45.73 87.91,-50.69"/>
</a>
</g>
</g>
<!-- Node4 -->
<g id="Node000004" class="node">
<title>Node4</title>
<g id="a_Node000004"><a xlink:href="main_8cpp.html" target="_top" xlink:title=" ">
<polygon fill="white" stroke="#666666" points="203.5,-20.75 125.25,-20.75 125.25,0 203.5,0 203.5,-20.75"/>
<text text-anchor="middle" x="164.38" y="-7.25" font-family="Helvetica,sans-Serif" font-size="10.00">src/main.cpp</text>
</a>
</g>
</g>
<!-- Node2&#45;&gt;Node4 -->
<g id="edge3_Node000002_Node000004" class="edge">
<title>Node2&#45;&gt;Node4</title>
<g id="a_edge3_Node000002_Node000004"><a xlink:title=" ">
<path fill="none" stroke="#63b8ff" d="M126.61,-48.3C135.86,-39.25 146.75,-28.61 154.45,-21.08"/>
<polygon fill="#63b8ff" stroke="#63b8ff" points="124.17,-45.79 119.47,-55.28 129.07,-50.79 124.17,-45.79"/>
</a>
</g>
</g>
</g>
</svg>
