<?xml version="1.0" encoding="UTF-8" standalone="no"?>
<!DOCTYPE svg PUBLIC "-//W3C//DTD SVG 1.1//EN"
 "http://www.w3.org/Graphics/SVG/1.1/DTD/svg11.dtd">
<!-- Generated by graphviz version 12.2.1 (0)
 -->
<!-- Title: src/recombination.hpp Pages: 1 -->
<svg width="525pt" height="142pt"
 viewBox="0.00 0.00 525.25 142.25" xmlns="http://www.w3.org/2000/svg" xmlns:xlink="http://www.w3.org/1999/xlink">
<g id="graph0" class="graph" transform="scale(1 1) rotate(0) translate(4 138.25)">
<title>src/recombination.hpp</title>
<!-- Node1 -->
<g id="Node000001" class="node">
<title>Node1</title>
<g id="a_Node000001"><a xlink:title=" ">
<polygon fill="#999999" stroke="#666666" points="274.25,-134.25 149.5,-134.25 149.5,-113.5 274.25,-113.5 274.25,-134.25"/>
<text text-anchor="middle" x="211.88" y="-120.75" font-family="Helvetica,sans-Serif" font-size="10.00">src/recombination.hpp</text>
</a>
</g>
</g>
<!-- Node2 -->
<g id="Node000002" class="node">
<title>Node2</title>
<g id="a_Node000002"><a xlink:href="variant_8hpp.html" target="_top" xlink:title=" ">
<polygon fill="white" stroke="#666666" points="183.62,-77.5 112.12,-77.5 112.12,-56.75 183.62,-56.75 183.62,-77.5"/>
<text text-anchor="middle" x="147.88" y="-64" font-family="Helvetica,sans-Serif" font-size="10.00">variant.hpp</text>
</a>
</g>
</g>
<!-- Node1&#45;&gt;Node2 -->
<g id="edge1_Node000001_Node000002" class="edge">
<title>Node1&#45;&gt;Node2</title>
<g id="a_edge1_Node000001_Node000002"><a xlink:title=" ">
<path fill="none" stroke="#63b8ff" d="M200.43,-113.09C191.42,-105.38 178.64,-94.45 167.94,-85.29"/>
<polygon fill="#63b8ff" stroke="#63b8ff" points="170.24,-82.65 160.37,-78.81 165.69,-87.97 170.24,-82.65"/>
</a>
</g>
</g>
<!-- Node3 -->
<g id="Node000003" class="node">
<title>Node3</title>
<g id="a_Node000003"><a xlink:title=" ">
<polygon fill="#e0e0e0" stroke="#999999" points="43.75,-20.75 0,-20.75 0,0 43.75,0 43.75,-20.75"/>
<text text-anchor="middle" x="21.88" y="-7.25" font-family="Helvetica,sans-Serif" font-size="10.00">string</text>
</a>
</g>
</g>
<!-- Node1&#45;&gt;Node3 -->
<g id="edge7_Node000001_Node000003" class="edge">
<title>Node1&#45;&gt;Node3</title>
<g id="a_edge7_Node000001_Node000003"><a xlink:title=" ">
<path fill="none" stroke="#63b8ff" d="M171.87,-113.05C146.52,-105.7 113.76,-94.04 87.88,-77.5 67.69,-64.6 48.84,-44.59 36.49,-29.95"/>
<polygon fill="#63b8ff" stroke="#63b8ff" points="39.36,-27.94 30.32,-22.41 33.95,-32.37 39.36,-27.94"/>
</a>
</g>
</g>
<!-- Node4 -->
<g id="Node000004" class="node">
<title>Node4</title>
<g id="a_Node000004"><a xlink:title=" ">
<polygon fill="#e0e0e0" stroke="#999999" points="108.25,-20.75 61.5,-20.75 61.5,0 108.25,0 108.25,-20.75"/>
<text text-anchor="middle" x="84.88" y="-7.25" font-family="Helvetica,sans-Serif" font-size="10.00">vector</text>
</a>
</g>
</g>
<!-- Node1&#45;&gt;Node4 -->
<g id="edge8_Node000001_Node000004" class="edge">
<title>Node1&#45;&gt;Node4</title>
<g id="a_edge8_Node000001_Node000004"><a xlink:title=" ">
<path fill="none" stroke="#63b8ff" d="M163.82,-113.03C142.42,-106.35 118.57,-95.36 102.88,-77.5 91.94,-65.06 87.57,-46.59 85.87,-32.33"/>
<polygon fill="#63b8ff" stroke="#63b8ff" points="89.38,-32.34 85.08,-22.65 82.4,-32.91 89.38,-32.34"/>
</a>
</g>
</g>
<!-- Node5 -->
<g id="Node000005" class="node">
<title>Node5</title>
<g id="a_Node000005"><a xlink:title=" ">
<polygon fill="#e0e0e0" stroke="#999999" points="236.38,-20.75 187.38,-20.75 187.38,0 236.38,0 236.38,-20.75"/>
<text text-anchor="middle" x="211.88" y="-7.25" font-family="Helvetica,sans-Serif" font-size="10.00">cstdint</text>
</a>
</g>
</g>
<!-- Node1&#45;&gt;Node5 -->
<g id="edge9_Node000001_Node000005" class="edge">
<title>Node1&#45;&gt;Node5</title>
<g id="a_edge9_Node000001_Node000005"><a xlink:title=" ">
<path fill="none" stroke="#63b8ff" d="M211.88,-113.37C211.88,-95.6 211.88,-56.97 211.88,-32.68"/>
<polygon fill="#63b8ff" stroke="#63b8ff" points="215.38,-32.69 211.88,-22.69 208.38,-32.69 215.38,-32.69"/>
</a>
</g>
</g>
<!-- Node7 -->
<g id="Node000007" class="node">
<title>Node7</title>
<g id="a_Node000007"><a xlink:title=" ">
<polygon fill="#e0e0e0" stroke="#999999" points="371.62,-77.5 240.12,-77.5 240.12,-56.75 371.62,-56.75 371.62,-77.5"/>
<text text-anchor="middle" x="305.88" y="-64" font-family="Helvetica,sans-Serif" font-size="10.00">shrinkwrap/istream.hpp</text>
</a>
</g>
</g>
<!-- Node1&#45;&gt;Node7 -->
<g id="edge6_Node000001_Node000007" class="edge">
<title>Node1&#45;&gt;Node7</title>
<g id="a_edge6_Node000001_Node000007"><a xlink:title=" ">
<path fill="none" stroke="#63b8ff" d="M228.68,-113.09C242.85,-104.83 263.37,-92.88 279.69,-83.38"/>
<polygon fill="#63b8ff" stroke="#63b8ff" points="281.03,-86.65 287.91,-78.59 277.5,-80.6 281.03,-86.65"/>
</a>
</g>
</g>
<!-- Node8 -->
<g id="Node000008" class="node">
<title>Node8</title>
<g id="a_Node000008"><a xlink:title=" ">
<polygon fill="#e0e0e0" stroke="#999999" points="452.5,-77.5 389.25,-77.5 389.25,-56.75 452.5,-56.75 452.5,-77.5"/>
<text text-anchor="middle" x="420.88" y="-64" font-family="Helvetica,sans-Serif" font-size="10.00">algorithm</text>
</a>
</g>
</g>
<!-- Node1&#45;&gt;Node8 -->
<g id="edge10_Node000001_Node000008" class="edge">
<title>Node1&#45;&gt;Node8</title>
<g id="a_edge10_Node000001_Node000008"><a xlink:title=" ">
<path fill="none" stroke="#63b8ff" d="M249.24,-113.09C285.47,-103.6 340.36,-89.22 378.27,-79.29"/>
<polygon fill="#63b8ff" stroke="#63b8ff" points="378.71,-82.79 387.5,-76.87 376.94,-76.02 378.71,-82.79"/>
</a>
</g>
</g>
<!-- Node9 -->
<g id="Node000009" class="node">
<title>Node9</title>
<g id="a_Node000009"><a xlink:title=" ">
<polygon fill="#e0e0e0" stroke="#999999" points="517.25,-77.5 470.5,-77.5 470.5,-56.75 517.25,-56.75 517.25,-77.5"/>
<text text-anchor="middle" x="493.88" y="-64" font-family="Helvetica,sans-Serif" font-size="10.00">cmath</text>
</a>
</g>
</g>
<!-- Node1&#45;&gt;Node9 -->
<g id="edge11_Node000001_Node000009" class="edge">
<title>Node1&#45;&gt;Node9</title>
<g id="a_edge11_Node000001_Node000009"><a xlink:title=" ">
<path fill="none" stroke="#63b8ff" d="M274.67,-113.36C322.88,-105.63 391.29,-93.74 459.28,-77.94"/>
<polygon fill="#63b8ff" stroke="#63b8ff" points="459.78,-81.42 468.71,-75.72 458.17,-74.6 459.78,-81.42"/>
</a>
</g>
</g>
<!-- Node2&#45;&gt;Node3 -->
<g id="edge2_Node000002_Node000003" class="edge">
<title>Node2&#45;&gt;Node3</title>
<g id="a_edge2_Node000002_Node000003"><a xlink:title=" ">
<path fill="none" stroke="#63b8ff" d="M125.35,-56.34C105.64,-47.77 76.77,-35.23 54.52,-25.56"/>
<polygon fill="#63b8ff" stroke="#63b8ff" points="56.16,-22.46 45.59,-21.68 53.37,-28.88 56.16,-22.46"/>
</a>
</g>
</g>
<!-- Node2&#45;&gt;Node4 -->
<g id="edge3_Node000002_Node000004" class="edge">
<title>Node2&#45;&gt;Node4</title>
<g id="a_edge3_Node000002_Node000004"><a xlink:title=" ">
<path fill="none" stroke="#63b8ff" d="M136.61,-56.34C127.74,-48.63 115.16,-37.7 104.63,-28.54"/>
<polygon fill="#63b8ff" stroke="#63b8ff" points="107.03,-25.99 97.18,-22.07 102.44,-31.27 107.03,-25.99"/>
</a>
</g>
</g>
<!-- Node2&#45;&gt;Node5 -->
<g id="edge4_Node000002_Node000005" class="edge">
<title>Node2&#45;&gt;Node5</title>
<g id="a_edge4_Node000002_Node000005"><a xlink:title=" ">
<path fill="none" stroke="#63b8ff" d="M159.32,-56.34C168.33,-48.63 181.11,-37.7 191.81,-28.54"/>
<polygon fill="#63b8ff" stroke="#63b8ff" points="194.06,-31.22 199.38,-22.06 189.51,-25.9 194.06,-31.22"/>
</a>
</g>
</g>
<!-- Node6 -->
<g id="Node000006" class="node">
<title>Node6</title>
<g id="a_Node000006"><a xlink:title=" ">
<polygon fill="#e0e0e0" stroke="#999999" points="169.75,-20.75 126,-20.75 126,0 169.75,0 169.75,-20.75"/>
<text text-anchor="middle" x="147.88" y="-7.25" font-family="Helvetica,sans-Serif" font-size="10.00">limits</text>
</a>
</g>
</g>
<!-- Node2&#45;&gt;Node6 -->
<g id="edge5_Node000002_Node000006" class="edge">
<title>Node2&#45;&gt;Node6</title>
<g id="a_edge5_Node000002_Node000006"><a xlink:title=" ">
<path fill="none" stroke="#63b8ff" d="M147.88,-56.34C147.88,-49.72 147.88,-40.72 147.88,-32.52"/>
<polygon fill="#63b8ff" stroke="#63b8ff" points="151.38,-32.59 147.88,-22.59 144.38,-32.59 151.38,-32.59"/>
</a>
</g>
</g>
</g>
</svg>
