<?xml version="1.0" encoding="UTF-8" standalone="no"?>
<!DOCTYPE svg PUBLIC "-//W3C//DTD SVG 1.1//EN"
 "http://www.w3.org/Graphics/SVG/1.1/DTD/svg11.dtd">
<!-- Generated by graphviz version 12.2.1 (0)
 -->
<!-- Title: src/recombination.hpp Pages: 1 -->
<svg width="585pt" height="313pt"
 viewBox="0.00 0.00 585.29 312.50" xmlns="http://www.w3.org/2000/svg" xmlns:xlink="http://www.w3.org/1999/xlink">
<g id="graph0" class="graph" transform="scale(1 1) rotate(0) translate(4 308.5)">
<title>src/recombination.hpp</title>
<!-- Node1 -->
<g id="Node000001" class="node">
<title>Node1</title>
<g id="a_Node000001"><a xlink:title=" ">
<polygon fill="#999999" stroke="#666666" points="126.42,-304.5 1.67,-304.5 1.67,-283.75 126.42,-283.75 126.42,-304.5"/>
<text text-anchor="middle" x="64.04" y="-291" font-family="Helvetica,sans-Serif" font-size="10.00">src/recombination.hpp</text>
</a>
</g>
</g>
<!-- Node2 -->
<g id="Node000002" class="node">
<title>Node2</title>
<g id="a_Node000002"><a xlink:href="imputation_8hpp.html" target="_top" xlink:title=" ">
<polygon fill="white" stroke="#666666" points="272.79,-77.5 165.29,-77.5 165.29,-56.75 272.79,-56.75 272.79,-77.5"/>
<text text-anchor="middle" x="219.04" y="-64" font-family="Helvetica,sans-Serif" font-size="10.00">src/imputation.hpp</text>
</a>
</g>
</g>
<!-- Node1&#45;&gt;Node2 -->
<g id="edge1_Node000001_Node000002" class="edge">
<title>Node1&#45;&gt;Node2</title>
<g id="a_edge1_Node000001_Node000002"><a xlink:title=" ">
<path fill="none" stroke="#63b8ff" d="M46.14,-274.9C39.62,-267.15 32.9,-257.63 29.04,-247.75 7.27,-192.02 -18.29,-160.25 19.04,-113.5 37.04,-90.96 112.35,-78.78 165.23,-72.87"/>
<polygon fill="#63b8ff" stroke="#63b8ff" points="43.49,-277.18 52.79,-282.26 48.68,-272.49 43.49,-277.18"/>
</a>
</g>
</g>
<!-- Node5 -->
<g id="Node000005" class="node">
<title>Node5</title>
<g id="a_Node000005"><a xlink:href="input__prep_8cpp.html" target="_top" xlink:title=" ">
<polygon fill="white" stroke="#666666" points="133.67,-134.25 28.42,-134.25 28.42,-113.5 133.67,-113.5 133.67,-134.25"/>
<text text-anchor="middle" x="81.04" y="-120.75" font-family="Helvetica,sans-Serif" font-size="10.00">src/input_prep.cpp</text>
</a>
</g>
</g>
<!-- Node1&#45;&gt;Node5 -->
<g id="edge4_Node000001_Node000005" class="edge">
<title>Node1&#45;&gt;Node5</title>
<g id="a_edge4_Node000001_Node000005"><a xlink:title=" ">
<path fill="none" stroke="#63b8ff" d="M50.07,-273.89C45.26,-266.16 40.48,-256.92 38.04,-247.75 29.18,-214.46 25.29,-202.25 38.04,-170.25 43.91,-155.53 57.07,-142.84 67.3,-134.66"/>
<polygon fill="#63b8ff" stroke="#63b8ff" points="47.09,-275.74 55.57,-282.09 52.9,-271.84 47.09,-275.74"/>
</a>
</g>
</g>
<!-- Node6 -->
<g id="Node000006" class="node">
<title>Node6</title>
<g id="a_Node000006"><a xlink:href="recombination_8cpp.html" target="_top" xlink:title=" ">
<polygon fill="white" stroke="#666666" points="171.04,-247.75 47.04,-247.75 47.04,-227 171.04,-227 171.04,-247.75"/>
<text text-anchor="middle" x="109.04" y="-234.25" font-family="Helvetica,sans-Serif" font-size="10.00">src/recombination.cpp</text>
</a>
</g>
</g>
<!-- Node1&#45;&gt;Node6 -->
<g id="edge5_Node000001_Node000006" class="edge">
<title>Node1&#45;&gt;Node6</title>
<g id="a_edge5_Node000001_Node000006"><a xlink:title=" ">
<path fill="none" stroke="#63b8ff" d="M79.39,-274.46C86.67,-265.59 95.07,-255.37 101.07,-248.08"/>
<polygon fill="#63b8ff" stroke="#63b8ff" points="76.69,-272.22 73.05,-282.17 82.1,-276.66 76.69,-272.22"/>
</a>
</g>
</g>
<!-- Node7 -->
<g id="Node000007" class="node">
<title>Node7</title>
<g id="a_Node000007"><a xlink:href="unique__haplotype_8hpp.html" target="_top" xlink:title=" ">
<polygon fill="white" stroke="#666666" points="330.67,-247.75 189.42,-247.75 189.42,-227 330.67,-227 330.67,-247.75"/>
<text text-anchor="middle" x="260.04" y="-234.25" font-family="Helvetica,sans-Serif" font-size="10.00">src/unique_haplotype.hpp</text>
</a>
</g>
</g>
<!-- Node1&#45;&gt;Node7 -->
<g id="edge6_Node000001_Node000007" class="edge">
<title>Node1&#45;&gt;Node7</title>
<g id="a_edge6_Node000001_Node000007"><a xlink:title=" ">
<path fill="none" stroke="#63b8ff" d="M110.02,-280.28C145.16,-270.47 192.87,-257.14 224.97,-248.17"/>
<polygon fill="#63b8ff" stroke="#63b8ff" points="109.23,-276.87 100.54,-282.93 111.11,-283.61 109.23,-276.87"/>
</a>
</g>
</g>
<!-- Node3 -->
<g id="Node000003" class="node">
<title>Node3</title>
<g id="a_Node000003"><a xlink:href="imputation_8cpp.html" target="_top" xlink:title=" ">
<polygon fill="white" stroke="#666666" points="217.42,-20.75 110.67,-20.75 110.67,0 217.42,0 217.42,-20.75"/>
<text text-anchor="middle" x="164.04" y="-7.25" font-family="Helvetica,sans-Serif" font-size="10.00">src/imputation.cpp</text>
</a>
</g>
</g>
<!-- Node2&#45;&gt;Node3 -->
<g id="edge2_Node000002_Node000003" class="edge">
<title>Node2&#45;&gt;Node3</title>
<g id="a_edge2_Node000002_Node000003"><a xlink:title=" ">
<path fill="none" stroke="#63b8ff" d="M201.14,-48.3C192.04,-39.25 181.35,-28.61 173.79,-21.08"/>
<polygon fill="#63b8ff" stroke="#63b8ff" points="198.58,-50.69 208.14,-55.27 203.52,-45.73 198.58,-50.69"/>
</a>
</g>
</g>
<!-- Node4 -->
<g id="Node000004" class="node">
<title>Node4</title>
<g id="a_Node000004"><a xlink:href="main_8cpp.html" target="_top" xlink:title=" ">
<polygon fill="white" stroke="#666666" points="314.17,-20.75 235.92,-20.75 235.92,0 314.17,0 314.17,-20.75"/>
<text text-anchor="middle" x="275.04" y="-7.25" font-family="Helvetica,sans-Serif" font-size="10.00">src/main.cpp</text>
</a>
</g>
</g>
<!-- Node2&#45;&gt;Node4 -->
<g id="edge3_Node000002_Node000004" class="edge">
<title>Node2&#45;&gt;Node4</title>
<g id="a_edge3_Node000002_Node000004"><a xlink:title=" ">
<path fill="none" stroke="#63b8ff" d="M237.27,-48.3C246.53,-39.25 257.42,-28.61 265.12,-21.08"/>
<polygon fill="#63b8ff" stroke="#63b8ff" points="234.84,-45.79 230.14,-55.28 239.73,-50.79 234.84,-45.79"/>
</a>
</g>
</g>
<!-- Node8 -->
<g id="Node000008" class="node">
<title>Node8</title>
<g id="a_Node000008"><a xlink:href="dosage__writer_8hpp.html" target="_top" xlink:title=" ">
<polygon fill="white" stroke="#666666" points="577.29,-134.25 454.79,-134.25 454.79,-113.5 577.29,-113.5 577.29,-134.25"/>
<text text-anchor="middle" x="516.04" y="-120.75" font-family="Helvetica,sans-Serif" font-size="10.00">src/dosage_writer.hpp</text>
</a>
</g>
</g>
<!-- Node7&#45;&gt;Node8 -->
<g id="edge7_Node000007_Node000008" class="edge">
<title>Node7&#45;&gt;Node8</title>
<g id="a_edge7_Node000007_Node000008"><a xlink:title=" ">
<path fill="none" stroke="#63b8ff" d="M342.21,-230.97C403.97,-225.16 481.61,-213.53 504.04,-191 519.02,-175.95 518.77,-148.88 517.37,-134.48"/>
<polygon fill="#63b8ff" stroke="#63b8ff" points="342.04,-227.48 332.39,-231.86 342.67,-234.45 342.04,-227.48"/>
</a>
</g>
</g>
<!-- Node10 -->
<g id="Node000010" class="node">
<title>Node10</title>
<g id="a_Node000010"><a xlink:href="hidden__markov__model_8hpp.html" target="_top" xlink:title=" ">
<polygon fill="white" stroke="#666666" points="494.67,-191 329.42,-191 329.42,-170.25 494.67,-170.25 494.67,-191"/>
<text text-anchor="middle" x="412.04" y="-177.5" font-family="Helvetica,sans-Serif" font-size="10.00">src/hidden_markov_model.hpp</text>
</a>
</g>
</g>
<!-- Node7&#45;&gt;Node10 -->
<g id="edge10_Node000007_Node000010" class="edge">
<title>Node7&#45;&gt;Node10</title>
<g id="a_edge10_Node000007_Node000010"><a xlink:title=" ">
<path fill="none" stroke="#63b8ff" d="M297.84,-222.76C324.86,-213.03 360.6,-200.15 384.85,-191.42"/>
<polygon fill="#63b8ff" stroke="#63b8ff" points="296.86,-219.39 288.64,-226.07 299.23,-225.98 296.86,-219.39"/>
</a>
</g>
</g>
<!-- Node12 -->
<g id="Node000012" class="node">
<title>Node12</title>
<g id="a_Node000012"><a xlink:href="input__prep_8hpp.html" target="_top" xlink:title=" ">
<polygon fill="white" stroke="#666666" points="153.04,-191 47.04,-191 47.04,-170.25 153.04,-170.25 153.04,-191"/>
<text text-anchor="middle" x="100.04" y="-177.5" font-family="Helvetica,sans-Serif" font-size="10.00">src/input_prep.hpp</text>
</a>
</g>
</g>
<!-- Node7&#45;&gt;Node12 -->
<g id="edge14_Node000007_Node000012" class="edge">
<title>Node7&#45;&gt;Node12</title>
<g id="a_edge14_Node000007_Node000012"><a xlink:title=" ">
<path fill="none" stroke="#63b8ff" d="M220.63,-222.89C192.14,-213.14 154.31,-200.19 128.67,-191.42"/>
<polygon fill="#63b8ff" stroke="#63b8ff" points="219.41,-226.17 230,-226.1 221.68,-219.55 219.41,-226.17"/>
</a>
</g>
</g>
<!-- Node13 -->
<g id="Node000013" class="node">
<title>Node13</title>
<g id="a_Node000013"><a xlink:href="unique__haplotype_8cpp.html" target="_top" xlink:title=" ">
<polygon fill="white" stroke="#666666" points="311.29,-191 170.79,-191 170.79,-170.25 311.29,-170.25 311.29,-191"/>
<text text-anchor="middle" x="241.04" y="-177.5" font-family="Helvetica,sans-Serif" font-size="10.00">src/unique_haplotype.cpp</text>
</a>
</g>
</g>
<!-- Node7&#45;&gt;Node13 -->
<g id="edge17_Node000007_Node000013" class="edge">
<title>Node7&#45;&gt;Node13</title>
<g id="a_edge17_Node000007_Node000013"><a xlink:title=" ">
<path fill="none" stroke="#63b8ff" d="M252.97,-215.99C250.04,-207.55 246.78,-198.16 244.41,-191.33"/>
<polygon fill="#63b8ff" stroke="#63b8ff" points="249.56,-216.86 256.15,-225.16 256.18,-214.56 249.56,-216.86"/>
</a>
</g>
</g>
<!-- Node8&#45;&gt;Node2 -->
<g id="edge9_Node000008_Node000002" class="edge">
<title>Node8&#45;&gt;Node2</title>
<g id="a_edge9_Node000008_Node000002"><a xlink:title=" ">
<path fill="none" stroke="#63b8ff" d="M451.52,-110.98C398,-101.11 322.78,-87.25 272.55,-77.99"/>
<polygon fill="#63b8ff" stroke="#63b8ff" points="450.64,-114.38 461.11,-112.75 451.91,-107.49 450.64,-114.38"/>
</a>
</g>
</g>
<!-- Node9 -->
<g id="Node000009" class="node">
<title>Node9</title>
<g id="a_Node000009"><a xlink:href="dosage__writer_8cpp.html" target="_top" xlink:title=" ">
<polygon fill="white" stroke="#666666" points="576.92,-77.5 455.17,-77.5 455.17,-56.75 576.92,-56.75 576.92,-77.5"/>
<text text-anchor="middle" x="516.04" y="-64" font-family="Helvetica,sans-Serif" font-size="10.00">src/dosage_writer.cpp</text>
</a>
</g>
</g>
<!-- Node8&#45;&gt;Node9 -->
<g id="edge8_Node000008_Node000009" class="edge">
<title>Node8&#45;&gt;Node9</title>
<g id="a_edge8_Node000008_Node000009"><a xlink:title=" ">
<path fill="none" stroke="#63b8ff" d="M516.04,-101.63C516.04,-93.41 516.04,-84.43 516.04,-77.83"/>
<polygon fill="#63b8ff" stroke="#63b8ff" points="512.54,-101.57 516.04,-111.57 519.54,-101.57 512.54,-101.57"/>
</a>
</g>
</g>
<!-- Node10&#45;&gt;Node2 -->
<g id="edge13_Node000010_Node000002" class="edge">
<title>Node10&#45;&gt;Node2</title>
<g id="a_edge13_Node000010_Node000002"><a xlink:title=" ">
<path fill="none" stroke="#63b8ff" d="M335.46,-167C310.64,-160.24 284.11,-149.93 263.04,-134.25 242.91,-119.27 229.16,-92.17 222.9,-77.75"/>
<polygon fill="#63b8ff" stroke="#63b8ff" points="334.32,-170.32 344.87,-169.4 336.05,-163.54 334.32,-170.32"/>
</a>
</g>
</g>
<!-- Node10&#45;&gt;Node8 -->
<g id="edge11_Node000010_Node000008" class="edge">
<title>Node10&#45;&gt;Node8</title>
<g id="a_edge11_Node000010_Node000008"><a xlink:title=" ">
<path fill="none" stroke="#63b8ff" d="M440.69,-164.54C458.86,-154.98 481.83,-142.88 497.61,-134.58"/>
<polygon fill="#63b8ff" stroke="#63b8ff" points="439.19,-161.38 431.97,-169.13 442.45,-167.57 439.19,-161.38"/>
</a>
</g>
</g>
<!-- Node11 -->
<g id="Node000011" class="node">
<title>Node11</title>
<g id="a_Node000011"><a xlink:href="hidden__markov__model_8cpp.html" target="_top" xlink:title=" ">
<polygon fill="white" stroke="#666666" points="436.29,-134.25 271.79,-134.25 271.79,-113.5 436.29,-113.5 436.29,-134.25"/>
<text text-anchor="middle" x="354.04" y="-120.75" font-family="Helvetica,sans-Serif" font-size="10.00">src/hidden_markov_model.cpp</text>
</a>
</g>
</g>
<!-- Node10&#45;&gt;Node11 -->
<g id="edge12_Node000010_Node000011" class="edge">
<title>Node10&#45;&gt;Node11</title>
<g id="a_edge12_Node000010_Node000011"><a xlink:title=" ">
<path fill="none" stroke="#63b8ff" d="M393.46,-162.08C383.8,-152.97 372.38,-142.18 364.32,-134.58"/>
<polygon fill="#63b8ff" stroke="#63b8ff" points="390.9,-164.48 400.57,-168.8 395.7,-159.39 390.9,-164.48"/>
</a>
</g>
</g>
<!-- Node12&#45;&gt;Node2 -->
<g id="edge15_Node000012_Node000002" class="edge">
<title>Node12&#45;&gt;Node2</title>
<g id="a_edge15_Node000012_Node000002"><a xlink:title=" ">
<path fill="none" stroke="#63b8ff" d="M118.56,-162.27C143.86,-138.56 188.4,-96.83 208.58,-77.93"/>
<polygon fill="#63b8ff" stroke="#63b8ff" points="116.2,-159.69 111.29,-169.08 120.98,-164.8 116.2,-159.69"/>
</a>
</g>
</g>
<!-- Node12&#45;&gt;Node5 -->
<g id="edge16_Node000012_Node000005" class="edge">
<title>Node12&#45;&gt;Node5</title>
<g id="a_edge16_Node000012_Node000005"><a xlink:title=" ">
<path fill="none" stroke="#63b8ff" d="M92.97,-159.24C90.04,-150.8 86.78,-141.41 84.41,-134.58"/>
<polygon fill="#63b8ff" stroke="#63b8ff" points="89.56,-160.11 96.15,-168.41 96.18,-157.81 89.56,-160.11"/>
</a>
</g>
</g>
</g>
</svg>
