<?xml version="1.0" encoding="UTF-8" standalone="no"?>
<!DOCTYPE svg PUBLIC "-//W3C//DTD SVG 1.1//EN"
 "http://www.w3.org/Graphics/SVG/1.1/DTD/svg11.dtd">
<!-- Generated by graphviz version 12.2.1 (0)
 -->
<!-- Title: src/recombination.cpp Pages: 1 -->
<svg width="524pt" height="199pt"
 viewBox="0.00 0.00 524.00 199.00" xmlns="http://www.w3.org/2000/svg" xmlns:xlink="http://www.w3.org/1999/xlink">
<g id="graph0" class="graph" transform="scale(1 1) rotate(0) translate(4 195)">
<title>src/recombination.cpp</title>
<!-- Node1 -->
<g id="Node000001" class="node">
<title>Node1</title>
<g id="a_Node000001"><a xlink:title=" ">
<polygon fill="#999999" stroke="#666666" points="479.38,-191 355.38,-191 355.38,-170.25 479.38,-170.25 479.38,-191"/>
<text text-anchor="middle" x="417.38" y="-177.5" font-family="Helvetica,sans-Serif" font-size="10.00">src/recombination.cpp</text>
</a>
</g>
</g>
<!-- Node2 -->
<g id="Node000002" class="node">
<title>Node2</title>
<g id="a_Node000002"><a xlink:href="recombination_8hpp.html" target="_top" xlink:title=" ">
<polygon fill="white" stroke="#666666" points="334.12,-134.25 226.62,-134.25 226.62,-113.5 334.12,-113.5 334.12,-134.25"/>
<text text-anchor="middle" x="280.38" y="-120.75" font-family="Helvetica,sans-Serif" font-size="10.00">recombination.hpp</text>
</a>
</g>
</g>
<!-- Node1&#45;&gt;Node2 -->
<g id="edge1_Node000001_Node000002" class="edge">
<title>Node1&#45;&gt;Node2</title>
<g id="a_edge1_Node000001_Node000002"><a xlink:title=" ">
<path fill="none" stroke="#63b8ff" d="M392.88,-169.84C371.26,-161.19 339.49,-148.5 315.22,-138.8"/>
<polygon fill="#63b8ff" stroke="#63b8ff" points="316.65,-135.6 306.06,-135.14 314.05,-142.1 316.65,-135.6"/>
</a>
</g>
</g>
<!-- Node9 -->
<g id="Node000009" class="node">
<title>Node9</title>
<g id="a_Node000009"><a xlink:title=" ">
<polygon fill="#e0e0e0" stroke="#999999" points="430,-77.5 366.75,-77.5 366.75,-56.75 430,-56.75 430,-77.5"/>
<text text-anchor="middle" x="398.38" y="-64" font-family="Helvetica,sans-Serif" font-size="10.00">algorithm</text>
</a>
</g>
</g>
<!-- Node1&#45;&gt;Node9 -->
<g id="edge14_Node000001_Node000009" class="edge">
<title>Node1&#45;&gt;Node9</title>
<g id="a_edge14_Node000001_Node000009"><a xlink:title=" ">
<path fill="none" stroke="#63b8ff" d="M415.76,-170.12C412.71,-152.27 406.08,-113.36 401.95,-89.09"/>
<polygon fill="#63b8ff" stroke="#63b8ff" points="405.43,-88.69 400.3,-79.42 398.53,-89.86 405.43,-88.69"/>
</a>
</g>
</g>
<!-- Node10 -->
<g id="Node000010" class="node">
<title>Node10</title>
<g id="a_Node000010"><a xlink:title=" ">
<polygon fill="#e0e0e0" stroke="#999999" points="494.75,-77.5 448,-77.5 448,-56.75 494.75,-56.75 494.75,-77.5"/>
<text text-anchor="middle" x="471.38" y="-64" font-family="Helvetica,sans-Serif" font-size="10.00">cmath</text>
</a>
</g>
</g>
<!-- Node1&#45;&gt;Node10 -->
<g id="edge15_Node000001_Node000010" class="edge">
<title>Node1&#45;&gt;Node10</title>
<g id="a_edge15_Node000001_Node000010"><a xlink:title=" ">
<path fill="none" stroke="#63b8ff" d="M421.98,-170.12C430.74,-152.02 449.99,-112.28 461.7,-88.1"/>
<polygon fill="#63b8ff" stroke="#63b8ff" points="464.76,-89.81 465.97,-79.29 458.46,-86.76 464.76,-89.81"/>
</a>
</g>
</g>
<!-- Node11 -->
<g id="Node000011" class="node">
<title>Node11</title>
<g id="a_Node000011"><a xlink:title=" ">
<polygon fill="#e0e0e0" stroke="#999999" points="516,-134.25 464.75,-134.25 464.75,-113.5 516,-113.5 516,-134.25"/>
<text text-anchor="middle" x="490.38" y="-120.75" font-family="Helvetica,sans-Serif" font-size="10.00">cassert</text>
</a>
</g>
</g>
<!-- Node1&#45;&gt;Node11 -->
<g id="edge13_Node000001_Node000011" class="edge">
<title>Node1&#45;&gt;Node11</title>
<g id="a_edge13_Node000001_Node000011"><a xlink:title=" ">
<path fill="none" stroke="#63b8ff" d="M430.43,-169.84C441.01,-161.9 456.17,-150.53 468.59,-141.21"/>
<polygon fill="#63b8ff" stroke="#63b8ff" points="470.33,-144.29 476.23,-135.49 466.13,-138.69 470.33,-144.29"/>
</a>
</g>
</g>
<!-- Node3 -->
<g id="Node000003" class="node">
<title>Node3</title>
<g id="a_Node000003"><a xlink:href="variant_8hpp.html" target="_top" xlink:title=" ">
<polygon fill="white" stroke="#666666" points="122.12,-77.5 50.62,-77.5 50.62,-56.75 122.12,-56.75 122.12,-77.5"/>
<text text-anchor="middle" x="86.38" y="-64" font-family="Helvetica,sans-Serif" font-size="10.00">variant.hpp</text>
</a>
</g>
</g>
<!-- Node2&#45;&gt;Node3 -->
<g id="edge2_Node000002_Node000003" class="edge">
<title>Node2&#45;&gt;Node3</title>
<g id="a_edge2_Node000002_Node000003"><a xlink:title=" ">
<path fill="none" stroke="#63b8ff" d="M245.69,-113.09C213.93,-104.12 166.7,-90.79 131.91,-80.98"/>
<polygon fill="#63b8ff" stroke="#63b8ff" points="133.12,-77.68 122.54,-78.33 131.21,-84.42 133.12,-77.68"/>
</a>
</g>
</g>
<!-- Node4 -->
<g id="Node000004" class="node">
<title>Node4</title>
<g id="a_Node000004"><a xlink:title=" ">
<polygon fill="#e0e0e0" stroke="#999999" points="298.25,-20.75 254.5,-20.75 254.5,0 298.25,0 298.25,-20.75"/>
<text text-anchor="middle" x="276.38" y="-7.25" font-family="Helvetica,sans-Serif" font-size="10.00">string</text>
</a>
</g>
</g>
<!-- Node2&#45;&gt;Node4 -->
<g id="edge8_Node000002_Node000004" class="edge">
<title>Node2&#45;&gt;Node4</title>
<g id="a_edge8_Node000002_Node000004"><a xlink:title=" ">
<path fill="none" stroke="#63b8ff" d="M292.96,-113.07C307.34,-100.57 327.86,-78.05 319.38,-56.75 315.07,-45.94 306.82,-36.23 298.7,-28.59"/>
<polygon fill="#63b8ff" stroke="#63b8ff" points="301.11,-26.05 291.26,-22.15 296.53,-31.34 301.11,-26.05"/>
</a>
</g>
</g>
<!-- Node5 -->
<g id="Node000005" class="node">
<title>Node5</title>
<g id="a_Node000005"><a xlink:title=" ">
<polygon fill="#e0e0e0" stroke="#999999" points="46.75,-20.75 0,-20.75 0,0 46.75,0 46.75,-20.75"/>
<text text-anchor="middle" x="23.38" y="-7.25" font-family="Helvetica,sans-Serif" font-size="10.00">vector</text>
</a>
</g>
</g>
<!-- Node2&#45;&gt;Node5 -->
<g id="edge9_Node000002_Node000005" class="edge">
<title>Node2&#45;&gt;Node5</title>
<g id="a_edge9_Node000002_Node000005"><a xlink:title=" ">
<path fill="none" stroke="#63b8ff" d="M226.23,-119.18C164.19,-113.85 67.69,-101.84 41.38,-77.5 28.95,-66.01 24.78,-46.89 23.52,-32.15"/>
<polygon fill="#63b8ff" stroke="#63b8ff" points="27.04,-32.42 23.1,-22.58 20.04,-32.73 27.04,-32.42"/>
</a>
</g>
</g>
<!-- Node6 -->
<g id="Node000006" class="node">
<title>Node6</title>
<g id="a_Node000006"><a xlink:title=" ">
<polygon fill="#e0e0e0" stroke="#999999" points="174.88,-20.75 125.88,-20.75 125.88,0 174.88,0 174.88,-20.75"/>
<text text-anchor="middle" x="150.38" y="-7.25" font-family="Helvetica,sans-Serif" font-size="10.00">cstdint</text>
</a>
</g>
</g>
<!-- Node2&#45;&gt;Node6 -->
<g id="edge10_Node000002_Node000006" class="edge">
<title>Node2&#45;&gt;Node6</title>
<g id="a_edge10_Node000002_Node000006"><a xlink:title=" ">
<path fill="none" stroke="#63b8ff" d="M231.28,-113.05C209.6,-106.38 185.43,-95.4 169.38,-77.5 158.27,-65.12 153.62,-46.65 151.7,-32.37"/>
<polygon fill="#63b8ff" stroke="#63b8ff" points="155.2,-32.29 150.75,-22.67 148.24,-32.97 155.2,-32.29"/>
</a>
</g>
</g>
<!-- Node8 -->
<g id="Node000008" class="node">
<title>Node8</title>
<g id="a_Node000008"><a xlink:title=" ">
<polygon fill="#e0e0e0" stroke="#999999" points="310.12,-77.5 178.62,-77.5 178.62,-56.75 310.12,-56.75 310.12,-77.5"/>
<text text-anchor="middle" x="244.38" y="-64" font-family="Helvetica,sans-Serif" font-size="10.00">shrinkwrap/istream.hpp</text>
</a>
</g>
</g>
<!-- Node2&#45;&gt;Node8 -->
<g id="edge7_Node000002_Node000008" class="edge">
<title>Node2&#45;&gt;Node8</title>
<g id="a_edge7_Node000002_Node000008"><a xlink:title=" ">
<path fill="none" stroke="#63b8ff" d="M273.94,-113.09C269.23,-105.92 262.69,-95.98 256.96,-87.26"/>
<polygon fill="#63b8ff" stroke="#63b8ff" points="260.01,-85.53 251.59,-79.09 254.16,-89.37 260.01,-85.53"/>
</a>
</g>
</g>
<!-- Node2&#45;&gt;Node9 -->
<g id="edge11_Node000002_Node000009" class="edge">
<title>Node2&#45;&gt;Node9</title>
<g id="a_edge11_Node000002_Node000009"><a xlink:title=" ">
<path fill="none" stroke="#63b8ff" d="M301.47,-113.09C319.76,-104.6 346.48,-92.2 367.23,-82.58"/>
<polygon fill="#63b8ff" stroke="#63b8ff" points="368.49,-85.85 376.09,-78.47 365.54,-79.5 368.49,-85.85"/>
</a>
</g>
</g>
<!-- Node2&#45;&gt;Node10 -->
<g id="edge12_Node000002_Node000010" class="edge">
<title>Node2&#45;&gt;Node10</title>
<g id="a_edge12_Node000002_Node000010"><a xlink:title=" ">
<path fill="none" stroke="#63b8ff" d="M315.13,-113.03C345.03,-104.55 389.6,-91.86 436.59,-78.29"/>
<polygon fill="#63b8ff" stroke="#63b8ff" points="437.53,-81.67 446.16,-75.53 435.58,-74.94 437.53,-81.67"/>
</a>
</g>
</g>
<!-- Node3&#45;&gt;Node4 -->
<g id="edge3_Node000003_Node000004" class="edge">
<title>Node3&#45;&gt;Node4</title>
<g id="a_edge3_Node000003_Node000004"><a xlink:title=" ">
<path fill="none" stroke="#63b8ff" d="M120.34,-56.34C155.15,-46.31 208.93,-30.81 243.38,-20.88"/>
<polygon fill="#63b8ff" stroke="#63b8ff" points="244.17,-24.3 252.81,-18.16 242.23,-17.57 244.17,-24.3"/>
</a>
</g>
</g>
<!-- Node3&#45;&gt;Node5 -->
<g id="edge4_Node000003_Node000005" class="edge">
<title>Node3&#45;&gt;Node5</title>
<g id="a_edge4_Node000003_Node000005"><a xlink:title=" ">
<path fill="none" stroke="#63b8ff" d="M75.11,-56.34C66.24,-48.63 53.66,-37.7 43.13,-28.54"/>
<polygon fill="#63b8ff" stroke="#63b8ff" points="45.53,-25.99 35.68,-22.07 40.94,-31.27 45.53,-25.99"/>
</a>
</g>
</g>
<!-- Node3&#45;&gt;Node6 -->
<g id="edge5_Node000003_Node000006" class="edge">
<title>Node3&#45;&gt;Node6</title>
<g id="a_edge5_Node000003_Node000006"><a xlink:title=" ">
<path fill="none" stroke="#63b8ff" d="M97.82,-56.34C106.83,-48.63 119.61,-37.7 130.31,-28.54"/>
<polygon fill="#63b8ff" stroke="#63b8ff" points="132.56,-31.22 137.88,-22.06 128.01,-25.9 132.56,-31.22"/>
</a>
</g>
</g>
<!-- Node7 -->
<g id="Node000007" class="node">
<title>Node7</title>
<g id="a_Node000007"><a xlink:title=" ">
<polygon fill="#e0e0e0" stroke="#999999" points="108.25,-20.75 64.5,-20.75 64.5,0 108.25,0 108.25,-20.75"/>
<text text-anchor="middle" x="86.38" y="-7.25" font-family="Helvetica,sans-Serif" font-size="10.00">limits</text>
</a>
</g>
</g>
<!-- Node3&#45;&gt;Node7 -->
<g id="edge6_Node000003_Node000007" class="edge">
<title>Node3&#45;&gt;Node7</title>
<g id="a_edge6_Node000003_Node000007"><a xlink:title=" ">
<path fill="none" stroke="#63b8ff" d="M86.38,-56.34C86.38,-49.72 86.38,-40.72 86.38,-32.52"/>
<polygon fill="#63b8ff" stroke="#63b8ff" points="89.88,-32.59 86.38,-22.59 82.88,-32.59 89.88,-32.59"/>
</a>
</g>
</g>
</g>
</svg>
