<?xml version="1.0" encoding="UTF-8" standalone="no"?>
<!DOCTYPE svg PUBLIC "-//W3C//DTD SVG 1.1//EN"
 "http://www.w3.org/Graphics/SVG/1.1/DTD/svg11.dtd">
<!-- Generated by graphviz version 12.2.1 (0)
 -->
<!-- Title: reference_site_info::reference_site_info Pages: 1 -->
<svg width="273pt" height="94pt"
 viewBox="0.00 0.00 272.50 93.50" xmlns="http://www.w3.org/2000/svg" xmlns:xlink="http://www.w3.org/1999/xlink">
<g id="graph0" class="graph" transform="scale(1 1) rotate(0) translate(4 89.5)">
<title>reference_site_info::reference_site_info</title>
<!-- Node1 -->
<g id="Node000001" class="node">
<title>Node1</title>
<g id="a_Node000001"><a xlink:title=" ">
<polygon fill="#999999" stroke="#666666" points="264.5,-59.5 148.75,-59.5 148.75,-26 264.5,-26 264.5,-59.5"/>
<text text-anchor="start" x="156.75" y="-46" font-family="Helvetica,sans-Serif" font-size="10.00">reference_site_info</text>
<text text-anchor="middle" x="206.62" y="-33.25" font-family="Helvetica,sans-Serif" font-size="10.00">::reference_site_info</text>
</a>
</g>
</g>
<!-- Node2 -->
<g id="Node000002" class="node">
<title>Node2</title>
<g id="a_Node000002"><a xlink:href="structreference__variant.html#aa9e6ebb708e7e260465ed80a6ce3b0c5" target="_top" xlink:title=" ">
<polygon fill="white" stroke="#666666" points="110.5,-85.5 2.25,-85.5 2.25,-52 110.5,-52 110.5,-85.5"/>
<text text-anchor="start" x="10.25" y="-72" font-family="Helvetica,sans-Serif" font-size="10.00">reference_variant::</text>
<text text-anchor="middle" x="56.38" y="-59.25" font-family="Helvetica,sans-Serif" font-size="10.00">reference_variant</text>
</a>
</g>
</g>
<!-- Node1&#45;&gt;Node2 -->
<g id="edge1_Node000001_Node000002" class="edge">
<title>Node1&#45;&gt;Node2</title>
<g id="a_edge1_Node000001_Node000002"><a xlink:title=" ">
<path fill="none" stroke="#63b8ff" d="M137.14,-54.76C128.25,-56.32 119.25,-57.9 110.65,-59.41"/>
<polygon fill="#63b8ff" stroke="#63b8ff" points="137.57,-58.24 146.82,-53.06 136.36,-51.34 137.57,-58.24"/>
</a>
</g>
</g>
<!-- Node3 -->
<g id="Node000003" class="node">
<title>Node3</title>
<g id="a_Node000003"><a xlink:href="structsparse__ref__variant.html#a0f6dc25f1ff79004c063b0773e525972" target="_top" xlink:title=" ">
<polygon fill="white" stroke="#666666" points="112.75,-33.5 0,-33.5 0,0 112.75,0 112.75,-33.5"/>
<text text-anchor="start" x="8" y="-20" font-family="Helvetica,sans-Serif" font-size="10.00">sparse_ref_variant</text>
<text text-anchor="middle" x="56.38" y="-7.25" font-family="Helvetica,sans-Serif" font-size="10.00">::sparse_ref_variant</text>
</a>
</g>
</g>
<!-- Node1&#45;&gt;Node3 -->
<g id="edge2_Node000001_Node000003" class="edge">
<title>Node1&#45;&gt;Node3</title>
<g id="a_edge2_Node000001_Node000003"><a xlink:title=" ">
<path fill="none" stroke="#63b8ff" d="M137.05,-30.72C129.02,-29.32 120.9,-27.89 113.08,-26.52"/>
<polygon fill="#63b8ff" stroke="#63b8ff" points="136.36,-34.16 146.82,-32.44 137.57,-27.26 136.36,-34.16"/>
</a>
</g>
</g>
</g>
</svg>
