<?xml version="1.0" encoding="UTF-8" standalone="no"?>
<!DOCTYPE svg PUBLIC "-//W3C//DTD SVG 1.1//EN"
 "http://www.w3.org/Graphics/SVG/1.1/DTD/svg11.dtd">
<!-- Generated by graphviz version 12.2.1 (0)
 -->
<!-- Title: reference_site_info Pages: 1 -->
<svg width="236pt" height="86pt"
 viewBox="0.00 0.00 235.50 85.50" xmlns="http://www.w3.org/2000/svg" xmlns:xlink="http://www.w3.org/1999/xlink">
<g id="graph0" class="graph" transform="scale(1 1) rotate(0) translate(4 81.5)">
<title>reference_site_info</title>
<!-- Node1 -->
<g id="Node000001" class="node">
<title>Node1</title>
<g id="a_Node000001"><a xlink:title="Stores information about a site in the reference dataset.">
<polygon fill="#999999" stroke="#666666" points="167,-77.5 57.25,-77.5 57.25,-56.75 167,-56.75 167,-77.5"/>
<text text-anchor="middle" x="112.12" y="-64" font-family="Helvetica,sans-Serif" font-size="10.00">reference_site_info</text>
</a>
</g>
</g>
<!-- Node2 -->
<g id="Node000002" class="node">
<title>Node2</title>
<g id="a_Node000002"><a xlink:href="structreference__variant.html" target="_top" xlink:title="Extends reference_site_info to include genotype data and allele counts.">
<polygon fill="white" stroke="#666666" points="102.25,-20.75 0,-20.75 0,0 102.25,0 102.25,-20.75"/>
<text text-anchor="middle" x="51.12" y="-7.25" font-family="Helvetica,sans-Serif" font-size="10.00">reference_variant</text>
</a>
</g>
</g>
<!-- Node1&#45;&gt;Node2 -->
<g id="edge1_Node000001_Node000002" class="edge">
<title>Node1&#45;&gt;Node2</title>
<g id="a_edge1_Node000001_Node000002"><a xlink:title=" ">
<path fill="none" stroke="#63b8ff" d="M92.89,-48.86C82.67,-39.69 70.5,-28.76 61.94,-21.08"/>
<polygon fill="#63b8ff" stroke="#63b8ff" points="90.31,-51.25 100.09,-55.33 94.99,-46.04 90.31,-51.25"/>
</a>
</g>
</g>
<!-- Node3 -->
<g id="Node000003" class="node">
<title>Node3</title>
<g id="a_Node000003"><a xlink:href="structsparse__ref__variant.html" target="_top" xlink:title="Represents a reference variant with sparse allele information.">
<polygon fill="white" stroke="#666666" points="227.5,-20.75 120.75,-20.75 120.75,0 227.5,0 227.5,-20.75"/>
<text text-anchor="middle" x="174.12" y="-7.25" font-family="Helvetica,sans-Serif" font-size="10.00">sparse_ref_variant</text>
</a>
</g>
</g>
<!-- Node1&#45;&gt;Node3 -->
<g id="edge2_Node000001_Node000003" class="edge">
<title>Node1&#45;&gt;Node3</title>
<g id="a_edge2_Node000001_Node000003"><a xlink:title=" ">
<path fill="none" stroke="#63b8ff" d="M131.68,-48.86C142.06,-39.69 154.44,-28.76 163.14,-21.08"/>
<polygon fill="#63b8ff" stroke="#63b8ff" points="129.52,-46.09 124.34,-55.33 134.16,-51.34 129.52,-46.09"/>
</a>
</g>
</g>
</g>
</svg>
