<?xml version="1.0" encoding="UTF-8" standalone="no"?>
<!DOCTYPE svg PUBLIC "-//W3C//DTD SVG 1.1//EN"
 "http://www.w3.org/Graphics/SVG/1.1/DTD/svg11.dtd">
<!-- Generated by graphviz version 12.2.1 (0)
 -->
<!-- Title: src/unique_haplotype.cpp Pages: 1 -->
<svg width="1087pt" height="256pt"
 viewBox="0.00 0.00 1087.00 255.75" xmlns="http://www.w3.org/2000/svg" xmlns:xlink="http://www.w3.org/1999/xlink">
<g id="graph0" class="graph" transform="scale(1 1) rotate(0) translate(4 251.75)">
<title>src/unique_haplotype.cpp</title>
<!-- Node1 -->
<g id="Node000001" class="node">
<title>Node1</title>
<g id="a_Node000001"><a xlink:title=" ">
<polygon fill="#999999" stroke="#666666" points="949.75,-247.75 809.25,-247.75 809.25,-227 949.75,-227 949.75,-247.75"/>
<text text-anchor="middle" x="879.5" y="-234.25" font-family="Helvetica,sans-Serif" font-size="10.00">src/unique_haplotype.cpp</text>
</a>
</g>
</g>
<!-- Node2 -->
<g id="Node000002" class="node">
<title>Node2</title>
<g id="a_Node000002"><a xlink:href="unique__haplotype_8hpp.html" target="_top" xlink:title=" ">
<polygon fill="white" stroke="#666666" points="546.5,-191 422.5,-191 422.5,-170.25 546.5,-170.25 546.5,-191"/>
<text text-anchor="middle" x="484.5" y="-177.5" font-family="Helvetica,sans-Serif" font-size="10.00">unique_haplotype.hpp</text>
</a>
</g>
</g>
<!-- Node1&#45;&gt;Node2 -->
<g id="edge1_Node000001_Node000002" class="edge">
<title>Node1&#45;&gt;Node2</title>
<g id="a_edge1_Node000001_Node000002"><a xlink:title=" ">
<path fill="none" stroke="#63b8ff" d="M808.88,-226.59C738.11,-216.78 629.64,-201.74 557.89,-191.8"/>
<polygon fill="#63b8ff" stroke="#63b8ff" points="558.59,-188.36 548.21,-190.46 557.63,-195.3 558.59,-188.36"/>
</a>
</g>
</g>
<!-- Node10 -->
<g id="Node000010" class="node">
<title>Node10</title>
<g id="a_Node000010"><a xlink:title=" ">
<polygon fill="#e0e0e0" stroke="#999999" points="858.12,-77.5 794.88,-77.5 794.88,-56.75 858.12,-56.75 858.12,-77.5"/>
<text text-anchor="middle" x="826.5" y="-64" font-family="Helvetica,sans-Serif" font-size="10.00">algorithm</text>
</a>
</g>
</g>
<!-- Node1&#45;&gt;Node10 -->
<g id="edge27_Node000001_Node000010" class="edge">
<title>Node1&#45;&gt;Node10</title>
<g id="a_edge27_Node000001_Node000010"><a xlink:title=" ">
<path fill="none" stroke="#63b8ff" d="M876.5,-226.85C868.16,-200.37 844.55,-125.43 833.01,-88.8"/>
<polygon fill="#63b8ff" stroke="#63b8ff" points="836.4,-87.9 830.06,-79.41 829.72,-90 836.4,-87.9"/>
</a>
</g>
</g>
<!-- Node15 -->
<g id="Node000015" class="node">
<title>Node15</title>
<g id="a_Node000015"><a xlink:title=" ">
<polygon fill="#e0e0e0" stroke="#999999" points="822.12,-134.25 770.88,-134.25 770.88,-113.5 822.12,-113.5 822.12,-134.25"/>
<text text-anchor="middle" x="796.5" y="-120.75" font-family="Helvetica,sans-Serif" font-size="10.00">cassert</text>
</a>
</g>
</g>
<!-- Node1&#45;&gt;Node15 -->
<g id="edge25_Node000001_Node000015" class="edge">
<title>Node1&#45;&gt;Node15</title>
<g id="a_edge25_Node000001_Node000015"><a xlink:title=" ">
<path fill="none" stroke="#63b8ff" d="M869.29,-226.84C860.13,-218.01 846.63,-204.29 836.5,-191 825.2,-176.18 814.39,-157.98 806.86,-144.43"/>
<polygon fill="#63b8ff" stroke="#63b8ff" points="810.16,-143.16 802.31,-136.04 804.01,-146.5 810.16,-143.16"/>
</a>
</g>
</g>
<!-- Node16 -->
<g id="Node000016" class="node">
<title>Node16</title>
<g id="a_Node000016"><a xlink:title=" ">
<polygon fill="#e0e0e0" stroke="#999999" points="938.25,-191 878.75,-191 878.75,-170.25 938.25,-170.25 938.25,-191"/>
<text text-anchor="middle" x="908.5" y="-177.5" font-family="Helvetica,sans-Serif" font-size="10.00">iostream</text>
</a>
</g>
</g>
<!-- Node1&#45;&gt;Node16 -->
<g id="edge23_Node000001_Node000016" class="edge">
<title>Node1&#45;&gt;Node16</title>
<g id="a_edge23_Node000001_Node000016"><a xlink:title=" ">
<path fill="none" stroke="#63b8ff" d="M884.68,-226.59C888.4,-219.58 893.52,-209.91 898.06,-201.33"/>
<polygon fill="#63b8ff" stroke="#63b8ff" points="901.06,-203.14 902.65,-192.67 894.88,-199.86 901.06,-203.14"/>
</a>
</g>
</g>
<!-- Node17 -->
<g id="Node000017" class="node">
<title>Node17</title>
<g id="a_Node000017"><a xlink:title=" ">
<polygon fill="#e0e0e0" stroke="#999999" points="1012.38,-191 956.62,-191 956.62,-170.25 1012.38,-170.25 1012.38,-191"/>
<text text-anchor="middle" x="984.5" y="-177.5" font-family="Helvetica,sans-Serif" font-size="10.00">numeric</text>
</a>
</g>
</g>
<!-- Node1&#45;&gt;Node17 -->
<g id="edge24_Node000001_Node000017" class="edge">
<title>Node1&#45;&gt;Node17</title>
<g id="a_edge24_Node000001_Node000017"><a xlink:title=" ">
<path fill="none" stroke="#63b8ff" d="M898.27,-226.59C914.25,-218.26 937.45,-206.16 955.76,-196.61"/>
<polygon fill="#63b8ff" stroke="#63b8ff" points="957.3,-199.76 964.55,-192.03 954.06,-193.55 957.3,-199.76"/>
</a>
</g>
</g>
<!-- Node18 -->
<g id="Node000018" class="node">
<title>Node18</title>
<g id="a_Node000018"><a xlink:title=" ">
<polygon fill="#e0e0e0" stroke="#999999" points="1079,-191 1030,-191 1030,-170.25 1079,-170.25 1079,-191"/>
<text text-anchor="middle" x="1054.5" y="-177.5" font-family="Helvetica,sans-Serif" font-size="10.00">cstring</text>
</a>
</g>
</g>
<!-- Node1&#45;&gt;Node18 -->
<g id="edge26_Node000001_Node000018" class="edge">
<title>Node1&#45;&gt;Node18</title>
<g id="a_edge26_Node000001_Node000018"><a xlink:title=" ">
<path fill="none" stroke="#63b8ff" d="M910.79,-226.59C941.22,-217.07 987.37,-202.63 1019.12,-192.69"/>
<polygon fill="#63b8ff" stroke="#63b8ff" points="1019.76,-196.16 1028.26,-189.84 1017.67,-189.48 1019.76,-196.16"/>
</a>
</g>
</g>
<!-- Node3 -->
<g id="Node000003" class="node">
<title>Node3</title>
<g id="a_Node000003"><a xlink:href="variant_8hpp.html" target="_top" xlink:title=" ">
<polygon fill="white" stroke="#666666" points="414.25,-77.5 342.75,-77.5 342.75,-56.75 414.25,-56.75 414.25,-77.5"/>
<text text-anchor="middle" x="378.5" y="-64" font-family="Helvetica,sans-Serif" font-size="10.00">variant.hpp</text>
</a>
</g>
</g>
<!-- Node2&#45;&gt;Node3 -->
<g id="edge2_Node000002_Node000003" class="edge">
<title>Node2&#45;&gt;Node3</title>
<g id="a_edge2_Node000002_Node000003"><a xlink:title=" ">
<path fill="none" stroke="#63b8ff" d="M447.15,-169.78C428.06,-162.88 406.05,-151.69 392.5,-134.25 382.58,-121.48 379.28,-103.3 378.35,-89.23"/>
<polygon fill="#63b8ff" stroke="#63b8ff" points="381.85,-89.15 378.08,-79.25 374.85,-89.34 381.85,-89.15"/>
</a>
</g>
</g>
<!-- Node4 -->
<g id="Node000004" class="node">
<title>Node4</title>
<g id="a_Node000004"><a xlink:title=" ">
<polygon fill="#e0e0e0" stroke="#999999" points="186.38,-20.75 142.62,-20.75 142.62,0 186.38,0 186.38,-20.75"/>
<text text-anchor="middle" x="164.5" y="-7.25" font-family="Helvetica,sans-Serif" font-size="10.00">string</text>
</a>
</g>
</g>
<!-- Node2&#45;&gt;Node4 -->
<g id="edge18_Node000002_Node000004" class="edge">
<title>Node2&#45;&gt;Node4</title>
<g id="a_edge18_Node000002_Node000004"><a xlink:title=" ">
<path fill="none" stroke="#63b8ff" d="M422.04,-173.93C318.27,-162.94 118.07,-134.65 81.5,-77.5 65.58,-52.62 102.15,-32.97 131.71,-21.76"/>
<polygon fill="#63b8ff" stroke="#63b8ff" points="132.51,-25.19 140.75,-18.52 130.15,-18.6 132.51,-25.19"/>
</a>
</g>
</g>
<!-- Node5 -->
<g id="Node000005" class="node">
<title>Node5</title>
<g id="a_Node000005"><a xlink:title=" ">
<polygon fill="#e0e0e0" stroke="#999999" points="503.88,-20.75 457.12,-20.75 457.12,0 503.88,0 503.88,-20.75"/>
<text text-anchor="middle" x="480.5" y="-7.25" font-family="Helvetica,sans-Serif" font-size="10.00">vector</text>
</a>
</g>
</g>
<!-- Node2&#45;&gt;Node5 -->
<g id="edge19_Node000002_Node000005" class="edge">
<title>Node2&#45;&gt;Node5</title>
<g id="a_edge19_Node000002_Node000005"><a xlink:title=" ">
<path fill="none" stroke="#63b8ff" d="M546.94,-176.55C610.1,-171.98 701.48,-160.84 723.5,-134.25 784.65,-60.4 596.4,-26.44 515.53,-15.52"/>
<polygon fill="#63b8ff" stroke="#63b8ff" points="516.07,-12.06 505.7,-14.24 515.17,-19 516.07,-12.06"/>
</a>
</g>
</g>
<!-- Node6 -->
<g id="Node000006" class="node">
<title>Node6</title>
<g id="a_Node000006"><a xlink:title=" ">
<polygon fill="#e0e0e0" stroke="#999999" points="49,-20.75 0,-20.75 0,0 49,0 49,-20.75"/>
<text text-anchor="middle" x="24.5" y="-7.25" font-family="Helvetica,sans-Serif" font-size="10.00">cstdint</text>
</a>
</g>
</g>
<!-- Node2&#45;&gt;Node6 -->
<g id="edge17_Node000002_Node000006" class="edge">
<title>Node2&#45;&gt;Node6</title>
<g id="a_edge17_Node000002_Node000006"><a xlink:title=" ">
<path fill="none" stroke="#63b8ff" d="M422.05,-175.27C335.46,-168.6 183.8,-154.48 132.5,-134.25 92.28,-118.39 80.7,-111.1 53.5,-77.5 42.64,-64.09 35.07,-45.98 30.4,-32.1"/>
<polygon fill="#63b8ff" stroke="#63b8ff" points="33.78,-31.18 27.47,-22.67 27.09,-33.25 33.78,-31.18"/>
</a>
</g>
</g>
<!-- Node7 -->
<g id="Node000007" class="node">
<title>Node7</title>
<g id="a_Node000007"><a xlink:title=" ">
<polygon fill="#e0e0e0" stroke="#999999" points="419.38,-20.75 375.62,-20.75 375.62,0 419.38,0 419.38,-20.75"/>
<text text-anchor="middle" x="397.5" y="-7.25" font-family="Helvetica,sans-Serif" font-size="10.00">limits</text>
</a>
</g>
</g>
<!-- Node2&#45;&gt;Node7 -->
<g id="edge21_Node000002_Node000007" class="edge">
<title>Node2&#45;&gt;Node7</title>
<g id="a_edge21_Node000002_Node000007"><a xlink:title=" ">
<path fill="none" stroke="#63b8ff" d="M463.9,-169.89C450.34,-162.26 433.64,-150.26 425.5,-134.25 409.88,-103.54 432.79,-89.93 423.5,-56.75 420.94,-47.61 416.14,-38.38 411.35,-30.64"/>
<polygon fill="#63b8ff" stroke="#63b8ff" points="414.34,-28.82 405.88,-22.44 408.52,-32.7 414.34,-28.82"/>
</a>
</g>
</g>
<!-- Node8 -->
<g id="Node000008" class="node">
<title>Node8</title>
<g id="a_Node000008"><a xlink:href="recombination_8hpp.html" target="_top" xlink:title=" ">
<polygon fill="white" stroke="#666666" points="321.25,-134.25 213.75,-134.25 213.75,-113.5 321.25,-113.5 321.25,-134.25"/>
<text text-anchor="middle" x="267.5" y="-120.75" font-family="Helvetica,sans-Serif" font-size="10.00">recombination.hpp</text>
</a>
</g>
</g>
<!-- Node2&#45;&gt;Node8 -->
<g id="edge7_Node000002_Node000008" class="edge">
<title>Node2&#45;&gt;Node8</title>
<g id="a_edge7_Node000002_Node000008"><a xlink:title=" ">
<path fill="none" stroke="#63b8ff" d="M445.45,-169.77C409.69,-160.75 356.57,-147.35 317.67,-137.53"/>
<polygon fill="#63b8ff" stroke="#63b8ff" points="318.62,-134.16 308.07,-135.11 316.91,-140.95 318.62,-134.16"/>
</a>
</g>
</g>
<!-- Node12 -->
<g id="Node000012" class="node">
<title>Node12</title>
<g id="a_Node000012"><a xlink:title=" ">
<polygon fill="#e0e0e0" stroke="#999999" points="534.5,-134.25 434.5,-134.25 434.5,-113.5 534.5,-113.5 534.5,-134.25"/>
<text text-anchor="middle" x="484.5" y="-120.75" font-family="Helvetica,sans-Serif" font-size="10.00">savvy/reader.hpp</text>
</a>
</g>
</g>
<!-- Node2&#45;&gt;Node12 -->
<g id="edge15_Node000002_Node000012" class="edge">
<title>Node2&#45;&gt;Node12</title>
<g id="a_edge15_Node000002_Node000012"><a xlink:title=" ">
<path fill="none" stroke="#63b8ff" d="M484.5,-169.84C484.5,-163.22 484.5,-154.22 484.5,-146.02"/>
<polygon fill="#63b8ff" stroke="#63b8ff" points="488,-146.09 484.5,-136.09 481,-146.09 488,-146.09"/>
</a>
</g>
</g>
<!-- Node13 -->
<g id="Node000013" class="node">
<title>Node13</title>
<g id="a_Node000013"><a xlink:title=" ">
<polygon fill="#e0e0e0" stroke="#999999" points="650,-134.25 553,-134.25 553,-113.5 650,-113.5 650,-134.25"/>
<text text-anchor="middle" x="601.5" y="-120.75" font-family="Helvetica,sans-Serif" font-size="10.00">savvy/writer.hpp</text>
</a>
</g>
</g>
<!-- Node2&#45;&gt;Node13 -->
<g id="edge16_Node000002_Node000013" class="edge">
<title>Node2&#45;&gt;Node13</title>
<g id="a_edge16_Node000002_Node000013"><a xlink:title=" ">
<path fill="none" stroke="#63b8ff" d="M505.42,-169.84C523.47,-161.39 549.8,-149.07 570.34,-139.46"/>
<polygon fill="#63b8ff" stroke="#63b8ff" points="571.82,-142.63 579.39,-135.22 568.85,-136.29 571.82,-142.63"/>
</a>
</g>
</g>
<!-- Node14 -->
<g id="Node000014" class="node">
<title>Node14</title>
<g id="a_Node000014"><a xlink:title=" ">
<polygon fill="#e0e0e0" stroke="#999999" points="714.5,-134.25 668.5,-134.25 668.5,-113.5 714.5,-113.5 714.5,-134.25"/>
<text text-anchor="middle" x="691.5" y="-120.75" font-family="Helvetica,sans-Serif" font-size="10.00">deque</text>
</a>
</g>
</g>
<!-- Node2&#45;&gt;Node14 -->
<g id="edge20_Node000002_Node000014" class="edge">
<title>Node2&#45;&gt;Node14</title>
<g id="a_edge20_Node000002_Node000014"><a xlink:title=" ">
<path fill="none" stroke="#63b8ff" d="M523.26,-169.77C556.29,-161.32 605.29,-148.65 657.29,-134.53"/>
<polygon fill="#63b8ff" stroke="#63b8ff" points="657.89,-138 666.62,-131.99 656.05,-131.24 657.89,-138"/>
</a>
</g>
</g>
<!-- Node2&#45;&gt;Node15 -->
<g id="edge22_Node000002_Node000015" class="edge">
<title>Node2&#45;&gt;Node15</title>
<g id="a_edge22_Node000002_Node000015"><a xlink:title=" ">
<path fill="none" stroke="#63b8ff" d="M546.83,-170.41C602.09,-161.95 684.91,-148.59 756.5,-134.25 757.51,-134.05 758.53,-133.84 759.56,-133.62"/>
<polygon fill="#63b8ff" stroke="#63b8ff" points="760.24,-137.06 769.25,-131.5 758.74,-130.22 760.24,-137.06"/>
</a>
</g>
</g>
<!-- Node3&#45;&gt;Node4 -->
<g id="edge3_Node000003_Node000004" class="edge">
<title>Node3&#45;&gt;Node4</title>
<g id="a_edge3_Node000003_Node000004"><a xlink:title=" ">
<path fill="none" stroke="#63b8ff" d="M342.68,-56.96C302.27,-46.62 237.05,-29.94 197.73,-19.88"/>
<polygon fill="#63b8ff" stroke="#63b8ff" points="198.68,-16.51 188.12,-17.42 196.94,-23.29 198.68,-16.51"/>
</a>
</g>
</g>
<!-- Node3&#45;&gt;Node5 -->
<g id="edge4_Node000003_Node000005" class="edge">
<title>Node3&#45;&gt;Node5</title>
<g id="a_edge4_Node000003_Node000005"><a xlink:title=" ">
<path fill="none" stroke="#63b8ff" d="M396.74,-56.34C412.18,-48.05 434.59,-36.02 452.34,-26.49"/>
<polygon fill="#63b8ff" stroke="#63b8ff" points="453.93,-29.61 461.09,-21.79 450.62,-23.44 453.93,-29.61"/>
</a>
</g>
</g>
<!-- Node3&#45;&gt;Node6 -->
<g id="edge5_Node000003_Node000006" class="edge">
<title>Node3&#45;&gt;Node6</title>
<g id="a_edge5_Node000003_Node000006"><a xlink:title=" ">
<path fill="none" stroke="#63b8ff" d="M342.68,-58.46C339.58,-57.86 336.49,-57.28 333.5,-56.75 235.11,-39.29 118.23,-23.45 60.48,-15.95"/>
<polygon fill="#63b8ff" stroke="#63b8ff" points="61.28,-12.52 50.92,-14.71 60.38,-19.47 61.28,-12.52"/>
</a>
</g>
</g>
<!-- Node3&#45;&gt;Node7 -->
<g id="edge6_Node000003_Node000007" class="edge">
<title>Node3&#45;&gt;Node7</title>
<g id="a_edge6_Node000003_Node000007"><a xlink:title=" ">
<path fill="none" stroke="#63b8ff" d="M381.9,-56.34C384.25,-49.56 387.46,-40.3 390.36,-31.94"/>
<polygon fill="#63b8ff" stroke="#63b8ff" points="393.66,-33.1 393.64,-22.51 387.05,-30.81 393.66,-33.1"/>
</a>
</g>
</g>
<!-- Node8&#45;&gt;Node3 -->
<g id="edge8_Node000008_Node000003" class="edge">
<title>Node8&#45;&gt;Node3</title>
<g id="a_edge8_Node000008_Node000003"><a xlink:title=" ">
<path fill="none" stroke="#63b8ff" d="M287.34,-113.09C304.39,-104.68 329.22,-92.43 348.66,-82.84"/>
<polygon fill="#63b8ff" stroke="#63b8ff" points="350.05,-86.06 357.47,-78.5 346.95,-79.78 350.05,-86.06"/>
</a>
</g>
</g>
<!-- Node8&#45;&gt;Node4 -->
<g id="edge10_Node000008_Node000004" class="edge">
<title>Node8&#45;&gt;Node4</title>
<g id="a_edge10_Node000008_Node000004"><a xlink:title=" ">
<path fill="none" stroke="#63b8ff" d="M236.71,-113.08C218.79,-105.9 197.11,-94.42 183.5,-77.5 173.07,-64.55 168.37,-46.12 166.25,-32.01"/>
<polygon fill="#63b8ff" stroke="#63b8ff" points="169.77,-32 165.14,-22.47 162.81,-32.81 169.77,-32"/>
</a>
</g>
</g>
<!-- Node8&#45;&gt;Node5 -->
<g id="edge11_Node000008_Node000005" class="edge">
<title>Node8&#45;&gt;Node5</title>
<g id="a_edge11_Node000008_Node000005"><a xlink:title=" ">
<path fill="none" stroke="#63b8ff" d="M321.62,-115.05C353.21,-108.63 392.77,-97.25 423.5,-77.5 442.35,-65.38 458.45,-45.2 468.68,-30.31"/>
<polygon fill="#63b8ff" stroke="#63b8ff" points="471.39,-32.56 473.95,-22.28 465.54,-28.72 471.39,-32.56"/>
</a>
</g>
</g>
<!-- Node8&#45;&gt;Node6 -->
<g id="edge12_Node000008_Node000006" class="edge">
<title>Node8&#45;&gt;Node6</title>
<g id="a_edge12_Node000008_Node000006"><a xlink:title=" ">
<path fill="none" stroke="#63b8ff" d="M213.64,-118.56C174.58,-113.41 121.75,-102.14 81.5,-77.5 62.38,-65.8 46.33,-45.55 36.19,-30.54"/>
<polygon fill="#63b8ff" stroke="#63b8ff" points="39.31,-28.93 30.96,-22.42 33.43,-32.72 39.31,-28.93"/>
</a>
</g>
</g>
<!-- Node9 -->
<g id="Node000009" class="node">
<title>Node9</title>
<g id="a_Node000009"><a xlink:title=" ">
<polygon fill="#e0e0e0" stroke="#999999" points="324.25,-77.5 192.75,-77.5 192.75,-56.75 324.25,-56.75 324.25,-77.5"/>
<text text-anchor="middle" x="258.5" y="-64" font-family="Helvetica,sans-Serif" font-size="10.00">shrinkwrap/istream.hpp</text>
</a>
</g>
</g>
<!-- Node8&#45;&gt;Node9 -->
<g id="edge9_Node000008_Node000009" class="edge">
<title>Node8&#45;&gt;Node9</title>
<g id="a_edge9_Node000008_Node000009"><a xlink:title=" ">
<path fill="none" stroke="#63b8ff" d="M265.89,-113.09C264.79,-106.39 263.29,-97.26 261.93,-88.98"/>
<polygon fill="#63b8ff" stroke="#63b8ff" points="265.42,-88.62 260.34,-79.32 258.51,-89.76 265.42,-88.62"/>
</a>
</g>
</g>
<!-- Node8&#45;&gt;Node10 -->
<g id="edge13_Node000008_Node000010" class="edge">
<title>Node8&#45;&gt;Node10</title>
<g id="a_edge13_Node000008_Node000010"><a xlink:title=" ">
<path fill="none" stroke="#63b8ff" d="M321.61,-117.58C432.3,-106.73 682.67,-82.21 783.36,-72.35"/>
<polygon fill="#63b8ff" stroke="#63b8ff" points="783.48,-75.86 793.09,-71.4 782.8,-68.89 783.48,-75.86"/>
</a>
</g>
</g>
<!-- Node11 -->
<g id="Node000011" class="node">
<title>Node11</title>
<g id="a_Node000011"><a xlink:title=" ">
<polygon fill="#e0e0e0" stroke="#999999" points="136.88,-77.5 90.12,-77.5 90.12,-56.75 136.88,-56.75 136.88,-77.5"/>
<text text-anchor="middle" x="113.5" y="-64" font-family="Helvetica,sans-Serif" font-size="10.00">cmath</text>
</a>
</g>
</g>
<!-- Node8&#45;&gt;Node11 -->
<g id="edge14_Node000008_Node000011" class="edge">
<title>Node8&#45;&gt;Node11</title>
<g id="a_edge14_Node000008_Node000011"><a xlink:title=" ">
<path fill="none" stroke="#63b8ff" d="M239.97,-113.09C214.27,-103.95 175.81,-90.28 148.06,-80.41"/>
<polygon fill="#63b8ff" stroke="#63b8ff" points="149.28,-77.13 138.69,-77.08 146.94,-83.73 149.28,-77.13"/>
</a>
</g>
</g>
</g>
</svg>
