<?xml version="1.0" encoding="UTF-8" standalone="no"?>
<!DOCTYPE svg PUBLIC "-//W3C//DTD SVG 1.1//EN"
 "http://www.w3.org/Graphics/SVG/1.1/DTD/svg11.dtd">
<!-- Generated by graphviz version 12.2.1 (0)
 -->
<!-- Title: src/unique_haplotype.hpp Pages: 1 -->
<svg width="605pt" height="256pt"
 viewBox="0.00 0.00 605.12 255.75" xmlns="http://www.w3.org/2000/svg" xmlns:xlink="http://www.w3.org/1999/xlink">
<g id="graph0" class="graph" transform="scale(1 1) rotate(0) translate(4 251.75)">
<title>src/unique_haplotype.hpp</title>
<!-- Node1 -->
<g id="Node000001" class="node">
<title>Node1</title>
<g id="a_Node000001"><a xlink:title=" ">
<polygon fill="#999999" stroke="#666666" points="374.5,-247.75 233.25,-247.75 233.25,-227 374.5,-227 374.5,-247.75"/>
<text text-anchor="middle" x="303.88" y="-234.25" font-family="Helvetica,sans-Serif" font-size="10.00">src/unique_haplotype.hpp</text>
</a>
</g>
</g>
<!-- Node2 -->
<g id="Node000002" class="node">
<title>Node2</title>
<g id="a_Node000002"><a xlink:href="dosage__writer_8hpp.html" target="_top" xlink:title=" ">
<polygon fill="white" stroke="#666666" points="144.12,-134.25 21.62,-134.25 21.62,-113.5 144.12,-113.5 144.12,-134.25"/>
<text text-anchor="middle" x="82.88" y="-120.75" font-family="Helvetica,sans-Serif" font-size="10.00">src/dosage_writer.hpp</text>
</a>
</g>
</g>
<!-- Node1&#45;&gt;Node2 -->
<g id="edge1_Node000001_Node000002" class="edge">
<title>Node1&#45;&gt;Node2</title>
<g id="a_edge1_Node000001_Node000002"><a xlink:title=" ">
<path fill="none" stroke="#63b8ff" d="M222.04,-225.39C192.8,-218.73 160.73,-208.06 134.88,-191 112.69,-176.36 95.77,-149.11 87.84,-134.59"/>
<polygon fill="#63b8ff" stroke="#63b8ff" points="221.09,-228.77 231.6,-227.44 222.56,-221.93 221.09,-228.77"/>
</a>
</g>
</g>
<!-- Node7 -->
<g id="Node000007" class="node">
<title>Node7</title>
<g id="a_Node000007"><a xlink:href="hidden__markov__model_8hpp.html" target="_top" xlink:title=" ">
<polygon fill="white" stroke="#666666" points="309.5,-191 144.25,-191 144.25,-170.25 309.5,-170.25 309.5,-191"/>
<text text-anchor="middle" x="226.88" y="-177.5" font-family="Helvetica,sans-Serif" font-size="10.00">src/hidden_markov_model.hpp</text>
</a>
</g>
</g>
<!-- Node1&#45;&gt;Node7 -->
<g id="edge6_Node000001_Node000007" class="edge">
<title>Node1&#45;&gt;Node7</title>
<g id="a_edge6_Node000001_Node000007"><a xlink:title=" ">
<path fill="none" stroke="#63b8ff" d="M280.76,-219.94C267.63,-210.61 251.66,-199.25 240.52,-191.33"/>
<polygon fill="#63b8ff" stroke="#63b8ff" points="278.7,-222.77 288.88,-225.71 282.75,-217.06 278.7,-222.77"/>
</a>
</g>
</g>
<!-- Node9 -->
<g id="Node000009" class="node">
<title>Node9</title>
<g id="a_Node000009"><a xlink:href="input__prep_8hpp.html" target="_top" xlink:title=" ">
<polygon fill="white" stroke="#666666" points="438.88,-191 332.88,-191 332.88,-170.25 438.88,-170.25 438.88,-191"/>
<text text-anchor="middle" x="385.88" y="-177.5" font-family="Helvetica,sans-Serif" font-size="10.00">src/input_prep.hpp</text>
</a>
</g>
</g>
<!-- Node1&#45;&gt;Node9 -->
<g id="edge10_Node000001_Node000009" class="edge">
<title>Node1&#45;&gt;Node9</title>
<g id="a_edge10_Node000001_Node000009"><a xlink:title=" ">
<path fill="none" stroke="#63b8ff" d="M328.08,-220.21C342.14,-210.83 359.37,-199.32 371.34,-191.33"/>
<polygon fill="#63b8ff" stroke="#63b8ff" points="326.17,-217.28 319.79,-225.75 330.05,-223.1 326.17,-217.28"/>
</a>
</g>
</g>
<!-- Node11 -->
<g id="Node000011" class="node">
<title>Node11</title>
<g id="a_Node000011"><a xlink:href="unique__haplotype_8cpp.html" target="_top" xlink:title=" ">
<polygon fill="white" stroke="#666666" points="597.12,-191 456.62,-191 456.62,-170.25 597.12,-170.25 597.12,-191"/>
<text text-anchor="middle" x="526.88" y="-177.5" font-family="Helvetica,sans-Serif" font-size="10.00">src/unique_haplotype.cpp</text>
</a>
</g>
</g>
<!-- Node1&#45;&gt;Node11 -->
<g id="edge13_Node000001_Node000011" class="edge">
<title>Node1&#45;&gt;Node11</title>
<g id="a_edge13_Node000001_Node000011"><a xlink:title=" ">
<path fill="none" stroke="#63b8ff" d="M355.12,-223.79C395.1,-213.98 449.85,-200.54 486.7,-191.49"/>
<polygon fill="#63b8ff" stroke="#63b8ff" points="354.35,-220.38 345.47,-226.16 356.02,-227.18 354.35,-220.38"/>
</a>
</g>
</g>
<!-- Node3 -->
<g id="Node000003" class="node">
<title>Node3</title>
<g id="a_Node000003"><a xlink:href="dosage__writer_8cpp.html" target="_top" xlink:title=" ">
<polygon fill="white" stroke="#666666" points="121.75,-77.5 0,-77.5 0,-56.75 121.75,-56.75 121.75,-77.5"/>
<text text-anchor="middle" x="60.88" y="-64" font-family="Helvetica,sans-Serif" font-size="10.00">src/dosage_writer.cpp</text>
</a>
</g>
</g>
<!-- Node2&#45;&gt;Node3 -->
<g id="edge2_Node000002_Node000003" class="edge">
<title>Node2&#45;&gt;Node3</title>
<g id="a_edge2_Node000002_Node000003"><a xlink:title=" ">
<path fill="none" stroke="#63b8ff" d="M74.69,-102.49C71.29,-94.05 67.52,-84.66 64.77,-77.83"/>
<polygon fill="#63b8ff" stroke="#63b8ff" points="71.4,-103.71 78.38,-111.68 77.9,-101.1 71.4,-103.71"/>
</a>
</g>
</g>
<!-- Node4 -->
<g id="Node000004" class="node">
<title>Node4</title>
<g id="a_Node000004"><a xlink:href="imputation_8hpp.html" target="_top" xlink:title=" ">
<polygon fill="white" stroke="#666666" points="247.62,-77.5 140.12,-77.5 140.12,-56.75 247.62,-56.75 247.62,-77.5"/>
<text text-anchor="middle" x="193.88" y="-64" font-family="Helvetica,sans-Serif" font-size="10.00">src/imputation.hpp</text>
</a>
</g>
</g>
<!-- Node2&#45;&gt;Node4 -->
<g id="edge3_Node000002_Node000004" class="edge">
<title>Node2&#45;&gt;Node4</title>
<g id="a_edge3_Node000002_Node000004"><a xlink:title=" ">
<path fill="none" stroke="#63b8ff" d="M112.91,-108.06C132.39,-98.45 157.21,-86.21 174.2,-77.83"/>
<polygon fill="#63b8ff" stroke="#63b8ff" points="111.5,-104.85 104.08,-112.42 114.59,-111.13 111.5,-104.85"/>
</a>
</g>
</g>
<!-- Node5 -->
<g id="Node000005" class="node">
<title>Node5</title>
<g id="a_Node000005"><a xlink:href="imputation_8cpp.html" target="_top" xlink:title=" ">
<polygon fill="white" stroke="#666666" points="191.25,-20.75 84.5,-20.75 84.5,0 191.25,0 191.25,-20.75"/>
<text text-anchor="middle" x="137.88" y="-7.25" font-family="Helvetica,sans-Serif" font-size="10.00">src/imputation.cpp</text>
</a>
</g>
</g>
<!-- Node4&#45;&gt;Node5 -->
<g id="edge4_Node000004_Node000005" class="edge">
<title>Node4&#45;&gt;Node5</title>
<g id="a_edge4_Node000004_Node000005"><a xlink:title=" ">
<path fill="none" stroke="#63b8ff" d="M175.64,-48.3C166.39,-39.25 155.5,-28.61 147.8,-21.08"/>
<polygon fill="#63b8ff" stroke="#63b8ff" points="173.18,-50.79 182.78,-55.28 178.08,-45.79 173.18,-50.79"/>
</a>
</g>
</g>
<!-- Node6 -->
<g id="Node000006" class="node">
<title>Node6</title>
<g id="a_Node000006"><a xlink:href="main_8cpp.html" target="_top" xlink:title=" ">
<polygon fill="white" stroke="#666666" points="288,-20.75 209.75,-20.75 209.75,0 288,0 288,-20.75"/>
<text text-anchor="middle" x="248.88" y="-7.25" font-family="Helvetica,sans-Serif" font-size="10.00">src/main.cpp</text>
</a>
</g>
</g>
<!-- Node4&#45;&gt;Node6 -->
<g id="edge5_Node000004_Node000006" class="edge">
<title>Node4&#45;&gt;Node6</title>
<g id="a_edge5_Node000004_Node000006"><a xlink:title=" ">
<path fill="none" stroke="#63b8ff" d="M211.78,-48.3C220.87,-39.25 231.56,-28.61 239.13,-21.08"/>
<polygon fill="#63b8ff" stroke="#63b8ff" points="209.4,-45.73 204.78,-55.27 214.34,-50.69 209.4,-45.73"/>
</a>
</g>
</g>
<!-- Node7&#45;&gt;Node2 -->
<g id="edge7_Node000007_Node000002" class="edge">
<title>Node7&#45;&gt;Node2</title>
<g id="a_edge7_Node000007_Node000002"><a xlink:title=" ">
<path fill="none" stroke="#63b8ff" d="M190.69,-165.87C165.04,-156.12 131.26,-143.27 108.4,-134.58"/>
<polygon fill="#63b8ff" stroke="#63b8ff" points="189.12,-169.02 199.72,-169.3 191.61,-162.47 189.12,-169.02"/>
</a>
</g>
</g>
<!-- Node7&#45;&gt;Node4 -->
<g id="edge9_Node000007_Node000004" class="edge">
<title>Node7&#45;&gt;Node4</title>
<g id="a_edge9_Node000007_Node000004"><a xlink:title=" ">
<path fill="none" stroke="#63b8ff" d="M208.24,-161.91C201.39,-154.15 194.44,-144.49 190.88,-134.25 184.22,-115.15 188.13,-91.06 191.23,-77.87"/>
<polygon fill="#63b8ff" stroke="#63b8ff" points="205.54,-164.15 214.98,-168.96 210.6,-159.31 205.54,-164.15"/>
</a>
</g>
</g>
<!-- Node8 -->
<g id="Node000008" class="node">
<title>Node8</title>
<g id="a_Node000008"><a xlink:href="hidden__markov__model_8cpp.html" target="_top" xlink:title=" ">
<polygon fill="white" stroke="#666666" points="364.12,-134.25 199.62,-134.25 199.62,-113.5 364.12,-113.5 364.12,-134.25"/>
<text text-anchor="middle" x="281.88" y="-120.75" font-family="Helvetica,sans-Serif" font-size="10.00">src/hidden_markov_model.cpp</text>
</a>
</g>
</g>
<!-- Node7&#45;&gt;Node8 -->
<g id="edge8_Node000007_Node000008" class="edge">
<title>Node7&#45;&gt;Node8</title>
<g id="a_edge8_Node000007_Node000008"><a xlink:title=" ">
<path fill="none" stroke="#63b8ff" d="M244.78,-161.8C253.87,-152.75 264.56,-142.11 272.13,-134.58"/>
<polygon fill="#63b8ff" stroke="#63b8ff" points="242.4,-159.23 237.78,-168.77 247.34,-164.19 242.4,-159.23"/>
</a>
</g>
</g>
<!-- Node9&#45;&gt;Node4 -->
<g id="edge11_Node000009_Node000004" class="edge">
<title>Node9&#45;&gt;Node4</title>
<g id="a_edge11_Node000009_Node000004"><a xlink:title=" ">
<path fill="none" stroke="#63b8ff" d="M387.23,-158.76C387,-144.26 384.2,-125.46 372.88,-113.5 355.84,-95.52 294.17,-82.72 247.95,-75.39"/>
<polygon fill="#63b8ff" stroke="#63b8ff" points="383.73,-158.51 386.96,-168.61 390.73,-158.71 383.73,-158.51"/>
</a>
</g>
</g>
<!-- Node10 -->
<g id="Node000010" class="node">
<title>Node10</title>
<g id="a_Node000010"><a xlink:href="input__prep_8cpp.html" target="_top" xlink:title=" ">
<polygon fill="white" stroke="#666666" points="525.5,-134.25 420.25,-134.25 420.25,-113.5 525.5,-113.5 525.5,-134.25"/>
<text text-anchor="middle" x="472.88" y="-120.75" font-family="Helvetica,sans-Serif" font-size="10.00">src/input_prep.cpp</text>
</a>
</g>
</g>
<!-- Node9&#45;&gt;Node10 -->
<g id="edge12_Node000009_Node000010" class="edge">
<title>Node9&#45;&gt;Node10</title>
<g id="a_edge12_Node000009_Node000010"><a xlink:title=" ">
<path fill="none" stroke="#63b8ff" d="M411.13,-163.73C426.11,-154.3 444.63,-142.65 457.46,-134.58"/>
<polygon fill="#63b8ff" stroke="#63b8ff" points="409.31,-160.74 402.71,-169.03 413.04,-166.67 409.31,-160.74"/>
</a>
</g>
</g>
</g>
</svg>
