<?xml version="1.0" encoding="UTF-8" standalone="no"?>
<!DOCTYPE svg PUBLIC "-//W3C//DTD SVG 1.1//EN"
 "http://www.w3.org/Graphics/SVG/1.1/DTD/svg11.dtd">
<!-- Generated by graphviz version 12.2.1 (0)
 -->
<!-- Title: operator== Pages: 1 -->
<svg width="257pt" height="94pt"
 viewBox="0.00 0.00 256.75 93.50" xmlns="http://www.w3.org/2000/svg" xmlns:xlink="http://www.w3.org/1999/xlink">
<g id="graph0" class="graph" transform="scale(1 1) rotate(0) translate(4 89.5)">
<title>operator==</title>
<!-- Node1 -->
<g id="Node000001" class="node">
<title>Node1</title>
<g id="a_Node000001"><a xlink:title="Compares two iterators for equality.">
<polygon fill="#999999" stroke="#666666" points="73.75,-53.12 0,-53.12 0,-32.38 73.75,-32.38 73.75,-53.12"/>
<text text-anchor="middle" x="36.88" y="-39.62" font-family="Helvetica,sans-Serif" font-size="10.00">operator==</text>
</a>
</g>
</g>
<!-- Node2 -->
<g id="Node000002" class="node">
<title>Node2</title>
<g id="a_Node000002"><a xlink:href="classreduced__haplotypes_1_1iterator.html#af144cea0b0399dc827f5e8b34e4731dc" target="_top" xlink:title=" ">
<polygon fill="white" stroke="#666666" points="236.38,-85.5 122.12,-85.5 122.12,-52 236.38,-52 236.38,-85.5"/>
<text text-anchor="start" x="130.12" y="-72" font-family="Helvetica,sans-Serif" font-size="10.00">reduced_haplotypes</text>
<text text-anchor="middle" x="179.25" y="-59.25" font-family="Helvetica,sans-Serif" font-size="10.00">::iterator::block_idx</text>
</a>
</g>
</g>
<!-- Node1&#45;&gt;Node2 -->
<g id="edge1_Node000001_Node000002" class="edge">
<title>Node1&#45;&gt;Node2</title>
<g id="a_edge1_Node000001_Node000002"><a xlink:title=" ">
<path fill="none" stroke="#63b8ff" d="M74.03,-49.45C85.27,-51.53 98.06,-53.9 110.73,-56.24"/>
<polygon fill="#63b8ff" stroke="#63b8ff" points="109.83,-59.64 120.3,-58.02 111.1,-52.75 109.83,-59.64"/>
</a>
</g>
</g>
<!-- Node3 -->
<g id="Node000003" class="node">
<title>Node3</title>
<g id="a_Node000003"><a xlink:href="classreduced__haplotypes_1_1iterator.html#af71fc6941a7dd697380877c00d4a6c5d" target="_top" xlink:title=" ">
<polygon fill="white" stroke="#666666" points="248.75,-33.5 109.75,-33.5 109.75,0 248.75,0 248.75,-33.5"/>
<text text-anchor="start" x="117.75" y="-20" font-family="Helvetica,sans-Serif" font-size="10.00">reduced_haplotypes</text>
<text text-anchor="middle" x="179.25" y="-7.25" font-family="Helvetica,sans-Serif" font-size="10.00">::iterator::block_local_idx</text>
</a>
</g>
</g>
<!-- Node1&#45;&gt;Node3 -->
<g id="edge2_Node000001_Node000003" class="edge">
<title>Node1&#45;&gt;Node3</title>
<g id="a_edge2_Node000001_Node000003"><a xlink:title=" ">
<path fill="none" stroke="#63b8ff" d="M74.03,-36.05C81.59,-34.65 89.86,-33.12 98.32,-31.55"/>
<polygon fill="#63b8ff" stroke="#63b8ff" points="98.82,-35.02 108.02,-29.76 97.55,-28.14 98.82,-35.02"/>
</a>
</g>
</g>
</g>
</svg>
