<?xml version="1.0" encoding="UTF-8" standalone="no"?>
<!DOCTYPE svg PUBLIC "-//W3C//DTD SVG 1.1//EN"
 "http://www.w3.org/Graphics/SVG/1.1/DTD/svg11.dtd">
<!-- Generated by graphviz version 12.2.1 (0)
 -->
<!-- Title: src/unique_haplotype.hpp Pages: 1 -->
<svg width="961pt" height="199pt"
 viewBox="0.00 0.00 961.00 199.00" xmlns="http://www.w3.org/2000/svg" xmlns:xlink="http://www.w3.org/1999/xlink">
<g id="graph0" class="graph" transform="scale(1 1) rotate(0) translate(4 195)">
<title>src/unique_haplotype.hpp</title>
<!-- Node1 -->
<g id="Node000001" class="node">
<title>Node1</title>
<g id="a_Node000001"><a xlink:title=" ">
<polygon fill="#999999" stroke="#666666" points="627,-191 485.75,-191 485.75,-170.25 627,-170.25 627,-191"/>
<text text-anchor="middle" x="556.38" y="-177.5" font-family="Helvetica,sans-Serif" font-size="10.00">src/unique_haplotype.hpp</text>
</a>
</g>
</g>
<!-- Node2 -->
<g id="Node000002" class="node">
<title>Node2</title>
<g id="a_Node000002"><a xlink:href="variant_8hpp.html" target="_top" xlink:title=" ">
<polygon fill="white" stroke="#666666" points="509.12,-77.5 437.62,-77.5 437.62,-56.75 509.12,-56.75 509.12,-77.5"/>
<text text-anchor="middle" x="473.38" y="-64" font-family="Helvetica,sans-Serif" font-size="10.00">variant.hpp</text>
</a>
</g>
</g>
<!-- Node1&#45;&gt;Node2 -->
<g id="edge1_Node000001_Node000002" class="edge">
<title>Node1&#45;&gt;Node2</title>
<g id="a_edge1_Node000001_Node000002"><a xlink:title=" ">
<path fill="none" stroke="#63b8ff" d="M549.3,-170.12C535.65,-151.78 505.44,-111.2 487.52,-87.12"/>
<polygon fill="#63b8ff" stroke="#63b8ff" points="490.35,-85.07 481.57,-79.14 484.74,-89.25 490.35,-85.07"/>
</a>
</g>
</g>
<!-- Node3 -->
<g id="Node000003" class="node">
<title>Node3</title>
<g id="a_Node000003"><a xlink:title=" ">
<polygon fill="#e0e0e0" stroke="#999999" points="495.25,-20.75 451.5,-20.75 451.5,0 495.25,0 495.25,-20.75"/>
<text text-anchor="middle" x="473.38" y="-7.25" font-family="Helvetica,sans-Serif" font-size="10.00">string</text>
</a>
</g>
</g>
<!-- Node1&#45;&gt;Node3 -->
<g id="edge17_Node000001_Node000003" class="edge">
<title>Node1&#45;&gt;Node3</title>
<g id="a_edge17_Node000001_Node000003"><a xlink:title=" ">
<path fill="none" stroke="#63b8ff" d="M555.01,-170.05C551.62,-148.5 541.36,-95.04 518.38,-56.75 512.02,-46.16 502.68,-36.2 494.16,-28.32"/>
<polygon fill="#63b8ff" stroke="#63b8ff" points="496.69,-25.89 486.86,-21.93 492.08,-31.15 496.69,-25.89"/>
</a>
</g>
</g>
<!-- Node4 -->
<g id="Node000004" class="node">
<title>Node4</title>
<g id="a_Node000004"><a xlink:title=" ">
<polygon fill="#e0e0e0" stroke="#999999" points="46.75,-20.75 0,-20.75 0,0 46.75,0 46.75,-20.75"/>
<text text-anchor="middle" x="23.38" y="-7.25" font-family="Helvetica,sans-Serif" font-size="10.00">vector</text>
</a>
</g>
</g>
<!-- Node1&#45;&gt;Node4 -->
<g id="edge18_Node000001_Node000004" class="edge">
<title>Node1&#45;&gt;Node4</title>
<g id="a_edge18_Node000001_Node000004"><a xlink:title=" ">
<path fill="none" stroke="#63b8ff" d="M485.31,-179C377.33,-176.94 177.97,-168.46 116.38,-134.25 74.44,-110.96 45.63,-60.02 32.13,-31.58"/>
<polygon fill="#63b8ff" stroke="#63b8ff" points="35.37,-30.28 28.05,-22.62 29,-33.17 35.37,-30.28"/>
</a>
</g>
</g>
<!-- Node5 -->
<g id="Node000005" class="node">
<title>Node5</title>
<g id="a_Node000005"><a xlink:title=" ">
<polygon fill="#e0e0e0" stroke="#999999" points="113.88,-20.75 64.88,-20.75 64.88,0 113.88,0 113.88,-20.75"/>
<text text-anchor="middle" x="89.38" y="-7.25" font-family="Helvetica,sans-Serif" font-size="10.00">cstdint</text>
</a>
</g>
</g>
<!-- Node1&#45;&gt;Node5 -->
<g id="edge16_Node000001_Node000005" class="edge">
<title>Node1&#45;&gt;Node5</title>
<g id="a_edge16_Node000001_Node000005"><a xlink:title=" ">
<path fill="none" stroke="#63b8ff" d="M485.57,-177.31C412.53,-173.39 295.99,-162.8 199.38,-134.25 143.57,-117.76 112.35,-126.77 81.38,-77.5 72.82,-63.89 75.92,-45.55 80.53,-31.64"/>
<polygon fill="#63b8ff" stroke="#63b8ff" points="83.68,-33.2 84.01,-22.61 77.15,-30.69 83.68,-33.2"/>
</a>
</g>
</g>
<!-- Node6 -->
<g id="Node000006" class="node">
<title>Node6</title>
<g id="a_Node000006"><a xlink:title=" ">
<polygon fill="#e0e0e0" stroke="#999999" points="577.25,-20.75 533.5,-20.75 533.5,0 577.25,0 577.25,-20.75"/>
<text text-anchor="middle" x="555.38" y="-7.25" font-family="Helvetica,sans-Serif" font-size="10.00">limits</text>
</a>
</g>
</g>
<!-- Node1&#45;&gt;Node6 -->
<g id="edge20_Node000001_Node000006" class="edge">
<title>Node1&#45;&gt;Node6</title>
<g id="a_edge20_Node000001_Node000006"><a xlink:title=" ">
<path fill="none" stroke="#63b8ff" d="M556.32,-170.1C556.16,-143.73 555.72,-69.33 555.5,-32.53"/>
<polygon fill="#63b8ff" stroke="#63b8ff" points="559,-32.71 555.44,-22.73 552,-32.75 559,-32.71"/>
</a>
</g>
</g>
<!-- Node7 -->
<g id="Node000007" class="node">
<title>Node7</title>
<g id="a_Node000007"><a xlink:href="recombination_8hpp.html" target="_top" xlink:title=" ">
<polygon fill="white" stroke="#666666" points="316.12,-134.25 208.62,-134.25 208.62,-113.5 316.12,-113.5 316.12,-134.25"/>
<text text-anchor="middle" x="262.38" y="-120.75" font-family="Helvetica,sans-Serif" font-size="10.00">recombination.hpp</text>
</a>
</g>
</g>
<!-- Node1&#45;&gt;Node7 -->
<g id="edge6_Node000001_Node000007" class="edge">
<title>Node1&#45;&gt;Node7</title>
<g id="a_edge6_Node000001_Node000007"><a xlink:title=" ">
<path fill="none" stroke="#63b8ff" d="M503.47,-169.77C453.88,-160.54 379.63,-146.71 326.65,-136.84"/>
<polygon fill="#63b8ff" stroke="#63b8ff" points="327.31,-133.41 316.83,-135.02 326.02,-140.29 327.31,-133.41"/>
</a>
</g>
</g>
<!-- Node11 -->
<g id="Node000011" class="node">
<title>Node11</title>
<g id="a_Node000011"><a xlink:title=" ">
<polygon fill="#e0e0e0" stroke="#999999" points="703.38,-134.25 603.38,-134.25 603.38,-113.5 703.38,-113.5 703.38,-134.25"/>
<text text-anchor="middle" x="653.38" y="-120.75" font-family="Helvetica,sans-Serif" font-size="10.00">savvy/reader.hpp</text>
</a>
</g>
</g>
<!-- Node1&#45;&gt;Node11 -->
<g id="edge14_Node000001_Node000011" class="edge">
<title>Node1&#45;&gt;Node11</title>
<g id="a_edge14_Node000001_Node000011"><a xlink:title=" ">
<path fill="none" stroke="#63b8ff" d="M573.72,-169.84C588.34,-161.58 609.51,-149.63 626.35,-140.13"/>
<polygon fill="#63b8ff" stroke="#63b8ff" points="627.88,-143.29 634.87,-135.32 624.44,-137.19 627.88,-143.29"/>
</a>
</g>
</g>
<!-- Node12 -->
<g id="Node000012" class="node">
<title>Node12</title>
<g id="a_Node000012"><a xlink:title=" ">
<polygon fill="#e0e0e0" stroke="#999999" points="818.88,-134.25 721.88,-134.25 721.88,-113.5 818.88,-113.5 818.88,-134.25"/>
<text text-anchor="middle" x="770.38" y="-120.75" font-family="Helvetica,sans-Serif" font-size="10.00">savvy/writer.hpp</text>
</a>
</g>
</g>
<!-- Node1&#45;&gt;Node12 -->
<g id="edge15_Node000001_Node000012" class="edge">
<title>Node1&#45;&gt;Node12</title>
<g id="a_edge15_Node000001_Node000012"><a xlink:title=" ">
<path fill="none" stroke="#63b8ff" d="M594.63,-169.84C629.98,-160.79 682.67,-147.31 721.14,-137.47"/>
<polygon fill="#63b8ff" stroke="#63b8ff" points="721.8,-140.92 730.62,-135.05 720.07,-134.13 721.8,-140.92"/>
</a>
</g>
</g>
<!-- Node13 -->
<g id="Node000013" class="node">
<title>Node13</title>
<g id="a_Node000013"><a xlink:title=" ">
<polygon fill="#e0e0e0" stroke="#999999" points="883.38,-134.25 837.38,-134.25 837.38,-113.5 883.38,-113.5 883.38,-134.25"/>
<text text-anchor="middle" x="860.38" y="-120.75" font-family="Helvetica,sans-Serif" font-size="10.00">deque</text>
</a>
</g>
</g>
<!-- Node1&#45;&gt;Node13 -->
<g id="edge19_Node000001_Node000013" class="edge">
<title>Node1&#45;&gt;Node13</title>
<g id="a_edge19_Node000001_Node000013"><a xlink:title=" ">
<path fill="none" stroke="#63b8ff" d="M627.28,-170.17C679.74,-162.63 753.12,-150.96 825.85,-134.62"/>
<polygon fill="#63b8ff" stroke="#63b8ff" points="826.59,-138.04 835.57,-132.4 825.04,-131.21 826.59,-138.04"/>
</a>
</g>
</g>
<!-- Node14 -->
<g id="Node000014" class="node">
<title>Node14</title>
<g id="a_Node000014"><a xlink:title=" ">
<polygon fill="#e0e0e0" stroke="#999999" points="953,-134.25 901.75,-134.25 901.75,-113.5 953,-113.5 953,-134.25"/>
<text text-anchor="middle" x="927.38" y="-120.75" font-family="Helvetica,sans-Serif" font-size="10.00">cassert</text>
</a>
</g>
</g>
<!-- Node1&#45;&gt;Node14 -->
<g id="edge21_Node000001_Node000014" class="edge">
<title>Node1&#45;&gt;Node14</title>
<g id="a_edge21_Node000001_Node000014"><a xlink:title=" ">
<path fill="none" stroke="#63b8ff" d="M627.28,-172.71C693.05,-165.69 793.8,-153.41 890.33,-134.43"/>
<polygon fill="#63b8ff" stroke="#63b8ff" points="890.86,-137.9 899.98,-132.51 889.49,-131.03 890.86,-137.9"/>
</a>
</g>
</g>
<!-- Node2&#45;&gt;Node3 -->
<g id="edge2_Node000002_Node000003" class="edge">
<title>Node2&#45;&gt;Node3</title>
<g id="a_edge2_Node000002_Node000003"><a xlink:title=" ">
<path fill="none" stroke="#63b8ff" d="M473.38,-56.34C473.38,-49.72 473.38,-40.72 473.38,-32.52"/>
<polygon fill="#63b8ff" stroke="#63b8ff" points="476.88,-32.59 473.38,-22.59 469.88,-32.59 476.88,-32.59"/>
</a>
</g>
</g>
<!-- Node2&#45;&gt;Node4 -->
<g id="edge3_Node000002_Node000004" class="edge">
<title>Node2&#45;&gt;Node4</title>
<g id="a_edge3_Node000002_Node000004"><a xlink:title=" ">
<path fill="none" stroke="#63b8ff" d="M437.43,-62.02C422.83,-60.37 405.8,-58.45 390.38,-56.75 245.16,-40.75 204.24,-49.46 58.19,-21.02"/>
<polygon fill="#63b8ff" stroke="#63b8ff" points="59,-17.61 48.51,-19.11 57.64,-24.48 59,-17.61"/>
</a>
</g>
</g>
<!-- Node2&#45;&gt;Node5 -->
<g id="edge4_Node000002_Node000005" class="edge">
<title>Node2&#45;&gt;Node5</title>
<g id="a_edge4_Node000002_Node000005"><a xlink:title=" ">
<path fill="none" stroke="#63b8ff" d="M437.25,-60.97C364.03,-50.53 198.88,-26.99 125.59,-16.54"/>
<polygon fill="#63b8ff" stroke="#63b8ff" points="126.13,-13.08 115.73,-15.13 125.14,-20.01 126.13,-13.08"/>
</a>
</g>
</g>
<!-- Node2&#45;&gt;Node6 -->
<g id="edge5_Node000002_Node000006" class="edge">
<title>Node2&#45;&gt;Node6</title>
<g id="a_edge5_Node000002_Node000006"><a xlink:title=" ">
<path fill="none" stroke="#63b8ff" d="M488.03,-56.34C500.05,-48.32 517.29,-36.81 531.31,-27.44"/>
<polygon fill="#63b8ff" stroke="#63b8ff" points="533.21,-30.38 539.58,-21.92 529.32,-24.56 533.21,-30.38"/>
</a>
</g>
</g>
<!-- Node7&#45;&gt;Node2 -->
<g id="edge7_Node000007_Node000002" class="edge">
<title>Node7&#45;&gt;Node2</title>
<g id="a_edge7_Node000007_Node000002"><a xlink:title=" ">
<path fill="none" stroke="#63b8ff" d="M300.1,-113.09C335.48,-103.9 388.51,-90.14 426.58,-80.27"/>
<polygon fill="#63b8ff" stroke="#63b8ff" points="427.12,-83.74 435.92,-77.84 425.36,-76.97 427.12,-83.74"/>
</a>
</g>
</g>
<!-- Node7&#45;&gt;Node3 -->
<g id="edge9_Node000007_Node000003" class="edge">
<title>Node7&#45;&gt;Node3</title>
<g id="a_edge9_Node000007_Node000003"><a xlink:title=" ">
<path fill="none" stroke="#63b8ff" d="M300.19,-113.07C326.45,-105.41 361.72,-93.4 390.38,-77.5 414.61,-64.05 439.03,-43.56 455.05,-28.96"/>
<polygon fill="#63b8ff" stroke="#63b8ff" points="457.4,-31.55 462.33,-22.18 452.63,-26.43 457.4,-31.55"/>
</a>
</g>
</g>
<!-- Node7&#45;&gt;Node4 -->
<g id="edge10_Node000007_Node000004" class="edge">
<title>Node7&#45;&gt;Node4</title>
<g id="a_edge10_Node000007_Node000004"><a xlink:title=" ">
<path fill="none" stroke="#63b8ff" d="M208.41,-117.93C170.59,-112.49 120.08,-101.14 81.38,-77.5 62.1,-65.73 45.74,-45.5 35.36,-30.5"/>
<polygon fill="#63b8ff" stroke="#63b8ff" points="38.43,-28.8 30,-22.39 32.59,-32.66 38.43,-28.8"/>
</a>
</g>
</g>
<!-- Node7&#45;&gt;Node5 -->
<g id="edge11_Node000007_Node000005" class="edge">
<title>Node7&#45;&gt;Node5</title>
<g id="a_edge11_Node000007_Node000005"><a xlink:title=" ">
<path fill="none" stroke="#63b8ff" d="M208.54,-115.18C165.12,-107.79 108.96,-95.13 94.38,-77.5 84.16,-65.15 83.57,-46.68 85.17,-32.39"/>
<polygon fill="#63b8ff" stroke="#63b8ff" points="88.6,-33.1 86.71,-22.67 81.69,-32 88.6,-33.1"/>
</a>
</g>
</g>
<!-- Node8 -->
<g id="Node000008" class="node">
<title>Node8</title>
<g id="a_Node000008"><a xlink:title=" ">
<polygon fill="#e0e0e0" stroke="#999999" points="381.12,-77.5 249.62,-77.5 249.62,-56.75 381.12,-56.75 381.12,-77.5"/>
<text text-anchor="middle" x="315.38" y="-64" font-family="Helvetica,sans-Serif" font-size="10.00">shrinkwrap/istream.hpp</text>
</a>
</g>
</g>
<!-- Node7&#45;&gt;Node8 -->
<g id="edge8_Node000007_Node000008" class="edge">
<title>Node7&#45;&gt;Node8</title>
<g id="a_edge8_Node000007_Node000008"><a xlink:title=" ">
<path fill="none" stroke="#63b8ff" d="M271.85,-113.09C279.16,-105.53 289.47,-94.89 298.22,-85.85"/>
<polygon fill="#63b8ff" stroke="#63b8ff" points="300.49,-88.54 304.93,-78.92 295.46,-83.67 300.49,-88.54"/>
</a>
</g>
</g>
<!-- Node9 -->
<g id="Node000009" class="node">
<title>Node9</title>
<g id="a_Node000009"><a xlink:title=" ">
<polygon fill="#e0e0e0" stroke="#999999" points="167,-77.5 103.75,-77.5 103.75,-56.75 167,-56.75 167,-77.5"/>
<text text-anchor="middle" x="135.38" y="-64" font-family="Helvetica,sans-Serif" font-size="10.00">algorithm</text>
</a>
</g>
</g>
<!-- Node7&#45;&gt;Node9 -->
<g id="edge12_Node000007_Node000009" class="edge">
<title>Node7&#45;&gt;Node9</title>
<g id="a_edge12_Node000007_Node000009"><a xlink:title=" ">
<path fill="none" stroke="#63b8ff" d="M239.67,-113.09C219.8,-104.52 190.7,-91.98 168.28,-82.31"/>
<polygon fill="#63b8ff" stroke="#63b8ff" points="169.84,-79.17 159.27,-78.43 167.07,-85.6 169.84,-79.17"/>
</a>
</g>
</g>
<!-- Node10 -->
<g id="Node000010" class="node">
<title>Node10</title>
<g id="a_Node000010"><a xlink:title=" ">
<polygon fill="#e0e0e0" stroke="#999999" points="231.75,-77.5 185,-77.5 185,-56.75 231.75,-56.75 231.75,-77.5"/>
<text text-anchor="middle" x="208.38" y="-64" font-family="Helvetica,sans-Serif" font-size="10.00">cmath</text>
</a>
</g>
</g>
<!-- Node7&#45;&gt;Node10 -->
<g id="edge13_Node000007_Node000010" class="edge">
<title>Node7&#45;&gt;Node10</title>
<g id="a_edge13_Node000007_Node000010"><a xlink:title=" ">
<path fill="none" stroke="#63b8ff" d="M252.72,-113.09C245.27,-105.53 234.77,-94.89 225.85,-85.85"/>
<polygon fill="#63b8ff" stroke="#63b8ff" points="228.52,-83.57 219.01,-78.91 223.54,-88.48 228.52,-83.57"/>
</a>
</g>
</g>
</g>
</svg>
