<?xml version="1.0" encoding="UTF-8" standalone="no"?>
<!DOCTYPE svg PUBLIC "-//W3C//DTD SVG 1.1//EN"
 "http://www.w3.org/Graphics/SVG/1.1/DTD/svg11.dtd">
<!-- Generated by graphviz version 12.2.1 (0)
 -->
<!-- Title: src/variant.hpp Pages: 1 -->
<svg width="840pt" height="369pt"
 viewBox="0.00 0.00 840.25 369.25" xmlns="http://www.w3.org/2000/svg" xmlns:xlink="http://www.w3.org/1999/xlink">
<g id="graph0" class="graph" transform="scale(1 1) rotate(0) translate(4 365.25)">
<title>src/variant.hpp</title>
<!-- Node1 -->
<g id="Node000001" class="node">
<title>Node1</title>
<g id="a_Node000001"><a xlink:title=" ">
<polygon fill="#999999" stroke="#666666" points="255.62,-361.25 166.88,-361.25 166.88,-340.5 255.62,-340.5 255.62,-361.25"/>
<text text-anchor="middle" x="211.25" y="-347.75" font-family="Helvetica,sans-Serif" font-size="10.00">src/variant.hpp</text>
</a>
</g>
</g>
<!-- Node2 -->
<g id="Node000002" class="node">
<title>Node2</title>
<g id="a_Node000002"><a xlink:href="dosage__writer_8hpp.html" target="_top" xlink:title=" ">
<polygon fill="white" stroke="#666666" points="307.5,-134.25 185,-134.25 185,-113.5 307.5,-113.5 307.5,-134.25"/>
<text text-anchor="middle" x="246.25" y="-120.75" font-family="Helvetica,sans-Serif" font-size="10.00">src/dosage_writer.hpp</text>
</a>
</g>
</g>
<!-- Node1&#45;&gt;Node2 -->
<g id="edge1_Node000001_Node000002" class="edge">
<title>Node1&#45;&gt;Node2</title>
<g id="a_edge1_Node000001_Node000002"><a xlink:title=" ">
<path fill="none" stroke="#63b8ff" d="M190.55,-332.94C152.81,-300.01 80.18,-225.7 119.25,-170.25 134.22,-149.01 160.08,-137.65 184.58,-131.61"/>
<polygon fill="#63b8ff" stroke="#63b8ff" points="188.26,-335.59 198.15,-339.41 192.8,-330.26 188.26,-335.59"/>
</a>
</g>
</g>
<!-- Node7 -->
<g id="Node000007" class="node">
<title>Node7</title>
<g id="a_Node000007"><a xlink:href="hidden__markov__model_8cpp.html" target="_top" xlink:title=" ">
<polygon fill="white" stroke="#666666" points="164.5,-134.25 0,-134.25 0,-113.5 164.5,-113.5 164.5,-134.25"/>
<text text-anchor="middle" x="82.25" y="-120.75" font-family="Helvetica,sans-Serif" font-size="10.00">src/hidden_markov_model.cpp</text>
</a>
</g>
</g>
<!-- Node1&#45;&gt;Node7 -->
<g id="edge6_Node000001_Node000007" class="edge">
<title>Node1&#45;&gt;Node7</title>
<g id="a_edge6_Node000001_Node000007"><a xlink:title=" ">
<path fill="none" stroke="#63b8ff" d="M180.87,-334.74C167.34,-326.99 151.87,-316.62 140.25,-304.5 92.17,-254.36 83.95,-164.08 82.54,-134.53"/>
<polygon fill="#63b8ff" stroke="#63b8ff" points="178.96,-337.69 189.42,-339.42 182.33,-331.55 178.96,-337.69"/>
</a>
</g>
</g>
<!-- Node8 -->
<g id="Node000008" class="node">
<title>Node8</title>
<g id="a_Node000008"><a xlink:href="hidden__markov__model_8hpp.html" target="_top" xlink:title=" ">
<polygon fill="white" stroke="#666666" points="293.88,-191 128.62,-191 128.62,-170.25 293.88,-170.25 293.88,-191"/>
<text text-anchor="middle" x="211.25" y="-177.5" font-family="Helvetica,sans-Serif" font-size="10.00">src/hidden_markov_model.hpp</text>
</a>
</g>
</g>
<!-- Node1&#45;&gt;Node8 -->
<g id="edge7_Node000001_Node000008" class="edge">
<title>Node1&#45;&gt;Node8</title>
<g id="a_edge7_Node000001_Node000008"><a xlink:title=" ">
<path fill="none" stroke="#63b8ff" d="M211.25,-329.16C211.25,-292.65 211.25,-218.21 211.25,-191.47"/>
<polygon fill="#63b8ff" stroke="#63b8ff" points="207.75,-328.83 211.25,-338.83 214.75,-328.83 207.75,-328.83"/>
</a>
</g>
</g>
<!-- Node9 -->
<g id="Node000009" class="node">
<title>Node9</title>
<g id="a_Node000009"><a xlink:href="recombination_8hpp.html" target="_top" xlink:title=" ">
<polygon fill="white" stroke="#666666" points="704.62,-304.5 579.88,-304.5 579.88,-283.75 704.62,-283.75 704.62,-304.5"/>
<text text-anchor="middle" x="642.25" y="-291" font-family="Helvetica,sans-Serif" font-size="10.00">src/recombination.hpp</text>
</a>
</g>
</g>
<!-- Node1&#45;&gt;Node9 -->
<g id="edge11_Node000001_Node000009" class="edge">
<title>Node1&#45;&gt;Node9</title>
<g id="a_edge11_Node000001_Node000009"><a xlink:title=" ">
<path fill="none" stroke="#63b8ff" d="M267.12,-342.78C347.57,-332.56 495.61,-313.75 579.65,-303.08"/>
<polygon fill="#63b8ff" stroke="#63b8ff" points="266.73,-339.3 257.25,-344.03 267.61,-346.24 266.73,-339.3"/>
</a>
</g>
</g>
<!-- Node12 -->
<g id="Node000012" class="node">
<title>Node12</title>
<g id="a_Node000012"><a xlink:href="unique__haplotype_8hpp.html" target="_top" xlink:title=" ">
<polygon fill="white" stroke="#666666" points="435.88,-247.75 294.62,-247.75 294.62,-227 435.88,-227 435.88,-247.75"/>
<text text-anchor="middle" x="365.25" y="-234.25" font-family="Helvetica,sans-Serif" font-size="10.00">src/unique_haplotype.hpp</text>
</a>
</g>
</g>
<!-- Node1&#45;&gt;Node12 -->
<g id="edge22_Node000001_Node000012" class="edge">
<title>Node1&#45;&gt;Node12</title>
<g id="a_edge22_Node000001_Node000012"><a xlink:title=" ">
<path fill="none" stroke="#63b8ff" d="M233.82,-333.53C266.33,-310 325.32,-267.29 351.77,-248.13"/>
<polygon fill="#63b8ff" stroke="#63b8ff" points="231.92,-330.59 225.87,-339.29 236.03,-336.26 231.92,-330.59"/>
</a>
</g>
</g>
<!-- Node3 -->
<g id="Node000003" class="node">
<title>Node3</title>
<g id="a_Node000003"><a xlink:href="dosage__writer_8cpp.html" target="_top" xlink:title=" ">
<polygon fill="white" stroke="#666666" points="307.12,-77.5 185.38,-77.5 185.38,-56.75 307.12,-56.75 307.12,-77.5"/>
<text text-anchor="middle" x="246.25" y="-64" font-family="Helvetica,sans-Serif" font-size="10.00">src/dosage_writer.cpp</text>
</a>
</g>
</g>
<!-- Node2&#45;&gt;Node3 -->
<g id="edge2_Node000002_Node000003" class="edge">
<title>Node2&#45;&gt;Node3</title>
<g id="a_edge2_Node000002_Node000003"><a xlink:title=" ">
<path fill="none" stroke="#63b8ff" d="M246.25,-101.63C246.25,-93.41 246.25,-84.43 246.25,-77.83"/>
<polygon fill="#63b8ff" stroke="#63b8ff" points="242.75,-101.57 246.25,-111.57 249.75,-101.57 242.75,-101.57"/>
</a>
</g>
</g>
<!-- Node4 -->
<g id="Node000004" class="node">
<title>Node4</title>
<g id="a_Node000004"><a xlink:href="imputation_8hpp.html" target="_top" xlink:title=" ">
<polygon fill="white" stroke="#666666" points="433,-77.5 325.5,-77.5 325.5,-56.75 433,-56.75 433,-77.5"/>
<text text-anchor="middle" x="379.25" y="-64" font-family="Helvetica,sans-Serif" font-size="10.00">src/imputation.hpp</text>
</a>
</g>
</g>
<!-- Node2&#45;&gt;Node4 -->
<g id="edge3_Node000002_Node000004" class="edge">
<title>Node2&#45;&gt;Node4</title>
<g id="a_edge3_Node000002_Node000004"><a xlink:title=" ">
<path fill="none" stroke="#63b8ff" d="M280.62,-108.72C304.19,-99.02 334.84,-86.41 355.68,-77.83"/>
<polygon fill="#63b8ff" stroke="#63b8ff" points="279.34,-105.47 271.43,-112.51 282.01,-111.94 279.34,-105.47"/>
</a>
</g>
</g>
<!-- Node5 -->
<g id="Node000005" class="node">
<title>Node5</title>
<g id="a_Node000005"><a xlink:href="imputation_8cpp.html" target="_top" xlink:title=" ">
<polygon fill="white" stroke="#666666" points="376.62,-20.75 269.88,-20.75 269.88,0 376.62,0 376.62,-20.75"/>
<text text-anchor="middle" x="323.25" y="-7.25" font-family="Helvetica,sans-Serif" font-size="10.00">src/imputation.cpp</text>
</a>
</g>
</g>
<!-- Node4&#45;&gt;Node5 -->
<g id="edge4_Node000004_Node000005" class="edge">
<title>Node4&#45;&gt;Node5</title>
<g id="a_edge4_Node000004_Node000005"><a xlink:title=" ">
<path fill="none" stroke="#63b8ff" d="M361.02,-48.3C351.76,-39.25 340.88,-28.61 333.18,-21.08"/>
<polygon fill="#63b8ff" stroke="#63b8ff" points="358.56,-50.79 368.16,-55.28 363.45,-45.79 358.56,-50.79"/>
</a>
</g>
</g>
<!-- Node6 -->
<g id="Node000006" class="node">
<title>Node6</title>
<g id="a_Node000006"><a xlink:href="main_8cpp.html" target="_top" xlink:title=" ">
<polygon fill="white" stroke="#666666" points="473.38,-20.75 395.12,-20.75 395.12,0 473.38,0 473.38,-20.75"/>
<text text-anchor="middle" x="434.25" y="-7.25" font-family="Helvetica,sans-Serif" font-size="10.00">src/main.cpp</text>
</a>
</g>
</g>
<!-- Node4&#45;&gt;Node6 -->
<g id="edge5_Node000004_Node000006" class="edge">
<title>Node4&#45;&gt;Node6</title>
<g id="a_edge5_Node000004_Node000006"><a xlink:title=" ">
<path fill="none" stroke="#63b8ff" d="M397.16,-48.3C406.25,-39.25 416.94,-28.61 424.5,-21.08"/>
<polygon fill="#63b8ff" stroke="#63b8ff" points="394.77,-45.73 390.16,-55.27 399.71,-50.69 394.77,-45.73"/>
</a>
</g>
</g>
<!-- Node8&#45;&gt;Node2 -->
<g id="edge8_Node000008_Node000002" class="edge">
<title>Node8&#45;&gt;Node2</title>
<g id="a_edge8_Node000008_Node000002"><a xlink:title=" ">
<path fill="none" stroke="#63b8ff" d="M223.55,-160.39C229.13,-151.66 235.48,-141.72 240.05,-134.58"/>
<polygon fill="#63b8ff" stroke="#63b8ff" points="220.76,-158.25 218.32,-168.56 226.66,-162.02 220.76,-158.25"/>
</a>
</g>
</g>
<!-- Node8&#45;&gt;Node4 -->
<g id="edge10_Node000008_Node000004" class="edge">
<title>Node8&#45;&gt;Node4</title>
<g id="a_edge10_Node000008_Node000004"><a xlink:title=" ">
<path fill="none" stroke="#63b8ff" d="M253.07,-165.99C273.17,-158.36 297.01,-147.66 316.25,-134.25 339.66,-117.93 361.3,-91.87 372.08,-77.83"/>
<polygon fill="#63b8ff" stroke="#63b8ff" points="251.95,-162.67 243.76,-169.39 254.36,-169.25 251.95,-162.67"/>
</a>
</g>
</g>
<!-- Node8&#45;&gt;Node7 -->
<g id="edge9_Node000008_Node000007" class="edge">
<title>Node8&#45;&gt;Node7</title>
<g id="a_edge9_Node000008_Node000007"><a xlink:title=" ">
<path fill="none" stroke="#63b8ff" d="M177.6,-165.34C154.78,-155.66 125.23,-143.12 105.11,-134.58"/>
<polygon fill="#63b8ff" stroke="#63b8ff" points="176.22,-168.56 186.79,-169.25 178.96,-162.12 176.22,-168.56"/>
</a>
</g>
</g>
<!-- Node9&#45;&gt;Node4 -->
<g id="edge12_Node000009_Node000004" class="edge">
<title>Node9&#45;&gt;Node4</title>
<g id="a_edge12_Node000009_Node000004"><a xlink:title=" ">
<path fill="none" stroke="#63b8ff" d="M651.07,-272.8C653.97,-265.1 656.81,-256.17 658.25,-247.75 659.81,-238.66 659.51,-236.14 658.25,-227 650.55,-171.28 649.34,-144.27 602.25,-113.5 551.48,-80.33 481.42,-70.62 433.46,-68.17"/>
<polygon fill="#63b8ff" stroke="#63b8ff" points="647.9,-271.31 647.38,-281.89 654.38,-273.94 647.9,-271.31"/>
</a>
</g>
</g>
<!-- Node10 -->
<g id="Node000010" class="node">
<title>Node10</title>
<g id="a_Node000010"><a xlink:href="input__prep_8cpp.html" target="_top" xlink:title=" ">
<polygon fill="white" stroke="#666666" points="592.88,-134.25 487.62,-134.25 487.62,-113.5 592.88,-113.5 592.88,-134.25"/>
<text text-anchor="middle" x="540.25" y="-120.75" font-family="Helvetica,sans-Serif" font-size="10.00">src/input_prep.cpp</text>
</a>
</g>
</g>
<!-- Node9&#45;&gt;Node10 -->
<g id="edge13_Node000009_Node000010" class="edge">
<title>Node9&#45;&gt;Node10</title>
<g id="a_edge13_Node000009_Node000010"><a xlink:title=" ">
<path fill="none" stroke="#63b8ff" d="M644.33,-272.27C645.83,-246.05 644.67,-200.77 623.25,-170.25 611.17,-153.04 590.42,-141.7 572.69,-134.66"/>
<polygon fill="#63b8ff" stroke="#63b8ff" points="640.86,-271.71 643.57,-281.96 647.84,-272.26 640.86,-271.71"/>
</a>
</g>
</g>
<!-- Node11 -->
<g id="Node000011" class="node">
<title>Node11</title>
<g id="a_Node000011"><a xlink:href="recombination_8cpp.html" target="_top" xlink:title=" ">
<polygon fill="white" stroke="#666666" points="832.25,-247.75 708.25,-247.75 708.25,-227 832.25,-227 832.25,-247.75"/>
<text text-anchor="middle" x="770.25" y="-234.25" font-family="Helvetica,sans-Serif" font-size="10.00">src/recombination.cpp</text>
</a>
</g>
</g>
<!-- Node9&#45;&gt;Node11 -->
<g id="edge14_Node000009_Node000011" class="edge">
<title>Node9&#45;&gt;Node11</title>
<g id="a_edge14_Node000009_Node000011"><a xlink:title=" ">
<path fill="none" stroke="#63b8ff" d="M675.64,-278.84C698.28,-269.16 727.6,-256.62 747.56,-248.08"/>
<polygon fill="#63b8ff" stroke="#63b8ff" points="674.34,-275.59 666.53,-282.74 677.1,-282.03 674.34,-275.59"/>
</a>
</g>
</g>
<!-- Node9&#45;&gt;Node12 -->
<g id="edge15_Node000009_Node000012" class="edge">
<title>Node9&#45;&gt;Node12</title>
<g id="a_edge15_Node000009_Node000012"><a xlink:title=" ">
<path fill="none" stroke="#63b8ff" d="M581.14,-281.05C531.28,-271.19 461.71,-257.44 415.16,-248.24"/>
<polygon fill="#63b8ff" stroke="#63b8ff" points="580.43,-284.47 590.92,-282.98 581.79,-277.61 580.43,-284.47"/>
</a>
</g>
</g>
<!-- Node12&#45;&gt;Node2 -->
<g id="edge16_Node000012_Node000002" class="edge">
<title>Node12&#45;&gt;Node2</title>
<g id="a_edge16_Node000012_Node000002"><a xlink:title=" ">
<path fill="none" stroke="#63b8ff" d="M349.34,-218.02C337.2,-204.35 319.79,-185.51 303.25,-170.25 288.93,-157.04 271.21,-143.31 259.37,-134.46"/>
<polygon fill="#63b8ff" stroke="#63b8ff" points="346.61,-220.2 355.84,-225.4 351.86,-215.58 346.61,-220.2"/>
</a>
</g>
</g>
<!-- Node12&#45;&gt;Node8 -->
<g id="edge17_Node000012_Node000008" class="edge">
<title>Node12&#45;&gt;Node8</title>
<g id="a_edge17_Node000012_Node000008"><a xlink:title=" ">
<path fill="none" stroke="#63b8ff" d="M326.96,-222.76C299.58,-213.03 263.37,-200.15 238.8,-191.42"/>
<polygon fill="#63b8ff" stroke="#63b8ff" points="325.7,-226.03 336.29,-226.08 328.04,-219.43 325.7,-226.03"/>
</a>
</g>
</g>
<!-- Node13 -->
<g id="Node000013" class="node">
<title>Node13</title>
<g id="a_Node000013"><a xlink:href="input__prep_8hpp.html" target="_top" xlink:title=" ">
<polygon fill="white" stroke="#666666" points="456.25,-191 350.25,-191 350.25,-170.25 456.25,-170.25 456.25,-191"/>
<text text-anchor="middle" x="403.25" y="-177.5" font-family="Helvetica,sans-Serif" font-size="10.00">src/input_prep.hpp</text>
</a>
</g>
</g>
<!-- Node12&#45;&gt;Node13 -->
<g id="edge18_Node000012_Node000013" class="edge">
<title>Node12&#45;&gt;Node13</title>
<g id="a_edge18_Node000012_Node000013"><a xlink:title=" ">
<path fill="none" stroke="#63b8ff" d="M378.6,-217.14C384.66,-208.41 391.56,-198.47 396.52,-191.33"/>
<polygon fill="#63b8ff" stroke="#63b8ff" points="375.73,-215.13 372.91,-225.34 381.48,-219.12 375.73,-215.13"/>
</a>
</g>
</g>
<!-- Node14 -->
<g id="Node000014" class="node">
<title>Node14</title>
<g id="a_Node000014"><a xlink:href="unique__haplotype_8cpp.html" target="_top" xlink:title=" ">
<polygon fill="white" stroke="#666666" points="614.5,-191 474,-191 474,-170.25 614.5,-170.25 614.5,-191"/>
<text text-anchor="middle" x="544.25" y="-177.5" font-family="Helvetica,sans-Serif" font-size="10.00">src/unique_haplotype.cpp</text>
</a>
</g>
</g>
<!-- Node12&#45;&gt;Node14 -->
<g id="edge21_Node000012_Node000014" class="edge">
<title>Node12&#45;&gt;Node14</title>
<g id="a_edge21_Node000012_Node000014"><a xlink:title=" ">
<path fill="none" stroke="#63b8ff" d="M408.07,-223.28C440.09,-213.49 483.16,-200.31 512.22,-191.42"/>
<polygon fill="#63b8ff" stroke="#63b8ff" points="407.24,-219.87 398.7,-226.14 409.29,-226.57 407.24,-219.87"/>
</a>
</g>
</g>
<!-- Node13&#45;&gt;Node4 -->
<g id="edge19_Node000013_Node000004" class="edge">
<title>Node13&#45;&gt;Node4</title>
<g id="a_edge19_Node000013_Node000004"><a xlink:title=" ">
<path fill="none" stroke="#63b8ff" d="M398.82,-159.05C393.63,-134.95 385.25,-96 381.36,-77.93"/>
<polygon fill="#63b8ff" stroke="#63b8ff" points="395.36,-159.6 400.89,-168.64 402.2,-158.13 395.36,-159.6"/>
</a>
</g>
</g>
<!-- Node13&#45;&gt;Node10 -->
<g id="edge20_Node000013_Node000010" class="edge">
<title>Node13&#45;&gt;Node10</title>
<g id="a_edge20_Node000013_Node000010"><a xlink:title=" ">
<path fill="none" stroke="#63b8ff" d="M438.33,-165.61C462.65,-155.89 494.41,-143.19 515.97,-134.58"/>
<polygon fill="#63b8ff" stroke="#63b8ff" points="437.14,-162.31 429.15,-169.28 439.73,-168.81 437.14,-162.31"/>
</a>
</g>
</g>
</g>
</svg>
