<?xml version="1.0" encoding="UTF-8" standalone="no"?>
<!DOCTYPE svg PUBLIC "-//W3C//DTD SVG 1.1//EN"
 "http://www.w3.org/Graphics/SVG/1.1/DTD/svg11.dtd">
<!-- Generated by graphviz version 12.2.1 (0)
 -->
<!-- Title: src/variant.hpp Pages: 1 -->
<svg width="245pt" height="86pt"
 viewBox="0.00 0.00 244.75 85.50" xmlns="http://www.w3.org/2000/svg" xmlns:xlink="http://www.w3.org/1999/xlink">
<g id="graph0" class="graph" transform="scale(1 1) rotate(0) translate(4 81.5)">
<title>src/variant.hpp</title>
<!-- Node1 -->
<g id="Node000001" class="node">
<title>Node1</title>
<g id="a_Node000001"><a xlink:title=" ">
<polygon fill="#999999" stroke="#666666" points="162.25,-77.5 73.5,-77.5 73.5,-56.75 162.25,-56.75 162.25,-77.5"/>
<text text-anchor="middle" x="117.88" y="-64" font-family="Helvetica,sans-Serif" font-size="10.00">src/variant.hpp</text>
</a>
</g>
</g>
<!-- Node2 -->
<g id="Node000002" class="node">
<title>Node2</title>
<g id="a_Node000002"><a xlink:title=" ">
<polygon fill="#e0e0e0" stroke="#999999" points="43.75,-20.75 0,-20.75 0,0 43.75,0 43.75,-20.75"/>
<text text-anchor="middle" x="21.88" y="-7.25" font-family="Helvetica,sans-Serif" font-size="10.00">string</text>
</a>
</g>
</g>
<!-- Node1&#45;&gt;Node2 -->
<g id="edge1_Node000001_Node000002" class="edge">
<title>Node1&#45;&gt;Node2</title>
<g id="a_edge1_Node000001_Node000002"><a xlink:title=" ">
<path fill="none" stroke="#63b8ff" d="M100.71,-56.34C86.24,-48.08 65.29,-36.13 48.62,-26.63"/>
<polygon fill="#63b8ff" stroke="#63b8ff" points="50.62,-23.74 40.2,-21.83 47.16,-29.82 50.62,-23.74"/>
</a>
</g>
</g>
<!-- Node3 -->
<g id="Node000003" class="node">
<title>Node3</title>
<g id="a_Node000003"><a xlink:title=" ">
<polygon fill="#e0e0e0" stroke="#999999" points="108.25,-20.75 61.5,-20.75 61.5,0 108.25,0 108.25,-20.75"/>
<text text-anchor="middle" x="84.88" y="-7.25" font-family="Helvetica,sans-Serif" font-size="10.00">vector</text>
</a>
</g>
</g>
<!-- Node1&#45;&gt;Node3 -->
<g id="edge2_Node000001_Node000003" class="edge">
<title>Node1&#45;&gt;Node3</title>
<g id="a_edge2_Node000001_Node000003"><a xlink:title=" ">
<path fill="none" stroke="#63b8ff" d="M111.98,-56.34C107.7,-49.25 101.79,-39.44 96.58,-30.79"/>
<polygon fill="#63b8ff" stroke="#63b8ff" points="99.66,-29.13 91.5,-22.37 93.67,-32.75 99.66,-29.13"/>
</a>
</g>
</g>
<!-- Node4 -->
<g id="Node000004" class="node">
<title>Node4</title>
<g id="a_Node000004"><a xlink:title=" ">
<polygon fill="#e0e0e0" stroke="#999999" points="175.38,-20.75 126.38,-20.75 126.38,0 175.38,0 175.38,-20.75"/>
<text text-anchor="middle" x="150.88" y="-7.25" font-family="Helvetica,sans-Serif" font-size="10.00">cstdint</text>
</a>
</g>
</g>
<!-- Node1&#45;&gt;Node4 -->
<g id="edge3_Node000001_Node000004" class="edge">
<title>Node1&#45;&gt;Node4</title>
<g id="a_edge3_Node000001_Node000004"><a xlink:title=" ">
<path fill="none" stroke="#63b8ff" d="M123.77,-56.34C128.05,-49.25 133.96,-39.44 139.17,-30.79"/>
<polygon fill="#63b8ff" stroke="#63b8ff" points="142.08,-32.75 144.25,-22.37 136.09,-29.13 142.08,-32.75"/>
</a>
</g>
</g>
<!-- Node5 -->
<g id="Node000005" class="node">
<title>Node5</title>
<g id="a_Node000005"><a xlink:title=" ">
<polygon fill="#e0e0e0" stroke="#999999" points="236.75,-20.75 193,-20.75 193,0 236.75,0 236.75,-20.75"/>
<text text-anchor="middle" x="214.88" y="-7.25" font-family="Helvetica,sans-Serif" font-size="10.00">limits</text>
</a>
</g>
</g>
<!-- Node1&#45;&gt;Node5 -->
<g id="edge4_Node000001_Node000005" class="edge">
<title>Node1&#45;&gt;Node5</title>
<g id="a_edge4_Node000001_Node000005"><a xlink:title=" ">
<path fill="none" stroke="#63b8ff" d="M135.22,-56.34C149.84,-48.08 171.01,-36.13 187.85,-26.63"/>
<polygon fill="#63b8ff" stroke="#63b8ff" points="189.38,-29.79 196.37,-21.82 185.94,-23.69 189.38,-29.79"/>
</a>
</g>
</g>
</g>
</svg>
